<svg width="139" height="120" viewBox="0 0 139 120" fill="none" xmlns="http://www.w3.org/2000/svg">
<path d="M124.941 78.3905L121.45 76.3612C121.45 76.3612 120.595 68.8832 121.163 63.0929C121.964 54.952 127.22 45.1673 133.487 47.4604C139.755 49.7536 130.609 58.0636 128.58 64.9632C126.551 71.8629 124.941 78.3905 124.941 78.3905Z" fill="#2F6F91"/>
<path opacity="0.1" d="M124.941 78.3905L121.45 76.3612C121.45 76.3612 120.595 68.8832 121.163 63.0929C121.964 54.952 127.22 45.1673 133.487 47.4604C139.755 49.7536 130.609 58.0636 128.58 64.9632C126.551 71.8629 124.941 78.3905 124.941 78.3905Z" fill="black"/>
<path d="M123.124 77.4737C123.092 77.4741 123.06 77.4626 123.035 77.4415C123.01 77.4204 122.994 77.391 122.989 77.3587C121.802 68.2268 125.052 54.4241 131.614 49.1885C131.627 49.1776 131.643 49.1694 131.659 49.1645C131.676 49.1596 131.694 49.1581 131.711 49.16C131.728 49.1618 131.745 49.1671 131.76 49.1755C131.775 49.1839 131.789 49.1952 131.8 49.2088C131.822 49.2367 131.832 49.2722 131.829 49.3077C131.825 49.3432 131.807 49.3757 131.779 49.3982C125.289 54.5797 122.079 68.2742 123.256 77.3215C123.261 77.3569 123.252 77.3928 123.23 77.4213C123.209 77.4498 123.177 77.4687 123.141 77.4737H123.124Z" fill="white"/>
<path d="M126.804 79.8347L124.322 78.3973C124.322 78.3973 123.899 73.2665 126.415 67.0331C128.604 61.6216 134.039 57.103 136.771 58.05C139.504 58.9971 139.437 60.935 138.104 62.9677C136.771 65.0004 128.664 69.8471 126.804 79.8347Z" fill="#2F6F91"/>
<path d="M125.265 79.9663C125.248 79.9655 125.23 79.9611 125.214 79.9534C125.199 79.9458 125.184 79.935 125.173 79.9218C125.161 79.9085 125.152 79.8931 125.147 79.8763C125.141 79.8596 125.139 79.8419 125.14 79.8243C125.959 67.0532 132.419 60.7724 136.301 59.8153C136.336 59.807 136.373 59.8126 136.404 59.8309C136.435 59.8492 136.458 59.8787 136.467 59.9134C136.475 59.9479 136.47 59.9842 136.451 60.0146C136.433 60.045 136.403 60.0669 136.369 60.0757C132.28 61.0904 126.179 67.8885 125.414 79.8412C125.413 79.8593 125.408 79.8769 125.4 79.8931C125.392 79.9093 125.38 79.9236 125.366 79.9353C125.352 79.947 125.336 79.9557 125.319 79.9611C125.302 79.9664 125.283 79.9682 125.265 79.9663Z" fill="white"/>
<path d="M24.4086 79.3846C24.4086 79.3846 24.8719 71.8863 20.5157 66.7454C16.1594 61.6045 10.4875 61.6248 8.61039 62.5819C6.73327 63.5391 5.47172 66.2753 8.70171 68.2335C11.9317 70.1918 18.8009 74.1118 19.9441 77.6089L24.4086 79.3846Z" fill="#2F6F91"/>
<path opacity="0.1" d="M24.4086 79.3846C24.4086 79.3846 24.8719 71.8863 20.5157 66.7454C16.1594 61.6045 10.4875 61.6248 8.61039 62.5819C6.73327 63.5391 5.47172 66.2753 8.70171 68.2335C11.9317 70.1918 18.8009 74.1118 19.9441 77.6089L24.4086 79.3846Z" fill="black"/>
<path d="M22.359 77.5076C22.3172 77.5071 22.2769 77.4913 22.2458 77.4633C22.2147 77.4353 22.1948 77.397 22.1899 77.3554C21.2936 69.0589 13.0005 64.4625 9.69611 63.9417C9.6739 63.9383 9.65257 63.9307 9.63333 63.9191C9.61409 63.9075 9.59731 63.8923 9.58396 63.8742C9.57061 63.8562 9.56095 63.8356 9.55553 63.8138C9.55011 63.7921 9.54904 63.7694 9.55237 63.7472C9.5557 63.725 9.56337 63.7037 9.57495 63.6844C9.58652 63.6652 9.60178 63.6484 9.61984 63.635C9.6379 63.6217 9.65841 63.612 9.6802 63.6066C9.70199 63.6012 9.72464 63.6001 9.74684 63.6035C13.129 64.1345 21.6082 68.8357 22.5281 77.3182C22.5305 77.3404 22.5284 77.3629 22.522 77.3843C22.5156 77.4057 22.505 77.4257 22.4908 77.443C22.4767 77.4603 22.4592 77.4746 22.4395 77.4851C22.4198 77.4956 22.3982 77.5021 22.3759 77.5042L22.359 77.5076Z" fill="white"/>
<path d="M20.7457 75.6032C19.6533 73.1139 18.4188 71.9978 14.8675 72.593C11.3162 73.1883 11.8235 73.097 7.47741 71.9842C5.64426 71.5175 3.58451 71.4431 1.82578 72.2345C0.340999 72.911 -0.768357 74.2638 0.669072 75.7047C2.28576 77.3146 4.69725 77.8659 6.48305 79.283C6.88816 79.5695 7.21023 79.958 7.41653 80.4093C7.88665 81.6066 6.94641 82.9561 7.22036 84.2109C7.49432 85.4656 8.81337 86.1353 10.0513 86.2165C11.2891 86.2977 12.5101 85.9256 13.7446 85.7836C14.9791 85.6415 16.3658 85.7836 17.2181 86.7001C18.1313 87.6708 18.155 89.2232 19.0039 90.2548C20.2756 91.8005 23.4007 92.23 25.0918 91.2695L29.5191 88.7159C32.4447 84.7723 27.828 81.6472 25.4097 78.5863C24.2361 77.0947 21.4019 77.1015 20.7457 75.6032Z" fill="#2F6F91"/>
<path d="M26.7761 86.3349C26.7473 86.3355 26.7189 86.3283 26.6939 86.314C26.6688 86.2997 26.6482 86.2789 26.6341 86.2537C21.5845 78.0722 7.8359 73.9325 2.97232 73.5942C2.92805 73.5908 2.88691 73.57 2.8578 73.5365C2.82869 73.5029 2.81394 73.4593 2.81674 73.415C2.82021 73.3704 2.84083 73.3289 2.87427 73.2993C2.90771 73.2696 2.95135 73.2541 2.996 73.256C7.92384 73.5942 21.8043 77.7949 26.9216 86.0846C26.9442 86.1234 26.9509 86.1694 26.9402 86.213C26.9294 86.2566 26.9021 86.2942 26.8641 86.318C26.8364 86.3302 26.8063 86.336 26.7761 86.3349Z" fill="white"/>
<path d="M10.7818 82.4793C10.7555 82.4798 10.7294 82.474 10.7058 82.4622C10.6823 82.4504 10.6619 82.4331 10.6466 82.4117C10.6196 82.3758 10.6081 82.3307 10.6144 82.2863C10.6208 82.2419 10.6445 82.2018 10.6804 82.1749C10.8563 82.043 15.0502 78.9652 19.1358 78.9043C19.1579 78.9039 19.1798 78.9078 19.2003 78.916C19.2208 78.9241 19.2395 78.9362 19.2552 78.9517C19.271 78.9671 19.2835 78.9855 19.292 79.0058C19.3006 79.0262 19.305 79.048 19.3049 79.0701C19.3054 79.0923 19.3015 79.1143 19.2934 79.135C19.2853 79.1557 19.2732 79.1746 19.2578 79.1906C19.2424 79.2067 19.224 79.2195 19.2037 79.2284C19.1833 79.2373 19.1614 79.2421 19.1392 79.2425C15.1719 79.3 10.934 82.415 10.8901 82.4455C10.8595 82.47 10.8209 82.482 10.7818 82.4793Z" fill="white"/>
<path d="M26.4617 89.2097C26.4978 89.7016 26.6492 90.178 26.9036 90.6004C27.158 91.0229 27.5083 91.3796 27.9262 91.6415L68.9622 115.334C69.416 115.564 69.9178 115.684 70.4267 115.684C70.9356 115.684 71.4373 115.564 71.8912 115.334L128.035 82.9155C128.478 82.6819 128.848 82.332 129.107 81.9035C129.365 81.475 129.502 80.9841 129.502 80.4837C129.502 79.9833 129.365 79.4924 129.107 79.0639C128.848 78.6354 128.478 78.2855 128.035 78.0519L87.0028 54.3766C86.5489 54.1464 86.0472 54.0264 85.5383 54.0264C85.0294 54.0264 84.5276 54.1464 84.0738 54.3766L27.9262 86.7847C27.5092 87.046 27.1595 87.4016 26.9051 87.8228C26.6507 88.244 26.4988 88.7191 26.4617 89.2097Z" fill="#37474F"/>
<path d="M43.3929 77.8491L27.9261 86.7849C27.4836 87.0184 27.1132 87.3683 26.8548 87.7968C26.5964 88.2254 26.4599 88.7163 26.4599 89.2166C26.4599 89.717 26.5964 90.2079 26.8548 90.6365C27.1132 91.065 27.4836 91.4149 27.9261 91.6484L68.9622 115.341C69.4135 115.576 69.9176 115.693 70.4267 115.679V77.8491H43.3929Z" fill="#263238"/>
<path d="M25.0851 86.8323C24.6775 86.5544 24.3408 86.1847 24.1023 85.7529C23.8638 85.3211 23.7301 84.8393 23.7119 84.3464V35.3757C23.7391 34.8675 23.886 34.3728 24.1405 33.932C24.3949 33.4913 24.7499 33.1168 25.1764 32.8391L81.3206 0.420833C81.7444 0.155009 82.2327 0.00968194 82.7328 0.000467212C83.233 -0.00874751 83.7263 0.118497 84.1596 0.368531C84.5929 0.618564 84.9498 0.981937 85.1922 1.4196C85.4345 1.85727 85.5529 2.35268 85.5349 2.85262V51.8266C85.5071 52.3348 85.36 52.8292 85.1056 53.2699C84.8512 53.7106 84.4965 54.0852 84.0704 54.3633L27.9261 86.7849C27.4895 87.0152 27.0048 87.1394 26.5112 87.1477C26.0177 87.1559 25.5291 87.0478 25.0851 86.8323Z" fill="#455A64"/>
<path d="M30.5845 37.6516L24.1414 33.9312C23.8848 34.3701 23.744 34.867 23.7322 35.3753V84.346C23.7503 84.8389 23.8841 85.3207 24.1226 85.7525C24.3611 86.1843 24.6977 86.5541 25.1053 86.8319C25.5495 87.0459 26.0377 87.1525 26.5306 87.1431C27.0235 87.1337 27.5073 87.0085 27.943 86.7778L34.3489 83.081L30.5845 37.6516Z" fill="#263238"/>
<path d="M26.4617 36.9652V85.9325C26.4617 86.866 27.1178 87.2448 27.9262 86.778L84.0704 54.3632C84.4966 54.0851 84.8512 53.7105 85.1056 53.2698C85.3601 52.8291 85.5071 52.3347 85.5349 51.8266V2.85592C85.5349 1.92244 84.8787 1.54363 84.0704 2.01038L27.9262 34.4286C27.4996 34.7063 27.1447 35.0808 26.8902 35.5216C26.6357 35.9624 26.4889 36.457 26.4617 36.9652Z" fill="#37474F"/>
<path d="M27.9261 88.4757L68.9622 112.151C69.416 112.381 69.9177 112.501 70.4266 112.501C70.9355 112.501 71.4373 112.381 71.8911 112.151L128.035 79.7327C128.847 79.266 128.847 78.5084 128.035 78.0417L87.0027 54.3664C86.5489 54.1361 86.0471 54.0161 85.5382 54.0161C85.0293 54.0161 84.5276 54.1361 84.0737 54.3664L27.9261 86.7846C27.1144 87.2446 27.1144 88.0022 27.9261 88.4757Z" fill="#455A64"/>
<path d="M28.7141 37.1445L83.2857 5.63948C83.7693 5.35876 84.1651 5.58537 84.1651 6.14681V48.5357C84.148 48.8406 84.0595 49.1371 83.9068 49.4015C83.754 49.6659 83.5413 49.8907 83.2857 50.0577L28.7141 81.5627C28.2271 81.8435 27.8348 81.6169 27.8348 81.0554V38.6665C27.851 38.3615 27.9392 38.0646 28.092 37.8001C28.2448 37.5356 28.458 37.311 28.7141 37.1445Z" fill="white"/>
<path d="M32.6882 87.2007L84.8043 57.0992C85.0313 56.9842 85.2821 56.9243 85.5366 56.9243C85.791 56.9243 86.0418 56.9842 86.2688 57.0992L88.9373 58.6381C89.0257 58.6681 89.1024 58.725 89.1568 58.8008C89.2111 58.8767 89.2403 58.9676 89.2403 59.0609C89.2403 59.1542 89.2111 59.2451 89.1568 59.321C89.1024 59.3968 89.0257 59.4537 88.9373 59.4837L36.8111 89.5817C36.5842 89.6967 36.3333 89.7567 36.0789 89.7567C35.8245 89.7567 35.5736 89.6967 35.3466 89.5817L32.6882 88.0462C32.5999 88.0163 32.5232 87.9593 32.4688 87.8835C32.4145 87.8077 32.3853 87.7167 32.3853 87.6235C32.3853 87.5302 32.4145 87.4392 32.4688 87.3634C32.5232 87.2876 32.5999 87.2307 32.6882 87.2007Z" fill="#263238"/>
<path d="M39.5608 91.1817L91.6735 61.0802C91.901 60.9652 92.1524 60.9053 92.4074 60.9053C92.6624 60.9053 92.9138 60.9652 93.1413 61.0802L109.535 70.5504C109.623 70.5803 109.7 70.6372 109.754 70.713C109.809 70.7889 109.838 70.8798 109.838 70.9731C109.838 71.0664 109.809 71.1574 109.754 71.2332C109.7 71.309 109.623 71.3659 109.535 71.3959L57.4796 101.436C57.252 101.551 57.0006 101.611 56.7457 101.611C56.4907 101.611 56.2393 101.551 56.0117 101.436L39.5608 92.0103C39.4767 91.9784 39.4043 91.9217 39.3532 91.8477C39.3021 91.7737 39.2747 91.6859 39.2747 91.596C39.2747 91.5061 39.3021 91.4183 39.3532 91.3442C39.4043 91.2702 39.4767 91.2135 39.5608 91.1817Z" fill="#263238"/>
<path d="M86.2755 74.6089L87.9091 73.6652C87.9768 73.6247 87.9734 73.5604 87.9091 73.5164L86.0219 72.4274C85.9816 72.4066 85.937 72.3958 85.8917 72.3958C85.8464 72.3958 85.8017 72.4066 85.7614 72.4274L84.1312 73.371C84.0602 73.4116 84.0636 73.4758 84.1312 73.5198L86.0185 74.6089C86.0583 74.6291 86.1024 74.6396 86.147 74.6396C86.1917 74.6396 86.2357 74.6291 86.2755 74.6089ZM83.0557 70.8885L81.4255 71.8321C81.3545 71.8693 81.3578 71.9369 81.4255 71.9809L83.3127 73.07C83.353 73.0907 83.3977 73.1016 83.443 73.1016C83.4883 73.1016 83.5329 73.0907 83.5732 73.07L85.2068 72.1263C85.2744 72.0858 85.271 72.0181 85.2068 71.9775L83.3161 70.8885C83.2759 70.8677 83.2312 70.8569 83.1859 70.8569C83.1406 70.8569 83.096 70.8677 83.0557 70.8885ZM77.7863 73.9324L75.023 75.5254C74.9554 75.566 74.9588 75.6337 75.023 75.6776L76.9103 76.7667C76.9505 76.7875 76.9952 76.7983 77.0405 76.7983C77.0858 76.7983 77.1304 76.7875 77.1707 76.7667L79.9306 75.1737C80.0016 75.1331 79.9948 75.0655 79.9306 75.0249L78.0433 73.9324C78.0036 73.9117 77.9595 73.9009 77.9148 73.9009C77.87 73.9009 77.8259 73.9117 77.7863 73.9324ZM80.6713 72.265L79.041 73.2086C78.97 73.2492 78.9734 73.3169 79.041 73.3575L80.9283 74.4465C80.9686 74.4673 81.0132 74.4781 81.0585 74.4781C81.1038 74.4781 81.1485 74.4673 81.1887 74.4465L82.8223 73.5029C82.89 73.4623 82.8866 73.3981 82.8223 73.3541L80.9317 72.2413C80.8914 72.2206 80.8468 72.2097 80.8015 72.2097C80.7562 72.2097 80.7115 72.2206 80.6713 72.2413V72.265ZM74.2688 75.9617L72.6386 76.902C72.5676 76.9426 72.5743 77.0102 72.6386 77.0542L74.5258 78.1433C74.5657 78.1632 74.6097 78.1736 74.6544 78.1736C74.699 78.1736 74.743 78.1632 74.7829 78.1433L76.4165 77.1996C76.4841 77.159 76.4807 77.0914 76.4165 77.0508L74.5292 75.9617C74.4889 75.941 74.4443 75.9302 74.399 75.9302C74.3537 75.9302 74.3091 75.941 74.2688 75.9617ZM71.9013 77.3383L70.271 78.2819C70.2 78.3191 70.2068 78.3868 70.271 78.4307L72.1583 79.5198C72.1986 79.5406 72.2432 79.5514 72.2885 79.5514C72.3338 79.5514 72.3785 79.5406 72.4187 79.5198L74.0523 78.5762C74.12 78.5356 74.1166 78.4679 74.0523 78.4274L72.1448 77.3146C72.1045 77.2939 72.0599 77.283 72.0146 77.283C71.9693 77.283 71.9246 77.2939 71.8843 77.3146L71.9013 77.3383ZM79.3251 81.769L80.9554 80.8253C81.0264 80.7847 81.0196 80.7205 80.9554 80.6765L79.0681 79.5874C79.0284 79.5667 78.9843 79.5559 78.9396 79.5559C78.8948 79.5559 78.8507 79.5667 78.8111 79.5874L77.1775 80.5311C77.1098 80.5717 77.1132 80.6359 77.1775 80.6799L79.0647 81.769C79.104 81.7844 79.1463 81.7909 79.1884 81.788C79.2305 81.7851 79.2715 81.7728 79.3082 81.752L79.3251 81.769ZM76.9373 83.1455L78.5709 82.2019C78.6386 82.1647 78.6352 82.097 78.5709 82.0531L76.6837 80.964C76.6434 80.9432 76.5988 80.9324 76.5534 80.9324C76.5081 80.9324 76.4635 80.9432 76.4232 80.964L74.793 81.9076C74.722 81.9482 74.7288 82.0159 74.793 82.0564L76.6803 83.1455C76.719 83.1609 76.7607 83.1674 76.8023 83.1645C76.8439 83.1615 76.8842 83.1493 76.9204 83.1286L76.9373 83.1455ZM74.5529 84.5221L76.1865 83.5818C76.2541 83.5412 76.2507 83.4736 76.1865 83.4296L74.2992 82.3405C74.2587 82.3206 74.2142 82.3102 74.169 82.3102C74.1239 82.3102 74.0793 82.3206 74.0388 82.3405L72.4086 83.2842C72.3376 83.3248 72.3443 83.3924 72.4086 83.433L74.2925 84.5221C74.3318 84.5375 74.374 84.544 74.4161 84.5411C74.4583 84.5382 74.4992 84.5259 74.536 84.5051L74.5529 84.5221ZM72.1854 85.8986L73.819 84.9584C73.8866 84.9178 73.8832 84.8501 73.819 84.8062L71.9317 83.7171C71.8914 83.6963 71.8468 83.6855 71.8015 83.6855C71.7562 83.6855 71.7115 83.6963 71.6713 83.7171L70.0411 84.6573C69.97 84.6979 69.9734 84.7656 70.0411 84.8095L71.9283 85.8986C72.002 85.9226 72.0823 85.9165 72.1515 85.8817L72.1854 85.8986ZM83.9249 76.0091L85.5585 75.0655C85.6262 75.0283 85.6228 74.9606 85.5585 74.9167L83.6713 73.8276C83.6308 73.8076 83.5862 73.7972 83.541 73.7972C83.4959 73.7972 83.4513 73.8076 83.4108 73.8276L81.7806 74.7712C81.7096 74.8118 81.713 74.8794 81.7806 74.92L83.6679 76.0091C83.7043 76.0215 83.7429 76.0265 83.7812 76.0236C83.8196 76.0206 83.857 76.01 83.8911 75.9922L83.9249 76.0091ZM81.7265 80.4059L85.3657 78.3022C85.4334 78.265 85.43 78.1974 85.3657 78.1534L80.7829 75.5085C80.7426 75.4878 80.698 75.4769 80.6527 75.4769C80.6074 75.4769 80.5627 75.4878 80.5224 75.5085L78.642 76.5976C78.5709 76.6348 78.5777 76.7024 78.642 76.7464L81.0704 78.1466C81.1448 78.1906 81.1481 78.2582 81.0704 78.2988L79.5382 79.1308C79.4706 79.1681 79.474 79.2357 79.5382 79.2797L81.4323 80.3586C81.4712 80.382 81.5151 80.3958 81.5604 80.3987C81.6057 80.4017 81.6511 80.3937 81.6927 80.3755L81.7265 80.4059ZM69.5337 78.7148L67.9035 79.6585C67.8325 79.6991 67.8359 79.7633 67.9035 79.8073L69.7908 80.8963C69.831 80.9171 69.8757 80.9279 69.921 80.9279C69.9663 80.9279 70.0109 80.9171 70.0512 80.8963L71.6848 79.9527C71.7524 79.9121 71.7491 79.8479 71.6848 79.8039L69.7975 78.7148C69.7544 78.6847 69.7037 78.6672 69.6511 78.6642C69.5986 78.6612 69.5462 78.6729 69.4999 78.6979L69.5337 78.7148ZM67.1662 80.0914L65.4819 81.035C65.4142 81.0756 65.4176 81.1433 65.4819 81.1838L67.3691 82.2729C67.4094 82.2937 67.454 82.3045 67.4993 82.3045C67.5446 82.3045 67.5893 82.2937 67.6296 82.2729L69.2632 81.3293C69.3308 81.2921 69.3274 81.2244 69.2632 81.1805L67.3624 80.0812C67.3244 80.0616 67.2824 80.0508 67.2397 80.0496C67.1969 80.0485 67.1545 80.057 67.1155 80.0745L67.1662 80.0914ZM55.1865 95.5141C55.2268 95.5349 55.2714 95.5457 55.3167 95.5457C55.362 95.5457 55.4067 95.5349 55.4469 95.5141L57.0805 94.5705C57.1482 94.5333 57.1448 94.4657 57.0805 94.4217L55.1865 93.3394C55.1462 93.3186 55.1016 93.3078 55.0563 93.3078C55.011 93.3078 54.9663 93.3186 54.9261 93.3394L53.2959 94.283C53.2248 94.3236 53.2282 94.3913 53.2959 94.4318L55.1865 95.5141ZM48.0264 91.0903L46.3928 92.0339C46.3252 92.0745 46.3286 92.1387 46.3928 92.1827L48.2801 93.2718C48.3203 93.2925 48.365 93.3034 48.4103 93.3034C48.4556 93.3034 48.5002 93.2925 48.5405 93.2718L50.1741 92.3281C50.2417 92.2875 50.2384 92.2233 50.1741 92.1793L48.2869 91.0903C48.2479 91.0711 48.2051 91.0612 48.1617 91.0612C48.1183 91.0612 48.0755 91.0711 48.0366 91.0903H48.0264ZM51.8652 94.3202C51.9055 94.341 51.9501 94.3518 51.9954 94.3518C52.0407 94.3518 52.0854 94.341 52.1256 94.3202L53.7558 93.3766C53.8269 93.3394 53.8201 93.2718 53.7558 93.2278L51.872 92.1387C51.8317 92.118 51.7871 92.1071 51.7418 92.1071C51.6964 92.1071 51.6518 92.118 51.6115 92.1387L49.9779 93.0824C49.9103 93.1229 49.9137 93.1906 49.9779 93.2312L51.8652 94.3202ZM59.3973 96.3495L61.0309 95.4059C61.0986 95.3653 61.0952 95.3011 61.0309 95.2571L59.1437 94.168C59.1034 94.1473 59.0588 94.1364 59.0134 94.1364C58.9681 94.1364 58.9235 94.1473 58.8832 94.168L57.253 95.1117C57.182 95.1489 57.1888 95.2165 57.253 95.2605L59.1369 96.3495C59.1782 96.3726 59.2245 96.3849 59.2718 96.3855C59.319 96.3861 59.3656 96.3749 59.4075 96.3529L59.3973 96.3495ZM56.7525 97.7024C56.7927 97.7232 56.8374 97.734 56.8827 97.734C56.928 97.734 56.9726 97.7232 57.0129 97.7024L58.6465 96.7588C58.7141 96.7216 58.7107 96.6539 58.6465 96.61L56.7592 95.5209C56.719 95.5001 56.6743 95.4893 56.629 95.4893C56.5837 95.4893 56.5391 95.5001 56.4988 95.5209L54.8686 96.4645C54.7976 96.5051 54.8009 96.5728 54.8686 96.6134L56.7525 97.7024ZM50.4109 89.6934L48.7806 90.637C48.7096 90.6742 48.713 90.7419 48.7806 90.7859L50.6679 91.8749C50.7082 91.8957 50.7528 91.9065 50.7981 91.9065C50.8434 91.9065 50.8881 91.8957 50.9283 91.8749L52.5619 90.9313C52.6296 90.8907 52.6262 90.8231 52.5619 90.7825L50.6747 89.6934C50.6337 89.6768 50.5895 89.67 50.5454 89.6736C50.5014 89.6771 50.4588 89.6908 50.421 89.7137L50.4109 89.6934ZM62.3364 82.8107L60.7028 83.7509C60.6352 83.7915 60.6386 83.8591 60.7028 83.8997L62.5901 84.9922C62.6306 85.0122 62.6752 85.0226 62.7203 85.0226C62.7655 85.0226 62.81 85.0122 62.8505 84.9922L64.4807 84.0519C64.5518 84.0113 64.5484 83.9437 64.4807 83.8997L62.5935 82.8107C62.5535 82.7952 62.5105 82.789 62.4677 82.7925C62.4249 82.796 62.3835 82.8092 62.3466 82.831L62.3364 82.8107ZM52.819 88.3372L51.1888 89.2774C51.1177 89.318 51.1211 89.3856 51.1888 89.4296L53.076 90.5187C53.1165 90.5387 53.1611 90.549 53.2062 90.549C53.2514 90.549 53.296 90.5387 53.3364 90.5187L54.97 89.575C55.0377 89.5344 55.0343 89.4668 54.97 89.4262L53.0828 88.3338C53.0416 88.3138 52.9963 88.3036 52.9505 88.3042C52.9047 88.3048 52.8597 88.3161 52.819 88.3372ZM64.7446 81.451L63.0974 82.3879C63.0298 82.4285 63.0332 82.4961 63.0974 82.5367L64.9847 83.6258C65.025 83.6465 65.0696 83.6574 65.1149 83.6574C65.1602 83.6574 65.2049 83.6465 65.2451 83.6258L66.8753 82.6855C66.9464 82.6449 66.943 82.5773 66.8753 82.5333L64.9948 81.4578C64.9544 81.4362 64.9095 81.4243 64.8637 81.4232C64.8179 81.422 64.7725 81.4315 64.731 81.451H64.7446ZM59.9757 84.2075L58.3421 85.1478C58.2744 85.1883 58.2778 85.256 58.3421 85.2999L60.2293 86.389C60.2698 86.409 60.3144 86.4194 60.3596 86.4194C60.4047 86.4194 60.4493 86.409 60.4898 86.389L62.12 85.4488C62.191 85.4082 62.1842 85.3405 62.12 85.2966L60.2361 84.2075C60.1939 84.1853 60.1469 84.1737 60.0991 84.1737C60.0514 84.1737 60.0044 84.1853 59.9621 84.2075H59.9757ZM57.5879 85.5841L55.9576 86.5243C55.8866 86.5649 55.8934 86.6325 55.9576 86.6765L57.8449 87.7656C57.8854 87.7855 57.93 87.7959 57.9751 87.7959C58.0203 87.7959 58.0648 87.7855 58.1053 87.7656L59.7355 86.8253C59.8032 86.7847 59.7998 86.7171 59.7355 86.6731L57.8483 85.5841C57.806 85.5618 57.759 85.5502 57.7113 85.5502C57.6636 85.5502 57.6166 85.5618 57.5743 85.5841H57.5879ZM55.1865 86.9606L53.5563 87.9008C53.4853 87.9414 53.492 88.0091 53.5563 88.0531L55.4402 89.1421C55.4804 89.1629 55.5251 89.1737 55.5704 89.1737C55.6157 89.1737 55.6603 89.1629 55.7006 89.1421L57.3342 88.2019C57.4018 88.1613 57.3985 88.0936 57.3342 88.0497L55.4469 86.9606C55.4064 86.9406 55.3619 86.9302 55.3167 86.9302C55.2716 86.9302 55.227 86.9406 55.1865 86.9606ZM67.3793 88.6517L69.0095 87.7114C69.0805 87.6709 69.0771 87.6032 69.0095 87.5593L67.1188 86.4465C67.0784 86.4265 67.0338 86.4161 66.9886 86.4161C66.9435 86.4161 66.8989 86.4265 66.8584 86.4465L65.2248 87.3868C65.1572 87.4273 65.1606 87.495 65.2248 87.539L67.1121 88.628C67.1531 88.6516 67.1993 88.6645 67.2465 88.6657C67.2938 88.6669 67.3406 88.6563 67.3827 88.6348L67.3793 88.6517ZM88.3319 67.8445L86.6983 68.7881C86.6307 68.8287 86.6341 68.893 86.6983 68.937L88.5856 70.026C88.6258 70.0468 88.6705 70.0576 88.7158 70.0576C88.7611 70.0576 88.8057 70.0468 88.846 70.026L90.4762 69.0824C90.5472 69.0418 90.5439 68.9775 90.4762 68.9336L88.589 67.8445C88.5491 67.8243 88.5051 67.8138 88.4604 67.8138C88.4158 67.8138 88.3717 67.8243 88.3319 67.8445ZM85.4435 69.5119L83.8133 70.4556C83.7423 70.4928 83.7491 70.5604 83.8133 70.6044L85.6972 71.6934C85.7377 71.7134 85.7822 71.7238 85.8274 71.7238C85.8726 71.7238 85.9171 71.7134 85.9576 71.6934L87.5912 70.7498C87.6589 70.7092 87.6555 70.6416 87.5912 70.601L85.704 69.5119C85.6646 69.4879 85.6201 69.4739 85.5741 69.4709C85.5282 69.468 85.4822 69.4762 85.4401 69.495L85.4435 69.5119ZM90.7163 66.468L89.0861 67.4116C89.0151 67.4488 89.0185 67.5164 89.0861 67.5604L90.9734 68.6495C91.0137 68.6702 91.0583 68.6811 91.1036 68.6811C91.1489 68.6811 91.1936 68.6702 91.2338 68.6495L92.8674 67.7058C92.9351 67.6652 92.9317 67.5976 92.8674 67.557L90.9802 66.468C90.9389 66.441 90.8913 66.4253 90.842 66.4223C90.7928 66.4194 90.7437 66.4293 90.6994 66.451L90.7163 66.468ZM78.3714 79.1985L80.005 78.2549C80.0726 78.2143 80.0692 78.1466 80.005 78.106L78.1177 77.017C78.0774 76.9962 78.0328 76.9854 77.9875 76.9854C77.9422 76.9854 77.8975 76.9962 77.8573 77.017L76.2271 77.9606C76.156 77.9978 76.1594 78.0655 76.2271 78.1094L78.1143 79.1985C78.155 79.2156 78.1991 79.2229 78.2432 79.22C78.2872 79.2171 78.3299 79.2039 78.368 79.1816L78.3714 79.1985ZM93.3612 65.0982C93.3209 65.0774 93.2763 65.0666 93.231 65.0666C93.1857 65.0666 93.1411 65.0774 93.1008 65.0982L91.4706 66.0418C91.3995 66.079 91.4029 66.1466 91.4706 66.1906L93.3578 67.2797C93.3983 67.2997 93.4429 67.3101 93.488 67.3101C93.5332 67.3101 93.5778 67.2997 93.6183 67.2797L95.2519 66.3361C95.3195 66.2955 95.3161 66.2278 95.2519 66.1872L93.3612 65.0982ZM69.7671 87.2582L71.4007 86.318C71.4683 86.2774 71.465 86.2098 71.4007 86.1658L69.5033 85.0936C69.463 85.0729 69.4184 85.062 69.3731 85.062C69.3278 85.062 69.2831 85.0729 69.2429 85.0936L67.6126 86.0339C67.5416 86.0745 67.545 86.1421 67.6126 86.1861L69.4999 87.2752C69.5426 87.2937 69.5891 87.3018 69.6355 87.2988C69.682 87.2959 69.7271 87.282 69.7671 87.2582ZM99.0128 70.3744L100.646 69.4307C100.714 69.3935 100.711 69.3259 100.646 69.2819L98.749 68.1827C98.7088 68.162 98.6641 68.1511 98.6188 68.1511C98.5735 68.1511 98.5289 68.162 98.4886 68.1827L96.8584 69.1264C96.7874 69.1669 96.7907 69.2346 96.8584 69.2752L98.7457 70.3642C98.7859 70.3877 98.8314 70.4009 98.878 70.4027C98.9246 70.4045 98.9709 70.3947 99.0128 70.3744ZM93.9396 70.1951L95.5732 69.2515C95.6408 69.2109 95.6374 69.1466 95.5732 69.1027L93.6859 68.0136C93.6456 67.9928 93.601 67.982 93.5557 67.982C93.5104 67.982 93.4657 67.9928 93.4255 68.0136L91.7953 68.9572C91.7242 68.9978 91.7276 69.0621 91.7953 69.1061L93.6825 70.1951C93.7202 70.2169 93.7623 70.2298 93.8057 70.2327C93.8491 70.2356 93.8926 70.2286 93.9328 70.212L93.9396 70.1951ZM96.0602 66.6371C96.0199 66.6163 95.9753 66.6055 95.93 66.6055C95.8847 66.6055 95.84 66.6163 95.7998 66.6371L94.1696 67.5807C94.0985 67.6179 94.1019 67.6855 94.1696 67.7295L96.0568 68.8186C96.0971 68.8393 96.1417 68.8502 96.187 68.8502C96.2323 68.8502 96.277 68.8393 96.3172 68.8186L97.9508 67.8749C98.0185 67.8344 98.0151 67.7667 97.9508 67.7261L96.0602 66.6371ZM96.5641 66.3462L101.144 68.9911C101.184 69.0118 101.229 69.0227 101.274 69.0227C101.319 69.0227 101.364 69.0118 101.404 68.9911L103.038 68.0474C103.105 68.0069 103.102 67.9426 103.038 67.8986L98.4548 65.2537C98.4145 65.233 98.3699 65.2222 98.3246 65.2222C98.2793 65.2222 98.2346 65.233 98.1944 65.2537L96.5641 66.1974C96.4762 66.2346 96.483 66.3022 96.5574 66.3462H96.5641ZM91.0309 69.3902L89.3973 70.3338C89.3297 70.3744 89.333 70.442 89.3973 70.4826L91.2846 71.5717C91.3248 71.5924 91.3695 71.6033 91.4148 71.6033C91.4601 71.6033 91.5047 71.5924 91.545 71.5717L93.1752 70.628C93.2462 70.5908 93.2428 70.5232 93.1752 70.4792L91.2879 69.3902C91.2495 69.37 91.207 69.3589 91.1636 69.3577C91.1202 69.3566 91.0771 69.3653 91.0377 69.3834L91.0309 69.3902ZM73.0816 79.7532L71.4413 80.6968C71.3736 80.7374 71.377 80.805 71.4413 80.8456L73.3285 81.9347C73.3688 81.9554 73.4134 81.9663 73.4588 81.9663C73.5041 81.9663 73.5487 81.9554 73.589 81.9347L75.2192 80.9911C75.2902 80.9538 75.2868 80.8862 75.2192 80.8422L73.3319 79.7532C73.2926 79.7319 73.2489 79.7202 73.2042 79.719C73.1595 79.7179 73.1152 79.7272 73.0749 79.7464L73.0816 79.7532ZM96.3747 71.7509C96.415 71.7717 96.4597 71.7825 96.505 71.7825C96.5503 71.7825 96.5949 71.7717 96.6352 71.7509L98.2688 70.8073C98.3364 70.7701 98.333 70.7025 98.2688 70.6585L96.3815 69.5694C96.341 69.5494 96.2965 69.539 96.2513 69.539C96.2061 69.539 96.1616 69.5494 96.1211 69.5694L94.4909 70.5131C94.4198 70.5536 94.4232 70.6213 94.4909 70.6619L96.3747 71.7509ZM75.4661 78.3766L73.8359 79.3202C73.7648 79.3608 73.7682 79.4251 73.8359 79.4691L75.7231 80.5581C75.7634 80.5789 75.808 80.5897 75.8533 80.5897C75.8986 80.5897 75.9433 80.5789 75.9836 80.5581L77.6171 79.6145C77.6848 79.5739 77.6814 79.5096 77.6171 79.4657L75.7299 78.3766C75.6889 78.3531 75.6427 78.3401 75.5955 78.339C75.5482 78.3378 75.5014 78.3484 75.4593 78.3699L75.4661 78.3766ZM57.5879 94.1444C57.6281 94.1651 57.6728 94.176 57.7181 94.176C57.7634 94.176 57.808 94.1651 57.8483 94.1444L59.4819 93.2007C59.5495 93.1601 59.5461 93.0959 59.4819 93.0519L57.5946 91.9629C57.5544 91.9421 57.5097 91.9313 57.4644 91.9313C57.4191 91.9313 57.3745 91.9421 57.3342 91.9629L55.704 92.9065C55.633 92.9471 55.6397 93.0113 55.704 93.0553L57.5879 94.1444ZM54.0027 90.7622L52.3691 91.7058C52.3015 91.7464 52.3049 91.8107 52.3691 91.8546L54.2564 92.9437C54.2967 92.9644 54.3413 92.9753 54.3866 92.9753C54.4319 92.9753 54.4766 92.9644 54.5168 92.9437L56.147 92.0001C56.2181 91.9595 56.2147 91.8952 56.147 91.8512L54.2598 90.7622C54.2191 90.7409 54.1738 90.7297 54.1279 90.7297C54.0819 90.7297 54.0367 90.7409 53.996 90.7622H54.0027ZM60.2361 92.7678L61.8663 91.8242C61.934 91.7836 61.9306 91.716 61.8663 91.6754L59.9791 90.5863C59.9388 90.5655 59.8941 90.5547 59.8488 90.5547C59.8035 90.5547 59.7589 90.5655 59.7186 90.5863L58.0715 91.5198C58.0039 91.557 58.0072 91.6246 58.0715 91.6686L59.9588 92.7577C59.9995 92.7817 60.0455 92.7953 60.0928 92.797C60.14 92.7988 60.187 92.7888 60.2293 92.7678H60.2361ZM62.6205 91.3913L64.2508 90.4476C64.3218 90.407 64.315 90.3394 64.2508 90.2988L62.3669 89.2098C62.3266 89.189 62.282 89.1782 62.2367 89.1782C62.1914 89.1782 62.1467 89.189 62.1065 89.2098L60.4729 90.15C60.4052 90.1906 60.4086 90.2582 60.4729 90.3022L62.3601 91.3913C62.4015 91.4123 62.4473 91.4233 62.4937 91.4233C62.5401 91.4233 62.5859 91.4123 62.6273 91.3913H62.6205ZM64.9881 90.0113L66.6183 89.0711C66.6893 89.0305 66.6859 88.9629 66.6183 88.9223L64.731 87.8298C64.6905 87.8098 64.646 87.7994 64.6008 87.7994C64.5557 87.7994 64.5111 87.8098 64.4706 87.8298L62.837 88.7701C62.7694 88.8107 62.7727 88.8783 62.837 88.9223L64.7243 90.0113C64.7658 90.0338 64.8123 90.0456 64.8596 90.0456C64.9068 90.0456 64.9533 90.0338 64.9948 90.0113H64.9881ZM56.3703 89.3856L54.7367 90.3293C54.669 90.3665 54.6724 90.4341 54.7367 90.4781L56.6239 91.5671C56.6642 91.5879 56.7088 91.5987 56.7541 91.5987C56.7994 91.5987 56.8441 91.5879 56.8844 91.5671L58.518 90.6235C58.5856 90.5829 58.5822 90.5153 58.518 90.4747L56.6307 89.3856C56.5917 89.3665 56.5489 89.3566 56.5056 89.3566C56.4622 89.3566 56.4194 89.3665 56.3804 89.3856H56.3703ZM58.7547 88.0091L57.1245 88.9493C57.0535 88.9899 57.0569 89.0576 57.1245 89.1015L59.0118 90.1906C59.0523 90.2106 59.0968 90.221 59.142 90.221C59.1871 90.221 59.2317 90.2106 59.2722 90.1906L60.9362 89.2537C61.0039 89.2131 61.0005 89.1455 60.9362 89.1049L59.049 88.0159C59.0064 87.9899 58.9577 87.9756 58.9078 87.9744C58.8579 87.9732 58.8086 87.9852 58.7649 88.0091H58.7547ZM68.2958 82.5029L66.6859 83.4431C66.6183 83.4837 66.6217 83.5514 66.6859 83.5953L68.5732 84.6844C68.6137 84.7044 68.6582 84.7148 68.7034 84.7148C68.7486 84.7148 68.7931 84.7044 68.8336 84.6844L70.4638 83.7442C70.5349 83.7036 70.5281 83.6359 70.4638 83.5919L68.58 82.5029C68.538 82.4798 68.4909 82.4677 68.443 82.4677C68.3951 82.4677 68.348 82.4798 68.306 82.5029H68.2958ZM65.908 83.8794L64.2778 84.8197C64.2102 84.8603 64.2136 84.9279 64.2778 84.9719L66.1651 86.0609C66.2056 86.0809 66.2501 86.0913 66.2953 86.0913C66.3404 86.0913 66.385 86.0809 66.4255 86.0609L68.0557 85.1207C68.1267 85.0801 68.12 85.0125 68.0557 84.9685L66.1685 83.8794C66.1293 83.861 66.0866 83.8515 66.0433 83.8515C66.0001 83.8515 65.9573 83.861 65.9182 83.8794H65.908ZM70.6803 81.123L69.0535 82.0666C68.9858 82.1072 68.9892 82.1748 69.0535 82.2154L70.9407 83.3078C70.9812 83.3278 71.0258 83.3382 71.0709 83.3382C71.1161 83.3382 71.1606 83.3278 71.2011 83.3078L72.8314 82.3642C72.9024 82.327 72.899 82.2594 72.8314 82.2154L70.9441 81.1263C70.9047 81.1069 70.8615 81.0965 70.8176 81.0959C70.7738 81.0953 70.7303 81.1046 70.6904 81.123H70.6803ZM61.1392 86.6325L59.5089 87.5728C59.4379 87.6134 59.4413 87.681 59.5089 87.725L61.3962 88.814C61.4367 88.834 61.4812 88.8444 61.5264 88.8444C61.5716 88.8444 61.6161 88.834 61.6566 88.814L63.2902 87.8704C63.3579 87.8298 63.3545 87.7622 63.2902 87.7216L61.403 86.6292C61.3631 86.6108 61.3196 86.6015 61.2757 86.6021C61.2318 86.6027 61.1886 86.6131 61.1493 86.6325H61.1392ZM63.5236 85.256L61.8934 86.1962C61.8223 86.2368 61.8291 86.3045 61.8934 86.3484L63.7806 87.4375C63.8203 87.4582 63.8644 87.4691 63.9092 87.4691C63.9539 87.4691 63.998 87.4582 64.0377 87.4375L65.6713 86.4972C65.7389 86.4567 65.7355 86.389 65.6713 86.3451L63.784 85.256C63.7449 85.2376 63.7021 85.228 63.6589 85.228C63.6156 85.228 63.5729 85.2376 63.5337 85.256H63.5236ZM61.7851 94.9764L63.4154 94.0327C63.483 93.9922 63.4796 93.9245 63.4154 93.8839L61.5281 92.7949C61.4878 92.7741 61.4432 92.7633 61.3979 92.7633C61.3526 92.7633 61.3079 92.7741 61.2677 92.7949L59.6375 93.7385C59.5664 93.7757 59.5732 93.8433 59.6375 93.8873L61.5247 94.9764C61.5663 94.9989 61.6128 95.0107 61.66 95.0107C61.7072 95.0107 61.7537 94.9989 61.7953 94.9764H61.7851ZM47.7998 93.5491L45.9126 92.46C45.8723 92.4393 45.8276 92.4284 45.7823 92.4284C45.737 92.4284 45.6924 92.4393 45.6521 92.46L44.0253 93.4104C43.9577 93.451 43.961 93.5153 44.0253 93.5592L45.9126 94.6483C45.9528 94.6691 45.9975 94.6799 46.0428 94.6799C46.0881 94.6799 46.1327 94.6691 46.173 94.6483L47.8032 93.7047C47.8776 93.6742 47.8742 93.6066 47.7998 93.5491ZM51.3714 94.5976L49.4841 93.5085C49.4442 93.4886 49.4002 93.4782 49.3556 93.4782C49.311 93.4782 49.267 93.4886 49.2271 93.5085L46.731 94.9662C46.6634 95.0068 46.6668 95.0745 46.731 95.1151L48.6183 96.2041C48.6586 96.2249 48.7032 96.2357 48.7485 96.2357C48.7938 96.2357 48.8385 96.2249 48.8787 96.2041L51.3883 94.7565C51.4661 94.7227 51.4458 94.6551 51.3714 94.6111V94.5976ZM44.9047 91.442L43.0106 90.3665C42.9704 90.3457 42.9257 90.3349 42.8804 90.3349C42.8351 90.3349 42.7905 90.3457 42.7502 90.3665L40.748 91.5198C40.6803 91.5604 40.6837 91.628 40.748 91.672L42.6352 92.7611C42.6755 92.7818 42.7201 92.7927 42.7654 92.7927C42.8107 92.7927 42.8554 92.7818 42.8956 92.7611L44.9013 91.6043C44.9825 91.5671 44.9791 91.4995 44.9047 91.4555V91.442ZM46.4436 90.5525C46.4838 90.5733 46.5285 90.5841 46.5738 90.5841C46.6191 90.5841 46.6637 90.5733 46.704 90.5525L48.3342 89.6089C48.4052 89.5717 48.4018 89.504 48.3342 89.46L46.4469 88.371C46.4067 88.3502 46.362 88.3394 46.3167 88.3394C46.2714 88.3394 46.2268 88.3502 46.1865 88.371L44.5529 89.3146C44.4853 89.3552 44.4887 89.4228 44.5529 89.4634L46.4436 90.5525ZM54.6961 95.7915L52.819 94.716C52.7785 94.696 52.7339 94.6856 52.6888 94.6856C52.6436 94.6856 52.599 94.696 52.5585 94.716L49.4199 96.5288C49.3522 96.5694 49.3556 96.637 49.4199 96.6776L51.3071 97.7701C51.3476 97.7901 51.3922 97.8004 51.4374 97.8004C51.4825 97.8004 51.5271 97.7901 51.5676 97.7701L54.7062 95.9572C54.7739 95.9166 54.7705 95.849 54.6961 95.805V95.7915ZM56.262 98.0001L54.3748 96.9313C54.3345 96.9105 54.2899 96.8997 54.2446 96.8997C54.1993 96.8997 54.1546 96.9105 54.1144 96.9313L52.1053 98.0914C52.0377 98.132 52.0411 98.1996 52.1053 98.2436L53.9926 99.3326C54.0331 99.3526 54.0776 99.363 54.1228 99.363C54.168 99.363 54.2125 99.3526 54.253 99.3326L56.262 98.1726C56.3398 98.1252 56.3364 98.0576 56.262 98.0136V98.0001ZM64.1763 80.3146C64.2166 80.3354 64.2613 80.3462 64.3066 80.3462C64.3519 80.3462 64.3965 80.3354 64.4368 80.3146L66.067 79.3744C66.138 79.3338 66.1313 79.2661 66.067 79.2222L64.1797 78.1331C64.1392 78.1131 64.0947 78.1027 64.0495 78.1027C64.0044 78.1027 63.9598 78.1131 63.9193 78.1331L62.2891 79.0903C62.2214 79.1308 62.2248 79.1985 62.2891 79.2391L64.1763 80.3146ZM59.4041 83.0711C59.4446 83.0911 59.4891 83.1015 59.5343 83.1015C59.5795 83.1015 59.624 83.0911 59.6645 83.0711L61.2981 82.1308C61.3658 82.0903 61.3624 82.0226 61.2981 81.9787L59.4109 80.8896C59.3704 80.8696 59.3258 80.8592 59.2806 80.8592C59.2355 80.8592 59.1909 80.8696 59.1504 80.8896L57.5202 81.8298C57.4492 81.8704 57.4559 81.9381 57.5202 81.982L59.4041 83.0711ZM48.828 89.1895C48.8683 89.2102 48.9129 89.2211 48.9582 89.2211C49.0035 89.2211 49.0482 89.2102 49.0884 89.1895L50.7186 88.2458C50.7897 88.2053 50.7863 88.141 50.7186 88.097L48.8314 87.008C48.7911 86.9872 48.7465 86.9764 48.7012 86.9764C48.6559 86.9764 48.6112 86.9872 48.571 87.008L46.9374 87.9516C46.8697 87.9922 46.8731 88.0564 46.9374 88.1004L48.828 89.1895ZM61.7919 81.7115C61.8318 81.7314 61.8758 81.7418 61.9204 81.7418C61.965 81.7418 62.009 81.7314 62.049 81.7115L63.6825 80.7712C63.7502 80.7306 63.7468 80.663 63.6825 80.619L61.7953 79.5299C61.755 79.5092 61.7104 79.4984 61.6651 79.4984C61.6198 79.4984 61.5751 79.5092 61.5349 79.5299L59.9046 80.4702C59.8336 80.5108 59.8404 80.5784 59.9046 80.6224L61.7919 81.7115ZM57.0196 84.4646C57.0599 84.4853 57.1046 84.4962 57.1499 84.4962C57.1952 84.4962 57.2398 84.4853 57.2801 84.4646L58.9137 83.5243C58.9813 83.4837 58.9779 83.4161 58.9137 83.3721L57.0264 82.283C56.9859 82.2631 56.9414 82.2527 56.8962 82.2527C56.851 82.2527 56.8065 82.2631 56.766 82.283L55.1358 83.2233C55.0647 83.2639 55.0681 83.3315 55.1358 83.3755L57.0196 84.4646ZM57.5709 98.1928C57.5304 98.1729 57.4859 98.1625 57.4407 98.1625C57.3956 98.1625 57.351 98.1729 57.3105 98.1928L54.8009 99.637C54.7333 99.6776 54.7367 99.7453 54.8009 99.7892L56.6882 100.878C56.7285 100.899 56.7731 100.91 56.8184 100.91C56.8637 100.91 56.9084 100.899 56.9486 100.878L59.4582 99.4307C59.5292 99.3901 59.5225 99.3225 59.4582 99.2785L57.5709 98.1928ZM53.5969 86.4465C53.6374 86.4665 53.6819 86.4769 53.7271 86.4769C53.7723 86.4769 53.8168 86.4665 53.8573 86.4465L55.4909 85.5029C55.5585 85.4623 55.5552 85.3947 55.4909 85.3541L53.6036 84.265C53.5634 84.2442 53.5187 84.2334 53.4734 84.2334C53.4281 84.2334 53.3835 84.2442 53.3432 84.265L51.713 85.2086C51.642 85.2458 51.6454 85.3135 51.713 85.3575L53.5969 86.4465ZM51.2124 87.7994C51.2527 87.8202 51.2973 87.831 51.3427 87.831C51.388 87.831 51.4326 87.8202 51.4729 87.7994L53.1065 86.8558C53.1741 86.8152 53.1707 86.7475 53.1065 86.7069L51.2192 85.6179C51.1789 85.5971 51.1343 85.5863 51.089 85.5863C51.0437 85.5863 50.999 85.5971 50.9588 85.6179L49.3286 86.5615C49.2575 86.5987 49.2609 86.6664 49.3286 86.7103L51.2124 87.7994ZM101.756 72.681C101.716 72.6603 101.671 72.6494 101.626 72.6494C101.58 72.6494 101.536 72.6603 101.495 72.681L97.4638 74.9944C97.3962 75.035 97.3995 75.1027 97.4638 75.1466L99.3511 76.2357C99.3916 76.2557 99.4361 76.2661 99.4813 76.2661C99.5264 76.2661 99.571 76.2557 99.6115 76.2357L103.65 73.9324C103.721 73.8918 103.717 73.8242 103.65 73.7802L101.756 72.681ZM96.483 75.725C96.4427 75.7042 96.3981 75.6934 96.3528 75.6934C96.3075 75.6934 96.2628 75.7042 96.2225 75.725L94.5923 76.6652C94.5213 76.7058 94.5247 76.7735 94.5923 76.8174L96.4796 77.9065C96.5201 77.9265 96.5646 77.9369 96.6098 77.9369C96.655 77.9369 96.6995 77.9265 96.74 77.9065L98.3736 76.9663C98.4413 76.9257 98.4379 76.858 98.3736 76.8141L96.483 75.725ZM64.1797 93.5998L65.8099 92.6562C65.881 92.6156 65.8742 92.548 65.8099 92.5074L63.9261 91.4149C63.8856 91.395 63.841 91.3846 63.7959 91.3846C63.7507 91.3846 63.7061 91.395 63.6656 91.4149L62.032 92.3552C61.9644 92.3958 61.9678 92.4634 62.032 92.5074L63.9193 93.5965C63.9595 93.617 64.004 93.6279 64.0491 93.6285C64.0943 93.6291 64.139 93.6193 64.1797 93.5998ZM91.7141 78.4781C91.6736 78.4581 91.629 78.4477 91.5839 78.4477C91.5387 78.4477 91.4942 78.4581 91.4537 78.4781L89.8201 79.4183C89.7524 79.4589 89.7558 79.5266 89.8201 79.5705L91.7073 80.6596C91.7476 80.6804 91.7922 80.6912 91.8375 80.6912C91.8828 80.6912 91.9275 80.6804 91.9678 80.6596L93.598 79.7193C93.669 79.6788 93.6656 79.6111 93.598 79.5672L91.7141 78.4781ZM104.14 71.3045C104.1 71.2845 104.055 71.2741 104.01 71.2741C103.965 71.2741 103.92 71.2845 103.88 71.3045L102.25 72.2413C102.179 72.2819 102.182 72.3496 102.25 72.3902L104.137 73.4826C104.177 73.5026 104.222 73.513 104.267 73.513C104.312 73.513 104.357 73.5026 104.397 73.4826L106.031 72.5424C106.099 72.5018 106.095 72.4341 106.031 72.3902L104.14 71.3045ZM108.412 71.017L103.829 68.3721C103.789 68.3514 103.744 68.3405 103.699 68.3405C103.654 68.3405 103.609 68.3514 103.569 68.3721L101.938 69.3158C101.867 69.3563 101.871 69.424 101.938 69.4646L106.521 72.1094C106.562 72.1302 106.606 72.141 106.652 72.141C106.697 72.141 106.741 72.1302 106.782 72.1094L108.415 71.1658C108.49 71.1286 108.486 71.061 108.412 71.017ZM82.802 83.6258C82.7618 83.605 82.7171 83.5942 82.6718 83.5942C82.6265 83.5942 82.5819 83.605 82.5416 83.6258L80.5326 84.7859C80.4649 84.8264 80.4683 84.8941 80.5326 84.9347L82.4198 86.0237C82.4601 86.0445 82.5048 86.0553 82.5501 86.0553C82.5954 86.0553 82.64 86.0445 82.6803 86.0237L84.6893 84.8637C84.7569 84.8231 84.7536 84.7554 84.6893 84.7148L82.802 83.6258ZM88.8257 80.1455C88.7854 80.1247 88.7408 80.1139 88.6955 80.1139C88.6502 80.1139 88.6055 80.1247 88.5653 80.1455L86.0557 81.5931C85.9881 81.6337 85.9914 81.7013 86.0557 81.7419L87.943 82.8343C87.9835 82.8543 88.028 82.8647 88.0732 82.8647C88.1183 82.8647 88.1629 82.8543 88.2034 82.8343L90.713 81.3868C90.7806 81.3462 90.7772 81.2785 90.713 81.2346L88.8257 80.1455ZM77.2789 86.8118C77.2384 86.7918 77.1939 86.7814 77.1487 86.7814C77.1036 86.7814 77.059 86.7918 77.0185 86.8118L63.5878 94.5638C63.5202 94.6043 63.5236 94.672 63.5878 94.716L65.4751 95.805C65.5156 95.825 65.5602 95.8354 65.6053 95.8354C65.6505 95.8354 65.695 95.825 65.7355 95.805L79.1662 88.0497C79.2338 88.0091 79.2304 87.9414 79.1662 87.8975L77.2789 86.8118ZM63.0941 95.0034C63.0538 94.9827 63.0091 94.9718 62.9638 94.9718C62.9185 94.9718 62.8739 94.9827 62.8336 95.0034L60.828 96.1635C60.757 96.2041 60.7603 96.2718 60.828 96.3123L62.7152 97.4014C62.7555 97.4222 62.8002 97.433 62.8455 97.433C62.8908 97.433 62.9354 97.4222 62.9757 97.4014L64.9948 96.2548C65.0625 96.2143 65.0591 96.1466 64.9948 96.106L63.0941 95.0034ZM80.0388 85.2188C79.9983 85.1988 79.9537 85.1884 79.9086 85.1884C79.8634 85.1884 79.8189 85.1988 79.7784 85.2188L77.7727 86.3789C77.7017 86.4195 77.7051 86.4871 77.7727 86.5311L79.66 87.6201C79.7005 87.6401 79.745 87.6505 79.7902 87.6505C79.8354 87.6505 79.8799 87.6401 79.9204 87.6201L81.9294 86.46C82.0005 86.4228 81.9937 86.3552 81.9294 86.3112L80.0388 85.2188ZM60.3342 96.5931C60.2937 96.5731 60.2491 96.5627 60.204 96.5627C60.1588 96.5627 60.1143 96.5731 60.0738 96.5931L58.0647 97.7532C57.9971 97.7937 58.0005 97.8614 58.0647 97.9054L59.952 98.9944C59.9925 99.0144 60.0371 99.0248 60.0822 99.0248C60.1274 99.0248 60.1719 99.0144 60.2124 98.9944L62.2181 97.8377C62.2891 97.7971 62.2857 97.7295 62.2181 97.6855L60.3342 96.5931ZM85.5619 82.026C85.5214 82.006 85.4768 81.9956 85.4317 81.9956C85.3865 81.9956 85.342 82.006 85.3015 82.026L83.2958 83.1827C83.2248 83.2233 83.2282 83.2909 83.2958 83.3349L85.1831 84.424C85.2236 84.4439 85.2682 84.4544 85.3133 84.4544C85.3585 84.4544 85.403 84.4439 85.4435 84.424L87.4525 83.2639C87.5236 83.2233 87.5168 83.1557 87.4525 83.1117L85.5619 82.026ZM94.0985 77.0982C94.0583 77.0774 94.0136 77.0666 93.9683 77.0666C93.923 77.0666 93.8784 77.0774 93.8381 77.0982L92.2079 78.0384C92.1369 78.079 92.1402 78.1466 92.2079 78.1906L94.0952 79.2797C94.1357 79.2997 94.1802 79.31 94.2254 79.31C94.2705 79.31 94.3151 79.2997 94.3556 79.2797L95.9892 78.3394C96.0568 78.2988 96.0534 78.2312 95.9892 78.1872L94.0985 77.0982ZM99.324 73.3034L100.954 72.3631C101.025 72.3225 101.022 72.2549 100.954 72.2109L99.067 71.1218C99.0265 71.1019 98.9819 71.0915 98.9368 71.0915C98.8916 71.0915 98.847 71.1019 98.8065 71.1218L97.1729 72.0655C97.1053 72.1061 97.1087 72.1737 97.1729 72.2143L99.0602 73.3067C99.1011 73.3273 99.1463 73.338 99.1921 73.338C99.2379 73.338 99.2831 73.3273 99.324 73.3067V73.3034ZM88.6701 73.256L90.3037 72.3124C90.3714 72.2718 90.368 72.2041 90.3037 72.1635L88.4165 71.0745C88.3762 71.0537 88.3315 71.0429 88.2862 71.0429C88.2409 71.0429 88.1963 71.0537 88.156 71.0745L86.5258 72.0181C86.4548 72.0587 86.4616 72.123 86.5258 72.1669L88.4097 73.256C88.45 73.2768 88.4946 73.2876 88.5399 73.2876C88.5852 73.2876 88.6299 73.2768 88.6701 73.256ZM83.2586 82.601L88.0275 79.8479C88.0952 79.8073 88.0918 79.7396 88.0275 79.6957L86.1402 78.6066C86.0998 78.5866 86.0552 78.5762 86.01 78.5762C85.9649 78.5762 85.9203 78.5866 85.8798 78.6066L81.1109 81.3631C81.0433 81.4003 81.0467 81.4679 81.1109 81.5119L82.9982 82.601C83.0398 82.6192 83.0852 82.6271 83.1305 82.6242C83.1758 82.6212 83.2197 82.6075 83.2586 82.5841V82.601ZM96.6791 74.6968C96.7196 74.7168 96.7642 74.7272 96.8094 74.7272C96.8545 74.7272 96.8991 74.7168 96.9396 74.6968L98.5698 73.7566C98.6408 73.716 98.6374 73.6483 98.5698 73.6044L96.6825 72.5153C96.6423 72.4945 96.5976 72.4837 96.5523 72.4837C96.507 72.4837 96.4624 72.4945 96.4221 72.5153L94.7885 73.4555C94.7209 73.4961 94.7242 73.5638 94.7885 73.6077L96.6791 74.6968ZM94.244 73.1444L95.8742 72.2041C95.9452 72.1636 95.9418 72.0959 95.8742 72.0519L93.9869 70.9629C93.9464 70.9429 93.9019 70.9325 93.8567 70.9325C93.8115 70.9325 93.767 70.9429 93.7265 70.9629L92.0929 71.9065C92.0253 71.9471 92.0286 72.0147 92.0929 72.0553L93.9802 73.1478C94.0227 73.1652 94.0687 73.1725 94.1145 73.1689C94.1603 73.1654 94.2046 73.1512 94.244 73.1275V73.1444ZM80.8742 83.9674L82.5044 83.0237C82.5754 82.9832 82.5687 82.9189 82.5044 82.8749L80.6171 81.7859C80.5769 81.7651 80.5322 81.7543 80.4869 81.7543C80.4416 81.7543 80.397 81.7651 80.3567 81.7859L78.7164 82.7261C78.6453 82.7667 78.6521 82.831 78.7164 82.8749L80.6036 83.964C80.6475 83.989 80.6973 84.0019 80.7478 84.0013C80.7984 84.0008 80.8478 83.9867 80.8911 83.9606L80.8742 83.9674ZM91.4063 77.7306C91.4468 77.7506 91.4914 77.761 91.5365 77.761C91.5817 77.761 91.6262 77.7506 91.6667 77.7306L93.3003 76.7904C93.368 76.7498 93.3646 76.6821 93.3003 76.6382L91.4131 75.5491C91.3726 75.5291 91.328 75.5187 91.2829 75.5187C91.2377 75.5187 91.1931 75.5291 91.1526 75.5491L89.5224 76.4928C89.4514 76.5333 89.4548 76.601 89.5224 76.6416L91.4063 77.7306ZM68.9486 90.8434L70.5788 89.9031C70.6498 89.8625 70.6465 89.7949 70.5788 89.7509L68.6916 88.6618C68.6511 88.6419 68.6065 88.6315 68.5613 88.6315C68.5162 88.6315 68.4716 88.6419 68.4311 88.6618L66.7975 89.6021C66.7299 89.6427 66.7333 89.7103 66.7975 89.7543L68.6848 90.8434C68.7257 90.8639 68.7709 90.8746 68.8167 90.8746C68.8625 90.8746 68.9077 90.8639 68.9486 90.8434ZM71.3331 89.4668L72.9666 88.5266C73.0343 88.486 73.0309 88.4183 72.9666 88.3744L71.0828 87.2853C71.0425 87.2645 70.9979 87.2537 70.9526 87.2537C70.9073 87.2537 70.8626 87.2645 70.8223 87.2853L69.1887 88.2255C69.1211 88.2661 69.1245 88.3338 69.1887 88.3777L71.076 89.4668C71.1161 89.4862 71.16 89.4964 71.2045 89.4964C71.2491 89.4964 71.293 89.4862 71.3331 89.4668ZM66.5642 92.2199L68.1944 91.2797C68.2654 91.2391 68.262 91.1714 68.1944 91.1275L66.3105 90.0384C66.27 90.0184 66.2255 90.008 66.1803 90.008C66.1351 90.008 66.0906 90.0184 66.0501 90.0384L64.4165 90.9786C64.3488 91.0192 64.3522 91.0869 64.4165 91.1308L66.3037 92.2199C66.344 92.2407 66.3887 92.2515 66.434 92.2515C66.4793 92.2515 66.5239 92.2407 66.5642 92.2199ZM76.1019 86.7137L77.7355 85.7735C77.8032 85.7329 77.7998 85.6652 77.7355 85.6213L75.8483 84.5322C75.8078 84.5122 75.7632 84.5018 75.718 84.5018C75.6729 84.5018 75.6283 84.5122 75.5878 84.5322L73.9576 85.4758C73.8866 85.5164 73.89 85.5841 73.9576 85.6246L75.8449 86.7137C75.8847 86.7339 75.9287 86.7444 75.9734 86.7444C76.0181 86.7444 76.0621 86.7339 76.1019 86.7137ZM73.7344 88.0903L75.368 87.15C75.4356 87.1094 75.4323 87.0418 75.368 86.9978L73.4503 85.9087C73.41 85.888 73.3654 85.8772 73.3201 85.8772C73.2748 85.8772 73.2301 85.888 73.1899 85.9087L71.5597 86.849C71.4886 86.8896 71.492 86.9572 71.5597 86.9978L73.4469 88.0903C73.4887 88.1119 73.5351 88.1232 73.5822 88.1232C73.6293 88.1232 73.6757 88.1119 73.7175 88.0903H73.7344ZM78.5033 85.3372L80.1369 84.3935C80.2045 84.3563 80.2011 84.2887 80.1369 84.2447L78.2496 83.1556C78.2094 83.1349 78.1647 83.1241 78.1194 83.1241C78.0741 83.1241 78.0295 83.1349 77.9892 83.1556L76.3319 84.079C76.2609 84.1196 76.2677 84.1872 76.3319 84.2278L78.2158 85.3169C78.2556 85.3425 78.3012 85.3579 78.3485 85.3614C78.3958 85.3649 78.4432 85.3566 78.4864 85.3372H78.5033ZM89.4142 64.9663C89.4545 64.987 89.4991 64.9979 89.5444 64.9979C89.5897 64.9979 89.6344 64.987 89.6746 64.9663L91.3082 64.0226C91.3759 63.9854 91.3725 63.9178 91.3082 63.8738L90.8077 63.583C90.7672 63.563 90.7226 63.5526 90.6775 63.5526C90.6323 63.5526 90.5877 63.563 90.5472 63.583L88.9136 64.5232C88.846 64.5638 88.8494 64.6314 88.9136 64.6754L89.4142 64.9663ZM77.6814 72.5424C77.7217 72.5631 77.7663 72.574 77.8116 72.574C77.8569 72.574 77.9016 72.5631 77.9418 72.5424L79.5721 71.6021C79.6431 71.5615 79.6397 71.4939 79.5721 71.4499L77.6848 70.3608C77.6443 70.3409 77.5997 70.3305 77.5546 70.3305C77.5094 70.3305 77.4649 70.3409 77.4244 70.3608L75.7908 71.3011C75.7231 71.3417 75.7265 71.4093 75.7908 71.4533L77.6814 72.5424ZM82.4503 69.7893C82.4908 69.8092 82.5353 69.8196 82.5805 69.8196C82.6257 69.8196 82.6702 69.8092 82.7107 69.7893L84.3443 68.849C84.412 68.8084 84.4086 68.7408 84.3443 68.6968L82.4571 67.6077C82.4168 67.587 82.3721 67.5762 82.3268 67.5762C82.2815 67.5762 82.2369 67.587 82.1966 67.6077L80.5529 68.548C80.4819 68.5886 80.4852 68.6562 80.5529 68.7002L82.4503 69.7893ZM74.7693 74.2233C74.8098 74.2433 74.8544 74.2537 74.8996 74.2537C74.9447 74.2537 74.9893 74.2433 75.0298 74.2233L76.66 73.2797C76.731 73.2391 76.7276 73.1714 76.66 73.1309L74.7727 72.0384C74.7322 72.0184 74.6877 72.008 74.6425 72.008C74.5974 72.008 74.5528 72.0184 74.5123 72.0384L72.8787 72.9787C72.8111 73.0192 72.8144 73.0869 72.8787 73.1309L74.7693 74.2233ZM80.0658 71.1793C80.1063 71.1993 80.1509 71.2097 80.1961 71.2097C80.2412 71.2097 80.2858 71.1993 80.3263 71.1793L81.9599 70.2391C82.0275 70.1985 82.0241 70.1309 81.9599 70.0869L80.0726 68.9978C80.0321 68.9778 79.9876 68.9675 79.9424 68.9675C79.8972 68.9675 79.8527 68.9778 79.8122 68.9978L78.182 69.9381C78.1109 69.9787 78.1143 70.0463 78.182 70.0903L80.0658 71.1793ZM69.9836 76.9764C70.0238 76.9972 70.0685 77.008 70.1138 77.008C70.1591 77.008 70.2037 76.9972 70.244 76.9764L71.8742 76.0328C71.9452 75.9922 71.9385 75.9245 71.8742 75.884L69.9903 74.7949C69.9501 74.7741 69.9054 74.7633 69.8601 74.7633C69.8148 74.7633 69.7702 74.7741 69.7299 74.7949L68.0963 75.7385C68.0287 75.7757 68.032 75.8434 68.0963 75.8873L69.9836 76.9764ZM72.368 75.5998C72.4085 75.6198 72.4531 75.6302 72.4982 75.6302C72.5434 75.6302 72.5879 75.6198 72.6284 75.5998L74.2586 74.6562C74.3297 74.6156 74.3263 74.548 74.2586 74.5074L72.3748 73.4183C72.3345 73.3976 72.2899 73.3867 72.2445 73.3867C72.1992 73.3867 72.1546 73.3976 72.1143 73.4183L70.4807 74.362C70.4131 74.3992 70.4165 74.4668 70.4807 74.5108L72.368 75.5998ZM84.6284 67.7228C84.6689 67.7427 84.7135 67.7531 84.7586 67.7531C84.8038 67.7531 84.8484 67.7427 84.8888 67.7228L86.5224 66.7825C86.5901 66.7419 86.5867 66.6743 86.5224 66.6303L86.0185 66.3394C85.978 66.3194 85.9334 66.3091 85.8883 66.3091C85.8431 66.3091 85.7986 66.3194 85.7581 66.3394L84.1279 67.2797C84.0568 67.3203 84.0636 67.3879 84.1279 67.4319L84.6284 67.7228ZM91.7851 63.5897C91.8248 63.6105 91.8689 63.6213 91.9136 63.6213C91.9584 63.6213 92.0025 63.6105 92.0422 63.5897L93.6758 62.6461C93.7434 62.6055 93.74 62.5412 93.6758 62.4973L93.1752 62.2064C93.1349 62.1856 93.0903 62.1748 93.045 62.1748C92.9997 62.1748 92.955 62.1856 92.9148 62.2064L91.2812 63.1466C91.2135 63.1872 91.2169 63.2549 91.2812 63.2988L91.7851 63.5897ZM95.7457 65.8795C95.7862 65.8994 95.8307 65.9098 95.8759 65.9098C95.921 65.9098 95.9656 65.8994 96.0061 65.8795L97.6397 64.9358C97.7073 64.8952 97.7039 64.8276 97.6397 64.787L95.7524 63.6946C95.7119 63.6746 95.6674 63.6642 95.6222 63.6642C95.577 63.6642 95.5325 63.6746 95.492 63.6946L93.8618 64.6348C93.7908 64.6754 93.7975 64.743 93.8618 64.787L95.7457 65.8795ZM101.708 71.9302L103.342 70.9866C103.41 70.9494 103.406 70.8817 103.342 70.8377L101.455 69.7487C101.414 69.7287 101.37 69.7183 101.325 69.7183C101.279 69.7183 101.235 69.7287 101.194 69.7487L99.5641 70.6923C99.4931 70.7329 99.4965 70.8005 99.5641 70.8411L101.451 71.9302C101.491 71.9504 101.535 71.9609 101.58 71.9609C101.625 71.9609 101.669 71.9504 101.708 71.9302ZM87.0129 66.3462C87.0534 66.3662 87.0979 66.3766 87.1431 66.3766C87.1882 66.3766 87.2328 66.3662 87.2733 66.3462L88.9069 65.406C88.9745 65.3654 88.9711 65.2977 88.9069 65.2537L88.4029 64.9629C88.3624 64.9429 88.3179 64.9325 88.2727 64.9325C88.2276 64.9325 88.183 64.9429 88.1425 64.9629L86.5123 65.9031C86.4446 65.9437 86.448 66.0114 86.5123 66.0553L87.0129 66.3462ZM67.5991 78.353C67.6394 78.3737 67.684 78.3845 67.7293 78.3845C67.7746 78.3845 67.8193 78.3737 67.8595 78.353L69.4898 77.4093C69.5574 77.3687 69.554 77.3045 69.4898 77.2605L67.6025 76.1714C67.5622 76.1507 67.5176 76.1398 67.4723 76.1398C67.427 76.1398 67.3823 76.1507 67.3421 76.1714L65.7119 77.1151C65.6442 77.1557 65.6476 77.2199 65.7119 77.2639L67.5991 78.353Z" fill="#455A64"/>
<path d="M77.2958 93.177L95.1538 82.8647L106.146 89.2097L88.2845 99.522L77.2958 93.177Z" fill="#263238"/>
<path d="M37.5991 41.2134L90.8212 10.4863C91.8595 9.88424 92.7118 10.378 92.7118 11.5787V52.7974C92.6948 53.1022 92.6063 53.3988 92.4535 53.6632C92.3008 53.9276 92.088 54.1523 91.8324 54.3194L37.2609 85.8278C36.7772 86.1051 36.3815 85.8785 36.3815 85.3205V43.3205C36.4058 42.8986 36.5286 42.4882 36.7401 42.1223C36.9515 41.7564 37.2457 41.4451 37.5991 41.2134Z" fill="#F5F5F5"/>
<path d="M92.7287 12.5663V11.5787C92.7287 10.378 91.8764 9.8876 90.8381 10.4862L37.5991 41.2134C37.2457 41.4451 36.9515 41.7564 36.7401 42.1223C36.5286 42.4882 36.4058 42.8986 36.3815 43.3205V45.0894L92.7287 12.5663Z" fill="#2F6F91"/>
<path d="M84.7873 14.8154C84.5973 14.9391 84.4391 15.1059 84.3257 15.3022C84.2123 15.4984 84.1468 15.7187 84.1345 15.9451C84.1345 16.3611 84.4254 16.5302 84.7873 16.3205C84.9766 16.1972 85.1341 16.0309 85.2469 15.8352C85.3598 15.6395 85.4248 15.4199 85.4367 15.1943C85.4367 14.7782 85.1458 14.6091 84.7873 14.8154Z" fill="white"/>
<path d="M87.3713 13.3235C87.1819 13.4475 87.0244 13.6144 86.9116 13.8107C86.7988 14.007 86.7338 14.2271 86.7219 14.4531C86.7219 14.8691 87.0128 15.0349 87.3713 14.8286C87.5613 14.7049 87.7195 14.5381 87.8329 14.3418C87.9463 14.1456 88.0118 13.9253 88.0241 13.6989C88.0241 13.2829 87.7332 13.1138 87.3713 13.3235Z" fill="white"/>
<path d="M89.9587 11.8291C89.7692 11.9534 89.6115 12.1203 89.4982 12.3164C89.3848 12.5126 89.319 12.7326 89.3059 12.9588C89.3059 13.3748 89.6002 13.5439 89.9587 13.3342C90.1484 13.2111 90.3064 13.0449 90.4198 12.8492C90.5333 12.6535 90.5989 12.4338 90.6114 12.2079C90.6114 11.7919 90.3172 11.6228 89.9587 11.8291Z" fill="white"/>
<path d="M49.5238 65.2698L47.4529 64.0742L42.3814 72.8585L44.4522 74.0541L49.5238 65.2698Z" fill="#37474F"/>
<path d="M49.5279 65.2669L48.4939 64.6699L43.4223 73.4542L44.4563 74.0511L49.5279 65.2669Z" fill="#263238"/>
<path d="M36.8212 90.0112C35.8775 91.6515 31.4097 89.0473 32.3499 87.4306L44.0015 69.2581C44.0329 69.2089 44.0821 69.1737 44.1388 69.1598C44.1955 69.1459 44.2554 69.1545 44.3059 69.1837L46.6464 70.5366C46.6968 70.5651 46.7342 70.6121 46.7506 70.6676C46.767 70.7231 46.7612 70.7829 46.7343 70.8342L36.8212 90.0112Z" fill="#2F6F91"/>
<path opacity="0.1" d="M36.8211 90.0116L46.7309 70.8346C46.7577 70.7832 46.7636 70.7235 46.7472 70.668C46.7307 70.6124 46.6934 70.5655 46.643 70.5369L45.5776 69.9214L34.2169 90.1164C35.2518 90.6271 36.395 90.7523 36.8211 90.0116Z" fill="black"/>
<path d="M71.0827 47.2301C71.0827 47.0914 71.0827 46.9561 71.0624 46.8209C71.0421 46.6856 71.0624 46.5537 71.0319 46.4218C71.0015 46.2899 71.0319 46.2459 71.0049 46.1579C70.9812 45.928 70.9474 45.7014 70.9102 45.4815C70.8933 45.3834 70.8764 45.282 70.8561 45.1839C70.8358 45.0858 70.8189 44.9979 70.7986 44.9065C70.7411 44.6563 70.6802 44.4127 70.6092 44.1794C70.572 44.0678 70.5381 43.9561 70.5009 43.8411C70.4938 43.8248 70.4881 43.8078 70.484 43.7904C70.4434 43.6822 70.4062 43.5773 70.3657 43.4759C70.3251 43.3744 70.271 43.2391 70.2168 43.1377C70.1627 43.0362 70.1424 42.9719 70.0985 42.8908C70.0739 42.8299 70.0445 42.771 70.0105 42.7149C69.9767 42.6439 69.9395 42.5728 69.8989 42.5052C69.8583 42.4375 69.882 42.4714 69.8719 42.4578C69.8617 42.4443 69.8008 42.3361 69.7636 42.2752C69.7264 42.2143 69.7129 42.1974 69.6892 42.1602C69.5159 41.8872 69.3214 41.6282 69.1075 41.3857L68.9992 41.2639L68.9079 41.1692C68.8707 41.1286 68.8301 41.0914 68.7896 41.0508C68.6833 40.9392 68.5704 40.8342 68.4513 40.7363C68.3938 40.6856 68.333 40.6382 68.2721 40.5942L68.0861 40.459C67.9894 40.3881 67.8889 40.3226 67.785 40.2628L67.7039 40.2121H67.687L62.8944 37.4454L62.8674 37.4285C61.9479 36.9157 60.9099 36.6533 59.8572 36.6675C58.2879 36.6675 56.5156 37.1816 54.6385 38.2639C48.1921 41.9843 42.9632 51.0418 42.9632 58.4894C42.9632 62.2098 44.262 64.8141 46.3623 66.0384H46.3826L51.1785 68.8017H51.1988L51.2563 68.8321C51.3462 68.8852 51.4388 68.9338 51.5336 68.9775C51.6486 69.035 51.767 69.0858 51.8719 69.1331C51.9767 69.1805 52.0849 69.2177 52.1932 69.2515L52.3657 69.3022C52.4261 69.3254 52.4883 69.3435 52.5517 69.3563C52.614 69.3753 52.6772 69.3911 52.7411 69.4037C52.7865 69.4171 52.8329 69.4272 52.8798 69.4341C52.9609 69.451 53.0489 69.4679 53.1334 69.4781C53.1525 69.4813 53.1719 69.4813 53.1909 69.4781C53.2924 69.4961 53.3939 69.5097 53.4953 69.5187C55.2338 69.7013 57.2563 69.2109 59.4209 67.9629C65.8707 64.2425 71.0996 55.1816 71.0996 47.7374C71.0827 47.5818 71.0827 47.406 71.0827 47.2301ZM63.2597 41.964C63.513 42.8895 63.6371 43.8456 63.6283 44.8051C63.6283 51.3733 58.8223 59.6867 53.1436 62.9809C52.3135 63.4744 51.4172 63.8468 50.4818 64.0869C50.2299 63.16 50.1059 62.203 50.1131 61.2425C50.1131 54.6743 54.9192 46.3609 60.5979 43.0666C61.4249 42.575 62.3178 42.2037 63.2495 41.964H63.2597Z" fill="#2F6F91"/>
<path opacity="0.1" d="M50.9823 68.7071L46.3251 66.0216C44.2247 64.7939 42.926 62.1828 42.926 58.476C42.926 55.1547 43.9677 51.5154 45.6892 48.1738L50.4851 50.9337C48.7602 54.2753 47.7219 57.9145 47.7219 61.2358C47.7219 64.8751 48.9598 67.4489 50.9823 68.7071Z" fill="black"/>
<path opacity="0.4" d="M71.0827 47.2301C71.0827 47.0914 71.0827 46.9561 71.0624 46.8208C71.0421 46.6855 71.0624 46.5536 71.032 46.4217C71.0015 46.2898 71.032 46.2459 71.0049 46.1579C70.9812 45.9279 70.9474 45.7013 70.9102 45.4815C70.8933 45.3834 70.8764 45.2819 70.8561 45.1839C70.8358 45.0858 70.8189 44.9978 70.7986 44.9065C70.7411 44.6562 70.6802 44.4127 70.6092 44.1794C70.572 44.0677 70.5382 43.9561 70.501 43.8411C70.4938 43.8248 70.4882 43.8078 70.4841 43.7904C70.4435 43.6822 70.4063 43.5773 70.3657 43.4759C70.3251 43.3744 70.271 43.2391 70.2169 43.1376C70.1628 43.0362 70.1425 42.9719 70.0985 42.8907C70.074 42.8298 70.0446 42.771 70.0106 42.7149C69.9767 42.6438 69.9395 42.5728 69.8989 42.5052C69.8584 42.4375 69.882 42.4714 69.8719 42.4578C69.8617 42.4443 69.8009 42.3361 69.7637 42.2752C69.7265 42.2143 69.7129 42.1974 69.6893 42.1602C69.5159 41.8872 69.3214 41.6282 69.1075 41.3857L68.9993 41.2639L68.908 41.1692C68.8708 41.1286 68.8302 41.0914 68.7896 41.0508C68.6834 40.9392 68.5704 40.8341 68.4514 40.7363C68.3939 40.6856 68.333 40.6382 68.2721 40.5942L68.0861 40.459C67.9894 40.3881 67.8889 40.3226 67.7851 40.2628C65.6645 38.9742 62.7118 39.1264 59.4277 41.017C52.9779 44.7374 47.749 53.7949 47.749 61.2425C47.749 65.0136 49.1019 67.6483 51.2496 68.8456C51.3395 68.8987 51.4321 68.9473 51.5269 68.9911C51.6419 69.0486 51.7603 69.0993 51.8651 69.1466C51.97 69.194 52.0782 69.2312 52.1865 69.265L52.3589 69.3157C52.4194 69.3389 52.4816 69.357 52.545 69.3699C52.6073 69.3888 52.6705 69.4046 52.7344 69.4172C52.7798 69.4306 52.8262 69.4407 52.873 69.4476C52.9542 69.4646 53.0421 69.4815 53.1267 69.4916C53.1457 69.4948 53.1652 69.4948 53.1842 69.4916C53.2857 69.5097 53.3871 69.5232 53.4886 69.5322C55.227 69.7148 57.2496 69.2244 59.4142 67.9764C65.864 64.256 71.0929 55.1951 71.0929 47.7509C71.0827 47.5818 71.0827 47.406 71.0827 47.2301ZM58.2304 65.9369C56.7828 66.7723 55.3894 67.212 54.1989 67.212C51.9632 67.212 50.935 65.6867 50.4784 64.0869C50.2266 63.16 50.1026 62.203 50.1098 61.2425C50.1098 54.6743 54.9159 46.3609 60.5946 43.0666C61.4247 42.5741 62.3211 42.2028 63.2563 41.964C63.6991 41.8543 64.1531 41.7964 64.6092 41.7915C68.3059 41.7915 68.7017 45.9651 68.7017 47.7611C68.7152 54.3158 63.9091 62.6528 58.2304 65.9369Z" fill="white"/>
<path opacity="0.1" d="M68.7151 47.7611C68.7151 54.3293 63.9124 62.6427 58.2304 65.9369C56.7828 66.7723 55.3893 67.212 54.1988 67.212C51.9632 67.212 50.935 65.6866 50.4784 64.0869C51.4138 63.8468 52.3101 63.4743 53.1402 62.9809C58.829 59.6968 63.6249 51.3732 63.6249 44.805C63.6337 43.8456 63.5096 42.8895 63.2563 41.964C63.699 41.8543 64.153 41.7964 64.6092 41.7915C68.316 41.8017 68.7151 45.9651 68.7151 47.7611Z" fill="black"/>
<path opacity="0.7" d="M66.6858 46.6145C66.6858 53.1827 61.8831 61.4961 56.2011 64.7904C54.7535 65.6258 53.36 66.0654 52.1695 66.0654C51.9327 66.066 51.6962 66.0468 51.4626 66.008C51.0056 65.4433 50.6725 64.7887 50.4852 64.0869C50.2333 63.16 50.1093 62.203 50.1165 61.2425C50.1165 54.6743 54.9226 46.3608 60.6013 43.0666C61.4315 42.5741 62.3278 42.2028 63.2631 41.964C63.7058 41.8543 64.1598 41.7964 64.6159 41.7915C64.8539 41.7909 65.0914 41.8102 65.3262 41.849C66.4964 43.2256 66.6858 45.4341 66.6858 46.6145Z" fill="white"/>
<path d="M74.8607 39.7722V47.2604C74.8607 47.8218 75.2564 48.0484 75.74 47.7677L124.816 19.4352C125.071 19.2681 125.284 19.0434 125.437 18.779C125.589 18.5146 125.678 18.218 125.695 17.9132V10.4149C125.695 9.85343 125.299 9.62683 124.816 9.90755L75.74 38.2401C75.4833 38.4083 75.2698 38.6348 75.117 38.901C74.9643 39.1672 74.8764 39.4657 74.8607 39.7722Z" fill="#E6E6E6"/>
<path d="M75.7401 38.2401L84.4796 33.1973V42.7147L75.7401 47.7576C75.2564 48.0383 74.8607 47.8117 74.8607 47.2502V39.7722C74.8765 39.4657 74.9643 39.1672 75.1171 38.901C75.2699 38.6348 75.4833 38.4083 75.7401 38.2401Z" fill="#2F6F91"/>
<path d="M81.5879 37.3507C81.0366 37.0328 80.3398 37.0835 79.6262 37.4961C78.948 37.9306 78.3838 38.5212 77.9807 39.2185C77.5776 39.9158 77.3474 40.6995 77.3094 41.504C77.2855 42.0254 77.45 42.538 77.7727 42.9482L76.8325 44.5581C76.7712 44.6733 76.7564 44.8076 76.791 44.9334C76.8256 45.0591 76.907 45.1669 77.0185 45.2346C77.096 45.2781 77.1833 45.3014 77.2722 45.3022C77.3613 45.3023 77.4488 45.2789 77.526 45.2343C77.6032 45.1898 77.6673 45.1257 77.7119 45.0486L78.642 43.4386C78.7424 43.4575 78.8442 43.4677 78.9464 43.4691C79.3616 43.4615 79.7675 43.3449 80.1234 43.1309C80.8003 42.6954 81.3634 42.1045 81.7658 41.4073C82.1682 40.7102 82.3983 39.927 82.4368 39.123C82.4469 38.3011 82.1425 37.672 81.5879 37.3507ZM79.6262 42.2549C79.5074 42.3827 79.3487 42.4664 79.1762 42.4924C79.0036 42.5184 78.8273 42.4851 78.6762 42.3979C78.525 42.3107 78.4079 42.1749 78.3439 42.0125C78.2799 41.8501 78.2729 41.6709 78.324 41.504C78.3635 40.8782 78.5474 40.2701 78.8613 39.7272C79.1753 39.1844 79.6107 38.7218 80.1335 38.3755C80.3364 38.2463 80.5697 38.1728 80.81 38.1624C80.909 38.1587 81.0073 38.1821 81.0941 38.2301C81.2213 38.3389 81.3191 38.4781 81.3782 38.6348C81.4373 38.7915 81.4559 38.9606 81.4323 39.1264C81.3932 39.7519 81.2098 40.3598 80.8965 40.9026C80.5831 41.4454 80.1483 41.9083 79.6262 42.2549Z" fill="white"/>
</svg>
