<svg width="205" height="140" viewBox="0 0 205 140" fill="none" xmlns="http://www.w3.org/2000/svg">
<path d="M78.706 134.86C77.7694 135.178 50.9126 135.262 49.8835 134.627C49.4815 134.386 49.2524 130.474 49.0795 125.739C49.0434 124.718 49.0152 123.661 48.9911 122.591L46.8485 108.265L64.8053 108.148L66.4976 122.479L66.4293 125.63C66.4293 125.63 76.7282 130.193 77.7814 131.021C78.8346 131.849 79.6426 134.542 78.706 134.86Z" fill="#F28F8F"/>
<path d="M78.7061 134.86C77.7695 135.177 50.9127 135.262 49.8837 134.627C49.4093 134.329 49.152 128.617 49.0073 122.591L66.4777 122.479L66.4093 125.63C66.4093 125.63 76.7083 130.193 77.7615 131.021C78.8147 131.849 79.6428 134.542 78.7061 134.86Z" fill="white"/>
<path d="M78.7059 134.86C77.7693 135.177 50.9125 135.261 49.8834 134.626C49.4815 134.385 49.2523 130.474 49.0795 125.738L66.393 125.63C66.393 125.63 76.6919 130.192 77.7452 131.021C78.7984 131.849 79.6425 134.542 78.7059 134.86Z" fill="#A6A6A6"/>
<path d="M78.3161 133.787C73.8138 133.69 55.644 133.734 51.1859 133.984C51.1498 133.984 51.1498 134.008 51.1859 134.012C55.648 134.201 73.8178 134.012 78.3161 133.859C78.4125 133.855 78.4125 133.787 78.3161 133.787Z" fill="#263238"/>
<path d="M76.0287 130.06C75.5281 130.049 75.0306 130.142 74.5677 130.333C74.1047 130.524 73.6865 130.809 73.3394 131.169C72.7069 131.814 72.3495 132.679 72.3425 133.581C72.3425 133.61 72.3908 133.61 72.3948 133.581C72.5443 132.692 72.9773 131.875 73.6294 131.252C74.2814 130.629 75.1174 130.233 76.0127 130.124C76.0212 130.126 76.0302 130.125 76.0378 130.121C76.0453 130.116 76.0507 130.109 76.0529 130.1C76.055 130.092 76.0537 130.083 76.0491 130.075C76.0446 130.068 76.0373 130.062 76.0287 130.06Z" fill="#263238"/>
<path d="M68.1538 126.072C66.3529 126.052 64.2666 126.695 63.1491 128.175C63.1089 128.231 63.1893 128.291 63.2415 128.263C64.8149 127.433 66.4725 126.772 68.186 126.293C68.2124 126.286 68.2354 126.269 68.2504 126.246C68.2655 126.223 68.2716 126.196 68.2676 126.169C68.2637 126.141 68.2499 126.117 68.229 126.099C68.208 126.081 68.1813 126.072 68.1538 126.072Z" fill="#263238"/>
<path d="M69.5528 126.607C67.7479 126.607 65.6615 127.234 64.548 128.709C64.5038 128.77 64.5842 128.83 64.6405 128.802C66.2116 127.968 67.868 127.307 69.5809 126.828C69.6071 126.821 69.6298 126.804 69.6448 126.782C69.6598 126.759 69.6662 126.732 69.6628 126.705C69.6594 126.678 69.6464 126.654 69.6262 126.636C69.6059 126.617 69.5799 126.607 69.5528 126.607Z" fill="#263238"/>
<path d="M70.9438 127.146C69.1429 127.146 67.0566 127.769 65.9391 129.248C65.8989 129.305 65.9793 129.365 66.0316 129.337C67.605 128.506 69.2625 127.846 70.976 127.367C71.0025 127.36 71.0254 127.343 71.0405 127.32C71.0555 127.297 71.0616 127.27 71.0577 127.242C71.0537 127.215 71.04 127.19 71.019 127.173C70.998 127.155 70.9713 127.145 70.9438 127.146Z" fill="#263238"/>
<path d="M72.3385 127.685C70.5336 127.664 68.4473 128.308 67.3338 129.787C67.2896 129.843 67.374 129.904 67.4263 129.875C68.9994 129.044 70.657 128.384 72.3707 127.906C72.3972 127.898 72.4201 127.882 72.4352 127.859C72.4502 127.836 72.4563 127.808 72.4524 127.781C72.4484 127.754 72.4347 127.729 72.4137 127.711C72.3927 127.693 72.366 127.684 72.3385 127.685Z" fill="#263238"/>
<path d="M52.3196 129.703C50.3097 129.703 50.3097 132.858 52.3196 132.846C54.3295 132.834 54.3456 129.691 52.3196 129.703Z" fill="#263238"/>
<path d="M70.0874 121.257C69.1749 120.501 68.0252 121.257 67.4665 122.033C66.5363 123.404 65.9819 124.995 65.8585 126.648C65.8585 126.684 65.8867 126.7 65.9148 126.7C65.9219 126.734 65.9371 126.766 65.9591 126.793C65.9811 126.819 66.0092 126.841 66.0411 126.854C66.0731 126.868 66.1078 126.874 66.1425 126.872C66.1772 126.869 66.2107 126.859 66.2404 126.84C67.5187 125.952 68.998 125.156 69.9668 123.898C70.5176 123.166 70.9678 121.96 70.0874 121.257ZM67.8926 125.092C67.2735 125.546 66.6344 125.968 66.0314 126.447C66.353 125.546 66.6303 124.638 67.0404 123.769C67.2298 123.353 67.4474 122.95 67.6916 122.563C68.0936 121.964 69.8462 120.453 70.0311 122.411C70.1357 123.484 68.6282 124.553 67.8926 125.092Z" fill="#263238"/>
<path d="M61.3723 127.331C62.9401 127.564 64.5601 127.113 66.0997 126.868C66.1331 126.86 66.164 126.843 66.19 126.82C66.2159 126.798 66.2361 126.769 66.249 126.737C66.2619 126.705 66.2671 126.67 66.2642 126.636C66.2613 126.601 66.2504 126.568 66.2323 126.539C66.2382 126.534 66.2429 126.528 66.2462 126.522C66.2494 126.515 66.2511 126.508 66.2511 126.5C66.2511 126.493 66.2494 126.486 66.2462 126.479C66.2429 126.473 66.2382 126.467 66.2323 126.462C64.9953 125.359 63.4897 124.601 61.8668 124.263C60.9181 124.083 59.5754 124.344 59.4548 125.522C59.3101 126.631 60.4558 127.186 61.3723 127.331ZM60.2789 126.31C59.073 124.766 61.3763 124.633 62.0678 124.794C62.5163 124.906 62.9569 125.049 63.3863 125.22C64.2655 125.585 65.1255 125.994 65.963 126.446C65.1992 126.523 64.4475 126.659 63.6878 126.764C62.7793 126.884 60.9543 127.158 60.2789 126.31Z" fill="#263238"/>
<path d="M20.4462 42.0454C20.4462 42.0454 41.2972 77.5168 41.856 80.0091C42.7122 83.836 47.2507 121.627 47.2507 121.627L68.958 121.225C68.958 121.225 65.2195 87.9041 61.678 76.9258C59.1294 69.0187 40.7264 42.7931 40.7264 42.7931L20.4462 42.0454Z" fill="#37474F"/>
<path d="M66.9842 117.912C63.8688 117.888 52.8262 117.763 48.6777 118.149C48.6455 118.149 48.6495 118.205 48.6777 118.209C50.1047 118.414 63.8647 118.097 66.9801 117.996C66.9866 117.999 66.9936 117.999 67.0005 117.999C67.0074 117.998 67.0139 117.995 67.0197 117.991C67.0255 117.988 67.0302 117.982 67.0336 117.976C67.0371 117.97 67.039 117.964 67.0393 117.957C67.0396 117.95 67.0384 117.943 67.0355 117.937C67.0327 117.93 67.0284 117.925 67.0231 117.92C67.0177 117.916 67.0114 117.913 67.0046 117.911C66.9979 117.91 66.9909 117.91 66.9842 117.912Z" fill="#263238"/>
<path d="M24.0036 45.3016C25.3703 47.4442 26.8175 49.5425 28.2084 51.6691C29.5992 53.7956 30.9981 55.9221 32.377 58.0446C35.1266 62.3324 37.8065 66.6484 40.4167 70.9926C41.6906 73.0062 42.7804 75.1306 43.6728 77.3399C44.4874 79.5498 45.0996 81.829 45.5018 84.1496C45.9279 86.4771 46.2093 88.8287 46.4706 91.1804C46.7386 93.6807 47.0187 96.1824 47.3108 98.6855C47.8816 103.807 48.4538 108.928 49.0273 114.049C49.0956 114.676 49.1639 115.304 49.2283 115.935C49.2283 116.027 49.0715 116.043 49.0594 115.935C48.4203 110.85 47.8896 105.744 47.3108 100.659C47.0213 98.1213 46.7333 95.5848 46.4465 93.0496C46.1772 90.6899 45.9199 88.3263 45.5541 85.9827C45.2184 83.6694 44.7078 81.3849 44.0265 79.1489C43.276 76.8336 42.2702 74.609 41.0277 72.5161C38.5153 68.1787 35.8541 63.9176 33.193 59.6525C30.5318 55.3874 27.7983 51.0862 24.9925 46.8734C24.6468 46.3548 24.297 45.8362 23.9352 45.3257C23.9071 45.2976 23.9794 45.2614 24.0036 45.3016Z" fill="#263238"/>
<path d="M27.2799 136.95C26.291 136.89 0.748787 126.542 0.0412901 125.562C0.00977883 125.504 -0.00419187 125.438 0.00109196 125.373C0.00109196 124.492 1.77386 121.421 3.25317 117.385C3.34563 117.128 4.00488 115.93 4.91739 114.318C7.45393 109.9 11.8758 102.291 11.8758 102.291L28.5703 108.923L20.5788 120.882L19.3367 123.777C19.3367 123.777 27.1714 131.877 27.8307 133.022C28.4899 134.168 28.2648 137.006 27.2799 136.95Z" fill="#F28F8F"/>
<path d="M27.2799 136.95C26.291 136.89 0.748787 126.543 0.04129 125.562C0.00977883 125.504 -0.00419187 125.439 0.00109196 125.373C0.00109196 124.493 1.77386 121.421 3.25317 117.386C3.34563 117.128 4.00488 115.93 4.91739 114.318L20.5949 120.883L19.3527 123.777C19.3527 123.777 27.1875 131.877 27.8467 133.023C28.506 134.168 28.2648 137.007 27.2799 136.95Z" fill="white"/>
<path d="M27.2799 136.95C26.291 136.89 0.748757 126.543 0.0412601 125.562C-0.232091 125.188 0.909552 121.703 3.25716 117.385L19.3366 123.781C19.3366 123.781 27.1714 131.873 27.8346 133.027C28.4979 134.18 28.2648 137.006 27.2799 136.95Z" fill="#A6A6A6"/>
<path d="M27.3199 135.809C23.1834 134.032 6.32408 127.255 2.09919 125.815C2.06301 125.815 2.05498 125.815 2.09919 125.84C6.16328 127.689 23.0749 134.33 27.3038 135.889C27.3842 135.909 27.4083 135.845 27.3199 135.809Z" fill="#263238"/>
<path d="M26.5965 131.495C26.1378 131.294 25.6423 131.189 25.1413 131.189C24.6403 131.189 24.1448 131.294 23.6861 131.495C22.8614 131.856 22.2077 132.521 21.8611 133.352C21.8611 133.376 21.8973 133.396 21.9093 133.372C22.3832 132.602 23.0942 132.005 23.9356 131.672C24.777 131.34 25.7036 131.289 26.5764 131.527C26.5832 131.525 26.589 131.521 26.5927 131.515C26.5964 131.509 26.5978 131.502 26.5965 131.495Z" fill="#263238"/>
<path d="M20.7958 124.847C19.1356 124.151 16.9568 123.966 15.3689 124.919C15.3086 124.955 15.3689 125.04 15.4212 125.036C17.1913 124.856 18.9754 124.866 20.7435 125.064C20.7707 125.067 20.7981 125.06 20.8204 125.044C20.8428 125.028 20.8587 125.005 20.8651 124.978C20.8715 124.952 20.868 124.924 20.8552 124.899C20.8425 124.875 20.8213 124.857 20.7958 124.847Z" fill="#263238"/>
<path d="M21.8851 125.867C20.2249 125.172 18.0461 124.987 16.4583 125.94C16.398 125.976 16.4583 126.06 16.5105 126.056C18.2805 125.875 20.0649 125.884 21.8329 126.084C21.8601 126.087 21.8874 126.08 21.9098 126.064C21.9322 126.049 21.9481 126.025 21.9545 125.999C21.9609 125.972 21.9574 125.944 21.9446 125.92C21.9318 125.896 21.9107 125.877 21.8851 125.867Z" fill="#263238"/>
<path d="M22.9787 126.889C21.3144 126.193 19.1357 126.008 17.5518 126.961C17.4875 126.997 17.5518 127.082 17.6001 127.078C19.3701 126.896 21.1544 126.906 22.9224 127.106C22.9501 127.11 22.9786 127.105 23.0023 127.089C23.0259 127.074 23.0429 127.05 23.05 127.023C23.057 126.996 23.0536 126.967 23.0404 126.942C23.0272 126.917 23.0052 126.898 22.9787 126.889Z" fill="#263238"/>
<path d="M24.068 127.91C22.4038 127.214 20.229 127.029 18.6412 127.978C18.5769 128.018 18.6412 128.103 18.6894 128.099C20.4594 127.917 22.2438 127.927 24.0117 128.127C24.0395 128.132 24.068 128.126 24.0916 128.11C24.1152 128.095 24.1322 128.071 24.1393 128.044C24.1464 128.017 24.143 127.988 24.1298 127.963C24.1166 127.938 24.0945 127.919 24.068 127.91Z" fill="#263238"/>
<path d="M4.75253 122.27C2.87525 121.522 1.70949 124.445 3.5948 125.192C5.48012 125.94 6.6499 123.017 4.75253 122.27Z" fill="#263238"/>
<path d="M24.3934 121.108C23.8266 120.067 22.488 120.324 21.6719 120.842C20.2973 121.763 19.1884 123.029 18.4561 124.513C18.4528 124.519 18.4511 124.526 18.4511 124.533C18.451 124.541 18.4526 124.548 18.4556 124.554C18.4587 124.561 18.4633 124.567 18.4689 124.571C18.4745 124.576 18.4811 124.579 18.4882 124.581C18.4882 124.714 18.5766 124.87 18.7334 124.838C20.257 124.488 21.9252 124.308 23.292 123.504C24.0758 123.037 24.928 122.093 24.3934 121.108ZM20.9162 123.837C20.1725 124.026 19.4248 124.179 18.6892 124.396C19.2977 123.663 19.943 122.961 20.6228 122.294C20.9574 121.975 21.3133 121.679 21.688 121.409C22.2709 121.007 24.4738 120.264 23.911 122.149C23.6015 123.19 21.8046 123.612 20.9162 123.837Z" fill="#263238"/>
<path d="M14.0345 123.467C15.4012 124.271 17.0695 124.46 18.589 124.814C18.7458 124.85 18.8503 124.693 18.8382 124.556C18.8458 124.556 18.853 124.553 18.8591 124.548C18.8653 124.544 18.8703 124.538 18.8735 124.531C18.8767 124.524 18.8781 124.517 18.8776 124.509C18.877 124.502 18.8746 124.494 18.8704 124.488C18.1392 123.001 17.0302 121.733 15.6545 120.81C14.8505 120.287 13.5038 120.026 12.933 121.063C12.3622 122.1 13.2345 122.997 14.0345 123.467ZM13.4074 122.108C12.8486 120.223 15.0475 120.971 15.6304 121.377C16.0046 121.647 16.3593 121.944 16.6916 122.265C17.37 122.934 18.014 123.637 18.6211 124.371C17.8855 124.154 17.1378 123.998 16.3941 123.809C15.4937 123.567 13.7129 123.165 13.4074 122.108Z" fill="#263238"/>
<path d="M21.877 120.216L3.1886 112.67C3.1886 112.67 26.3591 78.6021 26.528 76.0655C26.6807 73.8225 16.5024 54.2779 16.1044 48.5817C15.6703 42.4313 18.6289 37.6758 21.885 34.7212L41.1603 42.9177C41.1603 42.9177 39.1262 46.1698 35.9345 47.9827C35.9345 47.9827 45.8193 70.5744 45.2565 77.5207C44.6938 84.4671 21.877 120.216 21.877 120.216Z" fill="#37474F"/>
<path d="M22.7052 116.662C20.0038 115.5 20.7957 115.794 18.0783 114.652C16.7517 114.097 8.02863 110.468 6.686 110.166C6.65786 110.166 6.63776 110.206 6.6659 110.222C7.82764 110.934 16.6231 114.411 17.9617 114.942C20.6993 116.019 19.9234 115.681 22.673 116.726C22.6771 116.732 22.6826 116.736 22.6888 116.739C22.6951 116.742 22.702 116.743 22.7088 116.742C22.7156 116.742 22.7222 116.739 22.7278 116.736C22.7335 116.732 22.7381 116.726 22.7411 116.72C22.7442 116.714 22.7456 116.707 22.7453 116.701C22.745 116.694 22.743 116.687 22.7394 116.681C22.7358 116.675 22.7307 116.671 22.7248 116.667C22.7188 116.664 22.712 116.662 22.7052 116.662Z" fill="#263238"/>
<path d="M39.0942 47.5678C37.0874 48.0356 35.124 48.673 33.2252 49.4732C33.2175 49.4759 33.2104 49.48 33.2044 49.4853C33.1983 49.4907 33.1934 49.4972 33.1898 49.5045C33.1863 49.5118 33.1842 49.5197 33.1837 49.5278C33.1832 49.5358 33.1843 49.5439 33.187 49.5516C33.1896 49.5593 33.1937 49.5663 33.1991 49.5724C33.2045 49.5784 33.211 49.5834 33.2182 49.5869C33.2255 49.5905 33.2334 49.5926 33.2415 49.593C33.2496 49.5935 33.2577 49.5924 33.2654 49.5898C35.2351 49.015 37.237 48.4763 39.1746 47.7969C39.3233 47.7447 39.2469 47.5356 39.0942 47.5678Z" fill="#263238"/>
<path d="M36.7987 46.788C36.6114 47.1211 36.4462 47.4662 36.3043 47.8211C36.1655 48.0904 36.0796 48.3838 36.051 48.6854C36.051 48.7457 36.1314 48.7577 36.1676 48.7215C36.3693 48.4803 36.532 48.209 36.65 47.9176C36.8148 47.6 36.9836 47.2864 37.1404 46.9608C37.2489 46.7237 36.9233 46.5709 36.7987 46.788Z" fill="#263238"/>
<path d="M37.04 44.9639C37.1606 44.6664 37.2772 44.373 37.4018 44.0755C37.5264 43.778 37.6832 43.4725 37.8038 43.159C37.8038 43.1107 37.9003 43.159 37.8802 43.1951C37.7596 43.4926 37.6832 43.8062 37.5908 44.1117C37.4983 44.4172 37.3938 44.7227 37.2933 45.0282C37.1043 45.595 36.8913 46.1578 36.63 46.7085C36.9463 46.7243 37.2622 46.6694 37.5546 46.5477C37.8532 46.3566 38.0829 46.0748 38.2098 45.7437C38.3786 45.4141 38.5354 45.0764 38.7083 44.7468C38.921 44.3904 39.1 44.015 39.2429 43.6253C39.2429 43.577 39.3394 43.6253 39.3193 43.6615C39.0572 44.4854 38.7138 45.2812 38.2942 46.0372C38.1133 46.3306 37.9726 46.6402 37.643 46.7527C37.2862 46.8525 36.9128 46.8785 36.5456 46.8291C36.4973 46.8291 36.4411 46.8291 36.4571 46.7568C36.6217 46.1499 36.8163 45.5515 37.04 44.9639Z" fill="#263238"/>
<path d="M36.2199 48.7184C36.9073 50.1696 37.5103 51.6167 38.1495 53.0639C38.7886 54.511 39.3554 55.91 39.9303 57.3491C41.08 60.2514 42.1091 63.21 43.0135 66.1928C43.4597 67.6721 43.8738 69.1635 44.2436 70.6669C44.651 72.1655 44.9492 73.6917 45.136 75.2335C45.2973 76.7727 45.1608 78.3285 44.734 79.8161C44.2907 81.2866 43.7218 82.7162 43.0336 84.0893C42.6115 84.9575 42.4708 84.841 42.6718 84.4028C43.2467 83.1566 44.7541 79.382 44.6456 76.2103C44.5577 74.6919 44.3234 73.1855 43.9461 71.7121C43.5951 70.1926 43.1998 68.6851 42.7603 67.1897C41.904 64.2391 40.887 61.3488 39.8419 58.4626C39.255 56.8546 38.6359 55.2467 38.0329 53.6387C37.4299 52.0308 36.8269 50.5515 36.1516 48.7747C36.1315 48.7023 36.1998 48.6742 36.2199 48.7184Z" fill="#263238"/>
<path d="M22.0339 43.9226C22.3676 43.798 22.8379 44.003 23.1756 44.0593C23.6129 44.1335 24.0547 44.1778 24.4981 44.192C24.9368 44.2074 25.376 44.1926 25.8126 44.1477C26.2523 44.1364 26.6832 44.0221 27.0708 43.8141C27.7067 43.3509 28.2518 42.7745 28.6788 42.1137C29.1876 41.4385 29.6077 40.7009 29.9289 39.9188C29.9289 39.8706 30.0134 39.9188 29.9973 39.951C29.8566 40.3972 29.7521 40.8474 29.5953 41.2856C29.422 41.6973 29.2149 42.0939 28.9762 42.4715C28.5892 43.2312 28.0168 43.881 27.312 44.3608C26.5362 44.803 25.5392 44.7628 24.675 44.7266C24.1737 44.6974 23.6753 44.6315 23.1836 44.5296C22.8298 44.4533 22.2349 44.397 22.0098 44.0874C21.9992 44.0756 21.9913 44.0616 21.9868 44.0464C21.9822 44.0312 21.981 44.0151 21.9833 43.9994C21.9856 43.9837 21.9913 43.9687 22.0001 43.9554C22.0088 43.9421 22.0204 43.9309 22.0339 43.9226Z" fill="#263238"/>
<path d="M8.52322 109.096C11.5944 104.444 14.6093 99.754 17.5679 95.0267C20.5265 90.2993 23.445 85.5358 26.3232 80.736C27.0106 79.5904 27.8025 78.4487 28.2447 77.1785C28.7271 75.7996 28.4537 74.461 28.0196 73.1103C27.1998 70.6463 26.2415 68.2306 25.1494 65.8746C24.0721 63.4988 22.9103 61.1633 21.7687 58.8197C20.627 56.4761 19.4331 54.1607 18.5528 51.7166C17.7488 49.3811 17.4232 46.9611 18.0503 44.5411C18.6774 42.1212 20.0281 39.9826 21.4391 37.9686C21.8089 37.438 22.1908 36.9114 22.5646 36.3607C22.5928 36.3205 22.6531 36.3607 22.6249 36.4089C21.0692 38.5073 19.5537 40.7303 18.6412 43.1945C18.1748 44.4091 17.914 45.6929 17.8694 46.9932C17.8618 48.3132 18.0668 49.6257 18.4764 50.8805C19.2321 53.3245 20.426 55.636 21.5396 57.9353C22.6531 60.2347 23.8429 62.6145 24.9404 64.9822C26.0725 67.3651 27.0789 69.8059 27.9553 72.2943C28.3291 73.3998 28.7592 74.5575 28.7271 75.7434C28.6989 77.0418 28.0799 78.2116 27.4367 79.305C24.6228 84.0685 21.7406 88.7758 18.806 93.4549C15.8715 98.134 12.8526 102.813 9.79751 107.444L8.63979 109.193C8.57949 109.265 8.47498 109.181 8.52322 109.096Z" fill="#263238"/>
<path d="M42.2297 21.2503C43.9703 25.0692 52.7618 30.3312 56.8781 30.898C59.8368 31.3 68.8332 31.4447 71.9165 30.9744C75.5343 30.4197 72.7687 20.6715 70.6341 20.9247C64.7651 21.6081 59.7805 22.3719 58.2127 22.3719C56.2993 22.3719 45.9481 19.0515 44.7019 18.5811C41.6468 17.4435 41.2449 19.0836 42.2297 21.2503Z" fill="#F28F8F"/>
<path d="M42.2859 22.2676C44.4888 25.5277 51.8089 30.8581 51.8089 30.8581L52.826 28.6069L56.1906 21.1621C56.1906 21.1621 49.4654 19.0517 45.0395 18.0869C44.5186 17.9684 43.9889 17.8931 43.4557 17.8618C40.6297 17.7091 40.3845 19.4537 42.2859 22.2676Z" fill="#2F6F91"/>
<path d="M42.2859 22.2674C44.4888 25.5275 51.8089 30.8578 51.8089 30.8578L52.826 28.6067C50.0965 25.435 45.8796 20.6313 43.4557 17.8696C40.6297 17.7088 40.3845 19.4534 42.2859 22.2674Z" fill="#263238"/>
<path d="M50.4907 29.3461C51.0495 27.9753 53.5337 22.456 54.1528 21.3063C54.193 21.2259 54.2573 21.234 54.2211 21.3063C53.1435 24.0511 51.917 26.735 50.547 29.3461C50.5309 29.3943 50.4666 29.3782 50.4907 29.3461Z" fill="#263238"/>
<path d="M69.5569 21.0257C73.1265 20.5594 77.5444 19.7595 81.2869 21.3473C81.7072 21.5122 82.0598 21.8138 82.2878 22.2035C83.9762 22.8869 84.1611 23.8879 84.1611 23.8879C85.5399 25.0054 85.5881 26.0586 85.5881 26.0586C85.5881 26.0586 87.5659 26.8626 87.2644 28.157C86.9348 29.588 84.2254 28.157 82.2557 28.2735C77.7333 28.5549 71.402 30.2151 70.0955 30.4242L69.5569 21.0257Z" fill="#F28F8F"/>
<path d="M77.3111 25.2381C78.6334 25.1477 79.9604 25.1477 81.2827 25.2381C82.7227 25.4188 84.1471 25.7077 85.5438 26.1024C85.5528 26.1056 85.5628 26.1051 85.5714 26.1009C85.5801 26.0968 85.5868 26.0894 85.59 26.0803C85.5932 26.0712 85.5926 26.0613 85.5885 26.0526C85.5843 26.0439 85.5769 26.0373 85.5679 26.0341C82.9441 25.0046 80.088 24.7154 77.3111 25.1979C77.2467 25.1899 77.2467 25.2422 77.3111 25.2381Z" fill="#263238"/>
<path d="M76.4711 21.0618C78.6781 21.1744 80.0569 21.5281 82.2758 22.1954V22.1713C79.8318 21.1502 78.8308 21.0538 76.4591 20.9653C76.3827 20.9975 76.3867 21.0618 76.4711 21.0618Z" fill="#263238"/>
<path d="M76.8287 28.9565C76.2539 29.2259 76.3946 29.5274 77.492 29.7806C78.5895 30.0339 83.152 30.1102 82.9912 31.7021C82.8304 33.294 76.3946 33.093 74.5977 32.5302C72.8008 31.9674 70.0955 30.4238 70.0955 30.4238C71.3698 30.2107 74.3605 29.4027 76.8287 28.9565Z" fill="#F28F8F"/>
<path d="M47.0093 27.3368C46.9812 28.0242 46.9169 28.7237 46.8204 29.4191C46.8204 29.391 46.8204 29.3669 46.8485 29.3428C46.9812 28.981 47.1138 28.6111 47.2746 28.2614C47.2746 28.2614 47.3148 28.2614 47.3108 28.2614C47.2336 28.6446 47.1177 29.019 46.9651 29.3789C46.8927 29.5518 46.8244 29.7206 46.748 29.8895C46.6998 30.199 46.6435 30.5045 46.5832 30.81C46.4626 31.3848 45.9199 33.8289 45.7792 34.243C45.7551 34.3274 45.6506 34.3073 45.6586 34.2108C45.6868 33.7606 46.141 31.216 46.2335 30.6372C46.4131 29.5195 46.6533 28.4124 46.953 27.3208C46.9731 27.3007 47.0133 27.3167 47.0093 27.3368Z" fill="#263238"/>
<path d="M42.8286 45.615C41.7553 46.1657 40.3725 47.0219 34.1417 45.7959C33.7397 45.7155 33.3618 45.619 32.9679 45.5024C27.127 43.7498 20.1043 36.8798 19.7224 36.3934C19.7224 36.3934 29.0043 21.347 40.875 16.6156C42.3422 16.0328 44.7702 17.1583 46.1008 18.5613C46.5792 19.0637 47.6203 22.758 47.2223 25.7488C46.8244 28.7396 43.8979 45.0643 42.8286 45.615Z" fill="#2F6F91"/>
<path d="M41.9925 25.6113C42.0373 26.2471 41.9483 26.8853 41.7312 27.4846C41.6803 26.8486 41.7694 26.2091 41.9925 25.6113Z" fill="white"/>
<path d="M37.9446 35.8589C37.9702 36.1753 37.9594 36.4936 37.9124 36.8076C37.8737 37.1239 37.7968 37.4344 37.6833 37.7321C37.6556 37.4144 37.6664 37.0946 37.7154 36.7794C37.7565 36.4649 37.8334 36.156 37.9446 35.8589Z" fill="white"/>
<path d="M31.0664 28.1118C31.1117 28.749 31.0227 29.3885 30.8051 29.9891C30.7546 29.3518 30.8438 28.7111 31.0664 28.1118Z" fill="white"/>
<path d="M44.6416 35.3359C44.6673 35.6537 44.6565 35.9733 44.6094 36.2887C44.5707 36.605 44.4938 36.9154 44.3803 37.2132C44.3526 36.8955 44.3634 36.5756 44.4125 36.2605C44.4531 35.9445 44.53 35.6343 44.6416 35.3359Z" fill="white"/>
<path d="M35.8101 26.7855C36.1263 26.7585 36.4446 26.768 36.7587 26.8136C37.0752 26.8537 37.3857 26.932 37.6833 27.0467C37.0475 27.0924 36.4091 27.0034 35.8101 26.7855Z" fill="white"/>
<path d="M28.0034 34.1866C28.6392 34.1418 29.2774 34.2308 29.8767 34.4479C29.2407 34.4988 28.6012 34.4096 28.0034 34.1866Z" fill="white"/>
<path d="M37.201 42.1982C37.8369 42.1525 38.4752 42.2415 39.0743 42.4595C38.4383 42.5096 37.799 42.4205 37.201 42.1982Z" fill="white"/>
<path d="M25.5956 39.2867C26.2314 39.2419 26.8696 39.3309 27.4688 39.548C26.8328 39.5982 26.1936 39.509 25.5956 39.2867Z" fill="white"/>
<path d="M41.9323 18.4078C42.5681 18.3629 43.2062 18.452 43.8055 18.6691C43.1697 18.7139 42.5315 18.6249 41.9323 18.4078Z" fill="white"/>
<path d="M39.6612 20.9731C39.4579 21.2174 39.2258 21.4361 38.9697 21.6244C38.7207 21.817 38.451 21.9815 38.1658 22.1148C38.3677 21.8721 38.597 21.6535 38.8492 21.4636C39.1006 21.2702 39.373 21.1057 39.6612 20.9731Z" fill="white"/>
<path d="M27.2837 28.2612C27.078 28.5034 26.8446 28.7206 26.5883 28.9084C26.3417 29.1047 26.0716 29.2694 25.7843 29.3989C25.9911 29.1577 26.2244 28.9406 26.4797 28.7517C26.7269 28.5562 26.9969 28.3916 27.2837 28.2612Z" fill="white"/>
<path d="M42.7403 31.5488C42.5346 31.7923 42.3012 32.0108 42.0448 32.2001C41.7977 32.3955 41.5277 32.5601 41.2408 32.6905C41.4465 32.447 41.6799 32.2285 41.9363 32.0393C42.1848 31.8458 42.4545 31.6813 42.7403 31.5488Z" fill="white"/>
<path d="M32.7306 37.8525C32.525 38.096 32.2916 38.3145 32.0352 38.5038C31.7876 38.6986 31.5177 38.8632 31.2312 38.9942C31.4368 38.7507 31.6702 38.5322 31.9266 38.343C32.1752 38.1495 32.4449 37.985 32.7306 37.8525Z" fill="white"/>
<path d="M46.5751 22.9385C46.3695 23.1819 46.1361 23.4005 45.8797 23.5897C45.6306 23.7823 45.3609 23.9468 45.0757 24.0801C45.2813 23.8367 45.5147 23.6181 45.7711 23.4289C46.0187 23.2341 46.2886 23.0694 46.5751 22.9385Z" fill="white"/>
<path d="M46.3663 30.2431C46.1228 30.0374 45.9043 29.804 45.715 29.5476C45.5194 29.3006 45.3547 29.0306 45.2246 28.7437C45.4689 28.9469 45.6876 29.1791 45.8758 29.4351C46.0679 29.686 46.2323 29.9569 46.3663 30.2431Z" fill="white"/>
<path d="M24.0557 35.2758C23.8123 35.0701 23.5937 34.8367 23.4045 34.5803C23.211 34.3318 23.0465 34.0621 22.9141 33.7764C23.1575 33.982 23.3761 34.2154 23.5653 34.4718C23.7601 34.7194 23.9248 34.9892 24.0557 35.2758Z" fill="white"/>
<path d="M43.6528 41.2615C43.4085 41.0583 43.1898 40.8261 43.0015 40.5701C42.8089 40.321 42.6444 40.0514 42.5111 39.7661C42.7545 39.9718 42.9731 40.2051 43.1623 40.4615C43.3563 40.7082 43.5209 40.9767 43.6528 41.2615Z" fill="white"/>
<path d="M33.8322 24.1971C33.5888 23.9928 33.3703 23.7608 33.181 23.5056C32.9892 23.256 32.8248 22.9864 32.6906 22.7017C32.9349 22.9049 33.1535 23.1371 33.3418 23.3931C33.5336 23.6427 33.698 23.9123 33.8322 24.1971Z" fill="white"/>
<path d="M34.005 44.6703C33.7616 44.4647 33.543 44.2313 33.3538 43.9749C33.161 43.7259 32.9965 43.4563 32.8634 43.1709C33.1077 43.3741 33.3264 43.6063 33.5146 43.8623C33.7081 44.1123 33.8726 44.3833 34.005 44.6703Z" fill="white"/>
<path d="M35.6733 32.5941C35.4321 32.3873 35.215 32.1541 35.0261 31.8987C34.8298 31.6521 34.6651 31.3821 34.5356 31.0947C34.7778 31.3004 34.995 31.5338 35.1828 31.7902C35.3783 32.0373 35.5429 32.3073 35.6733 32.5941Z" fill="white"/>
<path d="M43.9262 22.5685C42.4107 22.2871 40.9877 19.1556 40.8068 17.0492C40.8068 16.9045 41.5143 15.7588 42.3223 14.3237C42.8127 13.4514 43.3312 12.4666 43.7453 11.5339C43.8297 11.345 44.3241 11.9842 44.3241 11.9842L45.4015 12.7881L48.9591 15.5176C48.1119 16.5342 47.3923 17.6507 46.8165 18.8421C46.7596 18.9712 46.7165 19.1059 46.6878 19.2441C46.6862 19.2668 46.6862 19.2896 46.6878 19.3124C46.4667 20.1083 45.3854 22.8378 43.9262 22.5685Z" fill="#F28F8F"/>
<path d="M46.6877 19.2639C46.6861 19.2866 46.6861 19.3095 46.6877 19.3322C46.4765 19.2703 46.2708 19.191 46.0727 19.0951C42.1774 17.27 43.8939 12.0522 43.8939 12.0522L45.4214 12.808L48.979 15.5375C48.1319 16.554 47.4123 17.6705 46.8364 18.8619C46.7727 18.9902 46.7228 19.125 46.6877 19.2639Z" fill="#263238"/>
<path d="M53.0471 4.41113C53.0471 4.41113 54.8279 5.54072 54.836 7.55065C54.844 9.56059 54.032 11.5263 53.8632 11.5987C53.6943 11.671 53.0471 4.41113 53.0471 4.41113Z" fill="#263238"/>
<path d="M44.2114 5.45633C43.1422 7.56676 43.1984 14.2196 44.533 15.9321C46.4706 18.4164 50.2011 19.2726 52.4562 16.8165C54.639 14.4367 54.4139 5.76988 52.8582 4.15389C50.595 1.76609 45.7953 2.33289 44.2114 5.45633Z" fill="#F28F8F"/>
<path d="M43.9061 11.1446C44.6417 11.3697 45.4859 9.15878 45.7271 8.33069C45.9361 7.58299 46.1773 5.20725 46.2135 5.04243C46.2497 4.87762 49.4294 7.14482 51.2705 6.60616C53.1116 6.0675 54.3618 4.39925 54.3899 3.62342C54.418 2.84758 52.1147 0.877847 50.1248 0.777351C48.135 0.676854 45.4377 3.18927 45.4377 3.18927C45.7635 2.81952 46.0592 2.42432 46.322 2.00743C46.2899 1.91899 45.0035 2.43354 44.7663 3.35007C44.7663 3.35007 45.0236 2.19636 44.9271 2.17626C44.8307 2.15616 43.8297 3.14103 44.0548 3.88873C44.0548 3.88873 42.8971 4.88968 42.7926 5.9871C42.6881 7.08453 43.0418 10.8793 43.9061 11.1446Z" fill="#263238"/>
<path d="M52.5889 6.18789C52.0414 6.48477 51.4517 6.69624 50.8403 6.81499C50.154 6.8762 49.4633 6.76569 48.8304 6.4934C48.1928 6.24708 47.6005 5.89661 47.0777 5.45627C46.6154 5.0784 46.2014 4.61612 45.7069 4.27845C45.5823 4.19001 45.4416 4.37091 45.518 4.48346C46.3429 5.64865 47.5213 6.51698 48.8786 6.9597C49.509 7.16523 50.1819 7.20364 50.8315 7.07117C51.4812 6.9387 52.0854 6.6399 52.5849 6.20397C52.5849 6.20397 52.597 6.18789 52.5889 6.18789Z" fill="#263238"/>
<path d="M44.6738 10.9473C44.6738 10.9473 43.5322 8.63184 42.5031 9.00569C41.474 9.37954 42.1011 12.5834 43.1583 13.1703C43.2878 13.2541 43.4329 13.3108 43.5849 13.3372C43.7369 13.3635 43.8926 13.3589 44.0428 13.3237C44.1929 13.2884 44.3344 13.2231 44.4587 13.1318C44.583 13.0406 44.6877 12.9251 44.7663 12.7924L44.6738 10.9473Z" fill="#F28F8F"/>
<path d="M42.7081 9.91846C42.7081 9.91846 42.684 9.91846 42.7081 9.95062C43.4397 10.3848 43.7372 11.1566 43.9141 11.9606C43.8808 11.8754 43.8294 11.7986 43.7635 11.7353C43.6975 11.672 43.6186 11.6238 43.5322 11.5939C43.4459 11.5641 43.354 11.5534 43.2631 11.5626C43.1721 11.5717 43.0843 11.6006 43.0056 11.647C42.9815 11.647 43.0056 11.6912 43.0056 11.6912C43.1494 11.6689 43.2966 11.6916 43.4269 11.7564C43.5572 11.8212 43.6642 11.9248 43.7332 12.053C43.8482 12.2677 43.9399 12.4941 44.0065 12.7283C44.0306 12.8047 44.1633 12.7846 44.1512 12.7002C44.3241 11.6993 43.7613 10.1838 42.7081 9.91846Z" fill="#263238"/>
<path d="M37.1365 21.2864C36.3326 25.8409 41.269 41.1847 44.4326 44.0509C49.1399 48.312 57.8429 51.1138 60.9985 52.0263C62.3733 52.4283 66.1761 42.7525 64.7852 42.1133C61.8065 40.7586 52.5527 37.8643 51.6724 37.1407C50.792 36.4172 45.4858 28.7513 43.1221 24.3374C39.9585 18.3961 37.5345 18.983 37.1365 21.2864Z" fill="#F28F8F"/>
<path d="M62.4417 41.2612C62.4417 41.2612 66.55 42.3104 69.1991 43.1184C70.6784 43.5727 73.1466 44.5736 74.0832 45.4017C75.4822 46.6438 80.5392 52.7219 79.092 53.9801C77.7815 55.1217 74.0993 49.3452 74.0993 49.3452C74.0993 49.3452 78.3282 54.8444 76.5112 55.9257C74.6943 57.0071 71.3698 49.9281 71.3698 49.9281C71.3698 49.9281 75.5867 55.6765 73.5245 56.4925C71.9648 57.1076 68.6202 50.8647 68.6202 50.8647C68.6202 50.8647 72.214 55.8292 70.6302 56.5327C68.8856 57.3126 65.4405 51.741 65.4405 51.741C61.1312 52.8545 58.6067 51.6204 56.9465 50.5351C56.5566 50.2698 62.4417 41.2612 62.4417 41.2612Z" fill="#F28F8F"/>
<path d="M72.7565 47.3475C73.2791 47.9746 73.8097 48.6097 74.272 49.281C74.7343 49.9524 75.1725 50.6438 75.5704 51.3553C76.1096 52.2756 76.5413 53.2548 76.8568 54.2737C76.1654 52.505 74.5454 50.073 74.0831 49.4016C73.6208 48.7303 73.1907 48.0349 72.7324 47.3636C72.7204 47.3475 72.7445 47.3314 72.7565 47.3475Z" fill="#263238"/>
<path d="M70.3004 48.9747C71.1928 49.6822 73.0621 52.3112 73.7816 54.0759C73.8138 54.1483 73.7816 54.1443 73.7294 54.0759C73.1666 53.2036 70.8833 49.8269 70.2803 48.9868C70.2683 48.9747 70.2884 48.9627 70.3004 48.9747Z" fill="#263238"/>
<path d="M67.9409 50.0042C69.0497 51.1673 69.9257 52.5318 70.5217 54.0241C70.5498 54.0965 70.4935 54.0844 70.4493 54.0241C69.6172 52.6694 68.974 51.6122 67.8967 50.0404C67.8806 50.0042 67.9168 49.9681 67.9409 50.0042Z" fill="#263238"/>
<path d="M41.6227 21.6203C37.9525 16.4306 35.7577 18.3521 36.4933 23.988C37.1847 29.258 39.0299 35.537 39.0299 35.537L48.2756 31.0509C48.2756 31.0509 43.9582 24.9447 41.6227 21.6203Z" fill="#2F6F91"/>
<path d="M43.8537 23.6626C43.9755 23.9557 44.0632 24.2619 44.115 24.5751C44.1714 24.8893 44.1916 25.209 44.1753 25.5278C44.0547 25.2332 43.9684 24.9256 43.918 24.6113C43.8582 24.2988 43.8366 23.9803 43.8537 23.6626Z" fill="white"/>
<path d="M38.3746 26.8176C38.9646 26.5776 39.5995 26.4679 40.2358 26.496C39.9426 26.6166 39.6364 26.7029 39.3233 26.7533C39.0109 26.8129 38.6923 26.8345 38.3746 26.8176Z" fill="white"/>
<path d="M38.6118 18.7456C38.3629 19.3331 37.9915 19.8607 37.5225 20.2933C37.7714 19.7058 38.1428 19.1781 38.6118 18.7456Z" fill="white"/>
<path d="M46.4464 29.2412C46.3244 29.5352 46.1693 29.8144 45.9842 30.0733C45.8039 30.3356 45.5934 30.5757 45.3571 30.7889C45.606 30.2014 45.9774 29.6738 46.4464 29.2412Z" fill="white"/>
<path d="M40.0147 32.3897C39.72 32.2691 39.4407 32.1139 39.1826 31.9274C38.9202 31.7472 38.68 31.5368 38.467 31.3003C39.0545 31.5492 39.5821 31.9206 40.0147 32.3897Z" fill="white"/>
<path d="M42.8287 23.1841C43.3231 23.8634 43.8336 24.5267 44.3401 25.194C44.2115 24.8563 44.099 24.5147 44.0025 24.1689H44.0266C44.1271 24.4343 44.2437 24.6956 44.3401 24.9729L44.4849 25.3749C44.4973 25.4024 44.5081 25.4305 44.517 25.4593C44.919 25.9779 45.321 26.4965 45.6908 27.0271C46.1451 27.6622 46.5832 28.3054 47.0254 28.9486C47.4676 29.5918 47.9138 30.3917 48.3922 31.0389C48.4364 31.0952 47.5882 31.4409 47.4957 31.4851C47.4033 31.5293 47.3551 31.453 47.4435 31.4248C47.5319 31.3967 48.2073 30.9826 48.2153 30.9746C47.7731 30.3234 47.2626 29.7244 46.8003 29.0933C46.338 28.4622 45.8798 27.8311 45.4336 27.1919C44.5291 25.8895 43.701 24.5388 42.8005 23.2323L42.8287 23.1841Z" fill="#263238"/>
<path d="M36.7104 27.7179C36.8511 27.9913 37.0039 28.2606 37.1124 28.542L37.2652 28.8917C37.0521 27.8908 36.8632 26.8818 36.6421 25.8809C37.0682 27.4888 37.4983 29.1329 37.8923 30.765C38.2661 32.3247 38.7204 33.9005 38.9374 35.4924C39.2178 35.3694 39.5083 35.2712 39.8057 35.1989C39.5072 35.3921 39.1859 35.5474 38.849 35.6612C38.3644 34.0424 37.9619 32.4002 37.643 30.7409C37.5425 30.2907 37.4501 29.8404 37.3536 29.3902C37.2491 29.1169 37.1245 28.8556 36.9999 28.5862C36.8752 28.3169 36.7627 28.0154 36.6501 27.73C36.6743 27.7139 36.7024 27.6978 36.7104 27.7179Z" fill="#263238"/>
<path d="M39.1666 33.9851C40.453 33.2615 45.8275 30.4797 47.0295 29.9652C47.1139 29.929 47.1581 29.9652 47.0737 30.0215C44.5225 31.5039 41.8923 32.8458 39.1948 34.0414C39.1626 34.0494 39.1304 34.0052 39.1666 33.9851Z" fill="#263238"/>
<path d="M186.467 139.668H63.9891L81.6967 39.2319H204.174L186.467 139.668Z" fill="#2F6F91"/>
<path d="M123.616 28.8281H83.5339L81.6968 39.2315H124.593L123.616 28.8281Z" fill="#2F6F91"/>
<g opacity="0.1">
<path d="M186.467 139.668H63.9891L81.6967 39.2319H204.174L186.467 139.668Z" fill="black"/>
<path d="M123.616 28.8281H83.5339L81.6968 39.2315H124.593L123.616 28.8281Z" fill="black"/>
</g>
<path d="M79.2083 33.073C78.9403 31.9226 78.9403 30.726 79.2083 29.5757C79.4764 30.726 79.4764 31.9226 79.2083 33.073Z" fill="#263238"/>
<path d="M75.647 34.103C75.2376 33.6786 74.885 33.203 74.5978 32.688C74.2965 32.1838 74.0601 31.6435 73.8943 31.0801C74.3048 31.502 74.6576 31.9765 74.9435 32.4911C75.2441 32.997 75.4804 33.5385 75.647 34.103Z" fill="#263238"/>
<path d="M73.0742 36.775C71.9446 36.4316 70.909 35.8333 70.0472 35.0264C70.6108 35.1902 71.1511 35.4252 71.6552 35.7258C72.1702 36.0149 72.6469 36.3674 73.0742 36.775Z" fill="#263238"/>
<path d="M72.1738 40.3773C71.0234 40.6453 69.8269 40.6453 68.6765 40.3773C69.8269 40.1093 71.0234 40.1093 72.1738 40.3773Z" fill="#263238"/>
<path d="M73.2189 43.9385C72.7926 44.3457 72.3173 44.6981 71.8039 44.9877C71.2998 45.2883 70.7595 45.5233 70.1959 45.6871C70.6203 45.2778 71.096 44.9251 71.6109 44.6379C72.1142 44.3359 72.6548 44.1008 73.2189 43.9385Z" fill="#263238"/>
<path d="M75.8882 46.5073C75.5459 47.6386 74.9476 48.6758 74.1395 49.5383C74.3032 48.974 74.5397 48.4335 74.843 47.9304C75.1296 47.4136 75.4808 46.9354 75.8882 46.5073Z" fill="#263238"/>
<path d="M79.4898 47.3955C79.63 47.9676 79.6975 48.5551 79.6908 49.1442C79.6995 49.7333 79.6319 50.321 79.4898 50.8928C79.3457 50.3214 79.2782 49.7334 79.2888 49.1442C79.2821 48.5551 79.3496 47.9676 79.4898 47.3955Z" fill="#263238"/>
<path d="M83.0514 46.3874C83.4607 46.8119 83.8134 47.2875 84.1006 47.8024C84.4026 48.3057 84.6378 48.8463 84.8 49.4104C83.992 48.5479 83.3936 47.5107 83.0514 46.3794V46.3874Z" fill="#263238"/>
<path d="M85.6201 43.6943C86.1842 43.8566 86.7248 44.0917 87.2281 44.3938C87.743 44.681 88.2186 45.0337 88.6431 45.443C88.079 45.2807 87.5384 45.0456 87.0351 44.7435C86.5202 44.4563 86.0445 44.1036 85.6201 43.6943Z" fill="#263238"/>
<path d="M86.5085 40.0916C87.6603 39.8236 88.8581 39.8236 90.0098 40.0916C88.8581 40.3595 87.6603 40.3595 86.5085 40.0916Z" fill="#263238"/>
<path d="M85.4795 36.5299C85.905 36.123 86.3805 35.7719 86.8945 35.4847C87.3968 35.1798 87.9375 34.9432 88.5024 34.7812C87.6399 35.5893 86.6027 36.1877 85.4714 36.5299H85.4795Z" fill="#263238"/>
<path d="M82.8062 33.9614C82.9716 33.3985 83.2066 32.8583 83.5056 32.3535C83.7928 31.8385 84.1455 31.3629 84.5548 30.9385C84.3925 31.5026 84.1574 32.0431 83.8553 32.5464C83.5681 33.0614 83.2155 33.537 82.8062 33.9614Z" fill="#263238"/>
<path d="M186.286 139.668H63.5471L46.1169 42.8774H168.86L186.286 139.668Z" fill="#2F6F91"/>
<path d="M88.651 102.047C91.4683 102.047 93.7522 99.7628 93.7522 96.9455C93.7522 94.1281 91.4683 91.8442 88.651 91.8442C85.8337 91.8442 83.5498 94.1281 83.5498 96.9455C83.5498 99.7628 85.8337 102.047 88.651 102.047Z" fill="#263238"/>
<path d="M128.979 102.047C131.796 102.047 134.08 99.7628 134.08 96.9455C134.08 94.1281 131.796 91.8442 128.979 91.8442C126.161 91.8442 123.877 94.1281 123.877 96.9455C123.877 99.7628 126.161 102.047 128.979 102.047Z" fill="#263238"/>
<path d="M116.143 102.863L115.862 102.328C115.837 102.28 113.2 97.4076 107.898 97.4076C103.074 97.4076 101.868 101.994 101.836 102.191L101.692 102.774L100.522 102.493L100.662 101.906C100.662 101.85 102.102 96.2017 107.898 96.2017C113.928 96.2017 116.81 101.54 116.931 101.769L117.212 102.3L116.143 102.863Z" fill="#263238"/>
</svg>
