<svg width="299" height="293" viewBox="0 0 299 293" fill="none" xmlns="http://www.w3.org/2000/svg">
<mask id="mask0_1873_3156" style="mask-type:alpha" maskUnits="userSpaceOnUse" x="0" y="0" width="299" height="293">
<rect width="299" height="253.483" fill="#D9D9D9"/>
<circle cx="195.983" cy="229.903" r="61.4781" fill="#D9D9D9" stroke="black" stroke-width="2.67398"/>
</mask>
<g mask="url(#mask0_1873_3156)">
<path d="M160.406 212.176C158.223 221.884 157.496 231.862 158.246 241.784C158.732 248.069 179.962 422.113 179.962 422.113H208.631L200.575 258.521L202.918 259.029C202.918 259.029 218.565 328.806 219.85 340.101C220.995 350.251 234.19 424.024 234.19 424.024L260.408 424.327L252.028 326.744L242.31 233.124L238.639 205.891L160.406 212.176Z" fill="#263238"/>
<path d="M205.046 241.849C204.682 242.127 204.282 242.356 203.858 242.529C202.733 243.096 201.539 243.513 200.306 243.771C199.43 243.923 198.535 243.923 197.66 243.771C196.635 243.599 195.679 243.138 194.907 242.442C194.1 241.63 193.519 240.622 193.222 239.516C192.887 238.436 192.693 237.238 192.455 236.061C191.548 231.342 190.922 227.034 190.566 223.902C190.382 222.336 190.263 221.073 190.199 220.188C190.142 219.732 190.142 219.272 190.199 218.816C190.337 219.255 190.427 219.708 190.468 220.166C190.62 221.159 190.803 222.39 191.019 223.848C191.494 226.958 192.175 231.245 193.092 235.953C193.546 238.274 193.87 240.65 195.317 242.032C195.995 242.602 196.792 243.013 197.649 243.237C198.506 243.462 199.403 243.492 200.273 243.328C201.482 243.097 202.663 242.735 203.793 242.248C204.199 242.079 204.618 241.945 205.046 241.849Z" fill="#455A64"/>
<path d="M196.418 219.67C196.418 219.67 196.613 219.519 197.012 219.486C197.587 219.479 198.149 219.661 198.61 220.005C198.969 220.255 199.266 220.585 199.475 220.969C199.685 221.353 199.803 221.781 199.82 222.218C199.782 222.761 199.589 223.282 199.263 223.718C198.938 224.155 198.494 224.489 197.984 224.68C197.474 224.871 196.92 224.911 196.388 224.797C195.856 224.682 195.368 224.417 194.982 224.032C194.709 223.691 194.518 223.291 194.424 222.864C194.33 222.437 194.337 221.995 194.442 221.57C194.553 221.005 194.859 220.497 195.306 220.134C195.63 219.886 195.857 219.843 195.868 219.875C195.344 220.34 194.99 220.967 194.863 221.657C194.804 222.011 194.822 222.373 194.915 222.72C195.008 223.066 195.175 223.389 195.403 223.665C195.72 223.948 196.109 224.139 196.526 224.217C196.944 224.295 197.375 224.257 197.773 224.108C198.171 223.959 198.52 223.705 198.784 223.372C199.048 223.038 199.215 222.64 199.269 222.218C199.256 221.858 199.168 221.505 199.01 221.181C198.852 220.857 198.627 220.571 198.351 220.339C197.796 219.913 197.118 219.678 196.418 219.67Z" fill="#455A64"/>
<path d="M172.965 14.8501C177.586 13.7703 182.057 18.0896 186.775 17.4957C189.637 17.1285 191.915 15.0013 194.518 13.7595C196.556 12.8072 198.787 12.3418 201.036 12.3999C203.285 12.458 205.489 13.038 207.475 14.0943C211.19 16.2539 213.533 18.5215 213.782 22.8299C217.41 21.0483 222.96 25.821 224.677 30.1943C226.394 34.5675 225.616 38.93 224.202 43.4112C221.749 51.1443 217.801 58.3204 212.583 64.5324C212.119 65.0831 211.406 65.677 210.78 65.3314C210.585 65.1785 210.429 64.981 210.326 64.7556C210.222 64.5302 210.174 64.2834 210.186 64.0357C209.786 59.8352 210.575 55.6131 211.266 51.445C211.957 47.2769 212.345 42.9469 211.266 38.8544C210.186 34.7619 207.303 30.9286 203.21 29.8487C200.127 29.2145 196.919 29.6886 194.151 31.1877C191.343 32.5375 188.827 34.4272 186.128 36.0037C183.496 37.7122 180.451 38.675 177.316 38.7896C174.196 38.7248 170.956 37.0403 169.758 34.1464C168.559 31.2525 170.362 27.3328 173.44 26.8793C172.035 26.66 170.749 25.9593 169.804 24.897C168.858 23.8347 168.311 22.4769 168.256 21.0558C168.202 19.6347 168.642 18.2388 169.503 17.1067C170.364 15.9747 171.591 15.177 172.975 14.8501H172.965Z" fill="#263238"/>
<path d="M172.63 64.7806C173.126 59.0252 175.124 47.2552 177.046 36.6299C178.042 31.1148 181.079 26.177 185.551 22.7994C190.023 19.4217 195.603 17.852 201.18 18.4026L202.325 18.5214C214.645 20.465 218.381 32.3538 216.092 44.6097L212.183 85.783L186.505 103.568L182.985 94.7671V79.6497C182.985 79.6497 171.604 76.7018 172.63 64.7806Z" fill="#FFA8A7"/>
<path d="M182.986 79.6284C188.572 80.3487 194.247 79.3823 199.28 76.8533C199.28 76.8533 194.756 84.8331 182.986 82.5871V79.6284Z" fill="#F28F8F"/>
<path d="M214.797 52.8381C215.013 52.7625 224.159 51.3804 223.09 59.5006C222.021 67.6208 214.106 64.8996 214.116 64.6297C214.127 64.3597 214.797 52.8381 214.797 52.8381Z" fill="#FFA8A7"/>
<path d="M217.042 61.887C217.042 61.887 217.172 62.0058 217.399 62.1461C217.559 62.2433 217.737 62.3077 217.922 62.3355C218.108 62.3633 218.297 62.354 218.479 62.3081C219.047 62.0458 219.535 61.6362 219.892 61.1216C220.249 60.6071 220.462 60.0063 220.509 59.3818C220.62 58.6861 220.576 57.9743 220.379 57.2978C220.339 57.0343 220.234 56.7848 220.074 56.5719C219.914 56.3589 219.703 56.189 219.461 56.0776C219.304 56.0151 219.13 56.009 218.968 56.0602C218.807 56.1113 218.668 56.2166 218.576 56.3583C218.435 56.5635 218.468 56.7363 218.425 56.7471C218.381 56.7579 218.263 56.5851 218.425 56.2612C218.501 56.0689 218.638 55.9063 218.813 55.7968C219.059 55.6562 219.35 55.6174 219.623 55.6888C219.949 55.7986 220.242 55.9904 220.472 56.2456C220.703 56.5009 220.864 56.8111 220.941 57.1466C221.195 57.893 221.258 58.6911 221.124 59.4682C220.865 61.0987 219.828 62.5133 218.608 62.7076C218.383 62.745 218.152 62.7303 217.933 62.6648C217.714 62.5993 217.513 62.4847 217.345 62.3297C217.042 62.0813 216.967 61.9518 217.042 61.887Z" fill="#F28F8F"/>
<path d="M178.008 25.4973C179.392 23.3064 181.304 21.4982 183.569 20.2386C188.325 17.2654 193.899 15.8708 199.496 16.2541C205.111 16.6804 210.341 19.2704 214.084 23.4781C216.933 26.9363 218.712 31.1505 219.202 35.6044C219.814 40.4685 219.543 45.403 218.403 50.1711C217.863 52.05 216.719 52.6331 215.239 53.9072C214.311 54.7063 212.81 55.1382 211.924 54.3068C211.455 53.7527 211.185 53.0567 211.158 52.3307C210.218 45.8518 209.333 38.9842 212.238 33.164C210.947 30.9318 209.212 28.9877 207.141 27.4518C206.1 26.6927 204.919 26.1481 203.666 25.8496C202.413 25.5512 201.113 25.5048 199.841 25.7133C196.105 26.4692 193.514 29.7842 190.382 31.9546C188.117 33.488 185.521 34.4618 182.807 34.796C180.092 35.1301 177.337 34.8151 174.768 33.8767L178.008 25.4973Z" fill="#263238"/>
<path d="M225.044 40.5929C225.044 40.5066 224.169 40.5282 222.798 40.2906C219.208 39.6832 215.973 37.7579 213.728 34.8915C212.864 33.8117 212.464 33.0234 212.389 33.0666C212.609 33.812 212.976 34.5058 213.469 35.1075C214.546 36.6327 215.933 37.9133 217.539 38.8652C219.146 39.8208 220.94 40.421 222.798 40.6253C223.542 40.7575 224.304 40.7465 225.044 40.5929Z" fill="#E0E0E0"/>
<path d="M224.602 44.5886C224.602 44.5022 223.684 44.3295 222.269 43.8328C220.424 43.1656 218.697 42.2108 217.151 41.0036C215.607 39.7855 214.269 38.3271 213.188 36.6844C212.792 35.968 212.359 35.2724 211.892 34.6003C212.09 35.4094 212.422 36.1795 212.875 36.8788C214.943 40.3838 218.254 42.9821 222.15 44.1567C222.937 44.4406 223.766 44.5867 224.602 44.5886Z" fill="#E0E0E0"/>
<path d="M171.205 29.3844C171.185 29.8742 171.301 30.3599 171.539 30.7882C171.998 31.8749 172.745 32.8158 173.699 33.5093C174.651 34.1976 175.769 34.6189 176.938 34.7295C177.42 34.8267 177.919 34.7817 178.375 34.5999C177.916 34.4935 177.45 34.4178 176.982 34.3732C175.896 34.1702 174.867 33.7316 173.969 33.0882C173.08 32.4332 172.343 31.5933 171.809 30.6262C171.453 29.8812 171.291 29.3628 171.205 29.3844Z" fill="#E0E0E0"/>
<path d="M170.092 30.9719C170.087 31.4431 170.202 31.9078 170.427 32.3217C170.884 33.3661 171.568 34.2955 172.429 35.0426C173.29 35.7898 174.307 36.3357 175.405 36.6409C175.847 36.8049 176.324 36.8459 176.787 36.7597C175.334 36.2875 173.974 35.5639 172.77 34.6217C171.675 33.5679 170.769 32.3332 170.092 30.9719Z" fill="#E0E0E0"/>
<path d="M281.691 222.66C281.821 223.432 281.66 224.225 281.238 224.885C279.683 227.336 275.839 233.523 275.698 234.938C275.504 236.784 275.309 240.941 275.698 241.719C276.087 242.496 279.963 243.079 279.963 243.079C279.963 243.079 279.478 246.179 280.935 247.399C282.393 248.619 288.775 246.049 288.775 246.049C290.641 245.779 292.487 245.39 294.303 244.883C294.303 244.883 298.072 245.369 298.623 242.075C299.173 238.782 296.884 227.93 296.787 225.219C296.69 222.509 294.757 215.825 294.757 215.825L280.946 218.211L281.691 222.66Z" fill="#FFA8A7"/>
<path d="M284.855 236.882C284.941 237.033 283.419 237.961 282.037 239.57C280.655 241.179 279.963 242.81 279.812 242.756C280.114 241.441 280.731 240.22 281.609 239.197C282.488 238.174 283.602 237.379 284.855 236.882Z" fill="#F28F8F"/>
<path d="M283.354 239.171C283.354 239.117 283.775 239.095 284.434 239.29C285.358 239.548 286.207 240.026 286.907 240.683L288.57 242.227L286.594 241.147C286.34 241.003 286.057 240.921 285.766 240.908C285.475 240.894 285.185 240.95 284.92 241.07C284.654 241.19 284.421 241.371 284.239 241.598C284.057 241.826 283.931 242.093 283.872 242.378L283.527 243.998L283.343 242.367C283.309 241.856 283.153 241.36 282.89 240.92C282.791 240.758 282.661 240.617 282.507 240.506C282.353 240.395 282.178 240.315 281.993 240.272C281.627 240.201 281.247 240.254 280.914 240.424C280.914 240.424 280.914 240.294 281.119 240.154C281.376 239.972 281.694 239.898 282.004 239.949C282.247 239.973 282.481 240.05 282.692 240.173C282.902 240.296 283.084 240.462 283.224 240.661C283.554 241.148 283.762 241.708 283.829 242.292H283.3C283.368 241.942 283.513 241.611 283.724 241.324C283.935 241.036 284.207 240.799 284.52 240.629C284.877 240.445 285.274 240.356 285.675 240.369C286.075 240.383 286.466 240.498 286.809 240.704L286.496 241.115C285.58 240.275 284.514 239.616 283.354 239.171Z" fill="#F28F8F"/>
<path d="M295.48 240.693C295.556 240.693 295.664 240.953 295.761 241.417C295.894 242.036 295.894 242.676 295.761 243.296C295.621 243.957 295.235 244.54 294.681 244.926C294.249 245.207 293.914 245.196 293.904 245.131C293.893 245.067 294.141 244.926 294.433 244.613C294.804 244.209 295.061 243.713 295.178 243.177C295.48 241.892 295.286 240.704 295.48 240.693Z" fill="#F28F8F"/>
<path d="M95.2397 82.1119C96.3707 85.8143 98.1354 89.2925 100.455 92.3917L104.386 95.1452L104.893 103.503L119.86 97.1105L119.428 88.7959L118.477 77.6415L108.759 69.2837L95.2397 82.1119Z" fill="#FFA8A7"/>
<path d="M138.378 58.1183L131.327 74.8338L127.137 73.9915L101.881 97.7475L93.3068 83.6127C93.3068 83.6127 108.673 75.6113 111.199 69.7479C113.726 63.8845 111.07 64.176 111.07 64.176L117.074 53.8098L138.378 58.1183Z" fill="#263238"/>
<path d="M126.997 36.9433C126.997 36.9433 118.574 34.978 104.807 26.4043C96.9347 21.3759 89.6666 15.4593 83.1458 8.77093C82.322 7.91578 81.1982 7.41411 80.0116 7.37181C78.8249 7.3295 77.6683 7.74986 76.7857 8.54417C73.9997 11.1249 70.3068 17.4418 66.7434 33.1747C60.4697 60.926 66.2899 65.8283 68.5899 65.2884C70.8899 64.7485 85.9317 58.9499 95.974 57.9889C106.016 57.0278 121.522 59.1767 121.522 59.1767L126.997 36.9433Z" fill="#E0E0E0"/>
<path d="M126.997 36.9432C126.997 36.9432 126.997 37.062 126.921 37.3103L126.662 38.3902C126.424 39.4052 126.09 40.8629 125.647 42.7094C124.718 46.5536 123.379 52.1362 121.695 59.155V59.3062H121.533C117.127 58.7555 112.095 58.2263 106.545 58.0212C103.77 57.9132 100.865 57.87 97.9066 58.0212C94.797 58.2392 91.7119 58.7233 88.6849 59.4681C82.3896 60.9043 75.9107 63.1611 69.0647 65.4071L68.73 65.4935H68.3304C68.0739 65.4838 67.8197 65.4402 67.5746 65.3639C67.3478 65.2451 67.121 65.1372 66.9159 65.0076L66.3652 64.5325C65.7351 63.8181 65.2476 62.9897 64.929 62.0921C64.3 60.3233 63.9362 58.4711 63.8492 56.5958C63.6385 52.7914 63.8049 48.9754 64.3459 45.2038L64.7023 42.6662C64.821 41.824 64.983 40.9925 65.1234 40.161C65.4041 38.4873 65.7389 36.846 66.0952 35.2155C66.7539 31.9761 67.553 28.7366 68.4168 25.6591C69.2603 22.6015 70.288 19.5978 71.4943 16.6643C72.5973 13.8008 74.1742 11.1434 76.1591 8.80325C76.6616 8.21738 77.2839 7.74607 77.984 7.42109C78.688 7.10468 79.4605 6.97098 80.23 7.03235C80.9922 7.07603 81.7328 7.30191 82.3896 7.69104C83.0026 8.08459 83.5554 8.56467 84.0309 9.11639C85.9962 11.1033 87.9831 12.9713 89.9375 14.7098C93.575 17.9569 97.4045 20.9822 101.405 23.7695C107.229 27.7592 113.398 31.2211 119.838 34.1141C122.127 35.1183 123.952 35.7986 125.237 36.2737L126.662 36.7488L127.148 36.9C126.975 36.89 126.805 36.8573 126.64 36.8028C126.316 36.7164 125.831 36.5869 125.204 36.3817C123.941 35.993 122.105 35.3019 119.805 34.3732C113.253 31.5644 106.981 28.1443 101.07 24.1582C97.0425 21.3868 93.1876 18.3722 89.5272 15.131C87.5511 13.3817 85.5535 11.5136 83.5774 9.52672C83.1346 9.02511 82.6261 8.58561 82.0657 8.22015C81.4749 7.87786 80.8139 7.67475 80.1328 7.62625C79.4372 7.58929 78.7427 7.71779 78.1064 8.00123C77.4701 8.28466 76.9101 8.71494 76.4722 9.25677C74.5423 11.5566 73.0095 14.1624 71.937 16.9666C70.7435 19.882 69.7302 22.8679 68.9027 25.9075C68.0281 28.9958 67.2398 32.1812 66.5811 35.4315C66.2356 37.062 65.9009 38.6709 65.6309 40.3554C65.4905 41.1869 65.3286 42.0183 65.199 42.8498C65.0694 43.6812 64.9722 44.5343 64.8534 45.3766C64.3134 49.1084 64.147 52.8849 64.3567 56.6498C64.4432 58.4936 64.8072 60.3137 65.4365 62.0489C65.7249 62.874 66.1684 63.6363 66.7431 64.2949L67.2182 64.7052C67.391 64.8132 67.5746 64.8996 67.7473 64.9968C68.1215 65.1268 68.5286 65.1268 68.9027 64.9968C75.6948 62.8371 82.2385 60.5155 88.5662 59.0902C91.6224 58.3502 94.7365 57.8733 97.8742 57.6648C100.898 57.5029 103.813 57.5569 106.599 57.6648C112.16 57.924 117.192 58.4531 121.619 59.0362L121.414 59.1766C123.174 52.2226 124.567 46.6939 125.528 42.8822C126.014 40.9925 126.381 39.5348 126.608 38.5629L126.91 37.4291C126.923 37.2646 126.951 37.1018 126.997 36.9432Z" fill="#263238"/>
<path d="M149.878 58.9393L144.447 58.4102L147.168 51.1863L151.822 53.3351L149.878 58.9393Z" fill="#2F6F91"/>
<path d="M147.848 50.4298L145.688 56.0664L144.533 59.1331C143.769 61.1623 142.256 62.821 140.305 63.7672C138.354 64.7135 136.115 64.8752 134.048 64.219L111.858 59.4678L119.287 31.6086L141.866 38.5195C144.184 39.3812 146.089 41.0886 147.199 43.2983C148.309 45.508 148.541 48.056 147.848 50.4298Z" fill="#2F6F91"/>
<g opacity="0.3">
<path d="M68.6329 34.546C65.3935 49.3394l 65.3935 61.9085 68.7301 62.6211C72.0667 63.3338 77.3686 51.9418 80.6081 37.1591C83.8475 22.3765 83.8475 9.79662 80.5001 9.08394C77.1527 8.37126 71.8724 19.7633 68.6329 34.546Z" fill="black"/>
</g>
<path d="M82.1741 28.478C82.1741 28.478 74.1835 25.5949 72.337 35.9503C70.4905 46.3057 78.2544 46.3057 78.2544 46.3057C80.3907 40.5764 81.7103 34.575 82.1741 28.478Z" fill="white"/>
<path d="M124.276 42.0291C127.065 43.087 129.918 43.9706 132.817 44.6746C135.671 45.5412 138.574 46.2407 141.51 46.7694C138.718 45.7247 135.865 44.8485 132.968 44.1455C130.114 43.2715 127.212 42.5649 124.276 42.0291Z" fill="#263238"/>
<path d="M123.466 45.0962C126.26 46.1458 129.116 47.0221 132.018 47.7201C134.872 48.5881 137.775 49.2876 140.711 49.815C137.914 48.7732 135.058 47.897 132.159 47.191C129.305 46.323 126.402 45.6236 123.466 45.0962Z" fill="#263238"/>
<path d="M122.656 48.1626C125.451 49.2102 128.307 50.0865 131.208 50.7865C134.062 51.6545 136.965 52.354 139.901 52.8814C137.105 51.8385 134.249 50.9659 131.349 50.2682C128.496 49.3939 125.593 48.6908 122.656 48.1626Z" fill="#263238"/>
<path d="M121.846 51.2292C124.641 52.2769 127.497 53.1532 130.398 53.8532C133.252 54.7198 136.155 55.4193 139.091 55.948C136.295 54.9052 133.439 54.0326 130.539 53.3349C127.686 52.4593 124.783 51.7561 121.846 51.2292Z" fill="#263238"/>
<path d="M114.32 76.8855L111.307 70.1259C111.131 69.6935 110.863 69.3043 110.522 68.985C110.181 68.6658 109.775 68.424 109.332 68.2763C108.889 68.1287 108.419 68.0785 107.955 68.1294C107.491 68.1802 107.043 68.3309 106.642 68.571C106.235 68.814 105.907 69.1697 105.699 69.5952C105.49 70.0207 105.409 70.4976 105.465 70.9681C105.465 70.9681 100.563 69.694 101.373 74.294C101.373 74.294 97.7985 74.1428 98.1332 77.4254C98.1332 77.4254 93.76 76.702 94.3323 80.9456C94.9046 85.1893 100.358 87.1006 101.761 86.5067C101.761 86.5067 103.262 86.01 102.474 83.6344C102.474 83.6344 106.329 88.2344 108.51 87.1222C110.691 86.01 108.629 83.9691 108.629 83.9691C108.629 83.9691 110.13 85.2973 111.437 84.6386C112.743 83.9799 110.853 79.3043 110.853 79.3043C111.693 79.6463 112.626 79.6807 113.488 79.4015C114.633 78.8724 114.32 76.8855 114.32 76.8855Z" fill="#FFA8A7"/>
<path d="M102.464 83.6351C102.323 83.7107 101.47 82.2745 100.131 80.698C99.2316 79.7986 98.5001 78.7453 97.9716 77.5881C98.9459 78.4022 99.8228 79.3262 100.585 80.3417C101.476 81.2657 102.122 82.3978 102.464 83.6351Z" fill="#F28F8F"/>
<path d="M101.578 74.1106C103.178 75.4773 104.577 77.0621 105.735 78.8186C107.038 80.4552 108.093 82.2743 108.867 84.2176C108.727 84.2932 107.29 81.8853 105.282 79.0993C103.274 76.3134 101.503 74.2186 101.578 74.1106Z" fill="#F28F8F"/>
<path d="M111.156 79.8116C110.493 78.1743 109.721 76.5834 108.845 75.0496C107.804 73.6211 106.668 72.2646 105.444 70.9895C107.054 71.8623 108.392 73.1626 109.31 74.7473C110.386 76.23 111.025 77.9842 111.156 79.8116Z" fill="#F28F8F"/>
<path d="M125.863 76.8533L123.93 74.9096C123.611 74.5916 123.219 74.3565 122.788 74.2248C122.357 74.093 121.9 74.0686 121.458 74.1538C119.073 74.6247 116.758 75.3976 114.568 76.4538C113.553 77.3176 114.255 79.4125 118.078 79.2613C121.9 79.1101 118.466 79.2613 118.466 79.2613C118.466 79.2613 110.325 82.9327 112.776 90.1674L119.082 89.6815C119.082 89.6815 125.939 81.043 126.414 79.488C126.544 79.0373 126.562 78.5615 126.466 78.1022C126.37 77.6429 126.163 77.2141 125.863 76.8533Z" fill="#FFA8A7"/>
<path d="M119.968 78.8836C119.968 78.97 119.115 79.1319 117.884 79.7582C116.271 80.5526 114.91 81.7786 113.953 83.3C113.017 84.8357 112.521 86.5985 112.517 88.3968C112.517 89.7789 112.754 90.6212 112.668 90.6536C112.304 89.9613 112.119 89.1894 112.128 88.4075C112.006 86.5127 112.474 84.6266 113.467 83.0085C114.482 81.4027 115.962 80.1446 117.711 79.4019C118.407 79.0404 119.184 78.862 119.968 78.8836Z" fill="#F28F8F"/>
<path d="M82.0658 10.5852C82.1188 10.7535 82.1514 10.9275 82.163 11.1035C82.217 11.5246 82.2818 12.0214 82.3574 12.6261C82.433 13.2307 82.5302 14.0946 82.5841 15.034C82.6381 15.9735 82.7353 17.0425 82.7461 18.2735C82.8257 21.0539 82.7572 23.8365 82.541 26.6096C82.2573 30.0077 81.7742 33.3862 81.094 36.7275C80.3867 40.061 79.4816 43.3494 78.3837 46.5754C77.4734 49.2062 76.4245 51.787 75.2414 54.3069C74.7555 55.3867 74.2372 56.3369 73.8161 57.1792C73.3949 58.0214 72.9846 58.7233 72.6499 59.3388L71.8616 60.6562C71.678 60.9477 71.5808 61.0989 71.5592 61.0881C71.6067 60.9146 71.6756 60.7478 71.7644 60.5914C71.9588 60.2243 72.1855 59.7815 72.4555 59.2308C72.7255 58.6801 73.1358 57.9351 73.5353 57.0712C73.9348 56.2074 74.4207 55.2679 74.8743 54.1773C75.8569 52.0177 76.8827 49.4045 77.887 46.4458C78.9535 43.2294 79.8403 39.9561 80.5433 36.6411C81.2181 33.323 81.7119 29.9706 82.0227 26.5989C82.2818 23.489 82.379 20.6815 82.3466 18.3167C82.3466 17.1289 82.2926 16.0599 82.271 15.0772C82.2494 14.0946 82.1954 13.3387 82.1414 12.68C82.0874 12.0214 82.0766 11.6002 82.055 11.1575C82.0292 10.9673 82.0329 10.7743 82.0658 10.5852Z" fill="#263238"/>
<path d="M122.807 95.2428L123.887 118.135L124.632 121.687L145.688 110.706C145.688 110.706 150.85 101.344 153.485 96.8518C156.119 92.3597 158.938 91.064 158.938 91.064L151.962 139.85C151.962 139.85 130.538 148.91 124.967 150.303C119.395 151.696 107.031 156.641 105.638 142.744C104.245 128.847 100.239 104.702 100.239 104.702L122.807 95.2428Z" fill="#263238"/>
<path d="M119.967 140.778C119.892 140.702 120.745 139.849 121.814 138.273C124.611 134.106 125.765 129.051 125.053 124.084C124.773 122.194 124.373 121.06 124.47 121.028C124.567 120.996 124.632 121.287 124.827 121.795C125.096 122.517 125.302 123.261 125.442 124.019C125.667 125.139 125.779 126.278 125.777 127.421C125.768 130.237 125.138 133.017 123.93 135.562C123.436 136.596 122.843 137.58 122.159 138.499C121.704 139.122 121.194 139.704 120.637 140.238C120.442 140.45 120.216 140.632 119.967 140.778Z" fill="#455A64"/>
<path d="M214.246 144.914C214.364 141.956 218.921 120.802 218.921 120.424C218.921 120.046 214.418 88.9476 214.418 88.9476L213.414 79.2292L191.57 92.3274C191.57 92.3274 182.272 85.341 182.499 84.9739L177.37 115.792L166.961 212.111C166.961 212.111 170.524 216.43 184.162 218.45C201.148 220.933 225.692 212.111 225.692 212.111C225.692 212.111 214.116 147.862 214.246 144.914Z" fill="#E0E0E0"/>
<g opacity="0.3">
<path d="M163.635 245.855C163.635 245.855 166.874 248.285 168.807 233.686C170.74 219.086 176.56 157.829 176.56 157.829L180.75 94.4219L168.246 131.341L163.635 245.855Z" fill="black"/>
</g>
<g opacity="0.3">
<path d="M212.313 198.289C212.313 198.289 218.047 254.342 220.228 253.252C222.41 252.161 243.369 243.9 243.369 243.9L241.209 225.781L212.313 198.289Z" fill="black"/>
</g>
<path d="M214.041 80.1248C214.797 80.7187 223.457 89.0872 223.457 89.0872C223.457 89.0872 243.25 91.3008 243.811 91.8839C244.373 92.467 242.656 175.192 242.656 175.192L255.614 234.711L221.589 248.695C221.589 248.695 214.678 213.795 211.438 194.931C208.199 176.066 209.16 170.721 209.549 152.451C209.938 134.18 213.868 89.0872 213.868 89.0872L214.041 80.1248Z" fill="#263238"/>
<path d="M211.471 171.013C211.479 170.717 211.504 170.421 211.546 170.128C211.622 169.555 211.708 168.691 211.881 167.601C212.227 165.441 212.777 162.202 213.544 158.347C215.067 150.561 217.377 139.86 220.023 128.058C222.183 118.599 224.223 109.874 225.897 102.888L225.973 103.114L221.956 99.6805L221.783 99.5401L221.945 99.389L226.016 95.5556V95.7284C225.195 93.666 224.558 92.0246 224.094 90.8476C223.889 90.3185 223.727 89.8974 223.608 89.5627C223.539 89.4193 223.492 89.2664 223.467 89.1091C223.559 89.2389 223.631 89.3806 223.683 89.5303C223.824 89.8542 224.007 90.2753 224.245 90.7937C224.742 91.9599 225.426 93.5652 226.297 95.6096V95.7068L226.221 95.7716L222.215 99.6805V99.3782L226.275 102.769L226.383 102.855V102.996C224.774 110.014 222.776 118.739 220.617 128.188C217.939 139.979 215.574 150.669 213.954 158.422C213.144 162.299 212.529 165.441 212.119 167.622C211.913 168.702 211.795 169.566 211.687 170.138C211.644 170.436 211.572 170.729 211.471 171.013Z" fill="#455A64"/>
<path d="M242.656 91.5708C242.656 91.5708 250.517 93.2661 254.383 102.466C256.1 106.505 276.033 149.589 280.19 158.174C284.347 166.758 298.029 215.285 298.029 215.285L274.759 219.291L261.909 170.095L240.626 131.535L242.677 112.346L242.656 91.5708Z" fill="#263238"/>
<path d="M246.252 110.101C246.403 110.101 245.863 117.26 245.053 126.071C244.243 134.882 243.444 142.009 243.282 141.988C243.12 141.966 243.671 134.828 244.491 126.017C245.312 117.206 246.1 110.079 246.252 110.101Z" fill="#455A64"/>
<path d="M276.044 219.086L276.638 221.808L297.705 218.061L297.1 215.458L276.044 219.086Z" fill="#E0E0E0"/>
<path d="M255.646 234.722C255.448 234.852 255.234 234.958 255.009 235.035L253.13 235.867L246.057 238.847L221.718 248.954L221.416 249.083L221.362 248.76C220.628 244.829 219.85 240.618 219.051 236.277C216.6 222.855 214.386 210.696 212.777 201.852C212 197.533 211.374 193.916 210.931 191.4C210.737 190.201 210.575 189.24 210.467 188.56C210.467 188.258 210.38 188.02 210.359 187.815C210.347 187.729 210.347 187.642 210.359 187.556C210.394 187.635 210.419 187.718 210.434 187.804L210.596 188.538C210.737 189.229 210.931 190.169 211.169 191.367C211.654 193.873 212.346 197.414 213.188 201.777C214.84 210.62 217.108 222.758 219.667 236.18C220.466 240.499 221.232 244.732 221.956 248.662L221.589 248.468L246.003 238.544L253.13 235.705L255.052 234.959C255.245 234.868 255.443 234.788 255.646 234.722Z" fill="#455A64"/>
<path d="M186.138 100.49L188.859 104.496H192.941L195.112 100.49L192.714 95.415L189.486 95.5878L186.138 100.49Z" fill="#2F6F91"/>
<path d="M212.723 92.3271C212.433 92.6091 212.111 92.8556 211.762 93.0614L209.03 94.8863C206.709 96.398 203.48 98.4605 199.895 100.707L196.537 102.866L196.299 103.007L196.159 102.78C194.77 100.434 193.592 97.9696 192.639 95.4154C192.261 94.476 191.98 93.7201 191.796 93.2018C191.671 92.9432 191.587 92.6661 191.548 92.3811C192.086 93.3139 192.555 94.2847 192.952 95.2858C194.006 97.7673 195.229 100.174 196.612 102.488L196.245 102.402L199.604 100.242C203.178 97.9962 206.439 95.9877 208.814 94.5624L211.643 92.8886C211.979 92.658 212.342 92.4694 212.723 92.3271Z" fill="#455A64"/>
<path d="M181.473 96.4083C181.926 96.8337 182.324 97.3123 182.661 97.8337C183.352 98.7731 184.313 100.101 185.393 101.645H184.961C185.404 101.03 185.868 100.36 186.333 99.6477C187.715 97.5961 188.946 95.7172 189.896 94.389C190.363 93.6357 190.925 92.946 191.57 92.3374C191.189 93.1334 190.741 93.8956 190.231 94.6158C189.367 95.9872 188.19 97.8553 186.808 99.9609C186.333 100.674 185.858 101.354 185.393 101.969L185.166 102.272L184.95 101.959C183.871 100.393 182.996 99.0215 182.38 98.0388C182.006 97.5385 181.701 96.99 181.473 96.4083Z" fill="#455A64"/>
<path d="M188.86 104.497L176.56 197.35L184.389 213.569L197.595 196.475L192.941 104.497H188.86Z" fill="#2F6F91"/>
<path d="M160.039 244.084C160.545 244.373 161.116 244.529 161.698 244.539C162.28 244.549 162.856 244.413 163.371 244.141C163.887 243.87 164.326 243.473 164.647 242.988C164.969 242.502 165.163 241.943 165.212 241.363L171.971 172.007L182.175 86.3125L178.58 89.3684C178.58 89.3684 159.402 90.7505 158.938 91.0637C158.474 91.3768 154.619 103.125 152.934 117.66C151.25 132.194 152.535 177.395 152.535 177.395L145.311 234.312L160.039 244.084Z" fill="#263238"/>
<path d="M151.757 105.144C151.853 105.642 151.892 106.149 151.876 106.656C151.876 107.736 151.951 109.118 152.005 110.77C152.081 114.247 152.146 119.052 152.189 124.354C152.232 129.656 152.243 134.461 152.189 137.938C152.189 139.59 152.189 140.972 152.135 142.052C152.157 142.558 152.124 143.065 152.038 143.564C151.949 143.069 151.91 142.566 151.919 142.063C151.919 140.983 151.843 139.601 151.8 137.938C151.714 134.461 151.649 129.656 151.606 124.354C151.563 119.052 151.606 114.247 151.606 110.77C151.606 109.107 151.606 107.725 151.606 106.645C151.615 106.141 151.666 105.639 151.757 105.144Z" fill="#455A64"/>
<path d="M170.157 173.724C170.136 173.411 170.136 173.097 170.157 172.784C170.157 172.169 170.222 171.273 170.233 170.106C170.233 167.774 170.297 164.405 170.233 160.248C170.233 151.922 169.995 140.422 169.704 127.724C169.498 119.085 169.293 110.954 169.131 104.087V103.935L169.261 103.871L173.915 101.366L173.839 101.679C172.684 99.9941 171.68 98.4392 170.686 97.057L170.589 96.9275L170.708 96.8195L176.841 91.0101L178.504 89.4768C178.688 89.2917 178.886 89.1219 179.098 88.9692C178.948 89.1824 178.774 89.378 178.58 89.5523L176.981 91.1613L170.967 97.0894V96.8519L174.206 101.43L174.347 101.625L174.131 101.743L169.531 104.292L169.65 104.076C169.887 110.922 170.114 119.031 170.308 127.713C170.6 140.412 170.74 151.922 170.675 160.248C170.675 164.416 170.567 167.806 170.459 170.106C170.459 171.273 170.319 172.18 170.276 172.784C170.268 173.101 170.228 173.416 170.157 173.724Z" fill="#455A64"/>
<path d="M167.976 213.223C168 213.398 168 213.576 167.976 213.752C167.976 214.152 167.89 214.648 167.825 215.242C167.663 216.624 167.447 218.482 167.188 220.728C166.626 225.36 165.806 231.742 164.866 238.793C164.531 241.276 164.207 243.674 163.916 245.898V246.287L163.57 246.092L151.952 239.538L148.615 237.594C148.199 237.381 147.805 237.127 147.438 236.838C147.875 237 148.298 237.199 148.701 237.432L152.124 239.246L163.83 245.628L163.43 245.822C163.722 243.598 164.035 241.201 164.369 238.717C165.298 231.666 166.184 225.295 166.853 220.674C167.188 218.438 167.458 216.592 167.663 215.221C167.76 214.627 167.846 214.141 167.911 213.73C167.908 213.559 167.929 213.388 167.976 213.223Z" fill="#455A64"/>
<path d="M101.578 104.108L101.826 100.015L120.518 93.3743L121.555 95.7606L101.578 104.108Z" fill="#E0E0E0"/>
</g>
<circle cx="195.983" cy="229.903" r="61.5588" fill="white" stroke="black" stroke-width="2.51261"/>
<path fill-rule="evenodd" clip-rule="evenodd" d="M229.537 206.309C230.517 207.289 231.067 208.618 231.067 210.004C231.067 211.389 230.517 212.718 229.537 213.698L190.372 252.863C189.855 253.381 189.24 253.791 188.564 254.072C187.888 254.352 187.163 254.496 186.431 254.496C185.699 254.496 184.974 254.352 184.297 254.072C183.621 253.791 183.007 253.381 182.489 252.863L163.03 233.408C162.531 232.926 162.133 232.349 161.859 231.712C161.585 231.074 161.441 230.388 161.435 229.695C161.429 229.001 161.561 228.313 161.824 227.671C162.087 227.028 162.475 226.445 162.965 225.954C163.456 225.464 164.039 225.076 164.682 224.813C165.324 224.55 166.012 224.418 166.706 224.424C167.399 224.43 168.085 224.574 168.723 224.848C169.36 225.122 169.937 225.52 170.419 226.019L186.429 242.029L222.145 206.309C222.631 205.824 223.207 205.439 223.841 205.176C224.475 204.913 225.155 204.778 225.841 204.778C226.528 204.778 227.208 204.913 227.842 205.176C228.476 205.439 229.052 205.824 229.537 206.309Z" fill="#2F6F91"/>
</svg>
