<svg width="44" height="40" viewBox="0 0 44 40" fill="none" xmlns="http://www.w3.org/2000/svg">
<g clip-path="url(#clip0_467_1533)">
<path d="M0.611087 39.0906C0.767613 39.1314 0.933908 39.1088 1.07392 39.0278C1.21394 38.9468 1.3164 38.8139 1.35909 38.6579C2.61798 33.9609 7.7342 32.7436 10.7922 32.0151C11.5585 31.833 12.1635 31.6888 12.5571 31.5189C16.0404 30.007 17.1759 27.5748 17.5156 25.8001C17.5358 25.6945 17.5278 25.5855 17.4924 25.484C17.457 25.3825 17.3955 25.2921 17.314 25.222C15.5002 23.6563 13.97 21.306 13.0044 18.6025C12.9769 18.525 12.9341 18.454 12.8785 18.3935C11.6013 17.005 10.868 15.5371 10.868 14.3675C10.868 13.6842 11.1259 13.2259 11.7064 12.88C11.7934 12.828 11.8661 12.7552 11.9179 12.6682C11.9697 12.5811 11.9991 12.4826 12.0034 12.3814C12.2735 6.15535 16.7078 1.25424 22.1466 1.22246L22.2774 1.23102C27.7432 1.3068 32.1493 6.31302 32.307 12.627C32.3093 12.7133 32.3299 12.7981 32.3674 12.8758C32.4049 12.9536 32.4585 13.0225 32.5245 13.078C32.9071 13.4019 33.0855 13.8126 33.0855 14.3699C33.0855 15.3489 32.5636 16.5528 31.6176 17.7579C31.5721 17.8156 31.5373 17.881 31.515 17.951C30.5372 21.0506 28.7821 23.7871 26.7019 25.4616C26.6155 25.531 26.5496 25.6226 26.5113 25.7266C26.473 25.8306 26.4636 25.943 26.4843 26.0519C26.8241 27.8253 27.9595 30.2563 31.4429 31.7707C31.8548 31.9491 32.494 32.0885 33.3043 32.2632C36.3318 32.9184 41.3979 34.0171 42.6409 38.6579C42.6617 38.7354 42.6977 38.8081 42.7466 38.8717C42.7955 38.9354 42.8565 38.9887 42.9261 39.0288C42.9957 39.0689 43.0725 39.0948 43.1521 39.1052C43.2317 39.1156 43.3126 39.1102 43.3901 39.0894C43.4676 39.0685 43.5403 39.0326 43.6039 38.9836C43.6675 38.9347 43.7209 38.8737 43.761 38.8041C43.801 38.7345 43.827 38.6577 43.8374 38.5781C43.8478 38.4985 43.8424 38.4177 43.8215 38.3401C42.3854 32.9782 36.6459 31.7352 33.5634 31.0679C32.8484 30.9127 32.2312 30.7795 31.9305 30.6475C29.6572 29.6599 28.2565 28.1553 27.7615 26.168C29.8723 24.3555 31.6384 21.559 32.648 18.4228C33.7199 17.0295 34.309 15.5946 34.309 14.3687C34.309 13.551 34.045 12.869 33.5219 12.3361C33.231 5.48679 28.3433 0.0931285 22.2774 0.00635069L22.0953 0.00390625C16.1394 0.035684 11.231 5.28757 10.802 12.0184C10.0369 12.5806 9.6482 13.3689 9.6482 14.3699C9.6482 15.8158 10.4659 17.5452 11.8971 19.1317C12.8859 21.8487 14.4185 24.2357 16.2433 25.9065C15.7508 27.9011 14.3489 29.4106 12.0706 30.3993C11.7761 30.5277 11.1894 30.6682 10.5099 30.8296C7.4042 31.5678 1.62553 32.9428 0.17842 38.3426C0.136628 38.4991 0.158731 38.6659 0.239868 38.8062C0.321005 38.9464 0.454533 39.0487 0.611087 39.0906Z" fill="#2F6F91"/>
</g>
<defs>
<clipPath id="clip0_467_1533">
<rect width="44" height="39.1111" fill="white"/>
</clipPath>
</defs>
</svg>
