<svg width="352" height="338" viewBox="0 0 352 338" fill="none" xmlns="http://www.w3.org/2000/svg">
<path d="M94.9851 337.081C129.306 337.081 157.129 321.019 157.129 301.206C157.129 281.392 129.306 265.33 94.9851 265.33C60.6639 265.33 32.8411 281.392 32.8411 301.206C32.8411 321.019 60.6639 337.081 94.9851 337.081Z" fill="#E0E0E0"/>
<path d="M336.052 143.805C333.907 147.56 329.193 152.747 325.879 158.182C321.845 164.801 318.911 173.666 318.857 187.601C315.946 184.837 312.834 182.12 309.528 179.48L309.335 179.31C309.183 170.886 309.886 162.469 311.433 154.187C313.84 140.376 322.395 127.137 330.54 126.316C338.15 125.48 341.401 134.422 336.052 143.805Z" fill="#E0E0E0"/>
<path d="M332.196 131.968C322.411 139.78 312.764 160.164 313.616 183.15C313.291 182.84 312.958 182.522 312.617 182.213C312.06 159.297 321.768 139.029 331.592 131.209C331.641 131.169 331.697 131.138 331.757 131.12C331.818 131.102 331.881 131.095 331.944 131.102C332.007 131.108 332.068 131.127 332.123 131.158C332.178 131.188 332.227 131.229 332.266 131.279C332.308 131.328 332.34 131.385 332.359 131.447C332.378 131.509 332.385 131.574 332.378 131.638C332.372 131.703 332.352 131.765 332.321 131.822C332.29 131.878 332.247 131.928 332.196 131.968Z" fill="white"/>
<path d="M346.341 160.892C344.878 165.707 335.58 170.77 329.618 178.799C326.698 182.672 324.455 187.012 322.984 191.635C320.955 189.539 318.818 187.475 316.573 185.441C317.495 172.466 322.906 164.197 327.698 158.345C329.402 156.246 334.085 153.336 335.974 152.732C344.367 149.999 348.098 155.101 346.341 160.892Z" fill="#EBEBEB"/>
<path d="M339.613 158.871C333.722 161.488 322.682 170.956 320.181 188.824L319.329 187.988C322 170.221 332.785 160.837 339.226 157.973C339.284 157.946 339.347 157.931 339.412 157.929C339.476 157.927 339.54 157.938 339.6 157.961C339.66 157.984 339.714 158.019 339.76 158.064C339.807 158.108 339.843 158.162 339.869 158.221C339.921 158.341 339.923 158.477 339.875 158.599C339.827 158.72 339.733 158.818 339.613 158.871Z" fill="white"/>
<path d="M6.20898 236.491L11.8683 239.758L21.1818 234.385V78.7117L27.3908 75.1272L16.7379 61.6795L11.0786 58.4125L0 84.4097L5.65931 87.6768L6.20898 87.3594V236.491Z" fill="#2F6F91"/>
<path opacity="0.7" d="M6.20898 236.491L11.8683 239.758L21.1818 234.385V78.7117L27.3908 75.1272L16.7379 61.6795L11.0786 58.4125L0 84.4097L5.65931 87.6768L6.20898 87.3594V236.491Z" fill="white"/>
<path d="M11.8684 239.758L21.1819 234.385V78.7118L27.3909 75.1273L16.7381 61.6796L5.65942 87.6769L11.8684 84.0924V239.758Z" fill="#2F6F91"/>
<path opacity="0.5" d="M11.8684 239.758L21.1819 234.385V78.7118L27.3909 75.1273L16.7381 61.6796L5.65942 87.6769L11.8684 84.0924V239.758Z" fill="white"/>
<path d="M6.20898 236.491L11.8683 239.758V84.0923L6.20898 87.3594V236.491Z" fill="#2F6F91"/>
<path opacity="0.3" d="M6.20898 236.491L11.8683 239.758V84.0923L6.20898 87.3594V236.491Z" fill="white"/>
<path d="M37.4244 220.109L41.6592 222.564L48.6423 218.53V127.222L53.2952 124.536L45.3133 113.14L41.0708 110.686L32.7715 131.488L37.0063 133.935L37.4244 133.702V220.109Z" fill="#E0E0E0"/>
<path d="M37.0063 133.935L45.3133 113.14L41.0708 110.686L32.7715 131.488L37.0063 133.935Z" fill="#F5F5F5"/>
<path d="M41.659 222.564L48.6421 218.53V127.222L53.295 124.536L45.3131 113.14L37.0061 133.935L41.659 131.248V222.564Z" fill="#EBEBEB"/>
<path d="M252.594 319.616L221.209 271.786L239.836 261.033L271.214 308.862L252.594 319.616Z" fill="#263238"/>
<path d="M221.209 271.786L190.195 253.872L208.814 243.118L239.836 261.033L221.209 271.786Z" fill="#263238"/>
<path d="M208.829 243.118L183.475 204.54L190.938 200.236L162.579 192.231L157.416 219.591L164.855 215.294L190.202 253.872L208.829 243.118Z" fill="#263238"/>
<path d="M66.0384 293.665C66.4348 292.795 66.5328 291.818 66.3171 290.886C65.9653 289.536 65.4451 288.235 64.7687 287.015C62.4926 282.044 62.7481 276.757 64.0719 271.454C64.6603 269.092 67.068 267.977 69.0964 266.747C73.2228 264.246 80.0357 260.042 80.0357 260.042L70.1493 245.1C63.7545 252.068 55.8036 260.034 55.8036 260.034L54.6346 261.242C54.3559 261.575 54.201 261.97 53.9533 262.295C53.5888 262.71 53.19 263.093 52.761 263.441L50.3843 265.709C49.6349 266.316 49.0427 267.094 48.6578 267.977C48.0772 269.673 49.0759 271.446 49.6256 273.157C50.5082 275.936 50.183 278.924 50.2527 281.843C50.2602 282.624 50.3484 283.403 50.5159 284.166C50.9291 285.595 51.6505 286.916 52.6294 288.037C54.7522 290.651 57.4245 292.765 60.4565 294.23C61.4694 294.698 62.5933 294.873 63.7003 294.733C64.1426 294.726 64.5785 294.627 64.9808 294.443C65.3832 294.259 65.7432 293.994 66.0384 293.665Z" fill="#FFA8A7"/>
<path d="M47.3881 267.436C46.9102 268.165 46.5862 268.984 46.4358 269.843C46.2268 270.726 48.2087 274.202 48.3558 275.952C48.5029 277.701 48.3558 278.274 48.3558 280.535C48.3558 283.043 47.5816 285.644 51.4526 290.599C54.3419 294.365 58.5431 296.905 63.2202 297.714C65.2261 297.999 67.2712 297.783 69.1737 297.087C69.4521 296.879 69.6492 296.58 69.7311 296.243C69.8131 295.905 69.7748 295.549 69.6228 295.237C68.4924 293.557 47.3881 267.436 47.3881 267.436Z" fill="#263238"/>
<path d="M65.3493 269.58C65.4809 270.192 65.0551 270.912 64.699 272.22C64.2631 274.061 64.179 275.968 64.4512 277.841C64.7377 279.606 65.1248 281.355 65.5738 283.082C65.8915 284.668 66.7048 286.113 67.8964 287.208C68.8785 288.002 69.6719 289.004 70.2189 290.142C71.1092 292.078 70.5054 295.113 68.8641 295.871C67.2228 296.63 63.8551 296.785 62.028 296.305C60.0142 295.718 58.0953 294.844 56.33 293.711C52.9933 291.691 49.4552 286.264 49.3004 283.26C49.1455 280.256 49.6875 278.042 49.463 275.766C49.2384 273.49 46.9546 269.642 47.4191 267.435C47.7907 265.957 49.4397 264.393 50.0823 263.882C51.2982 262.947 52.4326 261.912 53.4732 260.785C54.2474 259.887 55.0216 259.624 55.8577 260.011L54.6887 261.219C53.9145 263.99 54.0307 264.563 54.1468 265.794C54.2939 267.428 54.8513 268.117 55.0913 269.402C55.6719 267.575 55.6642 266.088 56.9416 265.771C57.6461 265.593 58.3816 265.554 60.7429 266.545C63.1041 267.536 65.2254 269.038 65.3493 269.58Z" fill="#263238"/>
<path d="M68.6938 287.982C68.5686 288.092 68.4181 288.168 68.2558 288.205C68.0936 288.241 67.9248 288.237 67.7648 288.191C67.2057 288.023 66.7288 287.653 66.4255 287.154C66.1108 286.414 65.9073 285.631 65.8216 284.831C65.8216 284.831 65.0474 283.964 62.2371 283.964C60.6151 283.921 58.9947 284.101 57.4216 284.499C57.4216 284.499 57.6075 285.668 57.6152 286.124C57.6152 287.2 57.2513 288.308 56.392 288.594C54.8436 289.105 52.521 287.379 51.7081 286.364C50.7459 285.049 50.0658 283.55 49.7107 281.959C49.5315 281.299 49.4046 280.626 49.3314 279.946C49.2506 281.052 49.2299 282.16 49.2694 283.268C49.4243 286.271 52.9623 291.699 56.2991 293.719C58.0644 294.852 59.9833 295.726 61.9971 296.313C63.8242 296.793 67.13 296.684 68.8332 295.879C70.5364 295.074 71.0783 292.086 70.188 290.15C69.8158 289.348 69.3106 288.616 68.6938 287.982Z" fill="#263238"/>
<path d="M65.3338 284.708C65.6195 285.307 66.1278 285.771 66.7505 286.001C66.7553 285.988 66.7553 285.974 66.7505 285.962C66.1913 285.086 65.7904 284.119 65.566 283.105C65.117 281.379 64.7299 279.629 64.4434 277.864C64.2871 276.811 64.2456 275.744 64.3196 274.682C64.0563 275.007 64.126 275.681 64.1105 276.068C64.0917 278.185 64.2627 280.299 64.6215 282.385C64.7302 283.193 64.9708 283.978 65.3338 284.708Z" fill="#263238"/>
<path d="M52.6371 265.152C52.5821 263.866 52.7072 262.578 53.0088 261.327L53.4733 260.816C54.2474 259.918 55.0216 259.655 55.8578 260.042L54.6887 261.25C54.377 262.576 54.301 263.946 54.4642 265.299C54.7352 267.149 54.8513 268.155 55.0913 269.433C55.6642 273.66 55.3236 275.27 56.299 279.095C57.2745 282.919 58.939 285.11 58.4977 285.513C58.0565 285.915 56.8565 285.9 55.5481 283.035C54.2397 280.171 53.6513 274.744 53.6746 272.057C53.6978 269.371 52.8307 267.861 52.6371 265.152Z" fill="#263238"/>
<path d="M57.8243 285.002C57.8993 285.029 57.9815 285.029 58.0566 285.002C59.2108 284.531 60.4471 284.294 61.6937 284.304C62.9403 284.315 64.1724 284.573 65.3184 285.064C65.4161 285.097 65.5227 285.091 65.6164 285.048C65.71 285.005 65.7835 284.927 65.8217 284.831C65.8543 284.733 65.8476 284.625 65.8029 284.532C65.7581 284.438 65.6789 284.365 65.5817 284.328C63.112 283.281 60.3279 283.256 57.8398 284.259C57.7417 284.292 57.6608 284.363 57.6144 284.456C57.5681 284.548 57.56 284.655 57.592 284.754C57.6088 284.811 57.6386 284.862 57.6789 284.905C57.7192 284.948 57.769 284.981 57.8243 285.002Z" fill="#263238"/>
<path d="M56.5856 281.611C56.6586 281.634 56.737 281.634 56.8101 281.611C59.343 280.743 62.1117 280.873 64.552 281.975C64.6012 281.995 64.6539 282.004 64.7069 282.003C64.7599 282.002 64.8122 281.991 64.8606 281.969C64.9091 281.947 64.9526 281.916 64.9887 281.877C65.0248 281.838 65.0527 281.792 65.0707 281.743C65.1085 281.643 65.1052 281.532 65.0617 281.435C65.0182 281.338 64.9379 281.262 64.8384 281.224C62.2464 280.067 59.3136 279.928 56.6243 280.837C56.5402 280.861 56.4661 280.912 56.4135 280.981C56.3608 281.051 56.3323 281.136 56.3323 281.224C56.3323 281.311 56.3608 281.396 56.4135 281.466C56.4661 281.536 56.5402 281.587 56.6243 281.611H56.5856Z" fill="#263238"/>
<path d="M55.5093 277.995C55.5903 278.019 55.6761 278.019 55.7571 277.995C58.6476 277.264 61.7071 277.64 64.3351 279.048C64.4328 279.072 64.5358 279.062 64.627 279.019C64.7181 278.977 64.7919 278.904 64.8362 278.814C64.8805 278.723 64.8926 278.621 64.8704 278.523C64.8483 278.424 64.7932 278.337 64.7144 278.274C61.9161 276.782 58.6633 276.382 55.5867 277.152C55.5298 277.163 55.4756 277.185 55.4272 277.217C55.3788 277.249 55.3373 277.29 55.3049 277.339C55.2726 277.387 55.25 277.441 55.2386 277.498C55.2272 277.555 55.2271 277.613 55.2384 277.67C55.252 277.743 55.284 277.811 55.3315 277.868C55.3789 277.925 55.4401 277.969 55.5093 277.995Z" fill="#263238"/>
<path d="M55.3313 274.775C55.4097 274.798 55.493 274.798 55.5713 274.775C58.4127 274.109 61.4005 274.537 63.9403 275.975C63.9918 276.007 64.0495 276.028 64.1097 276.037C64.1699 276.046 64.2313 276.042 64.2898 276.025C64.3484 276.009 64.4027 275.98 64.4494 275.941C64.4961 275.902 64.5341 275.853 64.5609 275.799C64.5876 275.744 64.6026 275.685 64.6048 275.624C64.607 275.563 64.5964 275.502 64.5736 275.446C64.5509 275.389 64.5165 275.338 64.4728 275.296C64.429 275.254 64.3768 275.221 64.3197 275.201C61.6134 273.684 58.4399 273.229 55.4165 273.923C55.3241 273.94 55.2397 273.986 55.1759 274.055C55.1121 274.124 55.0724 274.212 55.0628 274.305C55.0532 274.399 55.0742 274.493 55.1226 274.573C55.1711 274.654 55.2443 274.716 55.3313 274.752V274.775Z" fill="#263238"/>
<path d="M55.1147 271.771C55.1935 271.79 55.2758 271.79 55.3547 271.771C58.4514 271.229 60.8282 271.725 64.0643 273.319C64.1659 273.363 64.2803 273.366 64.3841 273.328C64.4879 273.29 64.5732 273.214 64.6226 273.115C64.6721 273.016 64.6819 272.902 64.65 272.796C64.6182 272.69 64.5471 272.6 64.4514 272.545C61.0527 270.842 58.5133 270.323 55.2076 270.888C55.1147 270.904 55.0295 270.95 54.9648 271.018C54.9001 271.086 54.8594 271.174 54.8489 271.268C54.8384 271.361 54.8587 271.456 54.9066 271.537C54.9546 271.618 55.0276 271.681 55.1147 271.717V271.771Z" fill="#263238"/>
<path d="M128.6 169.013C128.6 169.013 127.052 184.117 127.455 188.817C128.02 195.126 128.074 197.333 128.399 203.72C129.498 225.056 129.994 229.477 125.38 234.416C122.012 238.032 114.742 242.259 111.135 244.055C96.9438 251.108 70.5982 266.545 70.5982 266.545C70.5982 266.545 67.4395 266.669 63.6847 261.73C60.1699 257.085 60.8976 254.483 60.8976 254.483C60.8976 254.483 66.975 246.889 75.8085 236.011C84.6419 225.134 94.3425 221.302 94.3425 221.302L87.3748 169.485L128.6 169.013Z" fill="#263238"/>
<path d="M89.2331 183.126L94.3427 221.302C94.3427 221.302 87.1118 224.213 79.5093 231.885C83.2254 240.602 86.9183 249.358 86.9183 249.358C86.6388 252.004 86.5483 254.666 86.6473 257.325C94.784 252.718 104.353 247.43 111.135 244.055C111.824 243.714 112.683 243.281 113.55 242.785C113.465 238.396 112.993 232.659 112.211 225.544C111.282 217.082 109.888 202.202 109.888 202.202C121.819 195.908 121.168 190.35 121.819 184.69L89.2176 183.142L89.2331 183.126Z" fill="#263238"/>
<path d="M122.175 317.425C122.175 317.425 115.664 313.554 115.037 302.537C114.41 291.52 114.054 278.584 114.054 278.584L93.5298 278.909L101.078 305.231L101.636 307.074C101.636 307.074 99.7697 317.324 107.829 318.276C111.948 318.772 122.175 317.425 122.175 317.425Z" fill="#FFA8A7"/>
<path d="M99.4136 317.224C99.4875 318.162 99.7509 319.076 100.188 319.91C100.583 320.8 104.554 322.503 105.824 323.913C107.094 325.322 107.295 325.925 108.781 327.876C110.423 330.036 111.437 332.785 118.071 334.519C124.706 336.253 129.026 335.154 131.821 333.675C132.806 333.09 133.637 332.278 134.244 331.306C134.244 331.306 135.018 327.551 132.905 326.893C130.791 326.235 99.4136 317.224 99.4136 317.224Z" fill="#263238"/>
<path d="M116.268 307.337C116.779 307.778 116.879 308.676 117.429 310.031C118.253 311.9 119.422 313.597 120.874 315.033C128.515 322.279 133.772 323.378 134.407 328.55C134.639 330.439 132.417 333.141 124.211 333.969C120.023 334.41 113.442 332.049 111.352 329.556C109.261 327.063 108.255 324.818 106.606 323.007C104.957 321.195 100.451 319.368 99.4136 317.177C98.7711 315.629 99.1659 313.236 99.4136 312.377C99.8574 310.791 100.163 309.169 100.327 307.531C100.381 306.276 100.141 305.394 101.101 305.208L101.682 307.113C102.843 309.977 103.292 310.418 104.198 311.402C105.383 312.71 106.319 312.95 107.365 313.894C106.668 311.936 105.692 310.666 106.59 309.559C107.078 308.947 107.682 308.444 110.353 307.732C113.024 307.02 115.803 306.95 116.268 307.337Z" fill="#263238"/>
<path d="M124.234 333.992C120.046 334.434 113.465 332.072 111.375 329.572C110.708 328.744 110.09 327.878 109.524 326.978C109.679 327.125 109.826 327.288 109.966 327.412C110.268 327.675 110.577 327.931 110.902 328.186C112.118 329.22 113.579 329.924 115.145 330.23C116.546 330.416 119.999 331.004 120.982 329.541C121.532 328.767 121.16 327.512 120.425 326.614C120.115 326.235 119.194 325.345 119.194 325.345C120.35 324.189 121.683 323.225 123.142 322.488C125.891 321.234 126.154 321.513 126.154 321.513C126.692 322.025 127.312 322.444 127.989 322.751C128.649 323.044 129.364 323.195 130.087 323.193C130.351 323.164 130.611 323.105 130.861 323.014C132.82 324.362 134.368 325.716 134.507 328.55C134.469 330.447 132.471 333.125 124.234 333.992Z" fill="#263238"/>
<path d="M118.714 312.385C118.857 312.865 119.096 313.31 119.419 313.693C120.79 315.528 122.324 317.236 124.002 318.795C124.646 319.388 125.135 320.129 125.426 320.955C125.463 321.307 125.535 321.655 125.643 321.993C125.683 322.123 125.766 322.236 125.878 322.314C125.991 322.391 126.126 322.428 126.262 322.418C126.474 322.436 126.687 322.394 126.876 322.297C127.065 322.2 127.222 322.051 127.331 321.869C127.424 321.561 127.424 321.232 127.331 320.924C127.292 320.715 127.246 320.514 127.191 320.313C124.974 318.692 122.859 316.937 120.859 315.056C120.045 314.249 119.326 313.353 118.714 312.385Z" fill="#263238"/>
<path d="M102.441 311.804C101.55 310.738 100.807 309.555 100.234 308.289C100.234 308.018 100.296 307.763 100.304 307.515C100.358 306.261 100.118 305.378 101.078 305.193L101.659 307.097C102.249 308.466 103.077 309.719 104.105 310.798C105.537 312.215 106.296 312.996 107.341 313.949C110.585 317.208 111.344 318.818 114.673 321.474C118.002 324.129 120.866 324.927 120.75 325.562C120.634 326.196 119.597 326.963 116.6 325.352C113.604 323.742 109.563 319.461 107.829 317.131C106.095 314.8 104.376 314.018 102.441 311.804Z" fill="#263238"/>
<path d="M118.985 325.399C119.069 325.39 119.147 325.355 119.21 325.298C121.532 323.324 123.081 322.527 126.479 322.372C126.59 322.364 126.694 322.314 126.769 322.232C126.844 322.149 126.884 322.042 126.882 321.931C126.88 321.875 126.867 321.82 126.843 321.77C126.82 321.719 126.787 321.674 126.746 321.637C126.705 321.599 126.656 321.57 126.604 321.552C126.552 321.533 126.496 321.525 126.44 321.528C122.833 321.691 121.106 322.558 118.699 324.663C118.629 324.722 118.58 324.801 118.559 324.889C118.538 324.978 118.547 325.071 118.584 325.154C118.62 325.237 118.683 325.306 118.763 325.35C118.842 325.394 118.934 325.412 119.024 325.399H118.985Z" fill="#263238"/>
<path d="M116.546 323.2C116.627 323.183 116.701 323.146 116.763 323.092C118.799 321.055 121.534 319.87 124.412 319.778C124.47 319.774 124.526 319.759 124.577 319.733C124.628 319.707 124.674 319.671 124.71 319.627C124.747 319.582 124.775 319.531 124.792 319.476C124.808 319.421 124.813 319.363 124.807 319.306C124.795 319.192 124.739 319.086 124.651 319.013C124.563 318.939 124.449 318.903 124.335 318.911C121.272 319.024 118.363 320.288 116.19 322.449C116.104 322.525 116.052 322.632 116.044 322.747C116.037 322.862 116.076 322.975 116.152 323.061C116.201 323.114 116.263 323.154 116.332 323.178C116.401 323.203 116.474 323.21 116.546 323.2Z" fill="#263238"/>
<path d="M113.628 321.033C113.717 321.016 113.8 320.976 113.868 320.916C116.129 318.623 119.167 317.261 122.384 317.1C122.503 317.078 122.61 317.013 122.683 316.915C122.756 316.818 122.79 316.697 122.777 316.577C122.764 316.456 122.706 316.345 122.614 316.265C122.523 316.185 122.404 316.143 122.283 316.147C118.118 316.596 115.943 317.696 113.225 320.212C113.137 320.302 113.087 320.423 113.087 320.549C113.087 320.675 113.137 320.796 113.225 320.885C113.276 320.94 113.339 320.982 113.409 321.007C113.479 321.033 113.554 321.041 113.628 321.033Z" fill="#263238"/>
<path d="M111.174 318.362C111.261 318.347 111.342 318.307 111.406 318.245C113.632 316.02 116.614 314.713 119.759 314.584C119.825 314.582 119.889 314.568 119.948 314.541C120.008 314.513 120.061 314.474 120.104 314.425C120.147 314.377 120.18 314.319 120.2 314.257C120.22 314.195 120.228 314.13 120.221 314.065C120.215 314 120.195 313.937 120.163 313.88C120.131 313.823 120.087 313.773 120.035 313.734C119.983 313.695 119.924 313.667 119.86 313.652C119.797 313.637 119.731 313.635 119.666 313.647C116.327 313.792 113.16 315.172 110.779 317.518C110.693 317.607 110.645 317.726 110.645 317.851C110.645 317.975 110.693 318.094 110.779 318.184C110.825 318.243 110.885 318.29 110.954 318.321C111.023 318.352 111.098 318.366 111.174 318.362Z" fill="#263238"/>
<path d="M108.75 315.567C108.837 315.557 108.919 315.519 108.983 315.458C111.576 313.244 114.038 312.362 117.94 312.122C118.062 312.108 118.175 312.049 118.256 311.955C118.336 311.862 118.378 311.741 118.373 311.618C118.362 311.495 118.303 311.381 118.209 311.3C118.115 311.22 117.994 311.178 117.87 311.185C113.775 311.479 111.127 312.4 108.379 314.746C108.298 314.81 108.241 314.9 108.216 315.001C108.192 315.101 108.202 315.207 108.245 315.301C108.287 315.395 108.36 315.473 108.452 315.521C108.543 315.569 108.648 315.585 108.75 315.567Z" fill="#263238"/>
<path d="M126.417 169.013C126.417 169.013 129.359 178.799 124.869 186.688C118.931 197.101 109.966 199.756 106.652 200.461C106.652 200.461 110.152 226.682 111.421 235.965C112.195 241.903 112.815 248.282 113.806 267.83C114.433 280.295 115.277 297.644 115.277 297.644C115.277 297.644 112.954 300.315 106.761 300.648C100.978 300.966 99.104 299.68 99.104 299.68C99.104 299.68 90.495 274.202 89.1479 264.207C88.5947 259.468 88.5117 254.686 88.9002 249.931C88.9002 245.627 76.3506 220.156 74.1906 208.187C72.0306 196.218 72.5648 187.005 77.0783 169.601L126.417 169.013Z" fill="#263238"/>
<path d="M138.169 45.2668C139.129 43.1378 141.266 38.7249 141.266 35.7056C141.266 32.0437 139.648 32.4153 139.648 32.4153C140.306 29.3804 138.874 28.2114 138.154 28.2037C138.27 27.4306 138.238 26.6425 138.061 25.8811C137.767 24.8205 136.42 25.0527 135.406 26.0514C134.593 26.8256 134.151 29.1482 134.151 29.1482C134.151 29.1482 134.508 26.6863 133.478 26.5082C132.448 26.3301 131.271 26.9263 130.613 28.8308C130.164 30.0927 130.071 32.0901 127.997 36.5107C125.922 40.9313 126.146 40.0875 125.442 37.1688C124.737 34.2501 123.591 33.1894 122.19 33.2359C121.052 33.2359 121.679 36.743 121.579 39.9249C121.421 42.5583 121.816 45.1956 122.74 47.6668C123.808 50.988 125.519 51.9558 126.139 53.8603C127.555 58.3041 133.346 82.0717 133.346 82.0717C133.346 82.0717 132.193 85.5168 129.235 92.8561C127.331 97.5941 124.59 105.955 120.959 108.162C117.677 120.549 124.652 133.416 131.163 135.405C131.984 133.586 140.175 113.798 146.871 95.349C147.955 92.3684 149.968 85.6097 150.061 83.202C150.154 80.7943 149.248 78.4175 148.319 75.7853C147.313 72.8975 139.803 57.5144 138.255 52.8925C137.336 50.4253 137.322 47.7122 138.216 45.2358" fill="#FFA8A7"/>
<path d="M127.021 58.3893C132.44 60.5183 138.216 56.6628 139.005 55.037C139.005 55.037 145.71 68.2757 148.025 73.9272C150.804 80.7323 151.121 82.2033 149.124 89.2716C146.608 98.1903 130.544 138.386 130.544 138.386C118.42 129.282 115.834 113.233 121.168 107.767C121.168 107.767 122.902 106.017 125.651 100.343C128.399 94.6677 133.052 82.0794 133.052 82.0794L127.021 58.3893Z" fill="#E0E0E0"/>
<path d="M127.95 36.5262C128.51 35.411 129.009 34.2661 129.444 33.0965C129.872 31.9123 130.223 30.7021 130.497 29.4734C130.799 28.3121 131.45 27.0501 132.634 26.7482C132.914 26.6784 133.206 26.6784 133.486 26.7482C133.605 26.8102 133.708 26.9004 133.785 27.011C133.862 27.1216 133.911 27.2493 133.927 27.383C134.028 27.9853 134.028 28.6001 133.927 29.2024C133.924 29.2223 133.925 29.2427 133.929 29.2623C133.934 29.2818 133.943 29.3002 133.956 29.3162C133.968 29.3322 133.984 29.3454 134.001 29.3551C134.019 29.3649 134.038 29.3708 134.059 29.3727C134.084 29.3863 134.112 29.3931 134.14 29.3923C134.169 29.3915 134.197 29.3833 134.221 29.3684C134.245 29.3535 134.265 29.3324 134.279 29.3074C134.292 29.2823 134.299 29.2541 134.299 29.2256C134.442 28.5065 134.657 27.8036 134.941 27.1276C135.191 26.4502 135.693 25.8955 136.342 25.5792C136.962 25.2385 137.782 25.285 137.891 26.005C138.055 26.708 138.083 27.4357 137.976 28.1495C137.973 28.1739 137.974 28.1988 137.981 28.2225C137.987 28.2463 137.998 28.2686 138.013 28.288C138.029 28.3075 138.047 28.3238 138.069 28.3358C138.09 28.3479 138.114 28.3557 138.139 28.3585C138.317 28.3893 138.487 28.455 138.64 28.552C138.793 28.649 138.925 28.7753 139.029 28.9237C139.27 29.2307 139.439 29.5878 139.524 29.9688C139.685 30.7596 139.672 31.576 139.486 32.3611C139.482 32.3804 139.483 32.4002 139.487 32.4193C139.492 32.4384 139.5 32.4565 139.512 32.4723C139.523 32.4882 139.538 32.5016 139.555 32.5118C139.571 32.5219 139.59 32.5286 139.609 32.5314H139.671C140.151 32.4617 140.608 32.9417 140.786 33.4682C140.975 34.012 141.082 34.5807 141.104 35.1559C141.156 36.3282 141.01 37.501 140.67 38.6243C139.999 40.8963 139.163 43.1164 138.169 45.2668C139.249 43.1573 140.15 40.9613 140.864 38.7017C141.217 37.5594 141.379 36.3666 141.344 35.1714C141.331 34.5649 141.224 33.9641 141.026 33.3907C140.952 33.0667 140.768 32.7783 140.506 32.5738C140.243 32.3694 139.919 32.2615 139.586 32.2682L139.764 32.4462C139.971 31.6172 139.992 30.7528 139.826 29.9146C139.732 29.4858 139.547 29.0821 139.284 28.7301C139.15 28.5387 138.978 28.3772 138.778 28.2559C138.578 28.1346 138.355 28.0562 138.123 28.0256L138.301 28.2347C138.425 27.463 138.401 26.6749 138.231 25.9121C138.195 25.6916 138.092 25.4877 137.935 25.3284C137.778 25.169 137.576 25.0619 137.357 25.0218C136.944 24.9716 136.526 25.0557 136.164 25.2618C135.449 25.6095 134.894 26.2194 134.616 26.965C134.326 27.6655 134.11 28.3947 133.973 29.1404L134.299 29.2256C134.394 28.582 134.373 27.9263 134.237 27.2901C134.211 27.1123 134.14 26.9439 134.032 26.8004C133.924 26.657 133.781 26.5432 133.617 26.4695C133.288 26.3804 132.94 26.3804 132.611 26.4695C131.264 26.8489 130.629 28.2114 130.288 29.3959C129.948 30.5804 129.715 31.8424 129.321 33.0346C128.924 34.2213 128.467 35.3867 127.95 36.5262Z" fill="#F28F8F"/>
<path d="M139.555 32.2294C139.139 32.3901 138.768 32.6495 138.474 32.9853C138.18 33.321 137.972 33.7232 137.867 34.1572C137.751 34.5665 137.679 34.9869 137.651 35.4113C137.583 35.8137 137.474 36.2081 137.325 36.5881C136.708 38.1347 135.992 39.6397 135.181 41.0939C136.048 39.6657 136.824 38.184 137.503 36.6578C137.676 36.2706 137.806 35.8656 137.891 35.4501C137.93 35.0424 138.013 34.6402 138.138 34.2501C138.243 33.8703 138.439 33.5218 138.709 33.2345C138.979 32.9472 139.314 32.7298 139.687 32.601L139.555 32.2294Z" fill="#F28F8F"/>
<path d="M138.115 28.0101C137.821 28.0268 137.537 28.1246 137.296 28.2927C137.054 28.4608 136.863 28.6925 136.745 28.9623C136.496 29.4365 136.311 29.9415 136.195 30.4642C136.009 31.4851 135.75 32.4915 135.421 33.4758C135.097 34.4624 134.723 35.4314 134.298 36.379L132.944 39.1893L134.384 36.4178C134.842 35.4819 135.245 34.5203 135.591 33.5378C135.953 32.5589 136.243 31.555 136.458 30.5339C136.579 30.0435 136.767 29.572 137.016 29.1326C137.102 28.9172 137.248 28.7303 137.435 28.5934C137.623 28.4566 137.845 28.3751 138.076 28.3585L138.115 28.0101Z" fill="#F28F8F"/>
<path d="M133.927 29.1249C133.455 30.503 132.905 31.8578 132.332 33.2049C131.759 34.552 131.163 35.8836 130.466 37.1688C131.24 35.9146 131.868 34.5984 132.51 33.2978C133.153 31.9972 133.749 30.6423 134.291 29.272L133.927 29.1249Z" fill="#F28F8F"/>
<path d="M125.395 37.1843C125.852 39.0733 125.922 40.0875 126.479 39.3752C125.457 41.1404 124.768 41.512 124.892 40.5055C125.04 39.5204 125.133 38.528 125.171 37.5326C125.15 36.7397 125.001 35.9553 124.729 35.2101C125.015 35.845 125.238 36.5062 125.395 37.1843Z" fill="#F28F8F"/>
<path d="M128.244 43.0758C129.53 42.6043 130.938 42.5797 132.239 43.0062C132.324 43.0062 132.239 43.1687 132.154 43.1532C130.35 42.9055 128.151 43.2694 126.951 44.7713C126.619 45.2216 126.324 45.698 126.069 46.1958C125.999 46.3274 125.86 46.4668 125.736 46.3971C125.612 46.3274 125.659 46.2268 125.666 46.1339C125.739 45.4243 126.024 44.7531 126.484 44.2077C126.944 43.6623 127.557 43.2679 128.244 43.0758Z" fill="#F28F8F"/>
<path d="M104.701 110.562C96.1852 111.289 91.3775 113.86 88.5982 112.265C84.3866 109.834 82.4976 113.287 82.4976 113.287C82.4976 113.287 76.5673 123.522 78.9596 136.017C80.0279 141.568 79.8266 151.919 79.5092 154.598C78.4099 163.888 76.8538 168.827 74.9802 177.204C74.9802 177.204 78.1157 186.153 102.371 187.717C118.041 188.708 127.741 183.289 127.741 183.289C127.741 183.289 130.753 151.547 131.155 139.996C131.48 128.567 127.894 117.369 120.99 108.255C120.905 108.162 120.711 108.2 120.711 108.2C115.664 110.461 112.42 109.904 104.701 110.562Z" fill="#F0F0F0"/>
<path d="M107.519 121.517L109.95 119.628L115.068 122.508L117.042 117.646L119.163 119.674L116.337 126.138L107.519 121.517Z" fill="#2F6F91"/>
<path opacity="0.2" d="M107.519 121.517L109.95 119.628L115.068 122.508L117.042 117.646L119.163 119.674L116.337 126.138L107.519 121.517Z" fill="black"/>
<path d="M94.1878 80.322C94.1878 80.322 92.0201 80.4923 90.8433 83.3258C89.713 86.0432 90.5414 88.4896 93.4369 96.1696C94.5442 99.1648 96.0971 101.976 98.0433 104.508C98.6156 105.335 99.4875 105.907 100.474 106.102L99.7465 100.056L99.1271 95.8599C99.1271 95.8599 102.224 92.4535 102.224 89.3877C102.224 85.4471 100.505 83.38 100.505 83.38L94.1878 80.322Z" fill="#263238"/>
<path d="M94.1877 80.322C94.4587 76.8614 98.3993 72.3866 106.691 71.1634C113.488 70.1569 117.53 72.255 120.448 75.8859C123.677 79.9117 122.12 84.9516 122.12 84.9516L100.536 85.5633L94.1877 80.322Z" fill="#263238"/>
<path d="M95.233 101.047C95.9221 101.396 96.7056 101.514 97.4671 101.383C98.2285 101.252 98.9275 100.879 99.4601 100.319L98.4072 112.381C101.775 117.026 111.135 118.242 115.068 123.46C116.09 120.44 116.152 114.51 115.184 112.513L115.617 107.643C116.581 107.43 117.53 107.156 118.459 106.822C121.099 105.824 124.079 103.942 124.551 99.6689C125.148 94.3503 123.638 89.2793 121.253 81.8626C120.789 80.4304 120.007 78.8897 118.598 78.3555C115.106 77.0162 112.25 79.6871 107.759 81.9323C105.909 82.8613 101.272 83.6355 100.017 83.171C101.868 83.7516 102.696 87.8548 100.528 90.3787C100.528 90.5954 101.194 93.5296 100.188 94.1877C99.0575 94.9619 98.6394 92.9412 97.1994 91.78C95.8833 90.7038 92.7788 90.2316 91.7801 93.3283C90.8898 95.8522 92.2833 99.6767 95.233 101.047Z" fill="#FFA8A7"/>
<path d="M106.319 106.644C104.912 106.037 103.65 105.135 102.62 104C101.589 102.865 100.812 101.523 100.343 100.064C100.559 102.386 102.665 107.225 106.079 108.626C109.045 109.73 112.213 110.184 115.37 109.958L115.579 107.635C111.971 107.96 108.441 107.682 106.319 106.644Z" fill="#F28F8F"/>
<path d="M110.848 88.3194L107.543 88.9232C107.472 88.4738 107.577 88.0144 107.837 87.6408C108.096 87.2672 108.49 87.0083 108.936 86.9181C109.154 86.8796 109.378 86.8857 109.594 86.9359C109.809 86.9862 110.013 87.0796 110.191 87.2105C110.37 87.3415 110.52 87.5072 110.633 87.6978C110.746 87.8883 110.819 88.0998 110.848 88.3194Z" fill="#263238"/>
<path d="M119.589 83.8291L117.189 86.2136C117.031 86.0659 116.903 85.8879 116.815 85.6901C116.727 85.4923 116.679 85.2787 116.674 85.0621C116.67 84.8455 116.709 84.6302 116.79 84.4291C116.87 84.2279 116.99 84.0449 117.143 83.891C117.465 83.57 117.899 83.3847 118.354 83.3732C118.809 83.3617 119.251 83.5248 119.589 83.8291Z" fill="#263238"/>
<path d="M113.682 88.0638L116.624 96.3477L120.766 93.7077C118.855 91.3212 116.435 89.3928 113.682 88.0638Z" fill="#F28F8F"/>
<path d="M116.779 99.0109C116.779 98.9644 116.74 98.918 116.616 98.8947C116.355 98.8879 116.095 98.9166 115.842 98.9799C115.378 99.0459 114.907 99.0302 114.448 98.9334C114.107 98.8567 113.781 98.726 113.481 98.5464C113.338 98.4624 113.201 98.3693 113.07 98.2676C112.908 98.1438 112.784 97.9657 112.575 97.958C112.5 97.9485 112.424 97.9638 112.358 98.0016C112.292 98.0393 112.241 98.0974 112.211 98.167C112.168 98.2739 112.168 98.393 112.211 98.4999C112.583 98.9783 113.099 99.3255 113.682 99.4909C114.46 99.7388 115.296 99.7388 116.074 99.4909C116.632 99.3051 116.755 99.158 116.779 99.0109Z" fill="#B16668"/>
<path d="M111.228 91.0213C111.238 91.2813 111.171 91.5385 111.036 91.7606C110.9 91.9826 110.701 92.1594 110.465 92.2687C110.229 92.378 109.966 92.4148 109.709 92.3746C109.452 92.3343 109.212 92.2187 109.021 92.0424C108.83 91.8662 108.695 91.6371 108.633 91.3842C108.572 91.1313 108.587 90.866 108.677 90.6216C108.766 90.3773 108.926 90.165 109.136 90.0115C109.346 89.858 109.597 89.7703 109.857 89.7594C110.206 89.7467 110.545 89.8722 110.802 90.1085C111.059 90.3448 111.212 90.6728 111.228 91.0213Z" fill="#263238"/>
<path d="M120.541 87.8549C120.552 88.1152 120.485 88.3728 120.349 88.5951C120.213 88.8173 120.014 88.9942 119.777 89.1033C119.541 89.2125 119.277 89.2489 119.02 89.208C118.763 89.1672 118.523 89.0509 118.332 88.8738C118.141 88.6968 118.007 88.467 117.946 88.2135C117.886 87.9601 117.902 87.6944 117.992 87.4502C118.083 87.2059 118.244 86.994 118.455 86.8414C118.667 86.6888 118.918 86.6024 119.179 86.593C119.351 86.5857 119.523 86.6127 119.685 86.6723C119.847 86.7319 119.996 86.8229 120.123 86.9402C120.249 87.0575 120.352 87.1988 120.423 87.3557C120.495 87.5127 120.535 87.6823 120.541 87.8549Z" fill="#263238"/>
<path d="M115.067 123.46C114.039 122.081 112.938 120.758 111.769 119.496C110.724 118.513 106.962 117.227 103.253 114.711C99.545 112.195 98.6082 109.772 98.6082 109.772L98.7553 107.96C98.7553 107.96 98.3759 107.628 97.7721 108.905C96.8353 110.895 94.3579 112.304 94.3579 112.304C95.0011 115.321 96.5581 118.068 98.8172 120.169C101.671 122.733 105.023 124.678 108.665 125.883C109.242 124.432 109.958 123.04 110.802 121.726C111.986 120.347 113.914 122.275 115.067 123.46Z" fill="#E0E0E0"/>
<path d="M115.068 123.46C115.068 123.46 115.493 120.402 115.617 118.629C115.731 116.58 115.586 114.525 115.184 112.513L115.579 108.123C115.579 108.123 117.081 109.517 117.692 110.012C118.058 110.314 118.447 110.588 118.853 110.833C118.853 110.833 120.053 112.42 120.634 116.02C121.044 118.713 120.999 121.455 120.502 124.133C120.502 124.133 118.373 120.262 117.46 119.806C116.546 119.349 116.051 121.532 115.068 123.46Z" fill="#E0E0E0"/>
<path d="M114.433 126.897C114.853 138.447 114.158 150.01 112.358 161.426C114.142 164.929 116.283 168.24 118.745 171.305C118.745 171.305 122.546 165.467 122.616 160.342C121.842 136.807 117.019 126.526 117.019 126.526L114.433 126.897Z" fill="#2F6F91"/>
<path opacity="0.2" d="M114.433 126.897C114.853 138.447 114.158 150.01 112.358 161.426C114.142 164.929 116.283 168.24 118.745 171.305C118.745 171.305 122.546 165.467 122.616 160.342C121.842 136.807 117.019 126.526 117.019 126.526L114.433 126.897Z" fill="black"/>
<path d="M113.117 121.787C113.495 121.36 113.987 121.05 114.536 120.893C115.085 120.737 115.667 120.741 116.213 120.905C116.838 121.724 117.284 122.666 117.522 123.669C117.661 124.651 117.482 125.652 117.011 126.526C116.446 127.021 115.702 127.098 114.441 126.897C113.76 126.486 113.22 125.879 112.892 125.155C112.552 124.126 113.117 121.787 113.117 121.787Z" fill="#2F6F91"/>
<path d="M81.406 53.6667C80.686 51.4448 79.0835 46.8307 79.3777 43.8345C79.7802 40.1959 81.3364 40.7378 81.3364 40.7378C81.0035 37.641 82.5905 36.6501 83.2718 36.712C83.2422 35.9387 83.3577 35.1667 83.6125 34.4359C84.015 33.414 85.3312 33.7856 86.237 34.8849C86.957 35.7675 87.1428 38.121 87.1428 38.121C87.1428 38.121 87.0499 35.6359 88.095 35.574C89.1402 35.512 90.2473 36.2165 90.704 38.1597C91.0137 39.4604 90.8976 41.45 92.4847 46.0719C94.0718 50.6938 93.9479 49.8268 94.9543 47.001C95.9608 44.1752 97.2149 43.2384 98.6085 43.432C99.7311 43.5868 98.7401 46.97 98.5001 50.1519C98.3775 52.7818 97.7022 55.3565 96.5182 57.708C95.1092 60.8976 93.3053 61.6796 92.4847 63.5376C90.5956 67.7957 82.0409 88.8381 82.0409 88.8381C82.0409 88.8381 84.1157 97.54 86.5389 105.096C87.824 109.068 89.0937 110.422 90.8356 112.838C92.7789 125.535 86.0512 137.728 79.3622 139.013C78.7428 137.116 71.6203 114.239 68.0281 101.767C67.1532 98.7167 65.1713 92.6006 65.3339 90.1542C65.4965 87.7078 66.8823 85.5091 68.0823 82.9775C69.3984 80.2214 78.4719 65.7208 80.5544 61.3002C81.7293 58.944 82.031 56.2476 81.406 53.69" fill="#FFA8A7"/>
<path d="M92.4924 46.0642C92.0555 44.8847 91.6808 43.6831 91.3699 42.4643C91.0774 41.2396 90.8577 39.9988 90.7118 38.7482C90.5415 37.5637 90.0305 36.2398 88.877 35.8062C88.6068 35.7097 88.3172 35.6805 88.0331 35.7211C87.7854 35.7675 87.6305 36.0385 87.5299 36.3095C87.3536 36.8911 87.2777 37.4985 87.3054 38.1056C87.3037 38.1468 87.287 38.1861 87.2586 38.216C87.2301 38.2459 87.1917 38.2644 87.1506 38.2682C87.112 38.2684 87.0748 38.2542 87.0462 38.2284C87.0176 38.2026 86.9996 38.1671 86.9957 38.1288C86.9339 37.3966 86.7964 36.6727 86.5854 35.9688C86.3996 35.2785 85.9563 34.6856 85.3467 34.3121C84.7738 33.9017 83.9454 33.863 83.7983 34.5675C83.5637 35.2518 83.4587 35.9738 83.4886 36.6966C83.4897 36.7206 83.4859 36.7446 83.4774 36.7671C83.4689 36.7896 83.4559 36.8101 83.4393 36.8275C83.4227 36.8449 83.4027 36.8587 83.3806 36.8681C83.3584 36.8775 83.3346 36.8824 83.3106 36.8824C83.13 36.8924 82.9534 36.9387 82.7911 37.0186C82.6288 37.0984 82.4843 37.21 82.3661 37.3469C82.094 37.6285 81.8877 37.9669 81.7622 38.3378C81.5116 39.1035 81.4349 39.9155 81.5377 40.7146C81.5398 40.7339 81.5381 40.7535 81.5327 40.7722C81.5272 40.7908 81.5181 40.8082 81.5058 40.8234C81.4936 40.8385 81.4785 40.851 81.4613 40.8603C81.4442 40.8695 81.4254 40.8752 81.4061 40.8772H81.3441C80.8642 40.7533 80.3609 41.1868 80.1364 41.6514C79.8855 42.1722 79.7158 42.7283 79.6332 43.3004C79.4602 44.4596 79.4811 45.6396 79.6951 46.792C80.1146 49.116 80.7045 51.4061 81.4603 53.6435C80.6093 51.433 79.9489 49.1537 79.4861 46.8307C79.2514 45.6552 79.2174 44.4485 79.3855 43.2617C79.4612 42.6608 79.631 42.0756 79.8887 41.5275C79.9978 41.2143 80.2111 40.9481 80.4929 40.7734C80.7748 40.5987 81.108 40.526 81.437 40.5675L81.2435 40.7223C81.1271 39.8759 81.1985 39.0142 81.4525 38.1985C81.5903 37.7827 81.8176 37.4021 82.1183 37.0837C82.2714 36.908 82.459 36.7658 82.6695 36.6659C82.8799 36.566 83.1087 36.5106 83.3415 36.503L83.148 36.6966C83.1025 35.9097 83.2076 35.1214 83.4577 34.374C83.5224 34.1626 83.6494 33.9757 83.8221 33.8375C83.9947 33.6994 84.205 33.6166 84.4254 33.5998C84.8419 33.5908 85.2498 33.7186 85.5867 33.9637C86.2576 34.3905 86.7438 35.0536 86.9493 35.8217C87.1563 36.5526 87.2911 37.302 87.3518 38.0591H87.0422C87.018 37.4113 87.1071 36.7641 87.3054 36.1469C87.3493 35.9683 87.4376 35.8037 87.5621 35.6683C87.6866 35.533 87.8433 35.4313 88.0176 35.3727C88.3542 35.318 88.6993 35.3555 89.0163 35.4811C90.317 35.9998 90.8047 37.4243 90.975 38.632C91.1454 39.8398 91.2847 41.1249 91.5479 42.3481C91.7984 43.6023 92.1136 44.8427 92.4924 46.0642Z" fill="#F28F8F"/>
<path d="M81.4059 40.5519C81.8027 40.7564 82.1438 41.0542 82.4001 41.4196C82.6563 41.7851 82.8199 42.2073 82.8769 42.65C82.9485 43.0692 82.9744 43.4949 82.9543 43.9197C82.9804 44.328 83.0479 44.7327 83.1556 45.1274C83.6055 46.7271 84.1562 48.2967 84.8046 49.8267C84.0944 48.3192 83.4815 46.7676 82.9698 45.1816C82.8446 44.7753 82.7591 44.3579 82.7143 43.9351C82.7198 43.527 82.6808 43.1194 82.5982 42.7197C82.5343 42.3353 82.3803 41.9714 82.1489 41.6579C81.9175 41.3444 81.6151 41.0901 81.2666 40.9158L81.4059 40.5519Z" fill="#F28F8F"/>
<path d="M83.2874 36.5107C83.5786 36.5545 83.8513 36.6805 84.0735 36.8739C84.2956 37.0672 84.458 37.3199 84.5416 37.6023C84.7413 38.0981 84.8715 38.6192 84.9287 39.1507C85.0002 40.1923 85.1477 41.2273 85.37 42.2474C85.5735 43.262 85.8319 44.2647 86.1442 45.2513L87.1893 48.1932L86.0513 45.2822C85.7007 44.3029 85.4035 43.3053 85.1609 42.2939C84.9072 41.2758 84.7261 40.2409 84.619 39.1971C84.5534 38.6955 84.4179 38.2056 84.2164 37.7416C84.147 37.525 84.0193 37.3316 83.8472 37.1827C83.6751 37.0339 83.4654 36.9353 83.241 36.8978L83.2874 36.5107Z" fill="#F28F8F"/>
<path d="M87.3286 38.0668C87.6538 39.4835 88.0564 40.8926 88.4822 42.2938C88.908 43.6951 89.357 45.0809 89.9144 46.4357C89.2951 45.1041 88.7919 43.7261 88.2964 42.348C87.8009 40.97 87.3441 39.5764 86.957 38.1597L87.3286 38.0668Z" fill="#F28F8F"/>
<path d="M94.9544 47.032C94.304 48.8591 94.1183 49.8578 93.646 49.0913C94.4744 50.9571 95.1169 51.4139 95.1015 50.3842C95.0478 49.3914 95.0478 48.3964 95.1015 47.4036C95.2016 46.619 95.4346 45.8571 95.7905 45.1507C95.4464 45.7466 95.1661 46.3772 94.9544 47.032Z" fill="#F28F8F"/>
<path d="M91.4937 52.5442C90.2634 51.9458 88.8696 51.7716 87.5298 52.0487C87.4369 52.0487 87.5298 52.2113 87.5995 52.2113C89.4188 52.1494 91.5633 52.7532 92.6007 54.3713C92.886 54.8651 93.127 55.3833 93.3207 55.9197C93.3827 56.0513 93.4988 56.2139 93.6304 56.1519C93.762 56.09 93.7311 55.9893 93.7311 55.8964C93.7425 55.1766 93.5346 54.4703 93.1349 53.8715C92.7353 53.2727 92.1628 52.8098 91.4937 52.5442Z" fill="#F28F8F"/>
<path d="M79.8887 61.966C81.8164 66.0615 87.0886 69.2356 89.9995 69.4059L83.0319 89.2716C83.0319 89.2716 84.8899 96.2393 86.1673 101.31C87.5609 106.791 89.5737 112.149 91.8344 112.76C91.8344 112.76 95.7672 126.247 92.0434 134.36C86.508 146.445 79.757 147.823 79.757 147.823C79.757 147.823 73.9119 128.027 70.1029 115.006C66.2939 101.984 65.1559 97.2457 64.4281 92.0509C64.0101 89.0316 64.8694 85.9426 68.2991 80.322C71.7287 74.7014 79.8887 61.966 79.8887 61.966Z" fill="#E0E0E0"/>
<path d="M147.761 13.0605L147.839 24.6192L135.599 31.7804L135.583 20.0902L147.761 13.0605Z" fill="#2F6F91"/>
<path opacity="0.2" d="M147.761 13.0605L147.839 24.6192L135.599 31.7804L135.583 20.0902L147.761 13.0605Z" fill="black"/>
<path d="M321.598 319.043L228.695 177.777L259.097 160.226L352 301.492L321.598 319.043Z" fill="#2F6F91"/>
<path opacity="0.2" d="M321.598 319.043L228.695 177.777L259.097 160.226L352 301.492L321.598 319.043Z" fill="white"/>
<path d="M228.695 177.777L178.055 148.52L208.466 130.962L259.097 160.226L228.695 177.777Z" fill="#2F6F91"/>
<path d="M208.481 130.962L135.583 20.0902L147.761 13.0605L101.465 0L93.0264 44.6552L105.173 37.641L178.079 148.52L208.481 130.962Z" fill="#2F6F91"/>
<path opacity="0.2" d="M208.481 130.962L135.583 20.0902L147.761 13.0605L101.465 0L93.0264 44.6552L105.173 37.641L178.079 148.52L208.481 130.962Z" fill="white"/>
<path d="M93.0264 44.6552V56.3609L102.084 51.1351L171.227 156.278L222.656 185.968L303.358 308.514L321.598 319.043L228.695 177.777L178.055 148.52L105.173 37.6411L93.0264 44.6552Z" fill="#2F6F91"/>
<path opacity="0.2" d="M93.0264 44.6552V56.3609L102.084 51.1351L171.227 156.278L222.656 185.968L303.358 308.514L321.598 319.043L228.695 177.777L178.055 148.52L105.173 37.6411L93.0264 44.6552Z" fill="black"/>
<path opacity="0.2" d="M102.084 51.1351L105.173 37.6411L93.0264 44.6552V56.3609L102.084 51.1351Z" fill="black"/>
<path opacity="0.5" d="M251.851 61.5944L299.735 89.2407L275.789 45.259L251.851 61.5944Z" fill="#2F6F91"/>
<path opacity="0.3" d="M251.851 81.7L299.735 109.346L275.789 65.3646L251.851 81.7Z" fill="#2F6F91"/>
<path opacity="0.1" d="M251.851 101.806L299.735 129.452L275.789 85.4704L251.851 101.806Z" fill="#2F6F91"/>
<path d="M214.814 26.3765L190.125 40.6526C189.637 40.939 189.242 41.6203 189.242 42.9364V72.3555C189.251 72.6663 189.335 72.9703 189.489 73.2404C189.643 73.5105 189.862 73.7384 190.125 73.9039L193.632 75.9013C193.906 76.0389 194.208 76.1105 194.514 76.1105C194.821 76.1105 195.123 76.0389 195.397 75.9013L220.078 61.6253C220.336 61.455 220.55 61.2258 220.702 60.9566C220.854 60.6874 220.94 60.3859 220.953 60.0769V29.8836C220.943 29.5733 220.857 29.2701 220.703 29.0003C220.549 28.7305 220.332 28.5023 220.07 28.3352L216.563 26.3378C216.288 26.2105 215.987 26.1478 215.684 26.1545C215.381 26.1612 215.083 26.2371 214.814 26.3765Z" fill="#2F6F91"/>
<path opacity="0.15" d="M195.397 75.8395C195.123 75.9753 194.821 76.0459 194.515 76.0459C194.208 76.0459 193.906 75.9753 193.632 75.8395L190.125 73.8421C189.86 73.6781 189.641 73.4505 189.487 73.1801C189.333 72.9096 189.249 72.6049 189.242 72.2937V42.8746C189.202 42.3099 189.309 41.7445 189.552 41.2333L194.778 44.2449C194.612 44.504 194.52 44.8041 194.515 45.112V75.3053C194.515 75.8627 194.878 76.1414 195.397 75.8395Z" fill="black"/>
<path d="M186.827 64.5518C186.27 64.2189 182.058 61.8421 181.919 61.7647C181.816 61.701 181.728 61.6153 181.663 61.5138C181.597 61.4124 181.554 61.2976 181.538 61.1778C181.522 61.0579 181.532 60.936 181.568 60.8206C181.605 60.7053 181.666 60.5994 181.748 60.5105L189.266 51.9171L194.538 54.9364L186.68 63.2899C186.597 63.3779 186.534 63.483 186.495 63.598C186.457 63.7129 186.445 63.8349 186.459 63.9552C186.473 64.0755 186.513 64.1913 186.577 64.2944C186.64 64.3975 186.726 64.4853 186.827 64.5518Z" fill="#2F6F91"/>
<path d="M220.078 29.3727L195.397 43.6487C195.137 43.8172 194.921 44.0458 194.767 44.3152C194.614 44.5847 194.527 44.8871 194.515 45.1971V54.9441L186.672 63.2898C186.558 63.3939 186.477 63.53 186.44 63.6804C186.404 63.8309 186.413 63.9888 186.467 64.1338C186.522 64.2789 186.618 64.4043 186.744 64.494C186.87 64.5837 187.021 64.6334 187.175 64.6369L194.515 64.1027V75.313C194.515 75.8704 194.909 76.0872 195.397 75.8162L220.078 61.5402C220.338 61.3713 220.553 61.1424 220.705 60.8729C220.857 60.6034 220.942 60.3011 220.953 59.9918V29.8836C220.953 29.3185 220.566 29.0939 220.078 29.3727Z" fill="#FAFAFA"/>
<path d="M220.187 30.1933V60.0383C220.171 60.2098 220.118 60.3759 220.033 60.5254C219.947 60.675 219.831 60.8045 219.691 60.9054L195.289 75.0188V63.2899L194.46 63.3518L187.222 63.8782C187.222 63.8782 187.222 63.8782 187.222 63.8395L195.08 55.4706L195.289 55.246V45.1816C195.304 45.0111 195.357 44.8459 195.442 44.6976C195.528 44.5492 195.645 44.4212 195.784 44.3222L220.187 30.2011M220.465 29.2256C220.328 29.2317 220.194 29.2744 220.078 29.3495L195.397 43.6487C195.137 43.8172 194.921 44.0458 194.767 44.3153C194.614 44.5847 194.527 44.8872 194.515 45.1971V54.9441L186.672 63.2899C186.558 63.3939 186.477 63.53 186.44 63.6804C186.404 63.8309 186.413 63.9888 186.467 64.1339C186.522 64.2789 186.618 64.4043 186.744 64.494C186.87 64.5837 187.021 64.6335 187.175 64.6369L194.515 64.1028V75.313C194.515 75.7078 194.716 75.9401 195.002 75.9401C195.143 75.9354 195.279 75.8926 195.397 75.8162L220.078 61.5402C220.338 61.3713 220.553 61.1424 220.705 60.8729C220.857 60.6034 220.942 60.3012 220.953 59.9918V29.8836C220.953 29.4811 220.76 29.2488 220.465 29.2488V29.2256Z" fill="#2F6F91"/>
<path d="M215.495 37.7958C214.959 37.5716 214.356 37.5687 213.818 37.7878C213.28 38.0068 212.85 38.43 212.623 38.9649L204.339 58.6834L202.365 56.7634C202.164 56.5379 201.92 56.3562 201.646 56.2298C201.371 56.1034 201.074 56.0349 200.773 56.0287C200.471 56.0225 200.171 56.0787 199.892 56.1938C199.613 56.3088 199.361 56.4803 199.151 56.6974C198.942 56.9145 198.779 57.1725 198.674 57.4554C198.569 57.7382 198.523 58.0397 198.54 58.3411C198.557 58.6424 198.636 58.9369 198.772 59.2064C198.908 59.4758 199.098 59.7142 199.33 59.9067L203.588 64.064C203.792 64.2647 204.034 64.4228 204.3 64.5292C204.566 64.6355 204.85 64.6879 205.137 64.6834C205.283 64.6949 205.431 64.6949 205.578 64.6834C205.921 64.6069 206.242 64.4488 206.511 64.2224C206.781 63.996 206.992 63.708 207.126 63.3828L216.656 40.7068C216.775 40.4399 216.839 40.152 216.844 39.8601C216.85 39.5681 216.797 39.2781 216.689 39.0069C216.58 38.7357 216.419 38.4888 216.214 38.2809C216.009 38.0729 215.765 37.908 215.495 37.7958Z" fill="#2F6F91"/>
</svg>
