<svg width="46" height="46" viewBox="0 0 46 46" fill="none" xmlns="http://www.w3.org/2000/svg">
<mask id="mask0_1505_2160" style="mask-type:alpha" maskUnits="userSpaceOnUse" x="2" y="6" width="42" height="34">
<path d="M2.06364 14.6479H43.9359V12.8744C43.9359 8.94732 41.9346 6.96387 37.9489 6.96387H8.05062C4.06581 6.96387 2.06283 8.94733 2.06283 12.8752L2.06364 14.6479ZM2.06364 33.1442C2.06364 37.0721 4.06499 39.036 8.05062 39.036H37.9489C41.9337 39.036 43.9367 37.0721 43.9367 33.1442V18.9769H2.06201L2.06364 33.1442ZM8.43218 28.4915V24.9639C8.43218 23.8965 9.17577 23.1334 10.3009 23.1334H14.9724C16.0975 23.1334 16.8411 23.8965 16.8411 24.9639V28.4915C16.8411 29.5784 16.0975 30.322 14.9724 30.322H10.3001C9.17496 30.322 8.43218 29.5784 8.43218 28.4915Z" fill="black"/>
</mask>
<g mask="url(#mask0_1505_2160)">
<rect x="0.220215" y="0.220215" width="45.5593" height="45.5593" fill="url(#paint0_linear_1505_2160)"/>
</g>
<defs>
<linearGradient id="paint0_linear_1505_2160" x1="0.220215" y1="5.28236" x2="45.7795" y2="45.7795" gradientUnits="userSpaceOnUse">
<stop stop-color="#5FCAFF"/>
<stop offset="1" stop-color="#2F6F91"/>
</linearGradient>
</defs>
</svg>
