<?xml version="1.0" encoding="UTF-8"?>
<svg version="1.1" xmlns="http://www.w3.org/2000/svg" width="151" height="60">
<path d="M0 0 C3.3 0 6.6 0 10 0 C8.80100302 3.0831351 7.52299523 6.06279492 6 9 C7.65 9 9.3 9 11 9 C9.80100302 12.0831351 8.52299523 15.06279492 7 18 C8.98 17.01 10.96 16.02 13 15 C13 14.01 13 13.02 13 12 C17.455 11.505 17.455 11.505 22 11 C21.51421457 14.12290635 21.0013988 16.99580359 20 20 C21.98 20 23.96 20 26 20 C25.51764925 22.73332093 24.91352117 25.24862665 24 27.875 C22.92188068 31.24412288 22.47106036 34.50069447 22 38 C21.505 38.99 21.505 38.99 21 40 C18.4375 40.625 18.4375 40.625 16 41 C15.90912109 41.92232422 15.90912109 41.92232422 15.81640625 42.86328125 C15 45 15 45 12.77734375 46.23046875 C-1.60905235 51.07870403 -1.60905235 51.07870403 -9 49 C-9 48.34 -9 47.68 -9 47 C-10.093125 46.896875 -11.18625 46.79375 -12.3125 46.6875 C-16 46 -16 46 -17.9375 44.5625 C-19 43 -19 43 -19 41 C-19.804375 40.2575 -20.60875 39.515 -21.4375 38.75 C-24.28712024 35.69187096 -24.71472089 34.08900062 -25 30 C-23.35 30.99 -21.7 31.98 -20 33 C-20 32.01 -20 31.02 -20 30 C-20.61875 29.87625 -21.2375 29.7525 -21.875 29.625 C-24 29 -24 29 -26 27 C-26.125 23.875 -26.125 23.875 -26 21 C-25.34 21 -24.68 21 -24 21 C-23.67 21.99 -23.34 22.98 -23 24 C-22.01 24.33 -21.02 24.66 -20 25 C-20 24.01 -20 23.02 -20 22 C-21.32 21.34 -22.64 20.68 -24 20 C-24.25 17.25 -24.25 17.25 -24 14 C-22 11.625 -22 11.625 -20 10 C-20 11.65 -20 13.3 -20 15 C-17.76980273 14.71632132 -15.54086546 14.42272612 -13.3125 14.125 C-12.07113281 13.96257813 -10.82976563 13.80015625 -9.55078125 13.6328125 C-6.42204705 13.07521631 -3.87851898 12.30991877 -1 11 C-2.155 11.33 -3.31 11.66 -4.5 12 C-8.77500587 13.08401934 -12.60361453 13.15701377 -17 13 C-17.8125 10.8125 -17.8125 10.8125 -18 8 C-15.5625 5.1875 -15.5625 5.1875 -13 3 C-12.34 3.33 -11.68 3.66 -11 4 C-11.33 4.99 -11.66 5.98 -12 7 C-10.1827669 6.41022253 -8.37127957 5.80271547 -6.5625 5.1875 C-5.04849609 4.68283203 -5.04849609 4.68283203 -3.50390625 4.16796875 C-2.67761719 3.78253906 -1.85132812 3.39710937 -1 3 C-0.67 2.01 -0.34 1.02 0 0 Z M2 17 C0.35 17.66 -1.3 18.32 -3 19 C-3 19.33 -3 19.66 -3 20 C-0.36 20 2.28 20 5 20 C4.01 19.01 3.02 18.02 2 17 Z M17 18 C16.01 18.66 15.02 19.32 14 20 C14.33 20.66 14.66 21.32 15 22 C16.32 21.34 17.64 20.68 19 20 C18.34 19.34 17.68 18.68 17 18 Z M-16 22 C-15.67 22.99 -15.34 23.98 -15 25 C-14.34 24.01 -13.68 23.02 -13 22 C-13.99 22 -14.98 22 -16 22 Z M-11 22 C-11.99 23.485 -11.99 23.485 -13 25 C-11.68 25 -10.36 25 -9 25 C-9 24.01 -9 23.02 -9 22 C-9.66 22 -10.32 22 -11 22 Z M-8 22 C-8 22.66 -8 23.32 -8 24 C-7.01 24 -6.02 24 -5 24 C-5 23.34 -5 22.68 -5 22 C-5.99 22 -6.98 22 -8 22 Z M6 24 C6.33 25.32 6.66 26.64 7 28 C8.98 27.01 10.96 26.02 13 25 C9.55758224 22.59432017 9.55758224 22.59432017 6 24 Z M1 26 C0.01 26.33 -0.98 26.66 -2 27 C-1.67 28.32 -1.34 29.64 -1 31 C-0.01 30.67 0.98 30.34 2 30 C1.67 28.68 1.34 27.36 1 26 Z M-6 28 C-7.32 28.33 -8.64 28.66 -10 29 C-9.34 30.32 -8.68 31.64 -8 33 C-7.01 32.67 -6.02 32.34 -5 32 C-5.33 30.68 -5.66 29.36 -6 28 Z M19 29 C18.01 29.99 17.02 30.98 16 32 C17.32 32 18.64 32 20 32 C19.67 31.01 19.34 30.02 19 29 Z M-16 30 C-16 30.66 -16 31.32 -16 32 C-16.66 32.66 -17.32 33.32 -18 34 C-16.35 33.67 -14.7 33.34 -13 33 C-13.99 32.01 -14.98 31.02 -16 30 Z M8.0625 34.8125 C-0.3495823 38.61411412 -8.81260432 40.42205103 -18 41 C-14.21486724 43.52342184 -11.3739501 43.46915306 -7 43 C0.30287159 41.50672626 7.16195378 38.9221152 14 36 C14 35.01 14 34.02 14 33 C11.54994033 33 10.26784505 33.74771315 8.0625 34.8125 Z " fill="#6269A0" transform="translate(28,5)"/>
<path d="M0 0 C3.3 0 6.6 0 10 0 C8.80100302 3.0831351 7.52299523 6.06279492 6 9 C7.65 9 9.3 9 11 9 C9.125 13.75 9.125 13.75 8 16 C5.03 15.505 5.03 15.505 2 15 C2 15.99 2 16.98 2 18 C-14.93080918 22.84034177 -14.93080918 22.84034177 -23 21 C-24 20 -24 20 -24.3125 17.1875 C-24 14 -24 14 -22 11.625 C-21.34 11.08875 -20.68 10.5525 -20 10 C-20 11.65 -20 13.3 -20 15 C-17.76980273 14.71632132 -15.54086546 14.42272612 -13.3125 14.125 C-12.07113281 13.96257813 -10.82976563 13.80015625 -9.55078125 13.6328125 C-6.42204705 13.07521631 -3.87851898 12.30991877 -1 11 C-2.155 11.33 -3.31 11.66 -4.5 12 C-8.77500587 13.08401934 -12.60361453 13.15701377 -17 13 C-17.8125 10.8125 -17.8125 10.8125 -18 8 C-15.5625 5.1875 -15.5625 5.1875 -13 3 C-12.34 3.33 -11.68 3.66 -11 4 C-11.33 4.99 -11.66 5.98 -12 7 C-10.1827669 6.41022253 -8.37127957 5.80271547 -6.5625 5.1875 C-5.04849609 4.68283203 -5.04849609 4.68283203 -3.50390625 4.16796875 C-2.67761719 3.78253906 -1.85132812 3.39710937 -1 3 C-0.67 2.01 -0.34 1.02 0 0 Z " fill="#6369A1" transform="translate(28,5)"/>
<path d="M0 0 C-0.48578543 3.12290635 -0.9986012 5.99580359 -2 9 C-0.02 9 1.96 9 4 9 C3.45276317 12.37462715 2.9451 14.08235 1 17 C1.33 14.69 1.66 12.38 2 10 C1.21625 10.04125 0.4325 10.0825 -0.375 10.125 C-3 10 -3 10 -5 8 C-5.99 8.33 -6.98 8.66 -8 9 C-7.01 9.66 -6.02 10.32 -5 11 C-6 12.5625 -6 12.5625 -8 14 C-10.85565675 14.06881101 -13.16093962 13.59528685 -16 13 C-16.33 12.34 -16.66 11.68 -17 11 C-17.8971875 12.2375 -17.8971875 12.2375 -18.8125 13.5 C-19.534375 14.325 -20.25625 15.15 -21 16 C-21.99 16 -22.98 16 -24 16 C-23.67 16.99 -23.34 17.98 -23 19 C-22.34 19.33 -21.68 19.66 -21 20 C-24.22791555 22.1519437 -25.28400809 22.20086443 -29 22 C-28.34 21.67 -27.68 21.34 -27 21 C-27.33 20.01 -27.66 19.02 -28 18 C-29.32 18 -30.64 18 -32 18 C-31.34 19.32 -30.68 20.64 -30 22 C-31.9914056 22.38133299 -33.99279077 22.71325582 -36 23 C-36.33 22.67 -36.66 22.34 -37 22 C-38.67542976 22.28604898 -40.34385343 22.61781233 -42 23 C-42 21.68 -42 20.36 -42 19 C-42.61875 18.87625 -43.2375 18.7525 -43.875 18.625 C-46 18 -46 18 -48 16 C-48.125 12.875 -48.125 12.875 -48 10 C-47.34 10 -46.68 10 -46 10 C-45.67 10.99 -45.34 11.98 -45 13 C-44.01 13.33 -43.02 13.66 -42 14 C-42 13.01 -42 12.02 -42 11 C-42.66 10.67 -43.32 10.34 -44 10 C-42.02 10 -40.04 10 -38 10 C-37.67 10.99 -37.34 11.98 -37 13 C-36.67 12.01 -36.34 11.02 -36 10 C-29.93184478 8.77100654 -24.20104812 7.72439786 -18 8 C-18.66 6.68 -19.32 5.36 -20 4 C-17.525 4.495 -17.525 4.495 -15 5 C-15 5.66 -15 6.32 -15 7 C-13.02 6.01 -11.04 5.02 -9 4 C-9 3.01 -9 2.02 -9 1 C-5.92677456 0.08941469 -3.19902639 -0.08886184 0 0 Z M-33 11 C-33.99 12.485 -33.99 12.485 -35 14 C-33.68 14 -32.36 14 -31 14 C-31 13.01 -31 12.02 -31 11 C-31.66 11 -32.32 11 -33 11 Z M-30 11 C-30 11.66 -30 12.32 -30 13 C-29.01 13 -28.02 13 -27 13 C-27 12.34 -27 11.68 -27 11 C-27.99 11 -28.98 11 -30 11 Z " fill="#457761" transform="translate(50,16)"/>
<path d="M0 0 C0.99 0.33 1.98 0.66 3 1 C2.125 7.75 2.125 7.75 1 10 C-1.5625 10.625 -1.5625 10.625 -4 11 C-4.09087891 11.92232422 -4.09087891 11.92232422 -4.18359375 12.86328125 C-5 15 -5 15 -7.22265625 16.23046875 C-21.60905235 21.07870403 -21.60905235 21.07870403 -29 19 C-29 18.34 -29 17.68 -29 17 C-30.093125 16.896875 -31.18625 16.79375 -32.3125 16.6875 C-35.85559629 16.02692273 -36.93243723 15.7972908 -39 13 C-38.67 12.34 -38.34 11.68 -38 11 C-37.01 11.33 -36.02 11.66 -35 12 C-28.16131156 12.48847775 -22.51244489 10.99415554 -16 9 C-15.03449219 8.71382812 -14.06898437 8.42765625 -13.07421875 8.1328125 C-10.71308158 7.43148463 -8.35537187 6.72040658 -6 6 C-6 5.01 -6 4.02 -6 3 C-4.02 2.67 -2.04 2.34 0 2 C0 1.34 0 0.68 0 0 Z " fill="#4A926A" transform="translate(48,35)"/>
<path d="M0 0 C3.3 0 6.6 0 10 0 C8.80100302 3.0831351 7.52299523 6.06279492 6 9 C7.65 9 9.3 9 11 9 C10.34 10.32 9.68 11.64 9 13 C9 12.01 9 11.02 9 10 C6.69 9.67 4.38 9.34 2 9 C1.690625 9.9590625 1.690625 9.9590625 1.375 10.9375 C0 13 0 13 -3.125 13.75 C-4.548125 13.87375 -4.548125 13.87375 -6 14 C-5.34 13.34 -4.68 12.68 -4 12 C-4.66 12.165 -5.32 12.33 -6 12.5 C-9.73099794 13.12183299 -13.21873378 13.06408926 -17 13 C-17.8125 10.8125 -17.8125 10.8125 -18 8 C-15.5625 5.1875 -15.5625 5.1875 -13 3 C-12.34 3.33 -11.68 3.66 -11 4 C-11.33 4.99 -11.66 5.98 -12 7 C-10.1827669 6.41022253 -8.37127957 5.80271547 -6.5625 5.1875 C-5.55316406 4.85105469 -4.54382813 4.51460937 -3.50390625 4.16796875 C-2.67761719 3.78253906 -1.85132812 3.39710937 -1 3 C-0.67 2.01 -0.34 1.02 0 0 Z " fill="#457F62" transform="translate(28,5)"/>
<path d="M0 0 C-0.33 0.66 -0.66 1.32 -1 2 C-3.0625 2.625 -3.0625 2.625 -5 3 C-5 2.34 -5 1.68 -5 1 C-6.98 1.33 -8.96 1.66 -11 2 C-11.33 2.99 -11.66 3.98 -12 5 C-12 4.01 -12 3.02 -12 2 C-12.99 2.66 -13.98 3.32 -15 4 C-14.67 4.66 -14.34 5.32 -14 6 C-14.66 6 -15.32 6 -16 6 C-14.35 7.98 -12.7 9.96 -11 12 C-11.66 12.66 -12.32 13.32 -13 14 C-15.0625 13.625 -15.0625 13.625 -17 13 C-19.02450921 13 -21.02400526 13.59466775 -23 14 C-23 12.68 -23 11.36 -23 10 C-23.61875 9.87625 -24.2375 9.7525 -24.875 9.625 C-27 9 -27 9 -29 7 C-29.125 3.875 -29.125 3.875 -29 1 C-28.34 1 -27.68 1 -27 1 C-26.67 1.99 -26.34 2.98 -26 4 C-25.01 4.33 -24.02 4.66 -23 5 C-23 4.01 -23 3.02 -23 2 C-23.66 1.67 -24.32 1.34 -25 1 C-23.02 1 -21.04 1 -19 1 C-18.67 1.99 -18.34 2.98 -18 4 C-17.67 3.01 -17.34 2.02 -17 1 C-11.3886991 -1.40659732 -5.86367775 -1.06612323 0 0 Z " fill="#303754" transform="translate(31,25)"/>
<path d="M0 0 C2.31 0 4.62 0 7 0 C6.67 2.97 6.34 5.94 6 9 C2.66666667 9.66666667 -0.66666667 10.33333333 -4 11 C-4 9.35 -4 7.7 -4 6 C-4.66 5.67 -5.32 5.34 -6 5 C-5.195625 4.731875 -4.39125 4.46375 -3.5625 4.1875 C-2.716875 3.795625 -1.87125 3.40375 -1 3 C-0.67 2.01 -0.34 1.02 0 0 Z " fill="#666DA4" transform="translate(45,26)"/>
<path d="M0 0 C2.375 -0.125 2.375 -0.125 5 0 C5.66 0.66 6.32 1.32 7 2 C8.32 1.34 9.64 0.68 11 0 C11.66 1.32 12.32 2.64 13 4 C13.33 2.68 13.66 1.36 14 0 C14.66 0 15.32 0 16 0 C16 1.32 16 2.64 16 4 C16.66 4 17.32 4 18 4 C18 4.99 18 5.98 18 7 C14.66666667 7 11.33333333 7 8 7 C6.205625 7.0309375 6.205625 7.0309375 4.375 7.0625 C1 7 1 7 0 6 C-0.04080783 4.00041636 -0.04254356 1.99954746 0 0 Z " fill="#282B53" transform="translate(94,33)"/>
<path d="M0 0 C0.66 0.33 1.32 0.66 2 1 C1.81640625 2.86328125 1.81640625 2.86328125 1 5 C-6.00282542 8.87678384 -15.16434791 11.20377715 -23 9 C-23 8.34 -23 7.68 -23 7 C-21.02 7 -19.04 7 -17 7 C-17 6.34 -17 5.68 -17 5 C-11.25 4.875 -11.25 4.875 -9 6 C-9 5.01 -9 4.02 -9 3 C-7.35 3.33 -5.7 3.66 -4 4 C-3.67 3.34 -3.34 2.68 -3 2 C-2.01 1.34 -1.02 0.68 0 0 Z " fill="#506273" transform="translate(42,45)"/>
<path d="M0 0 C0.99 0 1.98 0 3 0 C3.07347656 0.95712891 3.07347656 0.95712891 3.1484375 1.93359375 C3.22320312 2.75988281 3.29796875 3.58617187 3.375 4.4375 C3.44460937 5.26121094 3.51421875 6.08492187 3.5859375 6.93359375 C3.72257812 7.61550781 3.85921875 8.29742187 4 9 C4.66 9.33 5.32 9.66 6 10 C2.77208445 12.1519437 1.71599191 12.20086443 -2 12 C-1.34 11.67 -0.68 11.34 0 11 C-0.33 10.01 -0.66 9.02 -1 8 C-2.98 8 -4.96 8 -7 8 C-7.33 7.01 -7.66 6.02 -8 5 C-5.09399739 3.74335022 -3.20395416 3 0 3 C0 2.01 0 1.02 0 0 Z " fill="#31418E" transform="translate(23,26)"/>
<path d="M0 0 C0.66 0 1.32 0 2 0 C2.33 0.99 2.66 1.98 3 3 C3.99 3.33 4.98 3.66 6 4 C6 3.01 6 2.02 6 1 C5.34 0.67 4.68 0.34 4 0 C5.32 0 6.64 0 8 0 C8.33 1.98 8.66 3.96 9 6 C9.66 6 10.32 6 11 6 C11 7.98 11 9.96 11 12 C9.35 12.33 7.7 12.66 6 13 C6 11.68 6 10.36 6 9 C5.38125 8.87625 4.7625 8.7525 4.125 8.625 C2 8 2 8 0 6 C-0.125 2.875 -0.125 2.875 0 0 Z " fill="#2E406B" transform="translate(2,26)"/>
<path d="M0 0 C1.65 0.33 3.3 0.66 5 1 C5 1.66 5 2.32 5 3 C6.98 2.67 8.96 2.34 11 2 C11 3.32 11 4.64 11 6 C6.92857143 9 6.92857143 9 4 9 C3.67 8.34 3.34 7.68 3 7 C2.401875 7.825 1.80375 8.65 1.1875 9.5 C0.465625 10.325 -0.25625 11.15 -1 12 C-1.99 12 -2.98 12 -4 12 C-3.8125 9.6875 -3.8125 9.6875 -3 7 C-0.4375 5.1875 -0.4375 5.1875 2 4 C1.34 2.68 0.68 1.36 0 0 Z " fill="#4F7372" transform="translate(30,20)"/>
<path d="M0 0 C0.99 0.33 1.98 0.66 3 1 C2.125 7.75 2.125 7.75 1 10 C-1.64860427 10.59355614 -4.29197322 10.74209269 -7 11 C-7.33 9.35 -7.66 7.7 -8 6 C-7.34 6 -6.68 6 -6 6 C-6 5.01 -6 4.02 -6 3 C-4.02 2.67 -2.04 2.34 0 2 C0 1.34 0 0.68 0 0 Z " fill="#447F5F" transform="translate(48,35)"/>
<path d="M0 0 C1.60875 0.2784375 1.60875 0.2784375 3.25 0.5625 C6.53687158 0.94596835 7.96544096 0.78673753 11 0 C11.66 0.66 12.32 1.32 13 2 C12.625 4.125 12.625 4.125 12 6 C7.96287759 7.15346355 4.19038946 7 0 7 C0 4.69 0 2.38 0 0 Z " fill="#292E5A" transform="translate(124,33)"/>
<path d="M0 0 C0.99 0.33 1.98 0.66 3 1 C3 1.66 3 2.32 3 3 C3.66 3 4.32 3 5 3 C5 2.34 5 1.68 5 1 C5.99 0.67 6.98 0.34 8 0 C8 2.97 8 5.94 8 9 C7.21625 8.814375 6.4325 8.62875 5.625 8.4375 C3.02910225 7.74037734 3.02910225 7.74037734 1 9 C0.34 8.67 -0.32 8.34 -1 8 C-1.04241723 5.66705225 -1.04092937 3.33297433 -1 1 C-0.67 0.67 -0.34 0.34 0 0 Z " fill="#154B2A" transform="translate(81,22)"/>
<path d="M0 0 C2.475 0.99 2.475 0.99 5 2 C5.1875 4.375 5.1875 4.375 5 7 C2 9 2 9 -0.0625 8.875 C-2.57283417 7.7413007 -3.02691202 6.51381062 -4 4 C-2.68 2.68 -1.36 1.36 0 0 Z " fill="#136234" transform="translate(144,22)"/>
<path d="M0 0 C0.66 0 1.32 0 2 0 C2 1.32 2 2.64 2 4 C2.66 4 3.32 4 4 4 C4.33 3.01 4.66 2.02 5 1 C6.65614657 0.61781233 8.32457024 0.28604898 10 0 C11 1 11 1 11.0625 3.5625 C11.041875 4.366875 11.02125 5.17125 11 6 C7.26513121 6.5745952 3.78706732 7 0 7 C0 4.69 0 2.38 0 0 Z " fill="#292C53" transform="translate(82,33)"/>
<path d="M0 0 C0 2.64 0 5.28 0 8 C-0.598125 7.814375 -1.19625 7.62875 -1.8125 7.4375 C-4.16408762 6.77906313 -4.16408762 6.77906313 -7 8 C-7 5.36 -7 2.72 -7 0 C-2.25 -1.125 -2.25 -1.125 0 0 Z " fill="#146134" transform="translate(139,23)"/>
<path d="M0 0 C2.31 0 4.62 0 7 0 C7 2.31 7 4.62 7 7 C5.0085944 7.38133299 3.00720923 7.71325582 1 8 C0 7 0 7 -0.0625 3.4375 C-0.041875 2.303125 -0.02125 1.16875 0 0 Z " fill="#1B7040" transform="translate(115,23)"/>
<path d="M0 0 C2.64 0 5.28 0 8 0 C7.814375 0.598125 7.62875 1.19625 7.4375 1.8125 C6.77906313 4.16408762 6.77906313 4.16408762 8 7 C5.33333333 7 2.66666667 7 0 7 C0 4.69 0 2.38 0 0 Z " fill="#175F35" transform="translate(123,23)"/>
<path d="M0 0 C0.99 0.66 1.98 1.32 3 2 C3.6875 5.625 3.6875 5.625 4 9 C3.236875 8.835 2.47375 8.67 1.6875 8.5 C-1.03596236 7.90854604 -1.03596236 7.90854604 -4 8 C-3.50168276 4.31245243 -2.89932357 2.39509338 0 0 Z " fill="#13592F" transform="translate(75,22)"/>
<path d="M0 0 C2.00720923 0.28674418 4.0085944 0.61866701 6 1 C5.814375 1.5775 5.62875 2.155 5.4375 2.75 C4.95976454 5.20692525 5.24270636 6.64397534 6 9 C3.69 8.67 1.38 8.34 -1 8 C-1.04241723 5.66705225 -1.04092937 3.33297433 -1 1 C-0.67 0.67 -0.34 0.34 0 0 Z " fill="#175631" transform="translate(64,22)"/>
<path d="M0 0 C0.33 0 0.66 0 1 0 C1 1.65 1 3.3 1 5 C2.32 5 3.64 5 5 5 C7.01623639 6.78277744 8.37344618 8.83126157 10 11 C9.34 11.66 8.68 12.32 8 13 C5.875 12.625 5.875 12.625 4 12 C3.67 10.02 3.34 8.04 3 6 C2.34 6 1.68 6 1 6 C1 7.65 1 9.3 1 11 C0.67 11 0.34 11 0 11 C0 7.37 0 3.74 0 0 Z " fill="#283B99" transform="translate(10,26)"/>
<path d="M0 0 C0.66 0.33 1.32 0.66 2 1 C2 2.65 2 4.3 2 6 C2.66 6.33 3.32 6.66 4 7 C3.01 7.33 2.02 7.66 1 8 C0.67 8.99 0.34 9.98 0 11 C-0.99 10.34 -1.98 9.68 -3 9 C-2.25 2.25 -2.25 2.25 0 0 Z " fill="#304188" transform="translate(33,26)"/>
<path d="M0 0 C0 0.99 0 1.98 0 3 C-3.63 3 -7.26 3 -11 3 C-11.33 2.01 -11.66 1.02 -12 0 C-10.56359829 -0.19573608 -9.12580496 -0.38127816 -7.6875 -0.5625 C-6.88699219 -0.66691406 -6.08648437 -0.77132812 -5.26171875 -0.87890625 C-3 -1 -3 -1 0 0 Z " fill="#4C956D" transform="translate(25,49)"/>
<path d="M0 0 C0.66 0.33 1.32 0.66 2 1 C2 2.32 2 3.64 2 5 C2.99 5 3.98 5 5 5 C5 6.32 5 7.64 5 9 C3.33388095 9.042721 1.66617115 9.04063832 0 9 C-1 8 -1 8 -1.125 4.5 C-1 1 -1 1 0 0 Z " fill="#166739" transform="translate(97,22)"/>
<path d="M0 0 C1.67542976 0.28604898 3.34385343 0.61781233 5 1 C5 2.65 5 4.3 5 6 C3.34385343 6.38218767 1.67542976 6.71395102 0 7 C-1 6 -1 6 -1.125 3.5 C-1 1 -1 1 0 0 Z " fill="#282B50" transform="translate(76,33)"/>
<path d="M0 0 C0.66 0 1.32 0 2 0 C2.33 0.99 2.66 1.98 3 3 C5.00016466 4.20882096 5.00016466 4.20882096 7 5 C7 5.99 7 6.98 7 8 C4.625 8.125 4.625 8.125 2 8 C0 6 0 6 -0.125 2.875 C-0.08375 1.92625 -0.0425 0.9775 0 0 Z " fill="#4A8164" transform="translate(2,26)"/>
<path d="M0 0 C1.65 0 3.3 0 5 0 C5 2.31 5 4.62 5 7 C3.33333333 7 1.66666667 7 0 7 C0 4.69 0 2.38 0 0 Z " fill="#292D59" transform="translate(117,33)"/>
<path d="M0 0 C-0.33 1.65 -0.66 3.3 -1 5 C-2.98 5 -4.96 5 -7 5 C-7.33 4.01 -7.66 3.02 -8 2 C-5.09399739 0.74335022 -3.20395416 0 0 0 Z " fill="#4D956E" transform="translate(23,29)"/>
<path d="M0 0 C2.31 0 4.62 0 7 0 C7 0.66 7 1.32 7 2 C6.34 2 5.68 2 5 2 C5 3.65 5 5.3 5 7 C4.01 7 3.02 7 2 7 C1.34 4.69 0.68 2.38 0 0 Z " fill="#176437" transform="translate(107,23)"/>
<path d="M0 0 C0.66 0.33 1.32 0.66 2 1 C1.875 2.875 1.875 2.875 1 5 C-2.0625 6.25 -2.0625 6.25 -5 7 C-5.33 6.01 -5.66 5.02 -6 4 C-5.34 4 -4.68 4 -4 4 C-3.67 3.34 -3.34 2.68 -3 2 C-2.01 1.34 -1.02 0.68 0 0 Z " fill="#4C4F68" transform="translate(42,45)"/>
<path d="M0 0 C0 0.99 0 1.98 0 3 C-4.22222222 6 -4.22222222 6 -7 6 C-6.625 3.0625 -6.625 3.0625 -6 0 C-3.50907189 -1.24546405 -2.58919267 -0.7767578 0 0 Z " fill="#458968" transform="translate(41,23)"/>
<path d="M0 0 C1.32 0.33 2.64 0.66 4 1 C4.33 2.98 4.66 4.96 5 7 C0.25 10 0.25 10 -2 10 C-2.33 9.01 -2.66 8.02 -3 7 C-1.35 7 0.3 7 2 7 C1.34 4.69 0.68 2.38 0 0 Z " fill="#3E478A" transform="translate(37,31)"/>
<path d="M0 0 C0.66 0 1.32 0 2 0 C2 0.66 2 1.32 2 2 C3.32 1.67 4.64 1.34 6 1 C6 2.65 6 4.3 6 6 C4.02 5.34 2.04 4.68 0 4 C-0.33 4.66 -0.66 5.32 -1 6 C-1.042721 4.33388095 -1.04063832 2.66617115 -1 1 C-0.67 0.67 -0.34 0.34 0 0 Z " fill="#0F7338" transform="translate(82,23)"/>
<path d="M0 0 C0.79664063 0.24556641 0.79664063 0.24556641 1.609375 0.49609375 C4.53876764 1.11356377 7.25822936 1.09501925 10.25 1.0625 C11.86648437 1.04896484 11.86648437 1.04896484 13.515625 1.03515625 C14.74539062 1.01775391 14.74539062 1.01775391 16 1 C13.14426549 2.90382301 12.21887862 3.2957965 9 3.625 C8.319375 3.69976562 7.63875 3.77453125 6.9375 3.8515625 C5.29573423 3.97734294 3.64657692 4 2 4 C1.34 2.68 0.68 1.36 0 0 Z " fill="#416952" transform="translate(9,46)"/>
<path d="M0 0 C0 1.32 0 2.64 0 4 C-2.97 3.505 -2.97 3.505 -6 3 C-6 2.01 -6 1.02 -6 0 C-3.50907189 -1.24546405 -2.58919267 -0.7767578 0 0 Z " fill="#2C3161" transform="translate(93,34)"/>
<path d="M0 0 C0.66 0 1.32 0 2 0 C2 2.31 2 4.62 2 7 C0.02 7.33 -1.96 7.66 -4 8 C-4 7.34 -4 6.68 -4 6 C-3.34 6 -2.68 6 -2 6 C-2 5.34 -2 4.68 -2 4 C-1.34 4 -0.68 4 0 4 C0 2.68 0 1.36 0 0 Z " fill="#194B2E" transform="translate(120,23)"/>
<path d="M0 0 C0.66 0.33 1.32 0.66 2 1 C2 3.31 2 5.62 2 8 C1.01 8 0.02 8 -1 8 C-1.04241723 5.66705225 -1.04092937 3.33297433 -1 1 C-0.67 0.67 -0.34 0.34 0 0 Z " fill="#176538" transform="translate(92,22)"/>
<path d="M0 0 C0 0.99 0 1.98 0 3 C-2.64 2.67 -5.28 2.34 -8 2 C-8 1.34 -8 0.68 -8 0 C-2.25 -1.125 -2.25 -1.125 0 0 Z " fill="#2D323C" transform="translate(27,52)"/>
<path d="M0 0 C0.66 1.32 1.32 2.64 2 4 C0.02 4.33 -1.96 4.66 -4 5 C-4.33 3.68 -4.66 2.36 -5 1 C-2 0 -2 0 0 0 Z " fill="#252B5B" transform="translate(18,34)"/>
<path d="M0 0 C0.66 0.33 1.32 0.66 2 1 C2.1875 3.375 2.1875 3.375 2 6 C1.01 6.66 0.02 7.32 -1 8 C-1.99 7.67 -2.98 7.34 -4 7 C-3.67 6.01 -3.34 5.02 -3 4 C-1.02 4.495 -1.02 4.495 1 5 C0.67 3.35 0.34 1.7 0 0 Z " fill="#184B2C" transform="translate(147,23)"/>
<path d="M0 0 C0.598125 0.350625 1.19625 0.70125 1.8125 1.0625 C0.8225 2.0525 -0.1675 3.0425 -1.1875 4.0625 C-3.6625 3.0725 -3.6625 3.0725 -6.1875 2.0625 C-4.66896708 -0.97456585 -3.05066334 -1.30742714 0 0 Z " fill="#293659" transform="translate(43.1875,25.9375)"/>
<path d="M0 0 C1.98 0.99 1.98 0.99 4 2 C3.67 3.65 3.34 5.3 3 7 C2.01 7 1.02 7 0 7 C0 4.69 0 2.38 0 0 Z " fill="#156E3A" transform="translate(63,23)"/>
<path d="M0 0 C1.32 0.33 2.64 0.66 4 1 C4 2.32 4 3.64 4 5 C3.01 5.33 2.02 5.66 1 6 C0 5 0 5 -0.0625 2.4375 C-0.041875 1.633125 -0.02125 0.82875 0 0 Z " fill="#32366C" transform="translate(94,34)"/>
<path d="M0 0 C0.99 0 1.98 0 3 0 C2.67 1.65 2.34 3.3 2 5 C1.01 5 0.02 5 -1 5 C-0.67 3.35 -0.34 1.7 0 0 Z " fill="#4A8F6B" transform="translate(27,27)"/>
<path d="M0 0 C0.99 0 1.98 0 3 0 C3 1.32 3 2.64 3 4 C1.35 4 -0.3 4 -2 4 C-1.34 2.68 -0.68 1.36 0 0 Z " fill="#0E3A21" transform="translate(99,27)"/>
<path d="M0 0 C0.33 0 0.66 0 1 0 C1 1.65 1 3.3 1 5 C0.34 5 -0.32 5 -1 5 C-1.33 6.65 -1.66 8.3 -2 10 C-2.33 10 -2.66 10 -3 10 C-3.23226952 6.59338044 -3.35720302 4.59016151 -1.5625 1.625 C-0.7890625 0.820625 -0.7890625 0.820625 0 0 Z " fill="#484C66" transform="translate(7,15)"/>
<path d="M0 0 C0.66 0 1.32 0 2 0 C3.125 4.75 3.125 4.75 2 7 C1.34 7 0.68 7 0 7 C0 4.69 0 2.38 0 0 Z " fill="#262D69" transform="translate(113,33)"/>
</svg>
