<svg width="46" height="46" viewBox="0 0 46 46" fill="none" xmlns="http://www.w3.org/2000/svg">
<mask id="mask0_1505_2152" style="mask-type:alpha" maskUnits="userSpaceOnUse" x="4" y="4" width="38" height="38">
<path d="M22.9995 29.6442C21.2374 29.6442 19.5475 28.9442 18.3014 27.6982C17.0554 26.4522 16.3554 24.7623 16.3554 23.0001C16.3554 21.238 17.0554 19.5481 18.3014 18.3021C19.5475 17.0561 21.2374 16.3561 22.9995 16.3561C24.7616 16.3561 26.4516 17.0561 27.6976 18.3021C28.9436 19.5481 29.6436 21.238 29.6436 23.0001C29.6436 24.7623 28.9436 26.4522 27.6976 27.6982C26.4516 28.9442 24.7616 29.6442 22.9995 29.6442ZM37.1039 24.8415C37.1799 24.234 37.2368 23.6266 37.2368 23.0001C37.2368 22.3737 37.1799 21.7473 37.1039 21.1018L41.1093 18.0076C41.47 17.7229 41.5649 17.2103 41.3371 16.7927L37.5405 10.2246C37.3127 9.80692 36.8002 9.63608 36.3826 9.80692L31.6558 11.7052C30.6687 10.9649 29.6436 10.3195 28.4476 9.84489L27.7453 4.81438C27.7067 4.59079 27.5903 4.38807 27.4165 4.24214C27.2428 4.09621 27.023 4.01648 26.7961 4.01709H19.2029C18.7283 4.01709 18.3297 4.35879 18.2537 4.81438L17.5514 9.84489C16.3554 10.3195 15.3304 10.9649 14.3432 11.7052L9.61646 9.80692C9.19883 9.63608 8.68629 9.80692 8.4585 10.2246L4.66189 16.7927C4.41511 17.2103 4.529 17.7229 4.88968 18.0076L8.89511 21.1018C8.81917 21.7473 8.76223 22.3737 8.76223 23.0001C8.76223 23.6266 8.81917 24.234 8.89511 24.8415L4.88968 27.9927C4.529 28.2774 4.41511 28.79 4.66189 29.2076L8.4585 35.7757C8.68629 36.1934 9.19883 36.3452 9.61646 36.1934L14.3432 34.2761C15.3304 35.0354 16.3554 35.6808 17.5514 36.1554L18.2537 41.1859C18.3297 41.6415 18.7283 41.9832 19.2029 41.9832H26.7961C27.2707 41.9832 27.6693 41.6415 27.7453 41.1859L28.4476 36.1554C29.6436 35.6618 30.6687 35.0354 31.6558 34.2761L36.3826 36.1934C36.8002 36.3452 37.3127 36.1934 37.5405 35.7757L41.3371 29.2076C41.5649 28.79 41.47 28.2774 41.1093 27.9927L37.1039 24.8415Z" fill="black"/>
</mask>
<g mask="url(#mask0_1505_2152)">
<rect x="4.55957" y="3.83594" width="38.3277" height="38.3277" fill="url(#paint0_linear_1505_2152)"/>
</g>
<defs>
<linearGradient id="paint0_linear_1505_2152" x1="4.55957" y1="3.83594" x2="42.8873" y2="42.1636" gradientUnits="userSpaceOnUse">
<stop stop-color="#5FCAFF"/>
<stop offset="1" stop-color="#2F6F91"/>
</linearGradient>
</defs>
</svg>
