<svg width="352" height="322" viewBox="0 0 352 322" fill="none" xmlns="http://www.w3.org/2000/svg">
<path d="M290.124 288.98C315.914 288.98 336.82 276.907 336.82 262.015C336.82 247.123 315.914 235.051 290.124 235.051C264.334 235.051 243.427 247.123 243.427 262.015C243.427 276.907 264.334 288.98 290.124 288.98Z" fill="#E0E0E0"/>
<path d="M122.939 320.271L7.08602 253.387C5.18666 252.291 5.18666 250.514 7.08602 249.41L174.571 152.721C175.636 152.177 176.816 151.893 178.012 151.893C179.209 151.893 180.388 152.177 181.454 152.721L297.275 219.588C299.174 220.684 299.174 222.462 297.275 223.557L129.822 320.271C128.756 320.811 127.576 321.093 126.381 321.093C125.185 321.093 124.006 320.811 122.939 320.271Z" fill="#E0E0E0"/>
<path d="M313.695 246.553C312.697 239.702 315.253 213.606 321.057 203.671C326.861 193.736 336.479 183.314 344.856 184.872C352.616 186.317 353.233 196.138 345.197 203.874C337.161 211.609 324.856 221.65 322.534 233.338L316.203 253.233L313.695 246.553Z" fill="#2F6F91"/>
<path opacity="0.1" d="M313.695 246.553C312.697 239.702 315.253 213.606 321.057 203.671C326.861 193.736 336.479 183.314 344.856 184.872C352.616 186.317 353.233 196.138 345.197 203.874C337.161 211.609 324.856 221.65 322.534 233.338L316.203 253.233L313.695 246.553Z" fill="black"/>
<path d="M315.554 244.401C315.66 244.373 315.754 244.311 315.821 244.225C315.889 244.138 315.926 244.032 315.927 243.922C316.285 219.848 331.682 197.542 342.186 191.333C342.301 191.265 342.384 191.154 342.418 191.025C342.451 190.895 342.432 190.758 342.364 190.643C342.297 190.528 342.186 190.444 342.056 190.411C341.927 190.377 341.79 190.396 341.674 190.464C330.968 196.795 315.278 219.466 314.888 243.906C314.887 243.972 314.899 244.038 314.924 244.099C314.948 244.161 314.984 244.217 315.03 244.264C315.076 244.312 315.131 244.35 315.192 244.376C315.252 244.402 315.318 244.416 315.384 244.418C315.441 244.425 315.499 244.42 315.554 244.401Z" fill="#F1F2F4"/>
<path d="M319.321 256.966C319.856 252.957 322.665 246.041 329.012 239.19C336.788 230.797 349.694 226.203 351.496 221.333C353.647 215.473 348.728 211.471 340.335 214.141C329.061 217.729 316.48 231.804 316.642 249.913L319.321 256.966Z" fill="#2F6F91"/>
<path d="M317.055 253.176C317.15 253.152 317.236 253.102 317.303 253.032C317.371 252.961 317.417 252.873 317.437 252.778C321.69 231.674 338.703 220.351 345.651 218.403C345.78 218.374 345.893 218.295 345.966 218.185C346.038 218.075 346.065 217.94 346.041 217.81C346.024 217.745 345.995 217.685 345.954 217.632C345.913 217.579 345.862 217.535 345.803 217.502C345.745 217.469 345.68 217.449 345.614 217.442C345.547 217.435 345.48 217.441 345.416 217.461C337.737 219.612 320.822 231.098 316.487 252.616C316.474 252.681 316.474 252.748 316.487 252.813C316.5 252.878 316.526 252.939 316.563 252.995C316.6 253.05 316.647 253.097 316.703 253.134C316.758 253.17 316.82 253.196 316.885 253.208C316.943 253.208 317.001 253.197 317.055 253.176Z" fill="#F1F2F4"/>
<path d="M82.4924 19.2866L76.3154 22.8581C76.3472 22.5887 76.3635 22.3177 76.3641 22.0464V20.2607C76.3641 17.0707 74.1238 15.7801 71.364 17.371C70.1798 18.105 69.1645 19.0815 68.3851 20.2363C67.9387 16.2265 64.7893 14.733 60.9744 16.9408C56.8428 19.3272 53.4905 25.1227 53.4905 29.9279V32.6065C53.4668 33.6744 53.6832 34.734 54.1237 35.7072L48.9613 38.6293C48.1532 39.1553 47.4806 39.8647 46.9982 40.6997C46.5159 41.5346 46.2373 42.4716 46.1853 43.4345C46.1853 45.204 47.4272 45.9183 48.9613 45.0579L82.4599 25.7152C83.267 25.19 83.9389 24.4819 84.4212 23.6484C84.9035 22.815 85.1826 21.8796 85.2359 20.9181C85.2683 19.1243 84.0265 18.4019 82.4924 19.2866Z" fill="#E6E6E6"/>
<path d="M4.43185 27.2656L7.84096 24.6276V17.1275C7.84096 11.1697 12.5894 4.25405 17.7436 1.27514C22.906 -1.70378 27.0862 0.71507 27.0862 6.6729V7.76057C28.1718 5.99637 29.6565 4.51171 31.4207 3.42613C35.1301 1.28326 38.1415 3.02028 38.1415 7.30602V7.80115L42.898 5.05763C45.3331 3.64528 47.3217 4.78977 47.3217 7.61446C47.2377 9.14929 46.7935 10.6428 46.025 11.974C45.2564 13.3052 44.1852 14.4367 42.898 15.2769L4.43185 37.4848C1.99677 38.8971 0 37.7526 0 34.9279C0.0810375 33.3915 0.524902 31.8961 1.29523 30.5642C2.06557 29.2324 3.14045 28.102 4.43185 27.2656Z" fill="#E6E6E6"/>
<path d="M14.2371 244.183C14.3297 245.443 14.7174 246.664 15.3688 247.747C16.0202 248.829 16.9171 249.744 17.9871 250.416L123.093 311.099C124.257 311.687 125.543 311.994 126.847 311.994C128.152 311.994 129.438 311.687 130.601 311.099L286.374 221.171C287.505 220.57 288.451 219.673 289.111 218.576C289.77 217.478 290.119 216.222 290.119 214.941C290.119 213.661 289.77 212.404 289.111 211.307C288.451 210.209 287.505 209.312 286.374 208.712L181.267 148.005C180.105 147.413 178.818 147.104 177.513 147.104C176.208 147.104 174.922 147.413 173.759 148.005L17.9871 237.957C16.9173 238.627 16.0203 239.54 15.3689 240.622C14.7174 241.704 14.3297 242.923 14.2371 244.183Z" fill="#37474F"/>
<path d="M126.884 303.85V311.967C125.578 311.996 124.286 311.689 123.134 311.074L17.987 250.416C16.8887 249.837 15.9636 248.976 15.3059 247.923C14.6481 246.87 14.2812 245.661 14.2424 244.419C14.2037 243.178 14.4945 241.949 15.0852 240.856C15.6759 239.764 16.5456 238.847 17.6055 238.2C15.9253 239.402 16.0552 241.171 17.987 242.259L123.101 302.949C124.263 303.572 125.566 303.883 126.884 303.85Z" fill="#263238"/>
<path d="M10.7143 238.103C9.67006 237.393 8.80771 236.446 8.19711 235.341C7.58652 234.235 7.24483 233.001 7.19971 231.739V106.292C7.27099 104.991 7.64763 103.726 8.29913 102.597C8.95064 101.469 9.85868 100.51 10.9497 99.7985L166.722 9.87103C167.843 9.27488 169.089 8.95169 170.358 8.92771C171.627 8.90373 172.884 9.17966 174.027 9.73305C175.07 10.4448 175.931 11.3913 176.542 12.4966C177.152 13.6019 177.495 14.835 177.542 16.0967V141.511C177.471 142.812 177.095 144.078 176.443 145.207C175.792 146.335 174.883 147.294 173.792 148.005L17.9871 237.957C16.8712 238.55 15.6315 238.872 14.3681 238.897C13.1048 238.922 11.8532 238.65 10.7143 238.103Z" fill="#455A64"/>
<path d="M17.5488 238.184C16.4711 238.666 15.3012 238.907 14.1208 238.89C12.9404 238.873 11.7779 238.599 10.7143 238.087C9.67006 237.376 8.80771 236.43 8.19711 235.325C7.58652 234.219 7.24483 232.985 7.19971 231.723V106.292C7.24112 104.986 7.62155 103.713 8.30361 102.599L15.3329 106.657C14.6614 107.773 14.2843 109.041 14.2371 110.342V235.79C14.2371 238.006 15.6819 239.004 17.5488 238.184Z" fill="#263238"/>
<path d="M14.2371 110.359V235.79C14.2371 238.225 15.9173 239.15 17.9871 237.957L173.759 148.005C174.851 147.294 175.759 146.335 176.411 145.207C177.062 144.078 177.439 142.812 177.509 141.512V16.0968C177.509 13.7104 175.837 12.7364 173.759 13.9377L17.9871 103.857C16.8959 104.571 15.9878 105.531 15.3364 106.661C14.685 107.79 14.3084 109.057 14.2371 110.359Z" fill="#37474F"/>
<path d="M17.9871 242.283L123.093 302.974C124.257 303.562 125.543 303.869 126.847 303.869C128.152 303.869 129.438 303.562 130.601 302.974L286.374 213.046C288.443 211.845 288.443 209.905 286.374 208.712L181.267 148.005C180.105 147.413 178.818 147.104 177.513 147.104C176.208 147.104 174.922 147.413 173.759 148.005L17.9871 237.957C15.9172 239.15 15.9172 241.09 17.9871 242.283Z" fill="#455A64"/>
<path d="M20.0082 108.679L170.618 21.7462C171.86 21.0319 172.874 21.6163 172.874 23.053V138.776C172.831 139.557 172.604 140.317 172.212 140.994C171.82 141.671 171.274 142.246 170.618 142.672L20.0082 229.605C18.7663 230.319 17.7517 229.734 17.7517 228.298V112.575C17.7951 111.794 18.022 111.034 18.4141 110.357C18.8061 109.68 19.3523 109.105 20.0082 108.679Z" fill="#2F6F91"/>
<path opacity="0.4" d="M20.0082 108.679L170.618 21.7462C171.86 21.0319 172.874 21.6163 172.874 23.053V138.776C172.831 139.557 172.604 140.317 172.212 140.994C171.82 141.671 171.274 142.246 170.618 142.672L20.0082 229.605C18.7663 230.319 17.7517 229.734 17.7517 228.298V112.575C17.7951 111.794 18.022 111.034 18.4141 110.357C18.8061 109.68 19.3523 109.105 20.0082 108.679Z" fill="black"/>
<path d="M30.187 239.037L175.642 155.075C176.223 154.779 176.866 154.624 177.517 154.624C178.169 154.624 178.812 154.779 179.392 155.075L186.219 159.012C187.25 159.612 187.25 160.578 186.219 161.179L40.7471 245.132C40.1665 245.429 39.5239 245.583 38.8721 245.583C38.2202 245.583 37.5776 245.429 36.9971 245.132L30.187 241.204C29.1561 240.603 29.1561 239.637 30.187 239.037Z" fill="#37474F"/>
<path d="M47.7845 249.199L193.232 165.229C193.812 164.933 194.455 164.778 195.107 164.778C195.759 164.778 196.401 164.933 196.982 165.229L238.979 189.475C240.018 190.075 240.018 191.049 238.979 191.642L93.6857 275.506C93.103 275.8 92.4594 275.953 91.8067 275.953C91.1539 275.953 90.5103 275.8 89.9276 275.506L47.7926 251.358C46.7536 250.765 46.7455 249.791 47.7845 249.199Z" fill="#263238"/>
<path d="M175.586 200.936L180.164 198.29C180.358 198.176 180.366 197.997 180.164 197.884L175.358 195.083C175.249 195.031 175.13 195.004 175.009 195.004C174.889 195.004 174.769 195.031 174.66 195.083L170.074 197.729C169.887 197.843 169.879 198.022 170.074 198.127L174.944 200.919C175.044 200.966 175.153 200.991 175.263 200.994C175.374 200.996 175.483 200.977 175.586 200.936ZM167.736 191.114L163.159 193.76C163.117 193.775 163.082 193.802 163.057 193.837C163.032 193.873 163.018 193.916 163.018 193.959C163.018 194.003 163.032 194.045 163.057 194.081C163.082 194.116 163.117 194.143 163.159 194.158L168.029 196.95C168.138 197.002 168.257 197.029 168.378 197.029C168.498 197.029 168.618 197.002 168.727 196.95L173.313 194.304C173.357 194.292 173.396 194.265 173.423 194.228C173.451 194.192 173.466 194.147 173.466 194.101C173.466 194.055 173.451 194.011 173.423 193.974C173.396 193.937 173.357 193.911 173.313 193.898L168.443 191.106C168.334 191.057 168.216 191.032 168.097 191.033C167.978 191.035 167.86 191.062 167.753 191.114H167.736ZM152.939 199.653L145.196 204.126C145.001 204.239 144.993 204.426 145.196 204.531L150.066 207.324C150.175 207.376 150.294 207.403 150.415 207.403C150.536 207.403 150.655 207.376 150.764 207.324L158.516 202.851C158.71 202.738 158.71 202.559 158.516 202.445L153.645 199.661C153.539 199.605 153.421 199.575 153.301 199.574C153.182 199.572 153.063 199.6 152.956 199.653H152.939ZM161.056 194.978L156.47 197.624C156.275 197.738 156.275 197.916 156.47 198.022L161.34 200.814C161.449 200.866 161.569 200.893 161.689 200.893C161.81 200.893 161.929 200.866 162.038 200.814L166.616 198.168C166.811 198.054 166.811 197.876 166.616 197.762L161.746 194.97C161.64 194.918 161.523 194.892 161.404 194.893C161.286 194.895 161.17 194.924 161.064 194.978H161.056ZM143.118 205.351L138.54 207.989C138.345 208.103 138.345 208.29 138.54 208.395L143.41 211.187C143.519 211.239 143.638 211.266 143.759 211.266C143.88 211.266 143.999 211.239 144.108 211.187L148.686 208.549C148.881 208.436 148.881 208.257 148.686 208.143L143.816 205.351C143.707 205.299 143.588 205.272 143.467 205.272C143.346 205.272 143.227 205.299 143.118 205.351ZM136.429 209.215L131.843 211.861C131.802 211.876 131.767 211.903 131.742 211.938C131.716 211.974 131.703 212.016 131.703 212.06C131.703 212.103 131.716 212.146 131.742 212.182C131.767 212.217 131.802 212.244 131.843 212.259L136.624 215.051C136.732 215.107 136.852 215.137 136.973 215.137C137.095 215.137 137.215 215.107 137.322 215.051L141.9 212.413C142.095 212.299 142.095 212.121 141.9 212.007L137.071 209.215C136.966 209.168 136.853 209.144 136.738 209.144C136.623 209.144 136.51 209.168 136.405 209.215H136.429ZM155.407 220.579L159.985 217.932C160.18 217.819 160.18 217.64 159.985 217.535L155.155 214.743C155.046 214.691 154.927 214.664 154.806 214.664C154.685 214.664 154.566 214.691 154.457 214.743L149.871 217.389C149.827 217.401 149.788 217.428 149.761 217.464C149.733 217.501 149.718 217.546 149.718 217.592C149.718 217.637 149.733 217.682 149.761 217.719C149.788 217.755 149.827 217.782 149.871 217.795L154.701 220.587C154.808 220.635 154.925 220.659 155.042 220.658C155.16 220.656 155.276 220.629 155.383 220.579H155.407ZM148.71 224.442L153.296 221.796C153.491 221.683 153.491 221.504 153.296 221.398L148.443 218.622C148.334 218.571 148.214 218.544 148.094 218.544C147.973 218.544 147.854 218.571 147.744 218.622L143.167 221.269C142.972 221.382 142.972 221.561 143.167 221.674L147.996 224.467C148.106 224.514 148.225 224.536 148.344 224.531C148.463 224.527 148.58 224.497 148.686 224.442H148.71ZM142.022 228.306L146.6 225.66C146.641 225.645 146.677 225.618 146.702 225.583C146.727 225.547 146.74 225.505 146.74 225.461C146.74 225.417 146.727 225.375 146.702 225.339C146.677 225.304 146.641 225.277 146.6 225.262L141.73 222.47C141.622 222.414 141.502 222.384 141.381 222.384C141.259 222.384 141.14 222.414 141.032 222.47L136.47 225.116C136.275 225.23 136.275 225.408 136.47 225.522L141.34 228.314C141.444 228.359 141.557 228.381 141.67 228.38C141.783 228.378 141.895 228.353 141.998 228.306H142.022ZM135.326 232.17L139.904 229.523C140.098 229.418 140.106 229.231 139.904 229.126L135.033 226.334C134.924 226.282 134.805 226.255 134.684 226.255C134.564 226.255 134.444 226.282 134.335 226.334L129.757 228.972C129.563 229.085 129.554 229.264 129.757 229.377L134.587 232.17C134.698 232.224 134.82 232.252 134.944 232.252C135.068 232.252 135.19 232.224 135.301 232.17H135.326ZM168.905 204.824L173.491 202.178C173.536 202.165 173.574 202.138 173.602 202.102C173.63 202.065 173.644 202.02 173.644 201.975C173.644 201.929 173.63 201.884 173.602 201.848C173.574 201.811 173.536 201.784 173.491 201.772L168.621 198.988C168.513 198.931 168.394 198.902 168.272 198.902C168.151 198.902 168.031 198.931 167.923 198.988L163.41 201.577C163.215 201.691 163.215 201.869 163.41 201.975L168.24 204.767C168.34 204.823 168.452 204.857 168.566 204.867C168.681 204.877 168.797 204.862 168.905 204.824ZM162.079 216.739L172.29 210.838C172.485 210.725 172.485 210.546 172.29 210.441L160.553 203.663C160.444 203.611 160.325 203.584 160.204 203.584C160.083 203.584 159.964 203.611 159.855 203.663L154.571 206.715C154.376 206.829 154.376 207.007 154.571 207.121L160.788 210.708C160.829 210.723 160.865 210.75 160.89 210.786C160.915 210.821 160.929 210.864 160.929 210.907C160.929 210.951 160.915 210.993 160.89 211.029C160.865 211.065 160.829 211.092 160.788 211.106L156.559 213.541C156.365 213.655 156.365 213.833 156.559 213.947L161.43 216.731C161.532 216.777 161.644 216.799 161.756 216.797C161.868 216.794 161.979 216.766 162.079 216.715V216.739ZM129.709 213.103L125.131 215.749C125.09 215.764 125.054 215.791 125.029 215.826C125.004 215.862 124.99 215.904 124.99 215.948C124.99 215.991 125.004 216.034 125.029 216.07C125.054 216.105 125.09 216.132 125.131 216.147L129.96 218.939C130.069 218.991 130.189 219.018 130.309 219.018C130.43 219.018 130.549 218.991 130.658 218.939L135.244 216.293C135.288 216.28 135.327 216.254 135.355 216.217C135.383 216.18 135.397 216.136 135.397 216.09C135.397 216.044 135.383 215.999 135.355 215.963C135.327 215.926 135.288 215.9 135.244 215.887L130.415 213.095C130.306 213.039 130.186 213.009 130.064 213.006C129.941 213.003 129.82 213.028 129.709 213.079V213.103ZM123.02 216.967L118.434 219.613C118.239 219.726 118.239 219.905 118.434 220.01L123.304 222.803C123.413 222.855 123.533 222.882 123.653 222.882C123.774 222.882 123.893 222.855 124.002 222.803L128.58 220.157C128.775 220.043 128.775 219.864 128.58 219.751L123.71 216.958C123.605 216.902 123.487 216.871 123.367 216.868C123.247 216.865 123.128 216.891 123.02 216.942V216.967ZM87.7522 259.207C87.8612 259.259 87.9805 259.286 88.1012 259.286C88.222 259.286 88.3412 259.259 88.4503 259.207L93.0282 256.561C93.223 256.447 93.2311 256.269 93.0282 256.155L88.158 253.371C88.0503 253.315 87.9306 253.285 87.809 253.285C87.6875 253.285 87.5677 253.315 87.46 253.371L82.882 256.017C82.6872 256.131 82.6791 256.309 82.882 256.415L87.7522 259.207ZM69.4729 247.843L64.8949 250.481C64.7001 250.595 64.692 250.774 64.8949 250.887L69.7245 253.679C69.8335 253.731 69.9528 253.758 70.0735 253.758C70.1943 253.758 70.3135 253.731 70.4226 253.679L75.0005 251.033C75.1953 250.928 75.2034 250.741 75.0005 250.636L70.1303 247.843C70.0278 247.794 69.9155 247.768 69.8016 247.768C69.6877 247.768 69.5754 247.794 69.4729 247.843ZM79.0914 256.236C79.1992 256.293 79.3189 256.322 79.4405 256.322C79.562 256.322 79.6817 256.293 79.7895 256.236L84.3674 253.59C84.5622 253.477 84.5622 253.298 84.3674 253.192L79.4973 250.4C79.3895 250.344 79.2698 250.315 79.1483 250.315C79.0267 250.315 78.907 250.344 78.7992 250.4L74.2213 253.046C74.0265 253.16 74.0265 253.339 74.2213 253.452L79.0914 256.236ZM98.8805 261.155L103.458 258.509C103.5 258.494 103.535 258.468 103.56 258.432C103.585 258.396 103.599 258.354 103.599 258.31C103.599 258.267 103.585 258.224 103.56 258.188C103.535 258.153 103.5 258.126 103.458 258.111L98.5883 255.319C98.4793 255.267 98.3601 255.24 98.2393 255.24C98.1185 255.24 97.9993 255.267 97.8903 255.319L93.3123 257.957C93.1175 258.071 93.1175 258.249 93.3123 258.363L98.1825 261.155C98.2903 261.21 98.4089 261.239 98.5297 261.242C98.6504 261.245 98.7703 261.221 98.8805 261.171V261.155ZM91.486 265.027C91.595 265.079 91.7143 265.106 91.835 265.106C91.9558 265.106 92.075 265.079 92.1841 265.027L96.762 262.381C96.9568 262.275 96.9649 262.089 96.762 261.983L91.9811 259.207C91.8721 259.155 91.7529 259.128 91.6321 259.128C91.5113 259.128 91.3921 259.155 91.2831 259.207L86.7051 261.845C86.5103 261.959 86.5022 262.137 86.7051 262.251L91.486 265.027ZM76.1693 243.972L71.5833 246.618C71.5392 246.63 71.5004 246.657 71.4727 246.694C71.4451 246.73 71.4302 246.775 71.4302 246.821C71.4302 246.867 71.4451 246.911 71.4727 246.948C71.5004 246.984 71.5392 247.011 71.5833 247.024L76.4129 249.816C76.5219 249.868 76.6411 249.895 76.7619 249.895C76.8826 249.895 77.0019 249.868 77.1109 249.816L81.6889 247.17C81.8837 247.056 81.8837 246.877 81.6889 246.772L76.8187 243.98C76.7165 243.933 76.6054 243.91 76.4931 243.911C76.3809 243.913 76.2703 243.939 76.1693 243.988V243.972ZM109.627 224.653L105.049 227.299C104.855 227.413 104.855 227.592 105.049 227.697L109.92 230.489C110.027 230.546 110.147 230.575 110.269 230.575C110.39 230.575 110.51 230.546 110.618 230.489L115.196 227.843C115.39 227.73 115.39 227.551 115.196 227.437L110.325 224.653C110.216 224.6 110.096 224.573 109.974 224.576C109.853 224.579 109.734 224.611 109.627 224.67V224.653ZM82.8415 240.075L78.2635 242.722C78.0687 242.835 78.0687 243.014 78.2635 243.127L83.0931 245.912C83.2008 245.968 83.3206 245.997 83.4421 245.997C83.5636 245.997 83.6834 245.968 83.7911 245.912L88.3772 243.265C88.572 243.152 88.572 242.973 88.3772 242.868L83.5476 240.075C83.4361 240.032 83.3165 240.014 83.1972 240.023C83.0779 240.031 82.962 240.066 82.8577 240.124L82.8415 240.075ZM116.332 220.806L111.746 223.493C111.551 223.606 111.543 223.785 111.746 223.89L116.575 226.683C116.683 226.739 116.803 226.768 116.924 226.768C117.046 226.768 117.166 226.739 117.273 226.683L121.851 224.036C122.046 223.923 122.054 223.744 121.851 223.631L116.981 220.846C116.883 220.792 116.774 220.76 116.661 220.753C116.549 220.746 116.436 220.764 116.332 220.806ZM102.947 228.533L98.3692 231.179C98.1743 231.293 98.1662 231.472 98.3692 231.585L103.239 234.369C103.347 234.425 103.467 234.455 103.588 234.455C103.71 234.455 103.83 234.425 103.937 234.369L108.515 231.723C108.71 231.61 108.718 231.431 108.515 231.317L103.686 228.533C103.572 228.468 103.443 228.434 103.312 228.434C103.181 228.434 103.053 228.468 102.939 228.533H102.947ZM96.2425 232.421L91.6646 235.067C91.4698 235.181 91.4698 235.36 91.6646 235.473L96.5347 238.257C96.6425 238.313 96.7622 238.343 96.8838 238.343C97.0053 238.343 97.125 238.313 97.2328 238.257L101.811 235.611C102.006 235.498 102.006 235.319 101.811 235.213L96.9406 232.421C96.8328 232.365 96.7131 232.336 96.5915 232.336C96.47 232.336 96.3503 232.365 96.2425 232.421ZM89.546 236.261L84.9762 238.915C84.7814 239.028 84.7733 239.207 84.9762 239.321L89.8058 242.105C89.9136 242.161 90.0333 242.19 90.1548 242.19C90.2763 242.19 90.3961 242.161 90.5038 242.105L95.0818 239.459C95.2766 239.345 95.2847 239.166 95.0818 239.061L90.2522 236.269C90.1427 236.214 90.0223 236.185 89.9001 236.184C89.7778 236.182 89.6568 236.209 89.546 236.261ZM121.908 239.897L126.486 237.259C126.681 237.145 126.689 236.967 126.486 236.853L121.673 234.045C121.564 233.993 121.445 233.966 121.324 233.966C121.203 233.966 121.084 233.993 120.975 234.045L116.397 236.683C116.202 236.796 116.194 236.975 116.397 237.088L121.267 239.881C121.368 239.928 121.478 239.954 121.59 239.957C121.702 239.959 121.813 239.939 121.916 239.897H121.908ZM182.542 182.575L177.964 185.213C177.769 185.327 177.761 185.505 177.964 185.619L182.793 188.411C182.902 188.463 183.022 188.49 183.142 188.49C183.263 188.49 183.382 188.463 183.491 188.411L188.069 185.765C188.264 185.66 188.272 185.473 188.069 185.367L183.24 182.575C183.133 182.52 183.015 182.492 182.895 182.492C182.775 182.492 182.657 182.52 182.55 182.575H182.542ZM174.425 187.25L169.904 189.897C169.863 189.911 169.827 189.938 169.802 189.974C169.777 190.009 169.763 190.052 169.763 190.095C169.763 190.139 169.777 190.182 169.802 190.217C169.827 190.253 169.863 190.28 169.904 190.294L174.733 193.087C174.842 193.139 174.962 193.165 175.082 193.165C175.203 193.165 175.322 193.139 175.431 193.087L180.009 190.449C180.204 190.335 180.204 190.156 180.009 190.043L175.139 187.25C175.031 187.2 174.913 187.174 174.794 187.174C174.675 187.174 174.557 187.2 174.449 187.25H174.425ZM189.214 178.703L184.636 181.349C184.441 181.463 184.441 181.642 184.636 181.755L189.506 184.548C189.615 184.599 189.734 184.626 189.855 184.626C189.976 184.626 190.095 184.599 190.204 184.548L194.782 181.901C194.977 181.788 194.977 181.609 194.782 181.504L189.912 178.711C189.807 178.662 189.692 178.636 189.576 178.634C189.46 178.633 189.345 178.656 189.238 178.703H189.214ZM153.41 213.752L157.988 211.106C158.029 211.092 158.065 211.065 158.09 211.029C158.115 210.993 158.128 210.951 158.128 210.907C158.128 210.864 158.115 210.821 158.09 210.786C158.065 210.75 158.029 210.723 157.988 210.708L153.118 207.916C153.009 207.864 152.89 207.837 152.769 207.837C152.648 207.837 152.529 207.864 152.42 207.916L147.834 210.562C147.79 210.575 147.751 210.602 147.723 210.638C147.696 210.675 147.681 210.719 147.681 210.765C147.681 210.811 147.696 210.856 147.723 210.892C147.751 210.929 147.79 210.956 147.834 210.968L152.663 213.76C152.779 213.819 152.908 213.849 153.038 213.847C153.168 213.846 153.295 213.813 153.41 213.752ZM196.633 174.848C196.524 174.796 196.405 174.769 196.284 174.769C196.163 174.769 196.044 174.796 195.935 174.848L191.357 177.494C191.162 177.608 191.154 177.786 191.357 177.9L196.186 180.692C196.295 180.744 196.415 180.771 196.535 180.771C196.656 180.771 196.775 180.744 196.884 180.692L201.462 178.046C201.657 177.932 201.665 177.754 201.462 177.648L196.633 174.848ZM128.613 236.041L133.191 233.403C133.386 233.29 133.386 233.103 133.191 232.998L128.321 230.205C128.212 230.153 128.092 230.126 127.972 230.126C127.851 230.126 127.732 230.153 127.623 230.205L123.045 232.843C122.85 232.957 122.85 233.136 123.045 233.249L127.915 236.041C128.024 236.092 128.144 236.118 128.265 236.116C128.386 236.115 128.504 236.086 128.613 236.033V236.041ZM210.683 188.655L215.269 186.009C215.31 185.994 215.346 185.967 215.371 185.931C215.396 185.896 215.41 185.853 215.41 185.81C215.41 185.766 215.396 185.724 215.371 185.688C215.346 185.652 215.31 185.625 215.269 185.611L210.399 182.819C210.29 182.767 210.171 182.74 210.05 182.74C209.929 182.74 209.81 182.767 209.701 182.819L205.123 185.457C204.928 185.57 204.928 185.749 205.123 185.863L209.993 188.655C210.101 188.708 210.219 188.735 210.339 188.733C210.459 188.732 210.577 188.702 210.683 188.647V188.655ZM197.087 188.533L201.673 185.887C201.714 185.872 201.75 185.845 201.775 185.81C201.8 185.774 201.814 185.732 201.814 185.688C201.814 185.644 201.8 185.602 201.775 185.566C201.75 185.531 201.714 185.504 201.673 185.489L196.844 182.697C196.735 182.645 196.616 182.618 196.495 182.618C196.374 182.618 196.255 182.645 196.146 182.697L191.568 185.343C191.373 185.457 191.365 185.635 191.568 185.749L196.397 188.541C196.507 188.589 196.625 188.613 196.744 188.61C196.863 188.607 196.981 188.578 197.087 188.525V188.533ZM203.532 178.849C203.425 178.795 203.307 178.767 203.187 178.767C203.067 178.767 202.949 178.795 202.842 178.849L198.256 181.496C198.212 181.508 198.173 181.535 198.146 181.571C198.118 181.608 198.103 181.653 198.103 181.699C198.103 181.744 198.118 181.789 198.146 181.826C198.173 181.862 198.212 181.889 198.256 181.901L203.086 184.694C203.195 184.746 203.314 184.773 203.435 184.773C203.556 184.773 203.675 184.746 203.784 184.694L208.362 182.048C208.403 182.033 208.438 182.006 208.464 181.97C208.489 181.935 208.502 181.892 208.502 181.849C208.502 181.805 208.489 181.763 208.464 181.727C208.438 181.691 208.403 181.664 208.362 181.65L203.532 178.849ZM204.945 178.038L216.682 184.815C216.791 184.867 216.91 184.894 217.031 184.894C217.151 184.894 217.271 184.867 217.38 184.815L221.958 182.169C222.152 182.064 222.161 181.877 221.958 181.772L210.221 174.994C210.112 174.942 209.992 174.915 209.871 174.915C209.751 174.915 209.632 174.942 209.522 174.994L204.945 177.64C204.758 177.721 204.758 177.9 204.945 178.038ZM189.449 186.561L184.871 189.199C184.677 189.312 184.677 189.491 184.871 189.604L189.742 192.397C189.851 192.449 189.97 192.476 190.091 192.476C190.211 192.476 190.331 192.449 190.44 192.397L195.018 189.759C195.212 189.645 195.212 189.458 195.018 189.353L190.147 186.561C190.038 186.509 189.919 186.482 189.798 186.482C189.678 186.482 189.558 186.509 189.449 186.561ZM139.059 215.644L134.481 218.282C134.287 218.395 134.287 218.574 134.481 218.687L139.352 221.48C139.461 221.532 139.58 221.558 139.701 221.558C139.821 221.558 139.941 221.532 140.05 221.48L144.628 218.842C144.822 218.728 144.822 218.541 144.628 218.436L139.757 215.644C139.648 215.592 139.529 215.565 139.408 215.565C139.288 215.565 139.168 215.592 139.059 215.644ZM203.281 192.518C203.39 192.57 203.509 192.597 203.63 192.597C203.75 192.597 203.87 192.57 203.979 192.518L208.557 189.88C208.751 189.767 208.751 189.58 208.557 189.475L203.727 186.682C203.618 186.63 203.499 186.603 203.378 186.603C203.257 186.603 203.138 186.63 203.029 186.682L198.443 189.32C198.399 189.333 198.36 189.36 198.332 189.396C198.305 189.433 198.29 189.477 198.29 189.523C198.29 189.569 198.305 189.614 198.332 189.65C198.36 189.687 198.399 189.714 198.443 189.726L203.281 192.518ZM145.756 211.78L141.178 214.418C140.983 214.532 140.983 214.71 141.178 214.824L146.007 217.616C146.116 217.668 146.236 217.695 146.356 217.695C146.477 217.695 146.596 217.668 146.706 217.616L151.292 214.97C151.333 214.955 151.368 214.928 151.393 214.893C151.418 214.857 151.432 214.815 151.432 214.771C151.432 214.727 151.418 214.685 151.393 214.649C151.368 214.614 151.333 214.587 151.292 214.572L146.421 211.78C146.32 211.732 146.209 211.706 146.097 211.706C145.984 211.706 145.873 211.732 145.772 211.78H145.756ZM94.4162 255.36C94.5252 255.412 94.6445 255.439 94.7652 255.439C94.886 255.439 95.0052 255.412 95.1143 255.36L99.6922 252.714C99.887 252.6 99.887 252.421 99.6922 252.308L94.8221 249.515C94.7151 249.461 94.597 249.433 94.4771 249.433C94.3572 249.433 94.239 249.461 94.1321 249.515L89.546 252.162C89.3512 252.275 89.3512 252.454 89.546 252.559L94.4162 255.36ZM85.4876 246.553L80.9096 249.199C80.7148 249.313 80.7067 249.491 80.9096 249.597L85.7798 252.389C85.8876 252.445 86.0073 252.474 86.1288 252.474C86.2503 252.474 86.3701 252.445 86.4778 252.389L91.0558 249.743C91.2506 249.629 91.2587 249.451 91.0558 249.337L86.1856 246.553C86.0842 246.504 85.9733 246.479 85.861 246.479C85.7486 246.479 85.6377 246.504 85.5363 246.553H85.4876ZM101.786 251.488L106.372 248.85C106.417 248.837 106.455 248.811 106.483 248.774C106.511 248.737 106.526 248.693 106.526 248.647C106.526 248.601 106.511 248.557 106.483 248.52C106.455 248.483 106.417 248.457 106.372 248.444L101.543 245.652C101.434 245.6 101.315 245.573 101.194 245.573C101.073 245.573 100.954 245.6 100.845 245.652L96.2669 248.298C96.2258 248.313 96.1903 248.34 96.1651 248.375C96.14 248.411 96.1265 248.453 96.1265 248.497C96.1265 248.54 96.14 248.583 96.1651 248.619C96.1903 248.654 96.2258 248.681 96.2669 248.696L101.096 251.488C101.209 251.551 101.336 251.584 101.466 251.584C101.595 251.584 101.722 251.551 101.835 251.488H101.786ZM108.483 247.624L113.061 244.986C113.256 244.873 113.264 244.694 113.061 244.58L108.231 241.788C108.122 241.736 108.003 241.709 107.882 241.709C107.761 241.709 107.642 241.736 107.533 241.788L102.947 244.434C102.906 244.449 102.87 244.476 102.845 244.511C102.82 244.547 102.807 244.59 102.807 244.633C102.807 244.677 102.82 244.719 102.845 244.755C102.87 244.79 102.906 244.817 102.947 244.832L107.777 247.624C107.891 247.691 108.022 247.725 108.154 247.725C108.287 247.725 108.417 247.691 108.532 247.624H108.483ZM115.179 243.761L119.757 241.123C119.952 241.009 119.952 240.83 119.757 240.717L114.887 237.925C114.778 237.873 114.659 237.846 114.538 237.846C114.417 237.846 114.298 237.873 114.189 237.925L109.7 240.538C109.506 240.652 109.506 240.838 109.7 240.944L114.571 243.736C114.671 243.79 114.781 243.822 114.894 243.83C115.007 243.839 115.121 243.823 115.228 243.785L115.179 243.761ZM92.1759 242.689L87.598 245.335C87.4032 245.449 87.4032 245.627 87.598 245.733L92.4681 248.525C92.5759 248.581 92.6956 248.611 92.8172 248.611C92.9387 248.611 93.0584 248.581 93.1662 248.525L97.7442 245.879C97.939 245.765 97.939 245.587 97.7442 245.473L92.874 242.689C92.7726 242.641 92.6616 242.616 92.5493 242.616C92.437 242.616 92.3261 242.641 92.2246 242.689H92.1759ZM98.8724 238.826L94.2945 241.472C94.0997 241.585 94.0915 241.764 94.2945 241.869L99.124 244.662C99.2331 244.713 99.3523 244.74 99.4731 244.74C99.5938 244.74 99.7131 244.713 99.8221 244.662L104.408 242.015C104.595 241.902 104.603 241.723 104.408 241.61L99.538 238.826C99.441 238.782 99.3359 238.76 99.2295 238.76C99.1232 238.76 99.0181 238.782 98.9211 238.826H98.8724ZM125.658 223.403L121.08 226.041C120.886 226.155 120.886 226.342 121.08 226.447L125.951 229.239C126.06 229.291 126.179 229.318 126.3 229.318C126.42 229.318 126.54 229.291 126.649 229.239L131.227 226.601C131.421 226.488 131.421 226.309 131.227 226.196L126.356 223.403C126.254 223.351 126.142 223.321 126.027 223.316C125.912 223.31 125.798 223.329 125.691 223.371L125.658 223.403ZM118.97 227.267L114.392 229.913C114.197 230.019 114.189 230.205 114.392 230.311L119.262 233.103C119.37 233.159 119.49 233.189 119.611 233.189C119.733 233.189 119.852 233.159 119.96 233.103L124.538 230.465C124.733 230.351 124.741 230.173 124.538 230.059L119.709 227.267C119.601 227.209 119.482 227.175 119.359 227.17C119.237 227.164 119.115 227.186 119.002 227.234L118.97 227.267ZM132.355 219.54L127.777 222.178C127.582 222.291 127.574 222.47 127.777 222.584L132.647 225.376C132.756 225.428 132.875 225.455 132.996 225.455C133.117 225.455 133.236 225.428 133.345 225.376L137.923 222.738C138.118 222.624 138.126 222.446 137.923 222.332L133.053 219.54C132.951 219.487 132.838 219.458 132.724 219.452C132.609 219.446 132.494 219.465 132.387 219.507L132.355 219.54ZM105.569 234.962L100.983 237.608C100.788 237.722 100.788 237.9 100.983 238.006L105.812 240.798C105.921 240.85 106.041 240.877 106.161 240.877C106.282 240.877 106.401 240.85 106.51 240.798L111.088 238.152C111.283 238.038 111.283 237.86 111.088 237.746L106.218 234.954C106.024 234.88 105.809 234.882 105.618 234.962H105.569ZM112.257 231.098L107.679 233.744C107.638 233.759 107.603 233.786 107.578 233.821C107.552 233.857 107.539 233.9 107.539 233.943C107.539 233.987 107.552 234.029 107.578 234.065C107.603 234.1 107.638 234.127 107.679 234.142L112.549 236.934C112.656 236.988 112.775 237.017 112.894 237.017C113.014 237.017 113.132 236.988 113.239 236.934L117.825 234.288C118.02 234.174 118.02 233.996 117.825 233.882L112.955 231.09C112.848 231.042 112.731 231.018 112.613 231.019C112.496 231.02 112.38 231.047 112.273 231.098H112.257ZM105.52 257.308L110.106 254.662C110.147 254.647 110.183 254.62 110.208 254.584C110.233 254.549 110.247 254.506 110.247 254.463C110.247 254.419 110.233 254.377 110.208 254.341C110.183 254.305 110.147 254.278 110.106 254.264L105.277 251.472C105.169 251.415 105.049 251.386 104.928 251.386C104.806 251.386 104.686 251.415 104.579 251.472L100.001 254.11C99.8059 254.223 99.8059 254.402 100.001 254.516L104.83 257.308C104.945 257.366 105.071 257.397 105.2 257.397C105.328 257.397 105.455 257.366 105.569 257.308H105.52ZM68.2634 254.507L63.3933 251.715C63.2843 251.663 63.165 251.636 63.0443 251.636C62.9235 251.636 62.8042 251.663 62.6952 251.715L58.1984 254.337C58.0036 254.451 58.0036 254.629 58.1984 254.743L63.0686 257.535C63.1776 257.587 63.2969 257.614 63.4176 257.614C63.5384 257.614 63.6576 257.587 63.7667 257.535L68.3446 254.889C68.3796 254.869 68.408 254.839 68.4267 254.804C68.4454 254.768 68.4536 254.728 68.4502 254.688C68.4467 254.648 68.4319 254.609 68.4075 254.577C68.383 254.545 68.3499 254.521 68.3121 254.507H68.2634ZM77.6304 257.072L72.8008 254.28C72.693 254.224 72.5733 254.195 72.4518 254.195C72.3303 254.195 72.2105 254.224 72.1027 254.28L65.0573 258.339C64.8624 258.452 64.8543 258.631 65.0573 258.744L69.9274 261.537C70.0364 261.589 70.1557 261.616 70.2764 261.616C70.3972 261.616 70.5164 261.589 70.6255 261.537L77.671 257.478C77.8658 257.356 77.8739 257.178 77.6791 257.072H77.6304ZM60.942 249.061L56.0718 246.269C55.9628 246.217 55.8435 246.19 55.7228 246.19C55.602 246.19 55.4828 246.217 55.3738 246.269L49.7406 249.515C49.5458 249.629 49.5377 249.808 49.7406 249.921L54.6108 252.714C54.7198 252.765 54.839 252.792 54.9598 252.792C55.0805 252.792 55.1998 252.765 55.3088 252.714L60.9907 249.467C61.1774 249.345 61.1774 249.166 60.9907 249.061H60.942ZM65.2602 246.561C65.3679 246.617 65.4877 246.646 65.6092 246.646C65.7307 246.646 65.8505 246.617 65.9582 246.561L70.5362 243.915C70.731 243.801 70.731 243.623 70.5362 243.509L65.666 240.725C65.5597 240.669 65.4413 240.639 65.3211 240.639C65.2008 240.639 65.0824 240.669 64.9761 240.725L60.39 243.371C60.1952 243.485 60.1952 243.663 60.39 243.769L65.2602 246.561ZM86.348 260.019L81.4778 257.235C81.3701 257.179 81.2503 257.149 81.1288 257.149C81.0073 257.149 80.8875 257.179 80.7798 257.235L71.9729 262.316C71.7781 262.43 71.7781 262.616 71.9729 262.722L76.843 265.514C76.9521 265.566 77.0713 265.593 77.1921 265.593C77.3128 265.593 77.4321 265.566 77.5411 265.514L86.348 260.433C86.5347 260.327 86.5347 260.149 86.348 260.019ZM90.0818 265.839L85.2116 263.046C85.1026 262.994 84.9833 262.968 84.8626 262.968C84.7418 262.968 84.6226 262.994 84.5135 263.046L78.8804 266.293C78.8393 266.308 78.8038 266.335 78.7786 266.37C78.7535 266.406 78.74 266.448 78.74 266.492C78.74 266.536 78.7535 266.578 78.7786 266.614C78.8038 266.649 78.8393 266.676 78.8804 266.691L83.7506 269.483C83.8583 269.539 83.978 269.569 84.0996 269.569C84.2211 269.569 84.3409 269.539 84.4486 269.483L90.0818 266.236C90.2685 266.147 90.2685 265.969 90.0818 265.855V265.839ZM115.074 217.811C115.183 217.863 115.302 217.89 115.423 217.89C115.544 217.89 115.663 217.863 115.772 217.811L120.35 215.165C120.391 215.15 120.426 215.123 120.452 215.087C120.477 215.052 120.49 215.009 120.49 214.966C120.49 214.922 120.477 214.88 120.452 214.844C120.426 214.808 120.391 214.781 120.35 214.767L115.48 211.975C115.371 211.923 115.251 211.896 115.131 211.896C115.01 211.896 114.891 211.923 114.782 211.975L110.204 214.613C110.009 214.726 110.009 214.905 110.204 215.019L115.074 217.811ZM101.721 225.562C101.828 225.617 101.947 225.645 102.066 225.645C102.186 225.645 102.304 225.617 102.411 225.562L106.997 222.924C107.042 222.912 107.08 222.885 107.108 222.849C107.136 222.812 107.151 222.767 107.151 222.721C107.151 222.676 107.136 222.631 107.108 222.594C107.08 222.558 107.042 222.531 106.997 222.519L102.127 219.726C102.018 219.674 101.899 219.647 101.778 219.647C101.658 219.647 101.538 219.674 101.429 219.726L96.8513 222.364C96.6565 222.478 96.6565 222.657 96.8513 222.77L101.721 225.562ZM72.0297 242.697C72.1375 242.753 72.2572 242.783 72.3787 242.783C72.5003 242.783 72.62 242.753 72.7278 242.697L77.3138 240.051C77.3579 240.039 77.3967 240.012 77.4243 239.975C77.452 239.939 77.4669 239.894 77.4669 239.848C77.4669 239.802 77.452 239.758 77.4243 239.721C77.3967 239.685 77.3579 239.658 77.3138 239.645L72.4842 236.861C72.3765 236.805 72.2568 236.776 72.1352 236.776C72.0137 236.776 71.8939 236.805 71.7862 236.861L67.2082 239.507C67.0134 239.621 67.0134 239.8 67.2082 239.905L72.0297 242.697ZM108.41 221.699C108.519 221.751 108.638 221.778 108.759 221.778C108.88 221.778 108.999 221.751 109.108 221.699L113.686 219.061C113.881 218.947 113.889 218.76 113.686 218.655L108.816 215.863C108.707 215.811 108.587 215.784 108.467 215.784C108.346 215.784 108.227 215.811 108.118 215.863L103.54 218.501C103.345 218.614 103.337 218.793 103.54 218.907L108.41 221.699ZM95.025 229.426C95.134 229.478 95.2532 229.505 95.374 229.505C95.4948 229.505 95.614 229.478 95.723 229.426L100.301 226.788C100.496 226.674 100.496 226.496 100.301 226.382L95.4714 223.59C95.3624 223.538 95.2431 223.511 95.1224 223.511C95.0016 223.511 94.8824 223.538 94.7734 223.59L90.1873 226.236C90.1462 226.251 90.1107 226.278 90.0855 226.313C90.0604 226.349 90.0469 226.391 90.0469 226.435C90.0469 226.479 90.0604 226.521 90.0855 226.557C90.1107 226.592 90.1462 226.619 90.1873 226.634L95.025 229.426ZM93.6045 266.236C93.4955 266.184 93.3763 266.158 93.2555 266.158C93.1347 266.158 93.0155 266.184 92.9065 266.236L85.861 270.295C85.6662 270.408 85.658 270.587 85.861 270.693L90.6905 273.485C90.7996 273.537 90.9188 273.564 91.0396 273.564C91.1603 273.564 91.2796 273.537 91.3886 273.485L98.4341 269.426C98.4752 269.412 98.5107 269.385 98.5358 269.349C98.561 269.314 98.5745 269.271 98.5745 269.227C98.5745 269.184 98.561 269.141 98.5358 269.106C98.5107 269.07 98.4752 269.043 98.4341 269.029L93.6045 266.236ZM85.4308 234.97C85.5398 235.022 85.659 235.049 85.7798 235.049C85.9006 235.049 86.0198 235.022 86.1288 234.97L90.7068 232.324C90.9016 232.21 90.9016 232.032 90.7068 231.918L85.8366 229.126C85.7276 229.074 85.6083 229.047 85.4876 229.047C85.3668 229.047 85.2476 229.074 85.1386 229.126L80.5606 231.772C80.3658 231.886 80.3658 232.064 80.5606 232.17L85.4308 234.97ZM78.7343 238.834C78.842 238.89 78.9618 238.919 79.0833 238.919C79.2048 238.919 79.3246 238.89 79.4323 238.834L84.0103 236.187C84.2051 236.074 84.2132 235.895 84.0103 235.782L79.1807 232.998C79.073 232.941 78.9532 232.912 78.8317 232.912C78.7102 232.912 78.5904 232.941 78.4827 232.998L73.8641 235.668C73.6774 235.782 73.6693 235.96 73.8641 236.066L78.7343 238.834ZM217.599 194.645C217.49 194.593 217.371 194.566 217.25 194.566C217.129 194.566 217.01 194.593 216.901 194.645L205.626 201.139C205.585 201.153 205.55 201.18 205.525 201.216C205.499 201.251 205.486 201.294 205.486 201.337C205.486 201.381 205.499 201.424 205.525 201.459C205.55 201.495 205.585 201.522 205.626 201.536L210.497 204.329C210.604 204.385 210.724 204.414 210.846 204.414C210.967 204.414 211.087 204.385 211.195 204.329L222.461 197.835C222.656 197.721 222.664 197.543 222.461 197.429L217.599 194.645ZM202.761 203.2C202.653 203.144 202.534 203.115 202.412 203.115C202.29 203.115 202.171 203.144 202.063 203.2L197.501 205.838C197.306 205.952 197.306 206.13 197.501 206.244L202.331 209.028C202.439 209.084 202.558 209.114 202.68 209.114C202.801 209.114 202.921 209.084 203.029 209.028L207.615 206.382C207.659 206.37 207.698 206.343 207.726 206.306C207.753 206.27 207.768 206.225 207.768 206.179C207.768 206.133 207.753 206.089 207.726 206.052C207.698 206.015 207.659 205.989 207.615 205.976L202.761 203.2ZM112.273 253.444L116.851 250.798C117.046 250.684 117.054 250.506 116.851 250.4L112.022 247.608C111.913 247.556 111.794 247.529 111.673 247.529C111.552 247.529 111.433 247.556 111.324 247.608L106.738 250.278C106.551 250.392 106.543 250.571 106.738 250.684L111.567 253.477C111.68 253.525 111.802 253.547 111.924 253.541C112.046 253.536 112.166 253.502 112.273 253.444ZM189.384 210.919C189.275 210.868 189.156 210.841 189.035 210.841C188.915 210.841 188.795 210.868 188.686 210.919L184.108 213.566C183.914 213.679 183.905 213.858 184.108 213.971L188.938 216.756C189.046 216.812 189.165 216.841 189.287 216.841C189.408 216.841 189.528 216.812 189.636 216.756L194.214 214.109C194.409 213.996 194.417 213.817 194.214 213.712L189.384 210.919ZM224.287 190.781C224.178 190.729 224.059 190.702 223.938 190.702C223.817 190.702 223.698 190.729 223.589 190.781L218.971 193.46C218.93 193.475 218.894 193.501 218.869 193.537C218.844 193.573 218.83 193.615 218.83 193.659C218.83 193.702 218.844 193.745 218.869 193.781C218.894 193.816 218.93 193.843 218.971 193.858L223.841 196.65C223.95 196.702 224.069 196.729 224.19 196.729C224.311 196.729 224.43 196.702 224.539 196.65L229.117 194.012C229.312 193.898 229.312 193.72 229.117 193.606L224.287 190.781ZM235.813 189.71L224.036 182.908C223.927 182.856 223.807 182.829 223.687 182.829C223.566 182.829 223.447 182.856 223.337 182.908L218.76 185.546C218.565 185.66 218.565 185.838 218.76 185.952L230.497 192.729C230.606 192.781 230.725 192.808 230.846 192.808C230.966 192.808 231.086 192.781 231.195 192.729L235.773 190.091C235.959 190.002 235.967 189.824 235.773 189.71H235.813ZM164.384 225.359C164.276 225.303 164.157 225.274 164.035 225.274C163.914 225.274 163.794 225.303 163.686 225.359L158.045 228.606C157.85 228.72 157.85 228.898 158.045 229.012L162.915 231.804C163.024 231.856 163.143 231.883 163.264 231.883C163.385 231.883 163.504 231.856 163.613 231.804L169.246 228.558C169.441 228.444 169.449 228.265 169.246 228.16L164.384 225.359ZM181.292 215.619C181.183 215.567 181.064 215.54 180.943 215.54C180.822 215.54 180.703 215.567 180.594 215.619L173.548 219.678C173.353 219.791 173.345 219.97 173.548 220.075L178.418 222.868C178.527 222.92 178.647 222.946 178.767 222.946C178.888 222.946 179.007 222.92 179.116 222.868L186.162 218.809C186.357 218.704 186.365 218.517 186.162 218.411L181.292 215.619ZM148.881 234.329C148.772 234.277 148.653 234.25 148.532 234.25C148.411 234.25 148.292 234.277 148.183 234.329L110.496 256.09C110.301 256.204 110.293 256.382 110.496 256.488L115.325 259.28C115.433 259.336 115.553 259.366 115.674 259.366C115.796 259.366 115.916 259.336 116.023 259.28L153.67 237.502C153.714 237.49 153.753 237.463 153.78 237.427C153.808 237.39 153.823 237.345 153.823 237.3C153.823 237.254 153.808 237.209 153.78 237.172C153.753 237.136 153.714 237.109 153.67 237.097L148.881 234.329ZM109.108 257.316C109 257.26 108.88 257.23 108.759 257.23C108.637 257.23 108.518 257.26 108.41 257.316L102.777 260.563C102.582 260.676 102.574 260.855 102.777 260.968L107.647 263.753C107.755 263.809 107.874 263.838 107.996 263.838C108.117 263.838 108.237 263.809 108.345 263.753L114.027 260.506C114.071 260.493 114.11 260.467 114.137 260.43C114.165 260.393 114.18 260.349 114.18 260.303C114.18 260.257 114.165 260.212 114.137 260.176C114.11 260.139 114.071 260.113 114.027 260.1L109.108 257.316ZM156.665 229.856C156.557 229.8 156.437 229.771 156.316 229.771C156.194 229.771 156.075 229.8 155.967 229.856L150.334 233.103C150.139 233.217 150.131 233.395 150.334 233.509L155.204 236.301C155.313 236.353 155.432 236.38 155.553 236.38C155.674 236.38 155.793 236.353 155.902 236.301L161.535 233.054C161.73 232.949 161.738 232.762 161.535 232.657L156.665 229.856ZM101.356 261.788C101.247 261.736 101.128 261.709 101.007 261.709C100.886 261.709 100.767 261.736 100.658 261.788L95.025 265.035C94.8302 265.149 94.8302 265.327 95.025 265.441L99.8951 268.233C100.002 268.287 100.12 268.316 100.24 268.316C100.36 268.316 100.478 268.287 100.585 268.233L106.226 264.986C106.421 264.873 106.421 264.694 106.226 264.589L101.356 261.788ZM172.16 220.911C172.052 220.855 171.933 220.826 171.811 220.826C171.69 220.826 171.57 220.855 171.462 220.911L165.829 224.158C165.634 224.272 165.634 224.45 165.829 224.564L170.699 227.348C170.807 227.404 170.927 227.434 171.048 227.434C171.17 227.434 171.289 227.404 171.397 227.348L177.03 224.101C177.225 223.988 177.225 223.809 177.03 223.696L172.16 220.911ZM196.113 207.113C196.006 207.056 195.886 207.027 195.764 207.027C195.643 207.027 195.523 207.056 195.415 207.113L190.789 209.694C190.594 209.807 190.594 209.986 190.789 210.1L195.659 212.884C195.767 212.94 195.886 212.969 196.008 212.969C196.129 212.969 196.249 212.94 196.357 212.884L200.935 210.238C201.13 210.124 201.13 209.945 200.935 209.84L196.113 207.113ZM210.943 196.561L215.529 193.923C215.724 193.809 215.724 193.63 215.529 193.517L210.659 190.725C210.55 190.673 210.431 190.646 210.31 190.646C210.189 190.646 210.07 190.673 209.961 190.725L205.383 193.363C205.188 193.476 205.188 193.663 205.383 193.768L210.253 196.561C210.358 196.597 210.47 196.61 210.581 196.599C210.692 196.588 210.799 196.553 210.894 196.496L210.943 196.561ZM182.347 197.129L186.925 194.491C187.12 194.377 187.12 194.199 186.925 194.085L182.055 191.293C181.946 191.241 181.827 191.214 181.706 191.214C181.585 191.214 181.466 191.241 181.357 191.293L176.779 193.939C176.584 194.052 176.584 194.231 176.779 194.337L181.649 197.129C181.755 197.167 181.869 197.181 181.981 197.17C182.093 197.159 182.202 197.123 182.298 197.064L182.347 197.129ZM165.845 222.535L179.23 214.799C179.271 214.785 179.307 214.758 179.332 214.722C179.357 214.687 179.37 214.644 179.37 214.601C179.37 214.557 179.357 214.514 179.332 214.479C179.307 214.443 179.271 214.416 179.23 214.402L174.36 211.609C174.252 211.553 174.132 211.524 174.011 211.524C173.889 211.524 173.77 211.553 173.662 211.609L160.277 219.337C160.236 219.351 160.2 219.378 160.175 219.414C160.15 219.449 160.137 219.492 160.137 219.536C160.137 219.579 160.15 219.622 160.175 219.657C160.2 219.693 160.236 219.72 160.277 219.734L165.147 222.527C165.256 222.58 165.375 222.608 165.495 222.61C165.616 222.611 165.736 222.585 165.845 222.535ZM203.54 200.367C203.649 200.419 203.769 200.446 203.889 200.446C204.01 200.446 204.129 200.419 204.238 200.367L208.816 197.729C209.011 197.616 209.011 197.437 208.816 197.324L203.946 194.531C203.837 194.479 203.718 194.453 203.597 194.453C203.476 194.453 203.357 194.479 203.248 194.531L198.662 197.177C198.621 197.192 198.585 197.219 198.56 197.255C198.535 197.29 198.522 197.333 198.522 197.376C198.522 197.42 198.535 197.462 198.56 197.498C198.585 197.534 198.621 197.561 198.662 197.575L203.54 200.367ZM197.331 196.374L201.917 193.736C202.104 193.622 202.112 193.444 201.917 193.33L197.087 190.538C196.978 190.486 196.859 190.459 196.738 190.459C196.618 190.459 196.498 190.486 196.389 190.538L191.819 193.184C191.625 193.298 191.617 193.476 191.819 193.59L196.649 196.382C196.752 196.425 196.863 196.447 196.975 196.446C197.086 196.444 197.197 196.42 197.298 196.374H197.331ZM159.181 226.407L163.759 223.76C163.954 223.647 163.954 223.468 163.759 223.355L158.889 220.562C158.78 220.51 158.661 220.484 158.54 220.484C158.419 220.484 158.3 220.51 158.191 220.562L153.605 223.209C153.41 223.322 153.41 223.501 153.605 223.606L158.434 226.398C158.541 226.448 158.658 226.474 158.775 226.474C158.893 226.474 159.009 226.448 159.116 226.398L159.181 226.407ZM188.711 208.882C188.818 208.938 188.938 208.968 189.06 208.968C189.181 208.968 189.301 208.938 189.409 208.882L193.987 206.236C194.181 206.122 194.19 205.944 193.987 205.83L189.157 203.046C189.049 202.99 188.93 202.961 188.808 202.961C188.687 202.961 188.567 202.99 188.459 203.046L183.881 205.692C183.686 205.806 183.678 205.984 183.881 206.098L188.711 208.882ZM125.65 245.692L130.228 243.046C130.423 242.933 130.431 242.754 130.228 242.649L125.399 239.856C125.291 239.8 125.171 239.771 125.05 239.771C124.928 239.771 124.808 239.8 124.7 239.856L120.123 242.502C119.928 242.616 119.92 242.795 120.123 242.908L124.993 245.692C125.093 245.746 125.205 245.776 125.319 245.78C125.433 245.784 125.546 245.763 125.65 245.717V245.692ZM132.347 241.829L136.925 239.183C137.119 239.069 137.119 238.89 136.925 238.785L132.054 235.993C131.947 235.936 131.827 235.907 131.705 235.907C131.584 235.907 131.464 235.936 131.356 235.993L126.778 238.639C126.584 238.752 126.584 238.931 126.778 239.045L131.649 241.829C131.754 241.889 131.873 241.922 131.995 241.927C132.116 241.931 132.237 241.906 132.347 241.853V241.829ZM118.962 249.556L123.54 246.91C123.735 246.796 123.735 246.618 123.54 246.512L118.67 243.72C118.561 243.668 118.441 243.641 118.321 243.641C118.2 243.641 118.081 243.668 117.972 243.72L113.394 246.366C113.199 246.48 113.199 246.658 113.394 246.772L118.264 249.564C118.372 249.619 118.49 249.648 118.611 249.651C118.732 249.654 118.852 249.63 118.962 249.58V249.556ZM145.748 234.134L150.326 231.488C150.52 231.374 150.52 231.196 150.326 231.082L145.456 228.298C145.349 228.242 145.231 228.212 145.111 228.212C144.99 228.212 144.872 228.242 144.766 228.298L140.179 230.944C139.985 231.058 139.985 231.236 140.179 231.342L145.05 234.134C145.156 234.186 145.273 234.213 145.392 234.211C145.51 234.21 145.626 234.181 145.731 234.126L145.748 234.134ZM139.059 237.989L143.637 235.343C143.832 235.23 143.84 235.051 143.637 234.937L138.767 232.153C138.659 232.097 138.54 232.068 138.418 232.068C138.297 232.068 138.177 232.097 138.069 232.153L133.491 234.799C133.296 234.913 133.288 235.092 133.491 235.205L138.361 237.989C138.469 238.046 138.589 238.075 138.71 238.075C138.832 238.075 138.952 238.046 139.059 237.989ZM152.444 230.262L157.03 227.616C157.074 227.603 157.113 227.577 157.141 227.54C157.168 227.504 157.183 227.459 157.183 227.413C157.183 227.367 157.168 227.323 157.141 227.286C157.113 227.249 157.074 227.223 157.03 227.21L152.16 224.426C152.052 224.37 151.933 224.341 151.811 224.341C151.69 224.341 151.57 224.37 151.462 224.426L146.884 227.072C146.689 227.186 146.689 227.364 146.884 227.47L151.714 230.262C151.822 230.32 151.944 230.35 152.067 230.35C152.19 230.35 152.311 230.32 152.42 230.262H152.444ZM186.024 174.791C186.132 174.847 186.251 174.877 186.373 174.877C186.495 174.877 186.614 174.847 186.722 174.791L191.308 172.145C191.503 172.031 191.503 171.853 191.308 171.747L190.026 171C189.917 170.948 189.797 170.922 189.677 170.922C189.556 170.922 189.437 170.948 189.328 171L184.75 173.647C184.555 173.76 184.555 173.939 184.75 174.052L186.024 174.791ZM152.931 195.976C153.038 196.03 153.156 196.059 153.276 196.059C153.396 196.059 153.514 196.03 153.621 195.976L158.207 193.33C158.402 193.216 158.402 193.038 158.207 192.924L153.337 190.132C153.228 190.08 153.109 190.053 152.988 190.053C152.867 190.053 152.748 190.08 152.639 190.132L148.061 192.778C148.02 192.793 147.984 192.82 147.959 192.855C147.934 192.891 147.921 192.933 147.921 192.977C147.921 193.021 147.934 193.063 147.959 193.099C147.984 193.134 148.02 193.161 148.061 193.176L152.931 195.976ZM166.316 188.249C166.425 188.301 166.544 188.328 166.665 188.328C166.786 188.328 166.905 188.301 167.014 188.249L171.592 185.611C171.787 185.497 171.787 185.319 171.592 185.205L166.722 182.413C166.613 182.361 166.494 182.334 166.373 182.334C166.252 182.334 166.133 182.361 166.024 182.413L161.446 185.059C161.405 185.074 161.369 185.1 161.344 185.136C161.319 185.172 161.305 185.214 161.305 185.258C161.305 185.301 161.319 185.344 161.344 185.379C161.369 185.415 161.405 185.442 161.446 185.457L166.316 188.249ZM144.741 200.692C144.849 200.748 144.969 200.778 145.09 200.778C145.212 200.778 145.332 200.748 145.439 200.692L150.017 198.046C150.212 197.932 150.212 197.754 150.017 197.64L145.147 194.856C145.039 194.8 144.92 194.771 144.798 194.771C144.676 194.771 144.557 194.8 144.449 194.856L139.928 197.518C139.733 197.632 139.733 197.811 139.928 197.924L144.741 200.692ZM159.603 192.113C159.711 192.169 159.831 192.198 159.952 192.198C160.074 192.198 160.194 192.169 160.301 192.113L164.879 189.475C165.074 189.361 165.082 189.182 164.879 189.069L160.009 186.276C159.9 186.225 159.781 186.198 159.66 186.198C159.539 186.198 159.42 186.225 159.311 186.276L154.733 188.923C154.538 189.028 154.53 189.215 154.733 189.32L159.603 192.113ZM131.356 208.419C131.463 208.476 131.581 208.505 131.701 208.505C131.822 208.505 131.94 208.476 132.046 208.419L136.632 205.773C136.827 205.66 136.827 205.481 136.632 205.376L131.762 202.583C131.654 202.527 131.535 202.498 131.413 202.498C131.292 202.498 131.172 202.527 131.064 202.583L126.486 205.229C126.291 205.343 126.291 205.522 126.486 205.635L131.356 208.419ZM138.045 204.556C138.152 204.612 138.272 204.641 138.394 204.641C138.515 204.641 138.635 204.612 138.743 204.556L143.321 201.91C143.516 201.796 143.524 201.617 143.321 201.512L138.491 198.72C138.383 198.664 138.264 198.634 138.142 198.634C138.021 198.634 137.901 198.664 137.793 198.72L133.215 201.366C133.02 201.479 133.012 201.658 133.215 201.772L138.045 204.556ZM172.623 182.543C172.731 182.599 172.85 182.628 172.972 182.628C173.093 182.628 173.213 182.599 173.321 182.543L177.907 179.897C178.094 179.783 178.102 179.604 177.907 179.499L176.625 178.752C176.516 178.7 176.396 178.673 176.276 178.673C176.155 178.673 176.036 178.7 175.926 178.752L171.349 181.39C171.154 181.504 171.146 181.682 171.349 181.796L172.623 182.543ZM192.704 170.952C192.812 171.008 192.932 171.037 193.053 171.037C193.175 171.037 193.294 171.008 193.402 170.952L197.98 168.306C198.175 168.192 198.183 168.013 197.98 167.9L196.69 167.161C196.581 167.109 196.461 167.082 196.341 167.082C196.22 167.082 196.101 167.109 195.992 167.161L191.405 169.807C191.361 169.82 191.323 169.846 191.295 169.883C191.267 169.92 191.252 169.964 191.252 170.01C191.252 170.056 191.267 170.101 191.295 170.137C191.323 170.174 191.361 170.2 191.405 170.213L192.704 170.952ZM202.858 176.812C202.966 176.868 203.086 176.898 203.207 176.898C203.329 176.898 203.449 176.868 203.557 176.812L208.134 174.166C208.329 174.052 208.329 173.874 208.134 173.768L203.264 170.976C203.158 170.92 203.04 170.891 202.919 170.891C202.799 170.891 202.681 170.92 202.574 170.976L197.988 173.622C197.794 173.736 197.794 173.914 197.988 174.028L202.858 176.812ZM217.591 192.648L222.169 190.01C222.363 189.897 222.372 189.718 222.169 189.604L217.339 186.812C217.23 186.76 217.111 186.733 216.99 186.733C216.869 186.733 216.75 186.76 216.641 186.812L212.112 189.442C211.917 189.556 211.909 189.734 212.112 189.848L216.941 192.64C217.043 192.686 217.153 192.711 217.265 192.712C217.377 192.713 217.488 192.692 217.591 192.648ZM179.336 178.695C179.443 178.751 179.563 178.781 179.685 178.781C179.806 178.781 179.926 178.751 180.034 178.695L184.612 176.049C184.806 175.935 184.806 175.757 184.612 175.651L183.321 174.905C183.213 174.848 183.094 174.819 182.972 174.819C182.85 174.819 182.731 174.848 182.623 174.905L178.021 177.535C177.826 177.648 177.826 177.827 178.021 177.94L179.336 178.695ZM124.676 212.299C124.784 212.356 124.904 212.385 125.025 212.385C125.147 212.385 125.266 212.356 125.374 212.299L129.952 209.653C130.147 209.54 130.147 209.361 129.952 209.255L125.131 206.447C125.022 206.395 124.902 206.368 124.782 206.368C124.661 206.368 124.542 206.395 124.433 206.447L119.847 209.093C119.66 209.207 119.652 209.385 119.847 209.499L124.676 212.299Z" fill="#455A64"/>
<path d="M149.189 251.634L190.439 227.819C191.136 227.467 191.907 227.283 192.688 227.283C193.469 227.283 194.239 227.467 194.936 227.819L218.605 241.472C219.847 242.194 219.847 243.355 218.605 244.077L177.363 267.884C176.665 268.24 175.894 268.426 175.11 268.426C174.327 268.426 173.555 268.24 172.858 267.884L149.205 254.231C147.988 253.525 147.988 252.348 149.189 251.634Z" fill="#263238"/>
<path d="M142.209 71.089C129.319 82.6719 118.182 82.0631 111.218 76.6978C104.262 90.107 93.1255 103.565 80.2358 106.868L72.8737 126.755C72.8737 126.755 76.8186 131.3 76.8186 142.177C76.7796 146.735 76.166 151.271 74.9923 155.676C73.653 161.041 71.924 166.593 71.924 175.87C71.924 182.153 72.7357 188.265 75.9338 193.825C77.8638 197.19 80.6432 199.988 83.9939 201.942L72.8007 195.449C69.2709 193.496 66.3388 190.62 64.3185 187.129C61.1366 181.56 60.325 175.457 60.325 169.166C60.325 159.896 62.0539 154.336 63.3932 148.963C64.5604 144.56 65.1659 140.027 65.1951 135.473C65.1951 124.596 61.2503 120.05 61.2503 120.05L68.6042 100.164C81.4939 96.8602 92.6304 83.4024 99.5866 69.9932C106.551 75.3585 117.687 75.9673 130.577 64.3844L142.209 71.089Z" fill="#2F6F91"/>
<path opacity="0.8" d="M103.686 72.3552L99.6272 69.9932C100.87 70.9557 102.235 71.7499 103.686 72.3552Z" fill="#F1F2F4"/>
<path opacity="0.85" d="M130.593 64.4006C119.985 73.9299 110.569 75.2043 103.686 72.3715L111.218 76.714C118.183 82.0793 129.319 82.6881 142.209 71.1052L130.593 64.4006Z" fill="#F1F2F4"/>
<path opacity="0.65" d="M99.6028 69.9932C92.6466 83.4023 81.5102 96.8602 68.6205 100.164L80.2358 106.868C93.1255 103.565 104.262 90.1069 111.218 76.6977L99.6028 69.9932Z" fill="#F1F2F4"/>
<path opacity="0.55" d="M68.6205 100.164L61.2666 120.05L72.8738 126.755L80.2359 106.868L68.6205 100.164Z" fill="#F1F2F4"/>
<path opacity="0.4" d="M75.9339 193.825C72.7521 188.265 71.9242 182.153 71.9242 175.87C71.9242 166.593 73.6531 161.041 74.9924 155.676C76.1662 151.271 76.7798 146.735 76.8187 142.177C76.8187 131.3 72.8739 126.755 72.8739 126.755L61.2666 120.05C61.2666 120.05 65.2115 124.596 65.2115 135.472C65.1716 140.029 64.5553 144.561 63.377 148.963C62.0377 154.336 60.3088 159.896 60.3088 169.166C60.3088 175.456 61.1205 181.56 64.3186 187.121C66.3389 190.612 69.271 193.488 72.8008 195.44L83.9941 201.934C80.6443 199.983 77.8651 197.187 75.9339 193.825Z" fill="#F1F2F4"/>
<path opacity="0.05" d="M75.9339 193.825C72.7521 188.265 71.9242 182.153 71.9242 175.87C71.9242 166.593 73.6531 161.041 74.9924 155.676C76.1662 151.271 76.7798 146.735 76.8187 142.177C76.8187 131.3 72.8739 126.755 72.8739 126.755L61.2666 120.05C61.2666 120.05 65.2115 124.596 65.2115 135.472C65.1716 140.029 64.5553 144.561 63.377 148.963C62.0377 154.336 60.3088 159.896 60.3088 169.166C60.3088 175.456 61.1205 181.56 64.3186 187.121C66.3389 190.612 69.271 193.488 72.8008 195.44L83.9941 201.934C80.6443 199.983 77.8651 197.187 75.9339 193.825Z" fill="black"/>
<path d="M111.218 207.445C91.965 207.665 80.9341 202.575 75.926 193.825C72.7523 188.265 71.9243 182.153 71.9243 175.862C71.9243 166.593 73.6451 161.049 74.9925 155.676C76.1663 151.273 76.7799 146.741 76.8188 142.185C76.8188 131.309 72.874 126.763 72.874 126.763L80.2361 106.868C93.1258 103.565 104.262 90.0988 111.218 76.6978C118.183 82.0631 129.319 82.6719 142.209 71.089L149.571 82.4527C147.041 88.8131 145.701 95.584 145.618 102.428C145.55 106.295 146.171 110.143 147.452 113.792C148.792 117.607 150.521 121.17 150.521 130.44C150.499 138.145 149.143 145.788 146.511 153.029C141.495 167.607 130.48 185.424 111.218 207.445Z" fill="#2F6F91"/>
<path opacity="0.75" d="M111.218 207.445C91.965 207.665 80.9341 202.575 75.926 193.825C72.7523 188.265 71.9243 182.153 71.9243 175.862C71.9243 166.593 73.6451 161.049 74.9925 155.676C76.1663 151.273 76.7799 146.741 76.8188 142.185C76.8188 131.309 72.874 126.763 72.874 126.763L80.2361 106.868C93.1258 103.565 104.262 90.0988 111.218 76.6978C118.183 82.0631 129.319 82.6719 142.209 71.089L149.571 82.4527C147.041 88.8131 145.701 95.584 145.618 102.428C145.55 106.295 146.171 110.143 147.452 113.792C148.792 117.607 150.521 121.17 150.521 130.44C150.499 138.145 149.143 145.788 146.511 153.029C141.495 167.607 130.48 185.424 111.218 207.445Z" fill="#F1F2F4"/>
<path d="M108.937 202.445C94.0266 202.267 84.3837 198.533 80.2765 191.349C77.955 187.291 76.9242 182.518 76.9242 175.862C76.9236 170.059 77.7434 164.285 79.3593 158.711C79.5135 158.094 79.6758 157.494 79.8219 156.885C81.1051 152.089 81.7706 147.149 81.8025 142.185C81.8025 134.255 79.9031 129.068 78.3934 126.195L84.0752 110.935C97.874 106.138 107.85 92.5096 113.134 83.5728C115.98 84.7829 119.043 85.4015 122.136 85.391C128.369 85.391 134.709 83.0696 141.04 78.4835L144.003 83.0777C141.845 89.3159 140.705 95.8606 140.626 102.461C140.554 106.899 141.268 111.316 142.736 115.505C142.891 115.943 143.053 116.381 143.215 116.82C144.4 120.067 145.52 123.127 145.52 130.489C145.493 137.638 144.23 144.728 141.787 151.447C136.86 165.749 125.812 182.908 108.937 202.445Z" fill="#2F6F91"/>
<path opacity="0.4" d="M108.937 202.445C94.0266 202.267 84.3837 198.533 80.2765 191.349C77.955 187.291 76.9242 182.518 76.9242 175.862C76.9236 170.059 77.7434 164.285 79.3593 158.711C79.5135 158.094 79.6758 157.494 79.8219 156.885C81.1051 152.089 81.7706 147.149 81.8025 142.185C81.8025 134.255 79.9031 129.068 78.3934 126.195L84.0752 110.935C97.874 106.138 107.85 92.5096 113.134 83.5728C115.98 84.7829 119.043 85.4015 122.136 85.391C128.369 85.391 134.709 83.0696 141.04 78.4835L144.003 83.0777C141.845 89.3159 140.705 95.8606 140.626 102.461C140.554 106.899 141.268 111.316 142.736 115.505C142.891 115.943 143.053 116.381 143.215 116.82C144.4 120.067 145.52 123.127 145.52 130.489C145.493 137.638 144.23 144.728 141.787 151.447C136.86 165.749 125.812 182.908 108.937 202.445Z" fill="#F1F2F4"/>
<path opacity="0.15" d="M108.937 202.445C94.0266 202.267 84.3837 198.533 80.2765 191.349C77.955 187.291 76.9242 182.518 76.9242 175.862C76.9236 170.059 77.7434 164.285 79.3593 158.711C79.5135 158.094 79.6758 157.494 79.8219 156.885C81.1051 152.089 81.7706 147.149 81.8025 142.185C81.8025 134.255 79.9031 129.068 78.3934 126.195L84.0752 110.935C97.874 106.138 107.85 92.5096 113.134 83.5728C115.98 84.7829 119.043 85.4015 122.136 85.391C128.369 85.391 134.709 83.0696 141.04 78.4835L144.003 83.0777C141.845 89.3159 140.705 95.8606 140.626 102.461C140.554 106.899 141.268 111.316 142.736 115.505C142.891 115.943 143.053 116.381 143.215 116.82C144.4 120.067 145.52 123.127 145.52 130.489C145.493 137.638 144.23 144.728 141.787 151.447C136.86 165.749 125.812 182.908 108.937 202.445Z" fill="black"/>
<path opacity="0.8" d="M83.6938 195.481C88.775 199.962 97.2167 202.307 108.938 202.445L101.462 198.184C95.4308 198.266 89.4277 197.353 83.6938 195.481Z" fill="#F1F2F4"/>
<path opacity="0.15" d="M140.098 80.8293L143.995 83.0777L141.032 78.4835L139.335 79.6523L140.098 80.8293Z" fill="black"/>
<path d="M138.832 113.256C137.364 109.067 136.65 104.651 136.722 100.212C136.801 93.6121 137.941 87.0675 140.098 80.8292L139.335 79.6523C133.572 83.4591 127.809 85.391 122.127 85.391C119.035 85.4015 115.972 84.7829 113.126 83.5728C107.842 92.5014 97.8658 106.138 84.067 110.935L78.3852 126.195C79.8949 129.068 81.7943 134.255 81.7943 142.185C81.7624 147.149 81.0969 152.089 79.8138 156.885C79.6677 157.494 79.5053 158.094 79.3511 158.711C77.7352 164.285 76.9154 170.059 76.916 175.862C76.916 182.518 77.9469 187.291 80.2683 191.349C81.4907 193.44 83.1524 195.24 85.1385 196.625C90.1223 198.898 96.7619 200.089 105.057 200.197C121.924 180.651 132.972 163.5 137.899 149.198C140.343 142.48 141.606 135.389 141.632 128.24C141.632 120.878 140.504 117.818 139.319 114.571C139.149 114.133 138.986 113.695 138.832 113.256Z" fill="#455A64"/>
<path d="M84.067 110.935L78.3852 126.195C79.8949 129.068 81.7943 134.255 81.7943 142.185C81.7624 147.149 81.0969 152.089 79.8138 156.885C79.6677 157.494 79.5053 158.094 79.3511 158.711C77.7352 164.285 76.9154 170.059 76.916 175.862C76.916 182.518 77.9469 187.291 80.2683 191.349C81.4907 193.44 83.1524 195.24 85.1385 196.625C90.1223 198.898 96.7619 200.089 105.057 200.197V143.947L113.174 141.511V83.5728C110.778 87.6339 108.064 91.4989 105.057 95.1313C99.6434 101.649 92.5817 107.972 84.067 110.935Z" fill="#37474F"/>
<path d="M124.546 123.184C124.459 123.024 124.356 122.875 124.238 122.737L124.197 122.688C123.96 122.431 123.687 122.209 123.386 122.031L120.683 120.472C120.194 120.199 119.67 119.997 119.124 119.872C118.798 119.8 118.467 119.749 118.134 119.718V111.714C118.134 107.696 116.616 104.523 113.97 102.997C111.324 101.471 108.288 101.73 105.179 103.549C99.4 106.885 94.8788 115.026 94.8788 122.08V131.528L89.4892 134.636C89.3289 134.729 89.1769 134.835 89.0346 134.953L88.8885 135.067C88.668 135.243 88.4879 135.465 88.3605 135.717C88.233 135.969 88.1612 136.246 88.1499 136.528V168.939C88.1529 169.078 88.1719 169.217 88.2067 169.353C88.3766 169.898 88.7366 170.365 89.2213 170.668L89.5217 170.862L90.8447 171.625L92.2327 172.437C92.7747 172.737 93.3611 172.948 93.9697 173.062C95.6305 173.429 97.3672 173.205 98.8805 172.429L123.418 158.265C123.797 158.097 124.125 157.831 124.368 157.494C124.61 157.157 124.759 156.762 124.798 156.349V123.955C124.779 123.681 124.692 123.416 124.546 123.184ZM100.155 122.08C100.155 116.917 103.661 110.537 107.809 108.143C109.221 107.331 110.488 107.12 111.291 107.591C112.241 108.135 112.801 109.677 112.801 111.714V121.162L105.829 125.221L100.147 128.468L100.155 122.08Z" fill="#263238"/>
<path d="M127.598 125.383C127.56 124.97 127.412 124.574 127.169 124.238C126.927 123.901 126.598 123.635 126.219 123.468L123.516 121.901C122.487 121.375 121.347 121.101 120.192 121.101C119.036 121.101 117.897 121.375 116.868 121.901L92.3303 136.065C91.9504 136.235 91.6224 136.502 91.3799 136.84C91.1374 137.178 90.9892 137.575 90.9504 137.989V170.4C90.9867 170.815 91.134 171.212 91.3767 171.551C91.6195 171.889 91.9489 172.156 92.3303 172.323L95.0333 173.89C96.0641 174.41 97.2025 174.681 98.3571 174.681C99.5117 174.681 100.65 174.41 101.681 173.89L126.219 159.718C126.598 159.55 126.926 159.284 127.168 158.947C127.411 158.61 127.559 158.215 127.598 157.802V125.383Z" fill="#2F6F91"/>
<path opacity="0.4" d="M95.0331 141.512L92.3302 139.888C90.4876 138.833 90.4876 137.112 92.3302 136.049L116.868 121.885C117.897 121.359 119.036 121.085 120.192 121.085C121.347 121.085 122.486 121.359 123.515 121.885L126.218 123.451C128.053 124.507 128.053 126.227 126.218 127.283L101.721 141.512C100.685 142.038 99.5396 142.313 98.3773 142.313C97.215 142.313 96.0691 142.038 95.0331 141.512Z" fill="#F1F2F4"/>
<path opacity="0.1" d="M98.3612 142.266V174.677C97.2009 174.695 96.0553 174.415 95.0333 173.866L92.3222 172.356C91.9406 172.187 91.6117 171.919 91.3702 171.579C91.1288 171.239 90.9837 170.84 90.9504 170.424V137.989C90.9874 138.401 91.134 138.797 91.3752 139.134C91.6165 139.47 91.9434 139.737 92.3222 139.904L95.0333 141.471C96.0555 142.018 97.2019 142.292 98.3612 142.266Z" fill="black"/>
<path d="M116.218 158.297L110.358 161.682L111.267 151.081C110.569 150.708 110.123 149.799 110.123 148.492C110.123 146.154 111.535 143.443 113.288 142.437C115.041 141.43 116.454 142.494 116.454 144.872C116.418 146.253 116.023 147.601 115.309 148.784L116.218 158.297Z" fill="#455A64"/>
<path d="M116.219 158.297L110.91 155.237L110.358 161.682L116.219 158.297Z" fill="#37474F"/>
<path d="M113.288 142.437C112.012 143.298 111.061 144.561 110.585 146.025L115.309 148.752C116.023 147.569 116.418 146.221 116.454 144.84C116.454 142.494 115.041 141.422 113.288 142.437Z" fill="#37474F"/>
<path d="M120.967 126.089V113.102C120.967 109.044 119.449 105.911 116.803 104.385C114.157 102.859 111.121 103.127 108.012 104.937C102.233 108.273 97.7117 116.414 97.7117 123.468V136.495C97.7353 136.733 97.8233 136.96 97.9664 137.152C98.1094 137.344 98.302 137.493 98.5234 137.583C99.1038 137.875 99.7446 138.027 100.394 138.027C101.044 138.027 101.685 137.875 102.265 137.583C102.487 137.493 102.679 137.344 102.822 137.152C102.965 136.96 103.053 136.733 103.077 136.495V123.508C103.077 118.346 106.583 111.966 110.731 109.571C112.144 108.76 113.418 108.557 114.222 109.019C115.163 109.563 115.731 111.106 115.731 113.143V126.13C115.757 126.365 115.846 126.589 115.989 126.778C116.132 126.967 116.323 127.113 116.543 127.201C117.123 127.493 117.764 127.645 118.414 127.645C119.064 127.645 119.704 127.493 120.285 127.201C120.503 127.11 120.692 126.963 120.835 126.775C120.977 126.587 121.068 126.364 121.097 126.13L120.967 126.089Z" fill="#E0E0E0"/>
<path d="M152.509 183.078L156.08 181.016L157.493 179.296L153.921 181.357L152.509 183.078Z" fill="#2F6F91"/>
<path opacity="0.4" d="M152.509 183.078L156.08 181.016L157.493 179.296L153.921 181.357L152.509 183.078Z" fill="black"/>
<path d="M162.225 188.687L165.797 186.625L168.784 183.979L165.212 186.041L162.225 188.687Z" fill="#2F6F91"/>
<path opacity="0.4" d="M162.225 188.687L165.797 186.625L168.784 183.979L165.212 186.041L162.225 188.687Z" fill="black"/>
<path d="M192.631 195.814C193.476 196.947 193.988 198.293 194.108 199.702C193.27 198.565 192.759 197.22 192.631 195.814ZM200.935 195.919C199.733 187.737 195.342 179.685 190.099 176.617C187.582 175.164 185.228 175.115 183.394 176.203L180.034 178.143L179.839 178.257C179.689 178.338 179.545 178.43 179.409 178.533C179.121 178.721 178.85 178.933 178.597 179.166L178.483 179.271C178.378 179.377 178.272 179.499 178.175 179.612C178.077 179.726 177.923 179.904 177.818 180.051C177.575 180.37 177.356 180.707 177.16 181.057C177.063 181.236 176.957 181.422 176.868 181.617L147.493 164.661L143.921 166.714V168.995L144.23 169.166L144.514 169.336V169.815L143.921 170.156V171.479L148.24 180.611L152.509 183.046L153.921 181.325L157.688 183.581L159.847 187.283L162.233 188.655L165.212 186.008L168.873 188.127L170.107 193.2L176.243 196.747C176.555 198.04 176.942 199.314 177.404 200.562L177.542 200.96C179.587 206.317 182.834 210.911 186.47 213.03C186.913 213.284 187.374 213.503 187.85 213.687C188.103 213.787 188.36 213.874 188.621 213.947C188.846 214.01 189.073 214.061 189.303 214.101C190.022 214.235 190.76 214.235 191.478 214.101L191.779 214.028C191.921 214.004 192.06 213.963 192.193 213.906L192.509 213.785C192.624 213.742 192.735 213.69 192.842 213.63L193.142 213.476L193.297 213.387L193.37 213.346L196.738 211.406C199.449 209.832 201.211 205.854 201.211 200.229C201.214 198.779 201.108 197.33 200.894 195.895L200.935 195.919Z" fill="#2F6F91"/>
<path d="M191.544 202.713C190.139 201.901 188.995 199.466 188.995 197.315C188.995 195.164 190.139 194.068 191.544 194.88C192.948 195.692 194.1 198.127 194.1 200.286C194.1 202.445 192.956 203.525 191.544 202.713ZM197.331 197.981C196.13 189.799 191.73 181.706 186.487 178.679C184.052 177.283 181.82 177.177 179.993 178.143L179.798 178.257C179.649 178.338 179.505 178.43 179.368 178.533C179.081 178.721 178.809 178.933 178.557 179.166L178.443 179.271C178.337 179.377 178.232 179.498 178.134 179.612C178.037 179.726 177.883 179.904 177.777 180.05C177.535 180.37 177.315 180.706 177.12 181.057C177.022 181.235 176.917 181.422 176.828 181.617C176.301 182.721 175.919 183.889 175.691 185.091L143.93 166.714V168.995L144.238 169.166L144.522 169.336V169.815L143.93 170.156V171.479L148.248 180.611L152.517 183.046L153.93 181.325L157.696 183.581L159.855 187.283L162.241 188.654L165.22 186.008L168.881 188.127L170.115 193.2L176.251 196.747C176.563 198.04 176.951 199.314 177.412 200.562L177.55 200.96C179.596 206.317 182.842 210.911 186.479 213.03C186.921 213.283 187.383 213.503 187.859 213.687C188.111 213.787 188.368 213.874 188.63 213.947C188.854 214.01 189.082 214.061 189.311 214.101C190.03 214.235 190.768 214.235 191.487 214.101L191.787 214.028C191.929 214.004 192.068 213.963 192.201 213.906L192.518 213.784C192.632 213.741 192.744 213.69 192.85 213.63L193.151 213.476L193.305 213.387L193.378 213.346C195.975 211.723 197.648 207.786 197.648 202.291C197.645 200.848 197.539 199.408 197.331 197.981Z" fill="#2F6F91"/>
<path opacity="0.4" d="M194.101 200.253C194.101 202.429 192.956 203.5 191.552 202.689C190.148 201.877 188.995 199.442 188.995 197.291C188.995 195.14 190.14 194.044 191.552 194.856C191.971 195.101 192.338 195.426 192.632 195.813C192.756 197.221 193.267 198.567 194.109 199.701C194.118 199.885 194.115 200.07 194.101 200.253Z" fill="black"/>
<path opacity="0.4" d="M201.227 200.253C201.227 205.878 199.466 209.856 196.755 211.43L193.386 213.37C195.984 211.747 197.656 207.81 197.656 202.315C197.652 200.864 197.543 199.416 197.331 197.981C196.13 189.799 191.73 181.706 186.487 178.679C184.052 177.282 181.819 177.177 179.993 178.143L183.354 176.203C185.22 175.115 187.542 175.164 190.058 176.617C195.302 179.661 199.693 187.778 200.894 195.895C201.115 197.337 201.226 198.794 201.227 200.253Z" fill="#F1F2F4"/>
<path d="M197.656 202.315C197.656 207.81 195.983 211.731 193.386 213.37L196.755 211.43C199.466 209.856 201.227 205.878 201.227 200.253C201.227 200.042 201.227 199.831 201.227 199.628L197.664 201.69C197.647 201.893 197.656 202.104 197.656 202.315Z" fill="#2F6F91"/>
<path opacity="0.1" d="M197.656 202.315C197.656 207.81 195.983 211.731 193.386 213.37L196.755 211.43C199.466 209.856 201.227 205.878 201.227 200.253C201.227 200.042 201.227 199.831 201.227 199.628L197.664 201.69C197.647 201.893 197.656 202.104 197.656 202.315Z" fill="black"/>
<path opacity="0.15" d="M175.862 187.429V188.589L143.921 170.156L144.514 169.815V169.328L175.862 187.429Z" fill="black"/>
<path opacity="0.15" d="M175.862 187.916V188.589L143.921 170.156L144.514 169.815V169.807L175.862 187.916Z" fill="black"/>
<path opacity="0.15" d="M189.758 211.463C188.548 211.43 187.369 211.077 186.34 210.44C181.129 207.429 176.892 198.484 176.892 190.497C176.892 185.838 178.305 182.38 180.764 180.935C182.485 179.945 184.514 180.067 186.641 181.292C191.844 184.304 196.081 193.249 196.081 201.236C196.081 205.895 194.668 209.353 192.209 210.797C191.467 211.235 190.62 211.465 189.758 211.463ZM183.264 180.87C182.506 180.869 181.761 181.068 181.105 181.447C178.865 182.737 177.534 186.122 177.534 190.497C177.534 198.297 181.592 207.007 186.681 209.921C188.613 211.041 190.431 211.163 191.957 210.286C194.198 208.995 195.529 205.611 195.529 201.236C195.529 193.435 191.47 184.718 186.381 181.812C185.431 181.223 184.341 180.898 183.224 180.87H183.264Z" fill="black"/>
<path opacity="0.5" d="M176.868 181.617C176.341 182.721 175.959 183.889 175.732 185.091L143.93 166.714L147.501 164.661L176.868 181.617Z" fill="#F1F2F4"/>
<path d="M298.151 271.383C298.273 272.495 298.427 275.611 304.076 276.391C309.726 277.17 313.281 275.295 314.791 272.576C316.301 269.857 315.952 267.641 316.187 265.124C316.422 262.608 318.508 261.269 319.109 259.97C319.986 258.063 318.703 255.1 318.703 255.1L298.151 271.383Z" fill="#263238"/>
<path d="M256.893 262.568C256.76 263.023 256.725 263.5 256.787 263.97C256.85 264.44 257.011 264.891 257.258 265.295C258.523 266.295 259.979 267.027 261.536 267.446C263.094 267.865 264.721 267.961 266.317 267.73C269.764 267.26 273.048 265.972 275.895 263.972C278.078 262.51 280.663 261.764 283.289 261.837C286.008 261.748 287.997 261.147 288.208 260.433C288.565 259.175 288.565 258.387 287.973 258.42L256.893 262.568Z" fill="#263238"/>
<path d="M317.356 250.749C316.65 255.904 306.658 255.49 307.47 251.374L305.692 238.866L316.999 239.215L317.356 250.749Z" fill="#FFA8A7"/>
<path d="M298.525 268.85C299.028 267.917 300.481 266.585 301.122 265.749C304.509 261.437 306.553 256.223 306.999 250.757C306.999 250.457 307.056 249.873 307.364 249.686C307.673 249.499 307.973 249.759 308.298 249.905C308.856 250.142 309.447 250.295 310.051 250.36C312.048 250.587 314.263 250.108 314.759 250.173C315.254 250.238 315.27 251.431 315.237 252.73C315.952 252.283 316.187 251.391 316.82 250.871C317.169 250.587 317.324 250.579 317.315 250.116C317.315 249.816 317.315 249.54 317.315 249.24C317.835 249.093 318.265 251.058 318.687 252.559C319.174 254.305 319.783 256.269 319.101 258.038C318.659 259.003 318.114 259.917 317.478 260.766C316.399 262.241 315.697 263.957 315.432 265.766C315.351 266.577 315.432 267.389 315.302 268.152C315.116 269.479 314.552 270.725 313.679 271.742C312.806 272.76 311.659 273.505 310.375 273.891C306.926 274.962 301.755 274.792 298.72 272.389C297.664 271.553 298.021 269.759 298.525 268.85Z" fill="#37474F"/>
<path d="M285.667 249.889C282.924 252.015 279.628 253.265 276.26 251.731L275.448 230.684L286.812 232.722L285.667 249.889Z" fill="#FFA8A7"/>
<path d="M259.19 258.931C259.945 258.688 260.684 258.42 261.414 258.119C263.455 257.289 265.425 256.295 267.307 255.149C268.119 254.645 268.93 254.118 269.742 253.525C270.554 252.933 271.365 252.291 272.177 251.642C272.6 251.271 272.983 250.858 273.322 250.408C274.005 249.571 274.578 248.649 275.026 247.665C275.094 247.433 275.244 247.234 275.448 247.105C275.586 247.057 275.734 247.046 275.876 247.075C276.019 247.103 276.152 247.17 276.26 247.267C276.455 247.426 276.664 247.567 276.885 247.689L277.551 247.965C278.261 248.255 279.01 248.439 279.775 248.509C282.648 248.761 282.737 248.184 282.859 249.11C282.886 249.455 282.886 249.803 282.859 250.149C284.377 249.897 285.57 249.41 285.635 248.834L285.814 246.999C287.323 246.861 287.437 249.564 287.924 252.6C288.322 255.035 288.914 256.829 288.232 258.639C285.952 260.628 281.926 260.149 279.637 260.522C276.39 261.058 274.872 263.46 270.367 265.019C263.062 267.535 258.508 264.637 257.145 263.395C256.26 261.829 256.081 259.921 259.19 258.931Z" fill="#37474F"/>
<path d="M314.166 125.424C314.742 134.352 315.79 147.429 316.155 157.746C316.837 177.129 316.569 199.231 316.569 199.231C317.653 203.296 318.351 207.454 318.655 211.65C319.117 224.036 319.036 251.845 319.036 251.845C319.036 251.845 313.898 257.016 306.22 252.957C306.22 252.957 299.41 213.996 297.51 201.756C295.692 190.108 292.145 166.853 292.145 166.853L290.522 199.905C291.754 205.098 292.162 210.453 291.731 215.773C291.317 221.455 288.078 249.467 288.078 249.467C285.124 252.235 276.52 250.725 274.637 248.525C274.637 248.525 271.625 207.129 271.284 201.139C270.562 188.208 268.638 139.986 269.604 132.502C270.57 125.018 314.166 125.424 314.166 125.424Z" fill="#263238"/>
<path d="M292.145 166.82L289.888 151.901C289.888 151.901 283.695 150.732 279.166 147.372C279.166 147.372 280.927 151.357 287.778 154.198L290.034 168.095L290.57 199.872L292.145 166.82Z" fill="black"/>
<path d="M304.799 65.5614C305.213 67.2416 308.046 66.9819 309.312 66.6653C310.063 66.5075 310.73 66.0803 311.188 65.4642C311.646 64.8481 311.862 64.0857 311.796 63.3211C312.437 63.1499 313.014 62.7976 313.46 62.3065C313.76 61.9106 313.931 61.4325 313.951 60.9363C313.972 60.4402 313.84 59.9496 313.573 59.5305C314.088 59.1647 314.491 58.6646 314.74 58.0848C314.99 57.505 315.074 56.8679 314.986 56.2432C314.812 55.3388 314.316 54.5283 313.59 53.9623C312.887 53.393 312.01 53.0809 311.106 53.0776C310.814 53.0776 310.522 53.662 310.944 53.7107C311.601 53.8383 312.221 54.116 312.754 54.5224C313.308 54.9103 313.737 55.452 313.987 56.0808C314.144 56.5801 314.143 57.1152 313.986 57.6142C313.83 58.1133 313.524 58.5526 313.111 58.8731C312.963 58.6871 312.797 58.5158 312.616 58.3617C312.051 57.8567 311.311 57.5942 310.554 57.6312C310.274 57.6243 309.999 57.6969 309.759 57.8406C309.519 57.9843 309.324 58.1931 309.198 58.4429C309.004 59.076 309.661 59.6117 310.148 59.8877C310.502 60.0876 310.894 60.2098 311.298 60.2462C311.703 60.2826 312.11 60.2323 312.494 60.0987C312.558 60.0779 312.62 60.0535 312.681 60.0257C312.723 60.11 312.761 60.1968 312.794 60.2854C313.233 61.4461 312.526 62.1685 311.577 62.4932C311 61.3 309.442 60.4315 308.192 61.0565C308.033 61.1257 307.894 61.2332 307.787 61.3692C307.681 61.5053 307.609 61.6657 307.579 61.8362C307.55 62.0067 307.562 62.1818 307.617 62.3461C307.671 62.5103 307.766 62.6585 307.892 62.7773C308.411 63.2687 309.1 63.5418 309.815 63.5403C310.142 63.5643 310.471 63.5643 310.797 63.5403C310.87 64.0605 310.748 64.5891 310.457 65.0257C310.162 65.3585 309.798 65.6216 309.389 65.7957C308.981 65.9698 308.538 66.0506 308.095 66.0322C307.087 66.113 306.087 65.7954 305.31 65.1475C305.075 64.9445 304.734 65.3098 304.799 65.5614ZM312.21 59.3276C311.946 59.4027 311.668 59.4184 311.397 59.3735C311.127 59.3285 310.869 59.2242 310.643 59.0679C310.302 58.8406 309.921 58.5078 310.53 58.4672C310.857 58.471 311.179 58.5506 311.471 58.6999C311.762 58.8492 312.015 59.0641 312.21 59.3276ZM310.513 62.6961C310.17 62.7104 309.826 62.6777 309.491 62.5987C309.247 62.5419 308.184 61.9981 308.728 61.787C309.142 61.6004 309.872 62.0143 310.164 62.2741C310.299 62.3987 310.416 62.5406 310.513 62.6961Z" fill="#263238"/>
<path d="M306.771 34.1652C306.949 34.1904 307.125 34.2256 307.299 34.2707C307.175 33.7351 307.236 33.1733 307.471 32.6766C307.707 32.1799 308.104 31.7777 308.598 31.5353C309.228 31.2823 309.933 31.2848 310.562 31.5424C311.19 31.8 311.694 32.2924 311.966 32.9152L308.289 34.5954C309.484 35.0206 310.48 35.8699 311.09 36.9818C312.096 39.0597 310.765 43.4753 309.426 48.9137C308.671 52.3434 307.681 55.7172 306.463 59.0111C305.846 60.6345 304.734 60.6345 304.734 60.6345V55.2043L304.969 50.6994C304.969 50.6994 302.08 46.7464 301.763 43.5078C301.349 39.3438 302.226 37.6392 302.226 37.6392L306.771 34.1652Z" fill="#263238"/>
<path d="M286.788 29.4979C288.602 29.5011 290.375 30.0426 291.882 31.0539C293.389 32.0651 294.562 33.5006 295.253 35.1788C295.944 36.8569 296.121 38.7023 295.763 40.4813C295.404 42.2604 294.526 43.8931 293.24 45.1729C291.953 46.4527 290.316 47.3221 288.535 47.671C286.754 48.0199 284.909 47.8327 283.235 47.133C281.561 46.4334 280.131 45.2527 279.128 43.7404C278.125 42.2282 277.593 40.4523 277.599 38.6376C277.602 37.4341 277.843 36.2431 278.306 35.1325C278.77 34.0219 279.447 33.0134 280.3 32.1647C281.154 31.316 282.166 30.6437 283.279 30.1861C284.392 29.7286 285.584 29.4947 286.788 29.4979Z" fill="#263238"/>
<path d="M304.799 49.9851C305.887 50.9267 306.771 48.4916 307.689 47.55C308.606 46.6085 311.577 45.3016 313.054 48.4348C314.531 51.5679 311.69 55.9592 309.458 56.99C306.211 58.5079 304.734 55.2205 304.734 55.2205V68.8164C301.301 75.0015 293.874 73.5567 290.359 74.4252C289.835 72.8442 289.835 71.1361 290.359 69.555V65.1313C288.881 65.4153 287.37 65.4945 285.87 65.3667C282.9 64.8959 281.309 62.4527 280.424 59.2384C278.995 54.076 278.695 45.399 280.684 35.3746C284.012 32.8097 295.253 33.2318 302.21 37.6149C301.723 46.5435 303.711 49.0436 304.799 49.9851Z" fill="#FFA8A7"/>
<path d="M290.367 65.1312C290.367 65.1312 296.991 63.8244 299.296 62.5988C300.675 61.9025 301.808 60.8006 302.543 59.4413C302.189 60.7967 301.565 62.0668 300.708 63.1751C299.012 65.3342 290.375 66.9007 290.375 66.9007L290.367 65.1312Z" fill="#F28F8F"/>
<path d="M276.146 44.6198C276.202 45.1436 276.414 45.6385 276.755 46.0403C276.868 46.1938 276.95 46.3673 276.998 46.5517C277.169 47.8478 277.441 49.1287 277.81 50.3829C278.109 51.2154 278.661 51.9334 279.389 52.4357C280.117 52.9381 280.984 53.1995 281.869 53.1832C282.336 53.2059 282.804 53.1759 283.265 53.0939C283.3 53.0994 283.335 53.0994 283.37 53.0939C283.774 53.0141 284.163 52.8717 284.523 52.6718H284.588L284.693 52.6069L284.807 52.5176C284.85 52.4981 284.888 52.4706 284.921 52.4365C284.969 52.4114 285.013 52.3784 285.05 52.339L285.164 52.2254L285.391 52.0063C285.776 51.5794 286.091 51.0946 286.325 50.5696C286.95 49.2465 286.828 47.3715 287.802 47.1848C287.843 47.1886 287.883 47.1886 287.924 47.1848H288.054C289.385 47.2335 289.19 49.2627 289.904 50.7319C290.3 51.6621 290.971 52.4486 291.827 52.9856C292.684 53.5226 293.684 53.7842 294.693 53.7352H295.059H295.359C295.59 53.7225 295.821 53.6954 296.049 53.654L296.268 53.6053L296.479 53.5485H296.609C296.89 53.4575 297.161 53.3407 297.421 53.1994C297.51 53.1345 297.599 53.0858 297.689 53.029C297.847 52.9079 297.999 52.7778 298.143 52.6394C298.524 52.2542 298.827 51.7996 299.036 51.3001C299.431 50.0715 299.722 48.8115 299.904 47.5338C299.946 47.3402 300.023 47.1559 300.132 46.99C300.486 46.6184 300.721 46.149 300.805 45.6426C300.827 45.3778 300.759 45.1134 300.612 44.8923C300.464 44.6713 300.247 44.5066 299.994 44.425L299.296 44.3114C297.031 43.9948 294.076 43.8163 292.299 44.2627C290.059 44.8228 289.271 45.5208 288.037 45.4802C286.804 45.4397 286.154 44.6685 284.052 43.9461C282.429 43.3617 279.62 43.3374 277.51 43.4835C277.274 43.4835 277.072 43.4835 276.852 43.5322C276.503 43.4672 276.114 44.0111 276.146 44.6198ZM290.716 46.2919C290.891 46.0819 291.11 45.9129 291.357 45.7968C291.396 45.772 291.437 45.7503 291.479 45.7319H291.536C291.644 45.6912 291.749 45.6452 291.852 45.5939C291.942 45.5939 292.047 45.5289 292.145 45.4884C292.458 45.3733 292.777 45.2784 293.102 45.2043L293.484 45.1231C293.801 45.0663 294.133 45.0176 294.458 44.9851H294.693C296.828 44.8552 298.151 45.3828 298.622 45.7968C299.093 46.2108 298.849 48.2319 298.622 49.2221C298.622 49.2221 298.622 49.279 298.622 49.2952C298.629 49.3218 298.629 49.3498 298.622 49.3764C298.599 49.5111 298.567 49.6441 298.525 49.7741C298.508 49.86 298.483 49.9442 298.452 50.0257C298.403 50.1637 298.354 50.3017 298.297 50.4478C298.284 50.4973 298.262 50.544 298.232 50.5858C298.226 50.6182 298.212 50.6488 298.192 50.6751C298.192 50.6751 298.192 50.7319 298.192 50.7644L298.127 50.8861C298.127 50.9348 298.078 50.9754 298.046 51.016C298.024 51.0666 297.994 51.1132 297.956 51.154C297.931 51.2029 297.901 51.2491 297.867 51.292C297.525 51.7592 297.068 52.1298 296.54 52.3674C296.013 52.605 295.432 52.7015 294.856 52.6475C294.265 52.6843 293.674 52.5931 293.122 52.3802C292.57 52.1672 292.07 51.8376 291.658 51.4137C291.151 50.8313 290.807 50.1258 290.659 49.3683C290.416 48.2075 290.286 46.8926 290.716 46.2919ZM278.175 45.0095C278.326 44.8642 278.506 44.7533 278.703 44.6848L278.93 44.5955H279.068H279.19H279.271H279.393C279.557 44.562 279.722 44.5376 279.888 44.5224H280.156H280.31C280.353 44.5304 280.397 44.5304 280.44 44.5224C280.554 44.5145 280.667 44.5145 280.781 44.5224H281.024C281.354 44.5397 281.681 44.5749 282.007 44.628C283.524 44.8796 285.107 45.6182 285.505 46.2513C285.903 46.8845 285.789 48.1751 285.57 49.2952C285.519 49.5457 285.451 49.7924 285.367 50.0338C285.361 50.0523 285.361 50.0722 285.367 50.0907C285.37 50.1176 285.37 50.1449 285.367 50.1718C285.367 50.1718 285.367 50.1718 285.367 50.2205C285.355 50.251 285.341 50.2808 285.326 50.3098C285.326 50.3747 285.27 50.4316 285.237 50.4884C285.213 50.5441 285.186 50.5983 285.156 50.6507V50.6994L285.091 50.8131L285.026 50.9024C284.672 51.4054 284.186 51.8012 283.622 52.0461C283.058 52.2909 282.437 52.3755 281.828 52.2903C281.262 52.2766 280.706 52.1322 280.205 51.8683C278.711 51.0566 278.362 49.3682 278.192 48.6215C277.964 47.4202 277.713 45.4234 278.175 45.0095Z" fill="#263238"/>
<path d="M299.856 44.3519L309.596 46.5354C308.717 46.7618 307.934 47.2656 307.364 47.9721L299.848 46.5435L299.856 44.3519Z" fill="#263238"/>
<path d="M278.176 48.4429C278.346 49.2545 278.695 50.9347 280.189 51.6896C280.69 51.9535 281.246 52.098 281.812 52.1117C282.421 52.1968 283.042 52.1123 283.606 51.8674C284.17 51.6225 284.656 51.2268 285.01 50.7237L285.075 50.6344L285.14 50.5208V50.4721C285.17 50.4196 285.197 50.3654 285.221 50.3097C285.221 50.2529 285.278 50.1961 285.31 50.1312C285.325 50.1021 285.339 50.0723 285.351 50.0419C285.351 50.0419 285.351 50.0419 285.351 49.9932C285.354 49.9662 285.354 49.939 285.351 49.912C285.345 49.8936 285.345 49.8736 285.351 49.8552C285.435 49.6138 285.503 49.367 285.554 49.1166C285.773 47.9964 285.895 46.6815 285.489 46.0727C285.083 45.4639 283.508 44.6928 281.991 44.4493C281.665 44.3962 281.337 44.361 281.008 44.3438H280.765C280.651 44.3358 280.537 44.3358 280.424 44.3438C280.381 44.3517 280.337 44.3517 280.294 44.3438H280.14H279.872C279.706 44.359 279.54 44.3834 279.377 44.4169H279.255H279.174H279.052H278.914L278.687 44.5061C278.49 44.5747 278.31 44.6855 278.159 44.8308C277.713 45.4234 277.965 47.4201 278.176 48.4429Z" fill="#37474F"/>
<path d="M290.659 49.3357C290.801 50.1048 291.146 50.8221 291.658 51.4137C292.06 51.8349 292.548 52.1656 293.088 52.384C293.628 52.6023 294.209 52.7032 294.791 52.6799C295.367 52.7339 295.948 52.6374 296.475 52.3998C297.003 52.1622 297.46 51.7916 297.802 51.3244C297.837 51.2815 297.866 51.2353 297.891 51.1864C297.929 51.1456 297.959 51.099 297.981 51.0484C297.981 51.0078 298.029 50.9672 298.062 50.9185L298.127 50.7968C298.127 50.7968 298.127 50.74 298.127 50.7075C298.147 50.6812 298.161 50.6507 298.167 50.6182C298.197 50.5764 298.219 50.5297 298.232 50.4802C298.289 50.3341 298.338 50.1961 298.387 50.0581C298.418 49.9766 298.443 49.8924 298.46 49.8065C298.502 49.6765 298.534 49.5435 298.557 49.4088C298.564 49.3822 298.564 49.3542 298.557 49.3276C298.557 49.3276 298.557 49.2789 298.557 49.2546C298.776 48.2643 299.044 46.2838 298.557 45.8292C298.07 45.3747 296.763 44.8471 294.628 45.0175H294.393C294.068 45.0175 293.736 45.0987 293.419 45.1555L293.038 45.2367C292.713 45.3108 292.393 45.4057 292.08 45.5208C291.982 45.5208 291.877 45.5857 291.788 45.6263C291.684 45.6776 291.579 45.7237 291.471 45.7643H291.414C291.372 45.7827 291.331 45.8044 291.292 45.8292C291.045 45.9453 290.826 46.1144 290.651 46.3244C290.286 46.8925 290.416 48.2075 290.659 49.3357Z" fill="#37474F"/>
<path d="M278.435 28.2885C278.435 28.183 278.435 28.0694 278.476 27.9557C278.489 27.746 278.566 27.5452 278.695 27.3794C279.141 26.9168 280.034 28.0856 280.318 28.3535C280.622 28.6182 280.939 28.8674 281.268 29.1002C281.578 29.2544 281.876 29.4308 282.161 29.6278C281.962 28.5247 281.962 27.3949 282.161 26.2918C282.299 25.5612 282.502 23.8567 283.411 23.6862C283.947 23.5726 284.417 24.0271 284.815 24.4005C288.443 27.7934 293.184 26.2268 297.551 26.3648C301.211 26.4784 305.619 27.9882 307.291 31.5272C308.046 33.1506 308.176 34.8632 306.682 35.9834C305.724 36.7139 304.783 36.6814 304.247 37.8421C304.117 38.1262 303.281 41.5841 303.776 41.5516C302.88 41.643 301.98 41.4134 301.237 40.9036C300.494 40.3938 299.955 39.6368 299.718 38.7675C299.629 38.386 299.426 37.696 299.344 37.3064C299.325 37.1922 299.28 37.0836 299.215 36.988C299.149 36.8923 299.064 36.8117 298.965 36.7517C298.866 36.6918 298.755 36.6537 298.64 36.6402C298.525 36.6267 298.408 36.638 298.297 36.6733C297.185 36.9168 296.463 37.3714 295.416 37.6555C292.426 38.5154 289.282 38.7011 286.211 38.1993C284.013 37.782 281.995 36.6997 280.432 35.0986C279.639 34.1681 279.05 33.0804 278.706 31.9068C278.362 30.7333 278.27 29.5003 278.435 28.2885Z" fill="#263238"/>
<path d="M292.697 42.5581L295.944 43.0532C296 42.6187 295.886 42.1792 295.626 41.8266C295.366 41.4741 294.979 41.2359 294.547 41.162C294.334 41.13 294.116 41.1409 293.907 41.194C293.698 41.2471 293.501 41.3414 293.329 41.4714C293.157 41.6015 293.012 41.7645 292.903 41.9511C292.795 42.1377 292.725 42.3441 292.697 42.5581Z" fill="#263238"/>
<path d="M291.95 57.477L289.247 58.1832C289.285 58.3633 289.359 58.5338 289.465 58.6847C289.57 58.8356 289.705 58.9637 289.861 59.0614C290.017 59.1591 290.191 59.2244 290.373 59.2534C290.555 59.2824 290.74 59.2745 290.919 59.2302C291.284 59.1274 291.595 58.8876 291.787 58.5608C291.979 58.2341 292.038 57.8458 291.95 57.477Z" fill="#F28F8F"/>
<path d="M280.538 42.7448L283.784 42.3877C283.771 42.1747 283.715 41.9667 283.619 41.7761C283.524 41.5855 283.39 41.4164 283.227 41.279C283.064 41.1416 282.874 41.0388 282.67 40.9768C282.466 40.9149 282.251 40.895 282.039 40.9185C281.603 40.9735 281.204 41.1933 280.925 41.5329C280.646 41.8726 280.507 42.3062 280.538 42.7448Z" fill="#263238"/>
<path d="M288.411 47.2091L287.973 54.7822L283.752 53.6783L287.965 47.1199C288.118 47.1148 288.271 47.1454 288.411 47.2091Z" fill="#F28F8F"/>
<path d="M306.544 52.4689C306.542 52.8609 306.657 53.2447 306.874 53.5714C307.09 53.8982 307.399 54.1533 307.761 54.3044C308.123 54.4556 308.521 54.496 308.906 54.4205C309.291 54.345 309.644 54.157 309.922 53.8803C310.2 53.6037 310.389 53.2508 310.466 52.8664C310.543 52.482 310.505 52.0833 310.355 51.721C310.205 51.3586 309.952 51.0488 309.626 50.8308C309.3 50.6128 308.917 50.4965 308.524 50.4965C308.265 50.4954 308.007 50.5456 307.767 50.6443C307.527 50.7429 307.309 50.888 307.125 51.0713C306.941 51.2546 306.795 51.4724 306.695 51.7122C306.595 51.952 306.544 52.2092 306.544 52.4689Z" fill="#263238"/>
<path d="M306.333 48.8568C306.503 48.2581 306.802 47.7039 307.21 47.2334C307.416 47.0359 307.664 46.8857 307.934 46.7932C308.205 46.7007 308.492 46.6681 308.776 46.6977C308.776 46.6977 308.833 46.7626 308.776 46.7789C308.557 46.9088 308.403 46.9818 308.184 47.136C307.965 47.2838 307.764 47.4553 307.583 47.6474C307.424 47.8316 307.295 48.0398 307.202 48.2643C307.085 48.5217 307.008 48.7954 306.974 49.076C306.921 49.5178 306.985 49.9658 307.161 50.3747C307.252 50.6014 307.378 50.8123 307.534 50.9997C307.703 51.1371 307.851 51.2984 307.973 51.4786C308.094 51.7302 307.745 52.1604 307.478 52.0143C306.97 51.6953 306.589 51.2106 306.398 50.6425C306.16 50.075 306.137 49.4402 306.333 48.8568Z" fill="#263238"/>
<path d="M278.2 75.8212C275.456 77.6232 271.666 79.9609 270.741 82.5015C269.815 85.0421 267.145 99.7743 266.853 104.523C269.285 105.669 271.891 106.404 274.564 106.698L278.2 75.8212Z" fill="#455A64"/>
<path d="M310.611 68.8C317.559 72.615 324.41 78.3131 325.887 80.5047C325.887 80.5047 321.828 94.0356 318.249 100.456C314.669 106.877 312.754 125.862 312.754 125.862C312.754 125.862 288.273 133.979 280.602 134.62C272.932 135.261 271.958 131.998 271.958 131.998C271.958 131.998 271.796 110.773 273.581 96.6087C275.367 82.4446 274.977 78.2319 278.224 75.8212C280.327 74.2709 289.385 70.3423 289.385 70.3423V74.4007C294.336 74.4981 310.611 68.8 310.611 68.8Z" fill="#37474F"/>
<path d="M287.478 76.5761C287.028 75.6603 286.848 74.6357 286.958 73.6216L289.004 72.1362V74.7092L287.478 76.5761Z" fill="#2F6F91"/>
<path opacity="0.25" d="M287.478 76.5761C287.028 75.6603 286.848 74.6357 286.958 73.6216L289.004 72.1362V74.7092L287.478 76.5761Z" fill="black"/>
<path d="M291.455 75.0096L296.747 71.9901L300.724 75.1394L292.689 78.4755L291.455 75.0096Z" fill="#2F6F91"/>
<path opacity="0.25" d="M291.455 75.0096L296.747 71.9901L300.724 75.1394L292.689 78.4755L291.455 75.0096Z" fill="black"/>
<path d="M304.734 63.0533V64.1248C304.531 65.1394 302.534 67.4933 297.494 69.7498C292.453 72.0063 290.359 74.4171 290.359 74.4171C291.72 74.4535 293.068 74.7027 294.352 75.1557C296.65 75.9674 300.464 78.8895 301.552 78.857C302.64 78.8245 304.141 75.8213 306.991 72.8261C309.426 70.3099 310.611 68.7677 310.611 68.7677C310.611 68.7677 306.698 63.0777 304.734 63.0533Z" fill="#455A64"/>
<path d="M290.359 74.417C288.533 74.6199 286.82 75.8862 286.374 75.2287C285.927 74.5712 287.478 68.4592 290.343 66.6004L290.359 74.417Z" fill="#455A64"/>
<path d="M272.664 106.446C272.664 106.446 272.445 110.237 272.388 111.536C272.331 112.835 274.498 135.075 274.498 135.075L266.852 138.322C266.852 138.322 265.927 129.75 265.627 124.977C265.379 120.062 265.599 115.135 266.284 110.261C266.885 106.203 267.096 104.645 267.096 104.645C268.885 105.435 270.751 106.039 272.664 106.446Z" fill="#F28F8F"/>
<path d="M267.469 149.19C267.469 149.19 267.469 149.531 267.469 150.814C267.661 152.96 268.091 155.078 268.752 157.129C269.231 158.33 270.375 160.968 270.976 161.276C271.543 161.593 272.201 161.71 272.843 161.609C274.052 161.496 275.318 162.121 276.463 161.569C276.906 161.327 277.374 161.134 277.859 160.992C278.565 160.822 279.377 161.033 280.01 160.66C280.416 160.424 280.668 159.986 281.065 159.742C281.65 159.385 282.421 159.515 283.046 159.231C283.292 159.105 283.51 158.931 283.687 158.719C283.864 158.507 283.997 158.262 284.077 157.997C284.434 156.926 284.077 155.716 283.866 154.645C284.241 154.118 284.432 153.481 284.409 152.835C284.433 151.448 284.272 150.064 283.931 148.72C283.663 147.908 278.111 144.75 278.111 144.75L277.015 144.028C274.686 143.509 272.246 143.901 270.197 145.124C266.942 147.194 267.469 149.19 267.469 149.19Z" fill="#FFA8A7"/>
<path d="M268.971 149.036C267.502 151.471 268.362 155.862 268.37 155.911C267.91 154.25 267.609 152.548 267.469 150.83C267.469 149.531 267.469 149.206 267.469 149.206C267.469 149.206 266.942 147.177 270.156 145.148C272.205 143.925 274.645 143.533 276.974 144.052C276.974 144.052 270.44 146.577 268.971 149.036Z" fill="#F28F8F"/>
<path d="M283.825 154.62C283.307 153.037 282.507 151.56 281.463 150.262C280.846 149.693 280.327 148.971 280.943 149.215C281.56 149.458 282.421 149.596 282.762 149.166C283.103 148.736 283.176 149.482 282.762 150.067C282.348 150.651 282.697 151.098 283.143 152.056C283.486 152.876 283.715 153.738 283.825 154.62Z" fill="#F28F8F"/>
<path d="M323.768 80.7726C326.082 81.5843 326.39 87.9155 325.887 93.5973C325.384 99.2792 320.952 112.713 318.931 117.388C316.666 122.64 315.294 125.667 313.785 127.315C312.275 128.963 309.117 130.318 305.075 132.413C301.422 134.304 298.922 135.262 292.689 137.193C285.659 139.377 282.948 139.507 281.455 140.554C279.961 141.601 279.539 143.874 278.07 144.726L276.974 144.003C274.503 144.597 272.144 145.584 269.986 146.926C269.019 147.525 268.167 148.292 267.469 149.19V150.814C267.469 150.814 265.692 151.56 264.182 148.379C262.672 145.197 261.982 140.424 263.719 138.338C265.456 136.252 270.96 133.395 275.424 131.999C279.888 130.602 282.104 129.141 287.315 125.992C292.867 122.64 296.723 120.408 299.491 118.898C300.538 118.289 301.244 117.55 301.715 115.651C302.088 114.125 303.2 109.612 303.882 106.219C304.97 100.545 307.413 83.3862 323.768 80.7726Z" fill="#FFA8A7"/>
<path d="M325.887 80.5048C325.887 80.5048 326.966 80.6915 327.112 85.1883C327.304 89.4431 327.101 93.7066 326.504 97.9237C325.911 101.373 322.445 111.56 322.445 111.56C322.445 111.56 312.486 114.807 302.291 110.935C302.291 110.935 304.685 96.2435 305.586 92.3474C306.487 88.4513 319.109 76.4301 325.887 80.5048Z" fill="#455A64"/>
<path d="M290.643 80.7969C290.075 84.4495 289.296 93.1265 289.296 105.375C289.296 108.378 284.912 114.474 283.882 114.344C282.851 114.214 280.96 108.484 280.692 105.156C281.106 97.1038 285.976 84.6119 288.102 80.3423L290.643 80.7969Z" fill="#2F6F91"/>
<path opacity="0.15" d="M287.94 80.6914C287.988 80.5721 288.042 80.4556 288.102 80.3423L290.643 80.7969L290.489 81.8683C289.533 81.7666 288.637 81.353 287.94 80.6914Z" fill="black"/>
<path d="M291.455 75.0096C290.656 74.8218 289.84 74.7238 289.02 74.7173C288.373 75.2212 287.841 75.8577 287.461 76.5842C287.389 77.8677 287.603 79.1512 288.086 80.3424C288.451 80.5986 288.867 80.7721 289.306 80.8506C289.745 80.9291 290.196 80.9108 290.627 80.7969C291.521 80.2404 292.233 79.4331 292.672 78.4755C292.734 77.2055 292.297 75.9616 291.455 75.0096Z" fill="#2F6F91"/>
</svg>
